<?xml version="1.0" encoding="utf-8"?>
<!-- Generator: Adobe Illustrator 17.1.0, SVG Export Plug-In . SVG Version: 6.00 Build 0)  -->
<!DOCTYPE svg PUBLIC "-//W3C//DTD SVG 1.1//EN" "http://www.w3.org/Graphics/SVG/1.1/DTD/svg11.dtd">
<svg version="1.1" xmlns="http://www.w3.org/2000/svg" xmlns:xlink="http://www.w3.org/1999/xlink" x="0px" y="0px"
	 viewBox="0 0 1053 554" enable-background="new 0 0 1053 554" xml:space="preserve">
<g id="Ground">
</g>
<g id="Buildings_and_Mid_Details">
	<g>
		<g enable-background="new    ">
			<g>
				<polygon fill="#976849" points="244.218,63.329 243.743,148.123 218.914,121.498 219.39,36.703 				"/>
			</g>
			<g>
				<polygon fill="#7E573D" points="219.39,36.703 218.914,121.498 63.788,193.682 64.263,108.887 				"/>
			</g>
			<g>
				<polygon fill="#969696" points="89.091,135.513 88.616,220.307 63.788,193.682 64.263,108.887 				"/>
			</g>
			<g>
				<polygon fill="#D9D9D9" points="64.263,108.887 219.39,36.703 244.218,63.329 89.091,135.513 				"/>
			</g>
			<g>
				<polygon fill="#7D7D7D" points="244.218,63.329 243.743,148.123 88.616,220.307 89.091,135.513 				"/>
			</g>
			<g>
				<polygon fill="#7E573D" points="245.603,63.532 245.127,148.326 88.334,221.286 88.81,136.491 				"/>
				<g enable-background="new    ">
					<defs>
						<polygon id="SVGID_1_" enable-background="new    " points="245.603,63.532 245.127,148.326 88.334,221.286 88.81,136.491 
													"/>
					</defs>
					<clipPath id="SVGID_2_">
						<use xlink:href="#SVGID_1_"  overflow="visible"/>
					</clipPath>
					<g clip-path="url(#SVGID_2_)">
						<g>
							<g>
								<g>
									<polyline fill="#41626D" points="41.792,362.994 290.323,247.347 290.359,240.987 41.827,356.634 41.792,362.994 									
										"/>
									<polyline fill="#41626D" points="41.883,346.746 290.414,231.098 290.45,224.739 41.919,340.386 41.883,346.746 									
										"/>
									<polyline fill="#41626D" points="41.974,330.49 290.506,214.843 290.541,208.483 42.01,324.131 41.974,330.49 									"/>
									<polyline fill="#41626D" points="42.061,314.948 290.593,199.3 290.628,192.941 42.097,308.588 42.061,314.948 									
										"/>
									<polyline fill="#41626D" points="42.152,298.692 290.684,183.045 290.719,176.685 42.188,292.333 42.152,298.692 									
										"/>
									<polyline fill="#41626D" points="42.243,282.444 290.775,166.796 290.81,160.437 42.279,276.084 42.243,282.444 									
										"/>
									<polyline fill="#41626D" points="42.334,266.188 290.866,150.541 290.902,144.181 42.37,259.829 42.334,266.188 									
										"/>
									<polyline fill="#41626D" points="42.425,249.94 290.957,134.293 290.993,127.933 42.461,243.58 42.425,249.94 									"/>
									<polyline fill="#41626D" points="42.516,233.685 291.048,118.037 291.084,111.678 42.552,227.325 42.516,233.685 									
										"/>
									<polyline fill="#41626D" points="42.604,218.142 291.135,102.495 291.171,96.135 42.639,211.783 42.604,218.142 									
										"/>
									<polyline fill="#41626D" points="42.695,201.887 291.226,86.239 291.262,79.88 42.73,195.527 42.695,201.887 									"/>
									<polyline fill="#41626D" points="42.786,185.638 291.317,69.991 291.353,63.631 42.821,179.279 42.786,185.638 									
										"/>
									<polyline fill="#41626D" points="42.877,169.383 291.408,53.736 291.444,47.376 42.912,163.024 42.877,169.383 									
										"/>
									<polyline fill="#41626D" points="42.968,153.128 291.499,37.48 291.535,31.121 43.004,146.768 42.968,153.128 									"/>
									<polyline fill="#41626D" points="43.055,137.585 291.587,21.938 291.622,15.578 43.091,131.226 43.055,137.585 									
										"/>
									<polyline fill="#41626D" points="43.146,121.33 291.678,5.683 291.713,-0.677 43.182,114.97 43.146,121.33 									"/>
									<polyline fill="#41626D" points="43.237,105.082 291.769,-10.566 291.804,-16.925 43.273,98.722 43.237,105.082 									
										"/>
									<polyline fill="#41626D" points="43.328,88.826 291.86,-26.821 291.895,-33.181 43.364,82.467 43.328,88.826 									"/>
									<polyline fill="#41626D" points="43.419,72.578 291.951,-43.07 291.986,-49.429 43.455,66.218 43.419,72.578 									"/>
									<polyline fill="#41626D" points="43.51,56.322 292.042,-59.325 292.078,-65.685 43.546,49.963 43.51,56.322 									"/>
									<polyline fill="#41626D" points="43.597,40.78 292.129,-74.868 292.165,-81.227 43.633,34.42 43.597,40.78 									"/>
								</g>
							</g>
						</g>
					</g>
				</g>
			</g>
			<g>
				<polygon fill="#976849" points="88.81,136.491 88.334,221.286 62.398,193.473 62.873,108.678 				"/>
			</g>
			<g>
				<path fill="#DB976A" d="M88.81,136.491l-25.936-27.813l156.793-72.959l25.936,27.813L88.81,136.491z M219.39,36.703
					L64.263,108.887l24.829,26.625l155.127-72.184L219.39,36.703"/>
			</g>
		</g>
	</g>
	<g>
		<g enable-background="new    ">
			<g>
				<polygon fill="#BABABA" points="1023.615,86.828 1021.952,383.608 966.886,324.558 968.55,27.778 				"/>
			</g>
			<g>
				<polygon fill="#8D8D8D" points="968.55,27.778 966.886,324.558 800.598,401.936 802.261,105.156 				"/>
			</g>
			<g>
				<polygon fill="#BABABA" points="857.326,164.206 855.663,460.986 800.598,401.936 802.261,105.156 				"/>
			</g>
			<g>
				<polygon fill="#E1E1E1" points="802.261,105.156 968.55,27.778 1023.615,86.828 857.326,164.206 				"/>
			</g>
			<g>
				<polygon fill="#8D8D8D" points="1023.615,86.828 1021.951,383.608 855.663,460.986 857.326,164.206 				"/>
			</g>
			<g>
				<polygon fill="#8D8D8D" points="1024.999,87.031 1023.336,383.812 855.381,461.965 857.044,165.184 				"/>
				<g enable-background="new    ">
					<defs>
						<polygon id="SVGID_3_" enable-background="new    " points="1024.999,87.031 1023.336,383.812 855.381,461.965 
							857.044,165.184 						"/>
					</defs>
					<clipPath id="SVGID_4_">
						<use xlink:href="#SVGID_3_"  overflow="visible"/>
					</clipPath>
					<g clip-path="url(#SVGID_4_)">
						<g>
							<g>
								<g>
									<polyline fill="#42636E" points="817.685,487.031 1066.217,371.384 1066.253,365.024 817.721,480.672 817.685,487.031 
																			"/>
									<polyline fill="#42636E" points="817.776,470.783 1066.308,355.135 1066.344,348.776 817.812,464.423 817.776,470.783 
																			"/>
									<polyline fill="#42636E" points="817.868,454.527 1066.399,338.88 1066.435,332.52 817.903,448.168 817.868,454.527 
																			"/>
									<polyline fill="#42636E" points="817.955,438.985 1066.486,323.337 1066.522,316.978 817.99,432.625 817.955,438.985 
																			"/>
									<polyline fill="#42636E" points="818.046,422.729 1066.577,307.082 1066.613,300.723 818.081,416.37 818.046,422.729 
																			"/>
									<polyline fill="#42636E" points="818.137,406.481 1066.668,290.834 1066.704,284.474 818.172,400.121 818.137,406.481 
																			"/>
									<polyline fill="#42636E" points="818.228,390.226 1066.76,274.578 1066.795,268.219 818.264,383.866 818.228,390.226 
																			"/>
									<polyline fill="#42636E" points="818.319,373.977 1066.85,258.33 1066.886,251.97 818.355,367.618 818.319,373.977 
																			"/>
									<polyline fill="#42636E" points="818.41,357.722 1066.942,242.074 1066.977,235.715 818.446,351.362 818.41,357.722 
																			"/>
									<polyline fill="#42636E" points="818.497,342.179 1067.029,226.532 1067.064,220.172 818.533,335.82 818.497,342.179 
																			"/>
									<polyline fill="#42636E" points="818.588,325.924 1067.12,210.277 1067.155,203.917 818.624,319.564 818.588,325.924 
																			"/>
									<polyline fill="#42636E" points="818.679,309.675 1067.211,194.028 1067.246,187.668 818.715,303.316 818.679,309.675 
																			"/>
									<polyline fill="#42636E" points="818.77,293.42 1067.302,177.773 1067.338,171.413 818.806,287.061 818.77,293.42 
																			"/>
									<polyline fill="#42636E" points="818.861,277.165 1067.393,161.518 1067.429,155.158 818.897,270.806 818.861,277.165 
																			"/>
									<polyline fill="#42636E" points="818.949,261.623 1067.48,145.975 1067.516,139.616 818.984,255.263 818.949,261.623 
																			"/>
									<polyline fill="#42636E" points="819.04,245.367 1067.571,129.72 1067.607,123.36 819.075,239.008 819.04,245.367 
																			"/>
									<polyline fill="#42636E" points="819.131,229.119 1067.662,113.471 1067.698,107.112 819.166,222.759 819.131,229.119 
																			"/>
									<polyline fill="#42636E" points="819.222,212.863 1067.753,97.216 1067.789,90.856 819.257,206.504 819.222,212.863 
																			"/>
									<polyline fill="#42636E" points="819.313,196.615 1067.844,80.967 1067.88,74.608 819.348,190.255 819.313,196.615 
																			"/>
									<polyline fill="#42636E" points="819.404,180.36 1067.936,64.712 1067.971,58.353 819.44,174 819.404,180.36 									"/>
									<polyline fill="#42636E" points="819.491,164.817 1068.023,49.17 1068.058,42.81 819.527,158.457 819.491,164.817 
																			"/>
								</g>
							</g>
						</g>
					</g>
				</g>
			</g>
			<g>
				<polygon fill="#BABABA" points="857.044,165.184 855.381,461.965 799.214,401.733 800.877,104.952 				"/>
				<g enable-background="new    ">
					<defs>
						<polygon id="SVGID_5_" enable-background="new    " points="857.044,165.184 855.381,461.965 799.214,401.733 
							800.877,104.952 						"/>
					</defs>
					<clipPath id="SVGID_6_">
						<use xlink:href="#SVGID_5_"  overflow="visible"/>
					</clipPath>
					<g clip-path="url(#SVGID_6_)">
						<g>
							<g>
								<g>
									<polyline fill="#578392" points="745.046,351.148 909.467,527.467 909.502,521.108 745.082,344.788 745.046,351.148 
																			"/>
									<polyline fill="#578392" points="745.137,334.9 909.558,511.219 909.594,504.859 745.173,328.54 745.137,334.9 									
										"/>
									<polyline fill="#578392" points="745.229,318.644 909.649,494.964 909.685,488.604 745.264,312.285 745.229,318.644 
																			"/>
									<polyline fill="#578392" points="745.316,303.102 909.736,479.421 909.772,473.061 745.351,296.742 745.316,303.102 
																			"/>
									<polyline fill="#578392" points="745.407,286.846 909.827,463.166 909.863,456.806 745.442,280.487 745.407,286.846 
																			"/>
									<polyline fill="#578392" points="745.498,270.598 909.918,446.917 909.954,440.558 745.533,264.238 745.498,270.598 
																			"/>
									<polyline fill="#578392" points="745.589,254.343 910.009,430.662 910.045,424.302 745.625,247.983 745.589,254.343 
																			"/>
									<polyline fill="#578392" points="745.68,238.094 910.1,414.413 910.136,408.054 745.716,231.734 745.68,238.094 									
										"/>
									<polyline fill="#578392" points="745.771,221.839 910.191,398.158 910.227,391.798 745.807,215.479 745.771,221.839 
																			"/>
									<polyline fill="#578392" points="745.858,206.296 910.279,382.616 910.314,376.256 745.894,199.937 745.858,206.296 
																			"/>
									<polyline fill="#578392" points="745.949,190.041 910.37,366.36 910.405,360.001 745.985,183.681 745.949,190.041 
																			"/>
									<polyline fill="#578392" points="746.04,173.792 910.461,350.112 910.496,343.752 746.076,167.433 746.04,173.792 
																			"/>
									<polyline fill="#578392" points="746.131,157.537 910.552,333.857 910.587,327.497 746.167,151.178 746.131,157.537 
																			"/>
									<polyline fill="#578392" points="746.222,141.282 910.643,317.601 910.679,311.242 746.258,134.922 746.222,141.282 
																			"/>
									<polyline fill="#578392" points="746.31,125.739 910.73,302.059 910.766,295.699 746.345,119.38 746.31,125.739 									
										"/>
									<polyline fill="#578392" points="746.401,109.484 910.821,285.803 910.857,279.444 746.436,103.124 746.401,109.484 
																			"/>
									<polyline fill="#578392" points="746.492,93.236 910.912,269.555 910.948,263.195 746.527,86.876 746.492,93.236 									
										"/>
									<polyline fill="#578392" points="746.583,76.98 911.003,253.3 911.039,246.94 746.618,70.621 746.583,76.98 									"/>
									<polyline fill="#578392" points="746.674,60.732 911.094,237.051 911.13,230.692 746.709,54.372 746.674,60.732 									
										"/>
									<polyline fill="#578392" points="746.765,44.476 911.185,220.796 911.221,214.436 746.801,38.117 746.765,44.476 									
										"/>
									<polyline fill="#578392" points="746.852,28.934 911.272,205.253 911.308,198.894 746.888,22.574 746.852,28.934 									
										"/>
								</g>
							</g>
						</g>
					</g>
				</g>
			</g>
			<g>
				<path fill="#E1E1E1" d="M857.044,165.184l-56.167-60.232l167.955-78.153l56.167,60.232L857.044,165.184z M968.55,27.778
					l-166.288,77.378l55.065,59.05l166.288-77.378L968.55,27.778"/>
			</g>
		</g>
	</g>
</g>
<g id="Top_Layer_Details">
	<g>
	</g>
	<g>
	</g>
	<g>
	</g>
	<g>
	</g>
	<g>
	</g>
	<g>
	</g>
	<g>
	</g>
	<g>
	</g>
	<g>
	</g>
	<g>
	</g>
	<g>
	</g>
	<g>
	</g>
	<g>
	</g>
	<g>
	</g>
	<g>
	</g>
	<g>
	</g>
	<g>
	</g>
	<g>
	</g>
	<g>
	</g>
	<g>
	</g>
	<g>
	</g>
	<g>
	</g>
	<g>
	</g>
	<g>
	</g>
	<g>
	</g>
	<g>
	</g>
	<g>
	</g>
</g>
</svg>
