<svg xmlns="http://www.w3.org/2000/svg" xmlns:xlink="http://www.w3.org/1999/xlink" viewBox="0 0 1053 554" enable-background="new 0 0 1053 554"><g><g enable-background="new"><polygon fill="#887442" points="674.344,-85.773 673.195,119.147 578.049,163.42 579.197,-41.499"/><polygon fill="#A88F51" points="744.966,-10.04 743.818,194.88 673.195,119.147 674.344,-85.773"/><polygon fill="#A0A0A0" points="649.82,34.234 648.672,239.154 578.049,163.42 579.197,-41.499"/><polygon fill="#D2D2D2" points="579.197,-41.499 674.344,-85.773 744.966,-10.04 649.82,34.234"/><polygon fill="#818181" points="744.966,-10.04 743.818,194.88 648.672,239.154 649.82,34.234"/><polygon fill="#887442" points="746.351,-9.836 745.202,195.084 648.382,240.136 649.531,35.216"/><g enable-background="new"><defs><polygon id="a" enable-background="new" points="746.351,-9.836 745.202,195.084 648.382,240.136 649.531,35.216"/></defs><clipPath id="b"><use xlink:href="#a" overflow="visible"/></clipPath><g fill="#436570" clip-path="url(#b)"><polyline points="570.344,327.555 818.875,211.908 818.911,205.548 570.38,321.195 570.344,327.555"/><polyline points="570.435,311.307 818.967,195.659 819.002,189.3 570.471,304.947 570.435,311.307"/><polyline points="570.526,295.051 819.058,179.404 819.093,173.044 570.562,288.692 570.526,295.051"/><polyline points="570.613,279.509 819.145,163.861 819.18,157.502 570.649,273.149 570.613,279.509"/><polyline points="570.704,263.253 819.236,147.606 819.271,141.246 570.74,256.894 570.704,263.253"/><polyline points="570.795,247.005 819.327,131.357 819.363,124.998 570.831,240.645 570.795,247.005"/><polyline points="570.886,230.749 819.418,115.102 819.454,108.743 570.922,224.39 570.886,230.749"/><polyline points="570.977,214.501 819.509,98.854 819.545,92.494 571.013,208.141 570.977,214.501"/><polyline points="571.069,198.246 819.6,82.598 819.636,76.239 571.104,191.886 571.069,198.246"/><polyline points="571.156,182.703 819.687,67.056 819.723,60.696 571.191,176.344 571.156,182.703"/><polyline points="571.247,166.448 819.778,50.8 819.814,44.441 571.282,160.088 571.247,166.448"/><polyline points="571.338,150.199 819.869,34.552 819.905,28.192 571.373,143.84 571.338,150.199"/><polyline points="571.429,133.944 819.96,18.297 819.996,11.937 571.465,127.585 571.429,133.944"/><polyline points="571.52,117.689 820.052,2.042 820.087,-4.318 571.556,111.329 571.52,117.689"/><polyline points="571.607,102.146 820.139,-13.501 820.174,-19.861 571.643,95.787 571.607,102.146"/><polyline points="571.698,85.891 820.23,-29.756 820.265,-36.116 571.734,79.531 571.698,85.891"/><polyline points="571.789,69.643 820.321,-46.005 820.356,-52.364 571.825,63.283 571.789,69.643"/><polyline points="571.88,53.387 820.412,-62.26 820.448,-68.62 571.916,47.028 571.88,53.387"/><polyline points="571.971,37.139 820.503,-78.509 820.539,-84.868 572.007,30.779 571.971,37.139"/><polyline points="572.062,20.883 820.594,-94.764 820.63,-101.124 572.098,14.524 572.062,20.883"/><polyline points="572.15,5.341 820.681,-110.307 820.717,-116.666 572.185,-1.019 572.15,5.341"/></g></g><polygon fill="#A88F51" points="649.531,35.216 648.382,240.136 576.652,163.215 577.801,-41.705"/><g enable-background="new"><defs><polygon id="c" enable-background="new" points="649.531,35.216 648.382,240.136 576.652,163.215 577.801,-41.705"/></defs><clipPath id="d"><use xlink:href="#c" overflow="visible"/></clipPath><g fill="#537D8B" clip-path="url(#d)"><polyline points="701.337,355.063 705.195,359.201 705.231,352.717 701.373,348.58 701.337,355.063"/><polyline points="701.43,338.491 705.288,342.628 705.324,336.145 701.466,332.007 701.43,338.491"/><polyline points="701.523,321.919 705.381,326.056 705.417,319.573 701.559,315.435 701.523,321.919"/><polyline points="701.611,306.073 705.47,310.211 705.506,303.727 701.648,299.59 701.611,306.073"/><polyline points="701.704,289.501 705.562,293.638 705.599,287.155 701.741,283.017 701.704,289.501"/><polyline points="701.797,272.935 705.655,277.073 705.692,270.589 701.833,266.452 701.797,272.935"/><polyline points="701.89,256.363 705.748,260.5 705.784,254.017 701.926,249.879 701.89,256.363"/><polyline points="701.983,239.797 705.841,243.935 705.877,237.451 702.019,233.314 701.983,239.797"/><polyline points="702.076,223.225 705.934,227.362 705.97,220.879 702.112,216.741 702.076,223.225"/><polyline points="702.164,207.379 706.023,211.517 706.059,205.033 702.201,200.896 702.164,207.379"/><polyline points="702.257,190.807 706.115,194.944 706.152,188.461 702.294,184.323 702.257,190.807"/><polyline points="702.35,174.241 706.208,178.379 706.245,171.895 702.386,167.758 702.35,174.241"/><polyline points="702.443,157.669 706.301,161.806 706.338,155.323 702.479,151.185 702.443,157.669"/><polyline points="702.536,141.104 706.394,145.241 706.43,138.757 702.572,134.62 702.536,141.104"/><polyline points="702.625,125.251 706.483,129.388 706.519,122.905 702.661,118.767 702.625,125.251"/><polyline points="702.717,108.685 706.576,112.823 706.612,106.339 702.754,102.202 702.717,108.685"/><polyline points="702.81,92.113 706.669,96.251 706.705,89.767 702.847,85.63 702.81,92.113"/><polyline points="702.903,75.541 706.761,79.678 706.798,73.195 702.94,69.057 702.903,75.541"/><polyline points="702.996,58.976 706.854,63.113 706.891,56.629 703.032,52.492 702.996,58.976"/><polyline points="703.089,42.403 706.947,46.54 706.983,40.057 703.125,35.919 703.089,42.403"/><polyline points="703.178,26.557 707.036,30.695 707.072,24.211 703.214,20.074 703.178,26.557"/><polyline points="688.093,340.861 691.957,345.004 691.993,338.521 688.13,334.378 688.093,340.861"/><polyline points="688.186,324.289 692.049,328.432 692.086,321.948 688.222,317.805 688.186,324.289"/><polyline points="688.279,307.717 692.142,311.86 692.179,305.376 688.315,301.233 688.279,307.717"/><polyline points="688.368,291.871 692.231,296.014 692.267,289.53 688.404,285.388 688.368,291.871"/><polyline points="688.461,275.299 692.324,279.442 692.36,272.958 688.497,268.815 688.461,275.299"/><polyline points="688.553,258.733 692.417,262.876 692.453,256.393 688.59,252.25 688.553,258.733"/><polyline points="688.646,242.161 692.51,246.304 692.546,239.82 688.683,235.677 688.646,242.161"/><polyline points="688.739,225.595 692.602,229.738 692.639,223.255 688.776,219.112 688.739,225.595"/><polyline points="688.832,209.023 692.695,213.166 692.732,206.682 688.868,202.539 688.832,209.023"/><polyline points="688.921,193.177 692.784,197.32 692.82,190.837 688.957,186.694 688.921,193.177"/><polyline points="689.014,176.605 692.877,180.748 692.913,174.264 689.05,170.121 689.014,176.605"/><polyline points="689.107,160.039 692.97,164.182 693.006,157.699 689.143,153.556 689.107,160.039"/><polyline points="689.199,143.467 693.063,147.61 693.099,141.126 689.236,136.983 689.199,143.467"/><polyline points="689.292,126.902 693.156,131.045 693.192,124.561 689.329,120.418 689.292,126.902"/><polyline points="689.381,111.049 693.244,115.192 693.281,108.708 689.417,104.565 689.381,111.049"/><polyline points="689.474,94.483 693.337,98.626 693.374,92.143 689.51,88 689.474,94.483"/><polyline points="689.567,77.911 693.43,82.054 693.466,75.571 689.603,71.428 689.567,77.911"/><polyline points="689.66,61.339 693.523,65.482 693.559,58.998 689.696,54.855 689.66,61.339"/><polyline points="689.752,44.774 693.616,48.916 693.652,42.433 689.789,38.29 689.752,44.774"/><polyline points="689.845,28.201 693.709,32.344 693.745,25.86 689.882,21.717 689.845,28.201"/><polyline points="689.934,12.355 693.797,16.498 693.834,10.015 689.97,5.872 689.934,12.355"/><polyline points="674.849,326.659 678.713,330.802 678.749,324.319 674.886,320.176 674.849,326.659"/><polyline points="674.942,310.087 678.806,314.23 678.842,307.746 674.979,303.603 674.942,310.087"/><polyline points="675.035,293.515 678.899,297.658 678.935,291.174 675.071,287.031 675.035,293.515"/><polyline points="675.124,277.669 678.988,281.812 679.024,275.328 675.16,271.185 675.124,277.669"/><polyline points="675.217,261.096 679.08,265.24 679.117,258.756 675.253,254.613 675.217,261.096"/><polyline points="675.31,244.531 679.173,248.674 679.21,242.191 675.346,238.047 675.31,244.531"/><polyline points="675.403,227.959 679.266,232.102 679.302,225.618 675.439,221.475 675.403,227.959"/><polyline points="675.495,211.393 679.359,215.536 679.395,209.053 675.532,204.91 675.495,211.393"/><polyline points="675.588,194.821 679.452,198.964 679.488,192.48 675.625,188.337 675.588,194.821"/><polyline points="675.677,178.975 679.541,183.118 679.577,176.635 675.713,172.491 675.677,178.975"/><polyline points="675.77,162.403 679.633,166.546 679.67,160.062 675.806,155.919 675.77,162.403"/><polyline points="675.863,145.837 679.726,149.98 679.763,143.497 675.899,139.354 675.863,145.837"/><polyline points="675.956,129.265 679.819,133.408 679.855,126.924 675.992,122.781 675.956,129.265"/><polyline points="676.048,112.699 679.912,116.843 679.948,110.359 676.085,106.216 676.048,112.699"/><polyline points="676.137,96.847 680.001,100.99 680.037,94.506 676.174,90.363 676.137,96.847"/><polyline points="676.23,80.281 680.094,84.424 680.13,77.941 676.266,73.798 676.23,80.281"/><polyline points="676.323,63.709 680.187,67.852 680.223,61.369 676.359,57.225 676.323,63.709"/><polyline points="676.416,47.137 680.279,51.28 680.316,44.796 676.452,40.653 676.416,47.137"/><polyline points="676.509,30.571 680.372,34.714 680.409,28.231 676.545,24.088 676.509,30.571"/><polyline points="676.602,13.999 680.465,18.142 680.501,11.658 676.638,7.515 676.602,13.999"/><polyline points="676.69,-1.847 680.554,2.296 680.59,-4.187 676.727,-8.331 676.69,-1.847"/><polyline points="661.611,312.463 665.469,316.6 665.505,310.116 661.647,305.979 661.611,312.463"/><polyline points="661.704,295.89 665.562,300.028 665.598,293.544 661.74,289.407 661.704,295.89"/><polyline points="661.797,279.318 665.655,283.456 665.691,276.972 661.833,272.834 661.797,279.318"/><polyline points="661.885,263.472 665.744,267.61 665.78,261.126 661.922,256.989 661.885,263.472"/><polyline points="661.978,246.9 665.837,251.037 665.873,244.554 662.015,240.416 661.978,246.9"/><polyline points="662.071,230.335 665.929,234.472 665.966,227.988 662.108,223.851 662.071,230.335"/><polyline points="662.164,213.762 666.022,217.899 666.059,211.416 662.2,207.278 662.164,213.762"/><polyline points="662.257,197.197 666.115,201.334 666.151,194.85 662.293,190.713 662.257,197.197"/><polyline points="662.35,180.624 666.208,184.762 666.244,178.278 662.386,174.141 662.35,180.624"/><polyline points="662.439,164.779 666.297,168.916 666.333,162.432 662.475,158.295 662.439,164.779"/><polyline points="662.531,148.206 666.39,152.343 666.426,145.86 662.568,141.722 662.531,148.206"/><polyline points="662.624,131.641 666.482,135.778 666.519,129.294 662.661,125.157 662.624,131.641"/><polyline points="662.717,115.068 666.575,119.206 666.612,112.722 662.753,108.585 662.717,115.068"/><polyline points="662.81,98.503 666.668,102.64 666.704,96.157 662.846,92.019 662.81,98.503"/><polyline points="662.899,82.65 666.757,86.787 666.793,80.304 662.935,76.166 662.899,82.65"/><polyline points="662.992,66.085 666.85,70.222 666.886,63.738 663.028,59.601 662.992,66.085"/><polyline points="663.084,49.513 666.943,53.65 666.979,47.166 663.121,43.029 663.084,49.513"/><polyline points="663.177,32.94 667.036,37.078 667.072,30.594 663.214,26.456 663.177,32.94"/><polyline points="663.27,16.375 667.128,20.512 667.165,14.028 663.307,9.891 663.27,16.375"/><polyline points="663.363,-0.198 667.221,3.94 667.258,-2.544 663.399,-6.681 663.363,-0.198"/><polyline points="663.452,-16.043 667.31,-11.906 667.346,-18.39 663.488,-22.527 663.452,-16.043"/><polyline points="648.367,298.261 652.231,302.404 652.267,295.92 648.404,291.777 648.367,298.261"/><polyline points="648.46,281.688 652.324,285.831 652.36,279.347 648.497,275.205 648.46,281.688"/><polyline points="648.553,265.116 652.416,269.259 652.453,262.775 648.589,258.632 648.553,265.116"/><polyline points="648.642,249.27 652.505,253.413 652.542,246.93 648.678,242.787 648.642,249.27"/><polyline points="648.735,232.698 652.598,236.841 652.634,230.357 648.771,226.214 648.735,232.698"/><polyline points="648.828,216.133 652.691,220.275 652.727,213.792 648.864,209.649 648.828,216.133"/><polyline points="648.92,199.56 652.784,203.703 652.82,197.219 648.957,193.076 648.92,199.56"/><polyline points="649.013,182.995 652.877,187.138 652.913,180.654 649.05,176.511 649.013,182.995"/><polyline points="649.106,166.422 652.969,170.565 653.006,164.081 649.143,159.939 649.106,166.422"/><polyline points="649.195,150.577 653.058,154.719 653.095,148.236 649.231,144.093 649.195,150.577"/><polyline points="649.288,134.004 653.151,138.147 653.188,131.663 649.324,127.52 649.288,134.004"/><polyline points="649.381,117.439 653.244,121.582 653.28,115.098 649.417,110.955 649.381,117.439"/><polyline points="649.474,100.866 653.337,105.009 653.373,98.525 649.51,94.383 649.474,100.866"/><polyline points="649.566,84.301 653.43,88.444 653.466,81.96 649.603,77.817 649.566,84.301"/><polyline points="649.655,68.448 653.518,72.591 653.555,66.107 649.692,61.964 649.655,68.448"/><polyline points="649.748,51.883 653.611,56.026 653.648,49.542 649.784,45.399 649.748,51.883"/><polyline points="649.841,35.311 653.704,39.453 653.741,32.97 649.877,28.827 649.841,35.311"/><polyline points="649.934,18.738 653.797,22.881 653.833,16.397 649.97,12.255 649.934,18.738"/><polyline points="650.027,2.173 653.89,6.316 653.926,-0.168 650.063,-4.311 650.027,2.173"/><polyline points="650.119,-14.4 653.983,-10.257 654.019,-16.74 650.156,-20.883 650.119,-14.4"/><polyline points="650.208,-30.245 654.072,-26.103 654.108,-32.586 650.245,-36.729 650.208,-30.245"/><polyline points="635.124,284.058 638.987,288.202 639.023,281.718 635.16,277.575 635.124,284.058"/><polyline points="635.216,267.486 639.08,271.629 639.116,265.145 635.253,261.002 635.216,267.486"/><polyline points="635.309,250.914 639.173,255.057 639.209,248.573 635.346,244.43 635.309,250.914"/><polyline points="635.398,235.068 639.262,239.211 639.298,232.728 635.434,228.584 635.398,235.068"/><polyline points="635.491,218.496 639.354,222.639 639.391,216.155 635.527,212.012 635.491,218.496"/><polyline points="635.584,201.93 639.447,206.073 639.484,199.59 635.62,195.447 635.584,201.93"/><polyline points="635.677,185.358 639.54,189.501 639.577,183.017 635.713,178.874 635.677,185.358"/><polyline points="635.769,168.792 639.633,172.936 639.669,166.452 635.806,162.309 635.769,168.792"/><polyline points="635.862,152.22 639.726,156.363 639.762,149.88 635.899,145.736 635.862,152.22"/><polyline points="635.951,136.374 639.815,140.517 639.851,134.034 635.987,129.891 635.951,136.374"/><polyline points="636.044,119.802 639.908,123.945 639.944,117.461 636.08,113.318 636.044,119.802"/><polyline points="636.137,103.236 640,107.38 640.037,100.896 636.173,96.753 636.137,103.236"/><polyline points="636.23,86.664 640.093,90.807 640.13,84.324 636.266,80.18 636.23,86.664"/><polyline points="636.323,70.099 640.186,74.242 640.222,67.758 636.359,63.615 636.323,70.099"/><polyline points="636.411,54.246 640.275,58.389 640.311,51.905 636.448,47.762 636.411,54.246"/><polyline points="636.504,37.68 640.368,41.824 640.404,35.34 636.541,31.197 636.504,37.68"/><polyline points="636.597,21.108 640.461,25.251 640.497,18.768 636.633,14.625 636.597,21.108"/><polyline points="636.69,4.536 640.554,8.679 640.59,2.195 636.726,-1.948 636.69,4.536"/><polyline points="636.783,-12.03 640.646,-7.886 640.683,-14.37 636.819,-18.513 636.783,-12.03"/><polyline points="636.876,-28.602 640.739,-24.459 640.776,-30.942 636.912,-35.086 636.876,-28.602"/><polyline points="636.964,-44.448 640.828,-40.305 640.864,-46.788 637.001,-50.931 636.964,-44.448"/><polyline points="621.885,269.862 625.743,273.999 625.78,267.516 621.921,263.378 621.885,269.862"/><polyline points="621.978,253.289 625.836,257.427 625.872,250.943 622.014,246.806 621.978,253.289"/><polyline points="622.071,236.717 625.929,240.855 625.965,234.371 622.107,230.234 622.071,236.717"/><polyline points="622.16,220.872 626.018,225.009 626.054,218.525 622.196,214.388 622.16,220.872"/><polyline points="622.253,204.299 626.111,208.437 626.147,201.953 622.289,197.816 622.253,204.299"/><polyline points="622.345,187.734 626.203,191.871 626.24,185.388 622.382,181.25 622.345,187.734"/><polyline points="622.438,171.161 626.296,175.299 626.333,168.815 622.474,164.678 622.438,171.161"/><polyline points="622.531,154.596 626.389,158.733 626.426,152.25 622.567,148.112 622.531,154.596"/><polyline points="622.624,138.023 626.482,142.161 626.518,135.677 622.66,131.54 622.624,138.023"/><polyline points="622.713,122.178 626.571,126.315 626.607,119.832 622.749,115.694 622.713,122.178"/><polyline points="622.806,105.605 626.664,109.743 626.7,103.259 622.842,99.122 622.806,105.605"/><polyline points="622.898,89.04 626.757,93.177 626.793,86.694 622.935,82.556 622.898,89.04"/><polyline points="622.991,72.467 626.849,76.605 626.886,70.121 623.028,65.984 622.991,72.467"/><polyline points="623.084,55.902 626.942,60.039 626.979,53.556 623.12,49.418 623.084,55.902"/><polyline points="623.173,40.049 627.031,44.187 627.067,37.703 623.209,33.566 623.173,40.049"/><polyline points="623.266,23.484 627.124,27.621 627.16,21.138 623.302,17 623.266,23.484"/><polyline points="623.359,6.912 627.217,11.049 627.253,4.566 623.395,0.428 623.359,6.912"/><polyline points="623.451,-9.661 627.31,-5.523 627.346,-12.007 623.488,-16.144 623.451,-9.661"/><polyline points="623.544,-26.226 627.402,-22.089 627.439,-28.572 623.581,-32.71 623.544,-26.226"/><polyline points="623.637,-42.799 627.495,-38.661 627.532,-45.145 623.674,-49.282 623.637,-42.799"/><polyline points="623.726,-58.644 627.584,-54.507 627.62,-60.99 623.762,-65.128 623.726,-58.644"/><polyline points="608.641,255.66 612.505,259.803 612.541,253.319 608.678,249.176 608.641,255.66"/><polyline points="608.734,239.087 612.598,243.23 612.634,236.747 608.771,232.604 608.734,239.087"/><polyline points="608.827,222.515 612.691,226.658 612.727,220.175 608.864,216.032 608.827,222.515"/><polyline points="608.916,206.67 612.779,210.812 612.816,204.329 608.952,200.186 608.916,206.67"/><polyline points="609.009,190.097 612.872,194.24 612.909,187.756 609.045,183.614 609.009,190.097"/><polyline points="609.102,173.532 612.965,177.675 613.001,171.191 609.138,167.048 609.102,173.532"/><polyline points="609.195,156.959 613.058,161.102 613.094,154.619 609.231,150.476 609.195,156.959"/><polyline points="609.287,140.394 613.151,144.537 613.187,138.053 609.324,133.91 609.287,140.394"/><polyline points="609.38,123.821 613.244,127.964 613.28,121.481 609.417,117.338 609.38,123.821"/><polyline points="609.469,107.976 613.332,112.119 613.369,105.635 609.505,101.492 609.469,107.976"/><polyline points="609.562,91.403 613.425,95.546 613.462,89.063 609.598,84.92 609.562,91.403"/><polyline points="609.655,74.838 613.518,78.981 613.554,72.497 609.691,68.354 609.655,74.838"/><polyline points="609.748,58.265 613.611,62.408 613.647,55.925 609.784,51.782 609.748,58.265"/><polyline points="609.841,41.7 613.704,45.843 613.74,39.359 609.877,35.216 609.841,41.7"/><polyline points="609.929,25.847 613.793,29.99 613.829,23.507 609.966,19.364 609.929,25.847"/><polyline points="610.022,9.282 613.885,13.425 613.922,6.941 610.058,2.798 610.022,9.282"/><polyline points="610.115,-7.29 613.978,-3.147 614.015,-9.631 610.151,-13.774 610.115,-7.29"/><polyline points="610.208,-23.863 614.071,-19.72 614.108,-26.203 610.244,-30.346 610.208,-23.863"/><polyline points="610.301,-40.428 614.164,-36.285 614.2,-42.769 610.337,-46.912 610.301,-40.428"/><polyline points="610.394,-57.001 614.257,-52.858 614.293,-59.341 610.43,-63.484 610.394,-57.001"/><polyline points="610.482,-72.846 614.346,-68.703 614.382,-75.187 610.519,-79.33 610.482,-72.846"/><polyline points="595.398,241.458 599.261,245.601 599.298,239.117 595.434,234.974 595.398,241.458"/><polyline points="595.491,224.885 599.354,229.028 599.39,222.545 595.527,218.401 595.491,224.885"/><polyline points="595.583,208.313 599.447,212.456 599.483,205.973 595.62,201.829 595.583,208.313"/><polyline points="595.672,192.467 599.536,196.611 599.572,190.127 595.708,185.984 595.672,192.467"/><polyline points="595.765,175.895 599.629,180.038 599.665,173.554 595.801,169.411 595.765,175.895"/><polyline points="595.858,159.329 599.721,163.473 599.758,156.989 595.894,152.846 595.858,159.329"/><polyline points="595.951,142.757 599.814,146.9 599.851,140.417 595.987,136.273 595.951,142.757"/><polyline points="596.044,126.192 599.907,130.335 599.943,123.851 596.08,119.708 596.044,126.192"/><polyline points="596.136,109.619 600,113.762 600.036,107.279 596.173,103.136 596.136,109.619"/><polyline points="596.225,93.773 600.089,97.917 600.125,91.433 596.262,87.29 596.225,93.773"/><polyline points="596.318,77.201 600.182,81.344 600.218,74.861 596.354,70.717 596.318,77.201"/><polyline points="596.411,60.636 600.275,64.779 600.311,58.295 596.447,54.152 596.411,60.636"/><polyline points="596.504,44.063 600.367,48.206 600.404,41.723 596.54,37.58 596.504,44.063"/><polyline points="596.597,27.498 600.46,31.641 600.497,25.157 596.633,21.014 596.597,27.498"/><polyline points="596.685,11.645 600.549,15.788 600.585,9.305 596.722,5.161 596.685,11.645"/><polyline points="596.778,-4.92 600.642,-0.777 600.678,-7.261 596.815,-11.404 596.778,-4.92"/><polyline points="596.871,-21.492 600.735,-17.349 600.771,-23.833 596.908,-27.976 596.871,-21.492"/><polyline points="596.964,-38.065 600.828,-33.922 600.864,-40.405 597,-44.549 596.964,-38.065"/><polyline points="597.057,-54.63 600.92,-50.487 600.957,-56.971 597.093,-61.114 597.057,-54.63"/><polyline points="597.15,-71.203 601.013,-67.06 601.05,-73.543 597.186,-77.686 597.15,-71.203"/><polyline points="597.239,-87.049 601.102,-82.905 601.138,-89.389 597.275,-93.532 597.239,-87.049"/><polyline points="582.159,227.261 586.017,231.398 586.054,224.915 582.196,220.777 582.159,227.261"/><polyline points="582.252,210.689 586.11,214.826 586.147,208.342 582.288,204.205 582.252,210.689"/><polyline points="582.345,194.117 586.203,198.254 586.239,191.77 582.381,187.633 582.345,194.117"/><polyline points="582.434,178.271 586.292,182.408 586.328,175.925 582.47,171.787 582.434,178.271"/><polyline points="582.527,161.698 586.385,165.836 586.421,159.352 582.563,155.215 582.527,161.698"/><polyline points="582.619,145.133 586.478,149.27 586.514,142.787 582.656,138.649 582.619,145.133"/><polyline points="582.712,128.561 586.57,132.698 586.607,126.214 582.749,122.077 582.712,128.561"/><polyline points="582.805,111.995 586.663,116.133 586.7,109.649 582.841,105.511 582.805,111.995"/><polyline points="582.898,95.423 586.756,99.56 586.793,93.076 582.934,88.939 582.898,95.423"/><polyline points="582.987,79.577 586.845,83.714 586.881,77.231 583.023,73.093 582.987,79.577"/><polyline points="583.08,63.005 586.938,67.142 586.974,60.658 583.116,56.521 583.08,63.005"/><polyline points="583.172,46.439 587.031,50.577 587.067,44.093 583.209,39.955 583.172,46.439"/><polyline points="583.265,29.867 587.124,34.004 587.16,27.52 583.302,23.383 583.265,29.867"/><polyline points="583.358,13.301 587.216,17.439 587.253,10.955 583.395,6.818 583.358,13.301"/><polyline points="583.447,-2.552 587.305,1.586 587.342,-4.898 583.483,-9.035 583.447,-2.552"/><polyline points="583.54,-19.117 587.398,-14.98 587.434,-21.463 583.576,-25.601 583.54,-19.117"/><polyline points="583.633,-35.689 587.491,-31.552 587.527,-38.035 583.669,-42.173 583.633,-35.689"/><polyline points="583.726,-52.261 587.584,-48.124 587.62,-54.608 583.762,-58.745 583.726,-52.261"/><polyline points="583.818,-68.827 587.677,-64.689 587.713,-71.173 583.855,-75.31 583.818,-68.827"/><polyline points="583.911,-85.399 587.769,-81.262 587.806,-87.746 583.948,-91.883 583.911,-85.399"/><polyline points="584,-101.245 587.858,-97.108 587.895,-103.591 584.036,-107.729 584,-101.245"/><polyline points="568.916,213.059 572.779,217.202 572.815,210.718 568.952,206.575 568.916,213.059"/><polyline points="569.008,196.487 572.872,200.63 572.908,194.146 569.045,190.003 569.008,196.487"/><polyline points="569.101,179.915 572.965,184.057 573.001,177.574 569.138,173.431 569.101,179.915"/><polyline points="569.19,164.069 573.053,168.212 573.09,161.728 569.227,157.585 569.19,164.069"/><polyline points="569.283,147.496 573.146,151.639 573.183,145.156 569.319,141.013 569.283,147.496"/><polyline points="569.376,130.931 573.239,135.074 573.276,128.59 569.412,124.447 569.376,130.931"/><polyline points="569.469,114.359 573.332,118.501 573.368,112.018 569.505,107.875 569.469,114.359"/><polyline points="569.562,97.793 573.425,101.936 573.461,95.452 569.598,91.309 569.562,97.793"/><polyline points="569.654,81.221 573.518,85.364 573.554,78.88 569.691,74.737 569.654,81.221"/><polyline points="569.743,65.375 573.607,69.518 573.643,63.034 569.78,58.891 569.743,65.375"/><polyline points="569.836,48.803 573.699,52.945 573.736,46.462 569.872,42.319 569.836,48.803"/><polyline points="569.929,32.237 573.792,36.38 573.829,29.896 569.965,25.753 569.929,32.237"/><polyline points="570.022,15.665 573.885,19.808 573.921,13.324 570.058,9.181 570.022,15.665"/><polyline points="570.115,-0.901 573.978,3.242 574.014,-3.241 570.151,-7.384 570.115,-0.901"/><polyline points="570.203,-16.753 574.067,-12.611 574.103,-19.094 570.24,-23.237 570.203,-16.753"/><polyline points="570.296,-33.319 574.16,-29.176 574.196,-35.66 570.333,-39.803 570.296,-33.319"/><polyline points="570.389,-49.891 574.252,-45.748 574.289,-52.232 570.425,-56.375 570.389,-49.891"/><polyline points="570.482,-66.463 574.345,-62.321 574.382,-68.804 570.518,-72.947 570.482,-66.463"/><polyline points="570.575,-83.029 574.438,-78.886 574.474,-85.37 570.611,-89.512 570.575,-83.029"/><polyline points="570.668,-99.601 574.531,-95.458 574.567,-101.942 570.704,-106.085 570.668,-99.601"/><polyline points="570.757,-115.447 574.62,-111.304 574.656,-117.788 570.793,-121.931 570.757,-115.447"/><polyline points="555.672,198.857 559.535,203 559.572,196.516 555.708,192.373 555.672,198.857"/><polyline points="555.765,182.284 559.628,186.428 559.665,179.944 555.801,175.801 555.765,182.284"/><polyline points="555.858,165.712 559.721,169.855 559.757,163.372 555.894,159.229 555.858,165.712"/><polyline points="555.946,149.867 559.81,154.01 559.846,147.526 555.983,143.383 555.946,149.867"/><polyline points="556.039,133.294 559.903,137.437 559.939,130.954 556.076,126.81 556.039,133.294"/><polyline points="556.132,116.729 559.996,120.872 560.032,114.388 556.168,110.245 556.132,116.729"/><polyline points="556.225,100.156 560.088,104.299 560.125,97.816 556.261,93.673 556.225,100.156"/><polyline points="556.318,83.591 560.181,87.734 560.218,81.25 556.354,77.107 556.318,83.591"/><polyline points="556.411,67.018 560.274,71.162 560.31,64.678 556.447,60.535 556.411,67.018"/><polyline points="556.499,51.173 560.363,55.316 560.399,48.832 556.536,44.689 556.499,51.173"/><polyline points="556.592,34.6 560.456,38.743 560.492,32.26 556.629,28.117 556.592,34.6"/><polyline points="556.685,18.035 560.549,22.178 560.585,15.694 556.721,11.551 556.685,18.035"/><polyline points="556.778,1.462 560.642,5.606 560.678,-0.878 556.814,-5.021 556.778,1.462"/><polyline points="556.871,-15.103 560.734,-10.96 560.771,-17.443 556.907,-21.587 556.871,-15.103"/><polyline points="556.96,-30.956 560.823,-26.813 560.859,-33.296 556.996,-37.439 556.96,-30.956"/><polyline points="557.052,-47.521 560.916,-43.378 560.952,-49.862 557.089,-54.005 557.052,-47.521"/><polyline points="557.145,-64.093 561.009,-59.95 561.045,-66.434 557.182,-70.577 557.145,-64.093"/><polyline points="557.238,-80.666 561.102,-76.523 561.138,-83.006 557.274,-87.149 557.238,-80.666"/><polyline points="557.331,-97.231 561.195,-93.088 561.231,-99.572 557.367,-103.715 557.331,-97.231"/><polyline points="557.424,-113.804 561.287,-109.66 561.324,-116.144 557.46,-120.287 557.424,-113.804"/><polyline points="557.513,-129.649 561.376,-125.506 561.413,-131.99 557.549,-136.133 557.513,-129.649"/><polyline points="542.433,184.66 546.292,188.798 546.328,182.314 542.47,178.177 542.433,184.66"/><polyline points="542.526,168.088 546.384,172.225 546.421,165.742 542.562,161.604 542.526,168.088"/><polyline points="542.619,151.516 546.477,155.653 546.514,149.17 542.655,145.032 542.619,151.516"/><polyline points="542.708,135.67 546.566,139.807 546.602,133.324 542.744,129.186 542.708,135.67"/><polyline points="542.801,119.098 546.659,123.235 546.695,116.751 542.837,112.614 542.801,119.098"/><polyline points="542.894,102.532 546.752,106.67 546.788,100.186 542.93,96.049 542.894,102.532"/><polyline points="542.986,85.96 546.845,90.097 546.881,83.614 543.023,79.476 542.986,85.96"/><polyline points="543.079,69.394 546.937,73.532 546.974,67.048 543.116,62.911 543.079,69.394"/><polyline points="543.172,52.822 547.03,56.959 547.067,50.476 543.208,46.338 543.172,52.822"/><polyline points="543.261,36.976 547.119,41.114 547.155,34.63 543.297,30.493 543.261,36.976"/><polyline points="543.354,20.404 547.212,24.541 547.248,18.057 543.39,13.92 543.354,20.404"/><polyline points="543.447,3.838 547.305,7.976 547.341,1.492 543.483,-2.645 543.447,3.838"/><polyline points="543.539,-12.734 547.398,-8.597 547.434,-15.08 543.576,-19.218 543.539,-12.734"/><polyline points="543.632,-29.3 547.491,-25.162 547.527,-31.646 543.669,-35.783 543.632,-29.3"/><polyline points="543.721,-45.152 547.579,-41.015 547.616,-47.499 543.758,-51.636 543.721,-45.152"/><polyline points="543.814,-61.718 547.672,-57.58 547.708,-64.064 543.85,-68.201 543.814,-61.718"/><polyline points="543.907,-78.29 547.765,-74.152 547.801,-80.636 543.943,-84.773 543.907,-78.29"/><polyline points="544,-94.862 547.858,-90.725 547.894,-97.208 544.036,-101.346 544,-94.862"/><polyline points="544.093,-111.428 547.951,-107.29 547.987,-113.774 544.129,-117.911 544.093,-111.428"/><polyline points="544.185,-128 548.044,-123.863 548.08,-130.346 544.222,-134.484 544.185,-128"/><polyline points="544.274,-143.846 548.132,-139.708 548.169,-146.192 544.311,-150.329 544.274,-143.846"/><polyline points="529.19,170.458 533.053,174.601 533.089,168.118 529.226,163.975 529.19,170.458"/><polyline points="529.283,153.886 533.146,158.029 533.182,151.545 529.319,147.402 529.283,153.886"/><polyline points="529.375,137.314 533.239,141.457 533.275,134.973 529.412,130.83 529.375,137.314"/><polyline points="529.464,121.468 533.328,125.611 533.364,119.127 529.501,114.984 529.464,121.468"/><polyline points="529.557,104.896 533.42,109.038 533.457,102.555 529.594,98.412 529.557,104.896"/><polyline points="529.65,88.33 533.513,92.473 533.55,85.989 529.686,81.847 529.65,88.33"/><polyline points="529.743,71.758 533.606,75.901 533.643,69.417 529.779,65.274 529.743,71.758"/><polyline points="529.836,55.192 533.699,59.335 533.735,52.852 529.872,48.709 529.836,55.192"/><polyline points="529.929,38.62 533.792,42.763 533.828,36.279 529.965,32.136 529.929,38.62"/><polyline points="530.017,22.774 533.881,26.917 533.917,20.433 530.054,16.291 530.017,22.774"/><polyline points="530.11,6.202 533.974,10.345 534.01,3.861 530.147,-0.282 530.11,6.202"/><polyline points="530.203,-10.364 534.066,-6.221 534.103,-12.704 530.239,-16.847 530.203,-10.364"/><polyline points="530.296,-26.936 534.159,-22.793 534.196,-29.277 530.332,-33.42 530.296,-26.936"/><polyline points="530.389,-43.502 534.252,-39.359 534.288,-45.842 530.425,-49.985 530.389,-43.502"/><polyline points="530.478,-59.354 534.341,-55.211 534.377,-61.695 530.514,-65.838 530.478,-59.354"/><polyline points="530.57,-75.92 534.434,-71.777 534.47,-78.26 530.607,-82.403 530.57,-75.92"/><polyline points="530.663,-92.492 534.527,-88.349 534.563,-94.833 530.7,-98.975 530.663,-92.492"/><polyline points="530.756,-109.064 534.619,-104.921 534.656,-111.405 530.792,-115.548 530.756,-109.064"/><polyline points="530.849,-125.63 534.712,-121.487 534.749,-127.97 530.885,-132.113 530.849,-125.63"/><polyline points="530.942,-142.202 534.805,-138.059 534.841,-144.543 530.978,-148.686 530.942,-142.202"/><polyline points="531.031,-158.048 534.894,-153.905 534.93,-160.389 531.067,-164.531 531.031,-158.048"/><polyline points="515.946,156.256 519.81,160.399 519.846,153.916 515.982,149.772 515.946,156.256"/><polyline points="516.039,139.684 519.902,143.827 519.939,137.343 516.075,133.2 516.039,139.684"/><polyline points="516.132,123.111 519.995,127.255 520.032,120.771 516.168,116.628 516.132,123.111"/><polyline points="516.22,107.266 520.084,111.409 520.12,104.925 516.257,100.782 516.22,107.266"/><polyline points="516.313,90.693 520.177,94.836 520.213,88.353 516.35,84.21 516.313,90.693"/><polyline points="516.406,74.128 520.27,78.271 520.306,71.787 516.442,67.644 516.406,74.128"/><polyline points="516.499,57.555 520.363,61.699 520.399,55.215 516.535,51.072 516.499,57.555"/><polyline points="516.592,40.99 520.455,45.133 520.492,38.65 516.628,34.506 516.592,40.99"/><polyline points="516.685,24.418 520.548,28.561 520.585,22.077 516.721,17.934 516.685,24.418"/><polyline points="516.773,8.572 520.637,12.715 520.673,6.231 516.81,2.088 516.773,8.572"/><polyline points="516.866,-8.001 520.73,-3.857 520.766,-10.341 516.903,-14.484 516.866,-8.001"/><polyline points="516.959,-24.566 520.823,-20.423 520.859,-26.906 516.996,-31.05 516.959,-24.566"/><polyline points="517.052,-41.138 520.916,-36.995 520.952,-43.479 517.088,-47.622 517.052,-41.138"/><polyline points="517.145,-57.704 521.008,-53.561 521.045,-60.044 517.181,-64.187 517.145,-57.704"/><polyline points="517.234,-73.557 521.097,-69.413 521.134,-75.897 517.27,-80.04 517.234,-73.557"/><polyline points="517.327,-90.122 521.19,-85.979 521.227,-92.462 517.363,-96.606 517.327,-90.122"/><polyline points="517.419,-106.694 521.283,-102.551 521.319,-109.035 517.456,-113.178 517.419,-106.694"/><polyline points="517.512,-123.267 521.376,-119.123 521.412,-125.607 517.549,-129.75 517.512,-123.267"/><polyline points="517.605,-139.832 521.469,-135.689 521.505,-142.172 517.641,-146.316 517.605,-139.832"/><polyline points="517.698,-156.404 521.562,-152.261 521.598,-158.745 517.734,-162.888 517.698,-156.404"/><polyline points="517.787,-172.25 521.65,-168.107 521.687,-174.591 517.823,-178.734 517.787,-172.25"/></g></g><path fill="#DDBC6B" d="M649.531 35.216l-71.73-76.921 96.82-45.053 71.73 76.921-96.82 45.053zm24.813-120.989l-95.146 44.274 70.623 75.734 95.146-44.274-70.623-75.734"/></g><g enable-background="new"><polygon fill="#8B8B8B" points="14.01,498.716 13.535,583.51 -76.537,625.423 -76.062,540.628"/><polygon fill="#B1B1B1" points="115.529,607.582 115.054,692.376 13.535,583.51 14.01,498.716"/><polygon fill="#A78F5C" points="25.457,649.494 24.982,734.289 -76.537,625.422 -76.062,540.628"/><polygon fill="#DABA78" points="-76.062,540.628 14.01,498.715 115.53,607.582 25.457,649.494"/><polygon fill="#837048" points="115.53,607.582 115.054,692.376 24.982,734.289 25.457,649.494"/><polygon fill="#8B8B8B" points="116.921,607.782 116.446,692.576 24.7,735.268 25.175,650.473"/><polygon fill="#B1B1B1" points="25.175,650.473 24.7,735.268 -77.921,625.219 -77.446,540.425"/><path fill="#E8E8E8" d="M25.175 650.473l-102.621-110.048 91.746-42.692 102.622 110.048-91.747 42.692zm-11.165-151.757l-90.072 41.913 101.519 108.865 90.072-41.913-101.519-108.865"/></g></g></svg>