<svg xmlns="http://www.w3.org/2000/svg" xmlns:xlink="http://www.w3.org/1999/xlink" viewBox="0 0 1053 554" enable-background="new 0 0 1053 554"><g><g enable-background="new"><polygon fill="#745038" points="896.177,-28.103 895.583,77.89 805.511,119.803 806.105,13.81"/><polygon fill="#AC7753" points="1087.625,177.201 1087.032,283.194 895.583,77.89 896.177,-28.103"/><polygon fill="#ABABAB" points="997.554,219.114 996.96,325.107 805.511,119.803 806.105,13.81"/><polygon fill="#D0D0D0" points="806.105,13.81 896.177,-28.103 1087.626,177.201 997.554,219.114"/><polygon fill="#737373" points="1087.626,177.201 1087.032,283.194 996.96,325.107 997.554,219.114"/><polygon fill="#745038" points="1089.018,177.401 1088.424,283.394 996.677,326.086 997.271,220.093"/><polygon fill="#AC7753" points="997.271,220.093 996.677,326.086 804.126,119.6 804.72,13.607"/><g enable-background="new"><defs><polygon id="a" enable-background="new" points="997.271,220.093 996.677,326.086 804.126,119.6 804.72,13.607"/></defs><clipPath id="b"><use xlink:href="#a" overflow="visible"/></clipPath><g fill="#588695" clip-path="url(#b)"><polyline points="983.53,415.238 987.388,419.376 987.424,413.016 983.566,408.879 983.53,415.238"/><polyline points="983.621,398.983 987.479,403.121 987.515,396.761 983.657,392.624 983.621,398.983"/><polyline points="983.712,382.728 987.57,386.865 987.606,380.506 983.748,376.368 983.712,382.728"/><polyline points="983.799,367.186 987.658,371.323 987.693,364.963 983.835,360.826 983.799,367.186"/><polyline points="983.89,350.93 987.749,355.068 987.784,348.708 983.926,344.571 983.89,350.93"/><polyline points="983.982,334.682 987.84,338.819 987.875,332.46 984.017,328.322 983.982,334.682"/><polyline points="984.073,318.426 987.931,322.564 987.966,316.204 984.108,312.067 984.073,318.426"/><polyline points="984.164,302.178 988.022,306.315 988.057,299.956 984.199,295.818 984.164,302.178"/><polyline points="984.255,285.923 988.113,290.06 988.149,283.7 984.29,279.563 984.255,285.923"/><polyline points="984.342,270.38 988.2,274.517 988.236,268.158 984.378,264.02 984.342,270.38"/><polyline points="984.433,254.125 988.291,258.262 988.327,251.902 984.469,247.765 984.433,254.125"/><polyline points="984.524,237.876 988.382,242.014 988.418,235.654 984.56,231.517 984.524,237.876"/><polyline points="984.615,221.621 988.473,225.758 988.509,219.399 984.651,215.261 984.615,221.621"/><polyline points="984.706,205.372 988.564,209.51 988.6,203.15 984.742,199.013 984.706,205.372"/><polyline points="984.793,189.823 988.651,193.96 988.687,187.601 984.829,183.463 984.793,189.823"/><polyline points="984.884,173.574 988.742,177.712 988.778,171.352 984.92,167.215 984.884,173.574"/><polyline points="984.975,157.319 988.834,161.457 988.869,155.097 985.011,150.96 984.975,157.319"/><polyline points="985.067,141.064 988.925,145.201 988.96,138.842 985.102,134.704 985.067,141.064"/><polyline points="985.158,124.816 989.016,128.953 989.051,122.593 985.193,118.456 985.158,124.816"/><polyline points="985.249,108.56 989.107,112.698 989.142,106.338 985.284,102.201 985.249,108.56"/><polyline points="985.336,93.018 989.194,97.155 989.23,90.796 985.371,86.658 985.336,93.018"/><polyline points="970.286,401.036 974.15,405.179 974.185,398.82 970.322,394.677 970.286,401.036"/><polyline points="970.378,384.781 974.241,388.924 974.277,382.564 970.413,378.422 970.378,384.781"/><polyline points="970.469,368.526 974.332,372.669 974.368,366.309 970.504,362.167 970.469,368.526"/><polyline points="970.556,352.984 974.419,357.126 974.455,350.767 970.591,346.624 970.556,352.984"/><polyline points="970.647,336.728 974.51,340.871 974.546,334.512 970.682,330.369 970.647,336.728"/><polyline points="970.738,320.48 974.601,324.623 974.637,318.263 970.774,314.12 970.738,320.48"/><polyline points="970.829,304.224 974.692,308.367 974.728,302.008 970.865,297.865 970.829,304.224"/><polyline points="970.92,287.976 974.783,292.119 974.819,285.759 970.956,281.616 970.92,287.976"/><polyline points="971.011,271.721 974.875,275.863 974.91,269.504 971.047,265.361 971.011,271.721"/><polyline points="971.098,256.178 974.962,260.321 974.997,253.961 971.134,249.818 971.098,256.178"/><polyline points="971.189,239.923 975.053,244.066 975.088,237.706 971.225,233.563 971.189,239.923"/><polyline points="971.28,223.674 975.144,227.817 975.179,221.457 971.316,217.315 971.28,223.674"/><polyline points="971.372,207.419 975.235,211.562 975.27,205.202 971.407,201.059 971.372,207.419"/><polyline points="971.463,191.17 975.326,195.313 975.362,188.954 971.498,184.811 971.463,191.17"/><polyline points="971.55,175.621 975.413,179.764 975.449,173.404 971.585,169.261 971.55,175.621"/><polyline points="971.641,159.372 975.504,163.515 975.54,157.156 971.676,153.013 971.641,159.372"/><polyline points="971.732,143.117 975.595,147.26 975.631,140.901 971.767,136.758 971.732,143.117"/><polyline points="971.823,126.862 975.686,131.005 975.722,124.645 971.859,120.502 971.823,126.862"/><polyline points="971.914,110.614 975.777,114.757 975.813,108.397 971.95,104.254 971.914,110.614"/><polyline points="972.005,94.358 975.868,98.501 975.904,92.142 972.041,87.999 972.005,94.358"/><polyline points="972.092,78.816 975.956,82.959 975.991,76.599 972.128,72.456 972.092,78.816"/><polyline points="957.043,386.834 960.906,390.977 960.942,384.618 957.078,380.475 957.043,386.834"/><polyline points="957.134,370.579 960.997,374.722 961.033,368.362 957.169,364.219 957.134,370.579"/><polyline points="957.225,354.324 961.088,358.467 961.124,352.107 957.26,347.964 957.225,354.324"/><polyline points="957.312,338.781 961.176,342.924 961.211,336.565 957.348,332.422 957.312,338.781"/><polyline points="957.403,322.526 961.267,326.669 961.302,320.31 957.439,316.166 957.403,322.526"/><polyline points="957.494,306.277 961.358,310.421 961.393,304.061 957.53,299.918 957.494,306.277"/><polyline points="957.585,290.022 961.449,294.165 961.484,287.806 957.621,283.663 957.585,290.022"/><polyline points="957.676,273.774 961.54,277.917 961.575,271.557 957.712,267.414 957.676,273.774"/><polyline points="957.767,257.518 961.631,261.661 961.667,255.302 957.803,251.159 957.767,257.518"/><polyline points="957.854,241.976 961.718,246.119 961.754,239.759 957.89,235.616 957.854,241.976"/><polyline points="957.945,225.72 961.809,229.864 961.845,223.504 957.981,219.361 957.945,225.72"/><polyline points="958.037,209.472 961.9,213.615 961.936,207.255 958.072,203.112 958.037,209.472"/><polyline points="958.128,193.217 961.991,197.36 962.027,191 958.163,186.857 958.128,193.217"/><polyline points="958.219,176.968 962.082,181.111 962.118,174.752 958.254,170.608 958.219,176.968"/><polyline points="958.306,161.419 962.169,165.562 962.205,159.202 958.341,155.059 958.306,161.419"/><polyline points="958.397,145.17 962.26,149.313 962.296,142.954 958.433,138.811 958.397,145.17"/><polyline points="958.488,128.915 962.352,133.058 962.387,126.699 958.524,122.556 958.488,128.915"/><polyline points="958.579,112.66 962.443,116.803 962.478,110.443 958.615,106.3 958.579,112.66"/><polyline points="958.67,96.411 962.534,100.555 962.569,94.195 958.706,90.052 958.67,96.411"/><polyline points="958.761,80.156 962.625,84.299 962.66,77.94 958.797,73.796 958.761,80.156"/><polyline points="958.848,64.613 962.712,68.757 962.748,62.397 958.884,58.254 958.848,64.613"/><polyline points="943.804,372.638 947.662,376.775 947.698,370.415 943.84,366.278 943.804,372.638"/><polyline points="943.895,356.382 947.753,360.52 947.789,354.16 943.931,350.023 943.895,356.382"/><polyline points="943.986,340.127 947.845,344.265 947.88,337.905 944.022,333.768 943.986,340.127"/><polyline points="944.073,324.585 947.932,328.722 947.967,322.363 944.109,318.225 944.073,324.585"/><polyline points="944.165,308.329 948.023,312.467 948.058,306.107 944.2,301.97 944.165,308.329"/><polyline points="944.256,292.081 948.114,296.218 948.149,289.859 944.291,285.721 944.256,292.081"/><polyline points="944.347,275.826 948.205,279.963 948.241,273.603 944.382,269.466 944.347,275.826"/><polyline points="944.438,259.577 948.296,263.715 948.332,257.355 944.473,253.218 944.438,259.577"/><polyline points="944.529,243.322 948.387,247.459 948.423,241.1 944.565,236.962 944.529,243.322"/><polyline points="944.616,227.779 948.474,231.917 948.51,225.557 944.652,221.42 944.616,227.779"/><polyline points="944.707,211.524 948.565,215.661 948.601,209.302 944.743,205.164 944.707,211.524"/><polyline points="944.798,195.275 948.656,199.413 948.692,193.053 944.834,188.916 944.798,195.275"/><polyline points="944.889,179.02 948.747,183.157 948.783,176.798 944.925,172.66 944.889,179.02"/><polyline points="944.98,162.772 948.838,166.909 948.874,160.549 945.016,156.412 944.98,162.772"/><polyline points="945.067,147.222 948.926,151.36 948.961,145 945.103,140.863 945.067,147.222"/><polyline points="945.158,130.974 949.017,135.111 949.052,128.751 945.194,124.614 945.158,130.974"/><polyline points="945.25,114.719 949.108,118.856 949.143,112.496 945.285,108.359 945.25,114.719"/><polyline points="945.341,98.463 949.199,102.601 949.234,96.241 945.376,92.104 945.341,98.463"/><polyline points="945.432,82.215 949.29,86.352 949.326,79.993 945.467,75.855 945.432,82.215"/><polyline points="945.523,65.959 949.381,70.097 949.417,63.737 945.558,59.6 945.523,65.959"/><polyline points="945.61,50.417 949.468,54.554 949.504,48.195 945.646,44.057 945.61,50.417"/><polyline points="930.561,358.436 934.424,362.579 934.46,356.219 930.596,352.076 930.561,358.436"/><polyline points="930.652,342.18 934.515,346.323 934.551,339.964 930.687,335.821 930.652,342.18"/><polyline points="930.743,325.925 934.606,330.068 934.642,323.709 930.778,319.566 930.743,325.925"/><polyline points="930.83,310.383 934.693,314.526 934.729,308.166 930.866,304.023 930.83,310.383"/><polyline points="930.921,294.127 934.784,298.27 934.82,291.911 930.957,287.768 930.921,294.127"/><polyline points="931.012,277.879 934.875,282.022 934.911,275.662 931.048,271.519 931.012,277.879"/><polyline points="931.103,261.624 934.966,265.766 935.002,259.407 931.139,255.264 931.103,261.624"/><polyline points="931.194,245.375 935.057,249.518 935.093,243.158 931.23,239.016 931.194,245.375"/><polyline points="931.285,229.12 935.149,233.263 935.184,226.903 931.321,222.76 931.285,229.12"/><polyline points="931.372,213.577 935.236,217.72 935.271,211.361 931.408,207.218 931.372,213.577"/><polyline points="931.464,197.322 935.327,201.465 935.362,195.105 931.499,190.962 931.464,197.322"/><polyline points="931.555,181.073 935.418,185.216 935.453,178.857 931.59,174.714 931.555,181.073"/><polyline points="931.646,164.818 935.509,168.961 935.545,162.601 931.681,158.458 931.646,164.818"/><polyline points="931.737,148.57 935.6,152.712 935.636,146.353 931.772,142.21 931.737,148.57"/><polyline points="931.824,133.02 935.687,137.163 935.723,130.803 931.859,126.661 931.824,133.02"/><polyline points="931.915,116.772 935.778,120.915 935.814,114.555 931.951,110.412 931.915,116.772"/><polyline points="932.006,100.517 935.869,104.66 935.905,98.3 932.042,94.157 932.006,100.517"/><polyline points="932.097,84.261 935.96,88.404 935.996,82.045 932.133,77.902 932.097,84.261"/><polyline points="932.188,68.013 936.051,72.156 936.087,65.796 932.224,61.653 932.188,68.013"/><polyline points="932.279,51.757 936.143,55.9 936.178,49.541 932.315,45.398 932.279,51.757"/><polyline points="932.366,36.215 936.23,40.358 936.265,33.998 932.402,29.855 932.366,36.215"/><polyline points="917.317,344.233 921.18,348.377 921.216,342.017 917.352,337.874 917.317,344.233"/><polyline points="917.408,327.978 921.271,332.121 921.307,325.762 917.444,321.618 917.408,327.978"/><polyline points="917.499,311.723 921.363,315.866 921.398,309.507 917.535,305.363 917.499,311.723"/><polyline points="917.586,296.18 921.45,300.324 921.485,293.964 917.622,289.821 917.586,296.18"/><polyline points="917.677,279.925 921.541,284.068 921.576,277.709 917.713,273.566 917.677,279.925"/><polyline points="917.768,263.677 921.632,267.82 921.667,261.46 917.804,257.317 917.768,263.677"/><polyline points="917.859,247.421 921.723,251.564 921.759,245.205 917.895,241.062 917.859,247.421"/><polyline points="917.95,231.173 921.814,235.316 921.85,228.956 917.986,224.813 917.95,231.173"/><polyline points="918.041,214.917 921.905,219.061 921.941,212.701 918.077,208.558 918.041,214.917"/><polyline points="918.129,199.375 921.992,203.518 922.028,197.159 918.164,193.015 918.129,199.375"/><polyline points="918.22,183.12 922.083,187.263 922.119,180.903 918.255,176.76 918.22,183.12"/><polyline points="918.311,166.871 922.174,171.014 922.21,164.655 918.346,160.512 918.311,166.871"/><polyline points="918.402,150.616 922.265,154.759 922.301,148.399 918.437,144.256 918.402,150.616"/><polyline points="918.493,134.367 922.356,138.51 922.392,132.151 918.529,128.008 918.493,134.367"/><polyline points="918.58,118.818 922.444,122.961 922.479,116.601 918.616,112.458 918.58,118.818"/><polyline points="918.671,102.569 922.535,106.713 922.57,100.353 918.707,96.21 918.671,102.569"/><polyline points="918.762,86.314 922.626,90.458 922.661,84.098 918.798,79.955 918.762,86.314"/><polyline points="918.853,70.059 922.717,74.202 922.752,67.843 918.889,63.699 918.853,70.059"/><polyline points="918.944,53.811 922.808,57.954 922.844,51.594 918.98,47.451 918.944,53.811"/><polyline points="919.035,37.555 922.899,41.698 922.935,35.339 919.071,31.196 919.035,37.555"/><polyline points="919.122,22.013 922.986,26.156 923.022,19.796 919.158,15.653 919.122,22.013"/><polyline points="904.078,330.037 907.937,334.174 907.972,327.815 904.114,323.677 904.078,330.037"/><polyline points="904.169,313.782 908.028,317.919 908.063,311.559 904.205,307.422 904.169,313.782"/><polyline points="904.26,297.527 908.119,301.664 908.154,295.304 904.296,291.167 904.26,297.527"/><polyline points="904.348,281.984 908.206,286.121 908.241,279.762 904.383,275.624 904.348,281.984"/><polyline points="904.439,265.729 908.297,269.866 908.333,263.506 904.474,259.369 904.439,265.729"/><polyline points="904.53,249.48 908.388,253.618 908.424,247.258 904.565,243.121 904.53,249.48"/><polyline points="904.621,233.225 908.479,237.362 908.515,231.003 904.656,226.865 904.621,233.225"/><polyline points="904.712,216.976 908.57,221.114 908.606,214.754 904.748,210.617 904.712,216.976"/><polyline points="904.803,200.721 908.661,204.858 908.697,198.499 904.839,194.361 904.803,200.721"/><polyline points="904.89,185.178 908.748,189.316 908.784,182.956 904.926,178.819 904.89,185.178"/><polyline points="904.981,168.923 908.839,173.06 908.875,166.701 905.017,162.563 904.981,168.923"/><polyline points="905.072,152.675 908.93,156.812 908.966,150.452 905.108,146.315 905.072,152.675"/><polyline points="905.163,136.419 909.022,140.557 909.057,134.197 905.199,130.06 905.163,136.419"/><polyline points="905.254,120.171 909.113,124.308 909.148,117.949 905.29,113.811 905.254,120.171"/><polyline points="905.341,104.621 909.2,108.759 909.235,102.399 905.377,98.262 905.341,104.621"/><polyline points="905.433,88.373 909.291,92.51 909.326,86.151 905.468,82.013 905.433,88.373"/><polyline points="905.524,72.118 909.382,76.255 909.417,69.896 905.559,65.758 905.524,72.118"/><polyline points="905.615,55.862 909.473,60 909.509,53.64 905.65,49.503 905.615,55.862"/><polyline points="905.706,39.614 909.564,43.751 909.6,37.392 905.741,33.254 905.706,39.614"/><polyline points="905.797,23.359 909.655,27.496 909.691,21.136 905.833,16.999 905.797,23.359"/><polyline points="905.884,7.816 909.742,11.954 909.778,5.594 905.92,1.457 905.884,7.816"/><polyline points="890.835,315.835 894.698,319.978 894.734,313.618 890.87,309.475 890.835,315.835"/><polyline points="890.926,299.58 894.789,303.722 894.825,297.363 890.961,293.22 890.926,299.58"/><polyline points="891.017,283.325 894.88,287.467 894.916,281.108 891.053,276.965 891.017,283.325"/><polyline points="891.104,267.782 894.967,271.925 895.003,265.565 891.14,261.422 891.104,267.782"/><polyline points="891.195,251.527 895.058,255.67 895.094,249.31 891.231,245.167 891.195,251.527"/><polyline points="891.286,235.278 895.149,239.421 895.185,233.061 891.322,228.919 891.286,235.278"/><polyline points="891.377,219.023 895.241,223.166 895.276,216.806 891.413,212.663 891.377,219.023"/><polyline points="891.468,202.774 895.332,206.917 895.367,200.558 891.504,196.415 891.468,202.774"/><polyline points="891.559,186.519 895.423,190.662 895.458,184.302 891.595,180.159 891.559,186.519"/><polyline points="891.647,170.976 895.51,175.119 895.545,168.76 891.682,164.617 891.647,170.976"/><polyline points="891.738,154.721 895.601,158.864 895.637,152.504 891.773,148.361 891.738,154.721"/><polyline points="891.829,138.473 895.692,142.616 895.728,136.256 891.864,132.113 891.829,138.473"/><polyline points="891.92,122.217 895.783,126.36 895.819,120.001 891.955,115.858 891.92,122.217"/><polyline points="892.011,105.969 895.874,110.112 895.91,103.752 892.046,99.609 892.011,105.969"/><polyline points="892.098,90.419 895.961,94.562 895.997,88.203 892.134,84.06 892.098,90.419"/><polyline points="892.189,74.171 896.052,78.314 896.088,71.954 892.225,67.811 892.189,74.171"/><polyline points="892.28,57.916 896.143,62.059 896.179,55.699 892.316,51.556 892.28,57.916"/><polyline points="892.371,41.66 896.234,45.803 896.27,39.444 892.407,35.301 892.371,41.66"/><polyline points="892.462,25.412 896.326,29.555 896.361,23.195 892.498,19.052 892.462,25.412"/><polyline points="892.553,9.157 896.417,13.3 896.452,6.94 892.589,2.797 892.553,9.157"/><polyline points="892.64,-6.386 896.504,-2.243 896.539,-8.603 892.676,-12.745 892.64,-6.386"/><polyline points="877.591,301.633 881.455,305.776 881.49,299.416 877.627,295.273 877.591,301.633"/><polyline points="877.682,285.377 881.546,289.52 881.581,283.161 877.718,279.018 877.682,285.377"/><polyline points="877.773,269.122 881.637,273.265 881.672,266.906 877.809,262.763 877.773,269.122"/><polyline points="877.86,253.58 881.724,257.723 881.759,251.363 877.896,247.22 877.86,253.58"/><polyline points="877.951,237.324 881.815,241.468 881.851,235.108 877.987,230.965 877.951,237.324"/><polyline points="878.042,221.076 881.906,225.219 881.942,218.859 878.078,214.716 878.042,221.076"/><polyline points="878.133,204.821 881.997,208.964 882.033,202.604 878.169,198.461 878.133,204.821"/><polyline points="878.224,188.572 882.088,192.715 882.124,186.356 878.26,182.212 878.224,188.572"/><polyline points="878.316,172.317 882.179,176.46 882.215,170.1 878.351,165.957 878.316,172.317"/><polyline points="878.403,156.774 882.266,160.917 882.302,154.558 878.438,150.415 878.403,156.774"/><polyline points="878.494,140.519 882.357,144.662 882.393,138.302 878.529,134.159 878.494,140.519"/><polyline points="878.585,124.27 882.448,128.414 882.484,122.054 878.62,117.911 878.585,124.27"/><polyline points="878.676,108.015 882.539,112.158 882.575,105.799 878.712,101.655 878.676,108.015"/><polyline points="878.767,91.766 882.631,95.91 882.666,89.55 878.803,85.407 878.767,91.766"/><polyline points="878.854,76.217 882.718,80.36 882.753,74.001 878.89,69.857 878.854,76.217"/><polyline points="878.945,59.969 882.809,64.112 882.844,57.752 878.981,53.609 878.945,59.969"/><polyline points="879.036,43.714 882.9,47.857 882.935,41.497 879.072,37.354 879.036,43.714"/><polyline points="879.127,27.458 882.991,31.601 883.027,25.242 879.163,21.099 879.127,27.458"/><polyline points="879.218,11.21 883.082,15.353 883.118,8.993 879.254,4.85 879.218,11.21"/><polyline points="879.309,-5.046 883.173,-0.902 883.209,-7.262 879.345,-11.405 879.309,-5.046"/><polyline points="879.397,-20.588 883.26,-16.445 883.296,-22.805 879.432,-26.948 879.397,-20.588"/><polyline points="864.352,287.436 868.211,291.574 868.246,285.214 864.388,281.077 864.352,287.436"/><polyline points="864.444,271.181 868.302,275.318 868.337,268.959 864.479,264.821 864.444,271.181"/><polyline points="864.535,254.926 868.393,259.063 868.428,252.704 864.57,248.566 864.535,254.926"/><polyline points="864.622,239.383 868.48,243.521 868.516,237.161 864.657,233.024 864.622,239.383"/><polyline points="864.713,223.128 868.571,227.265 868.607,220.906 864.748,216.768 864.713,223.128"/><polyline points="864.804,206.879 868.662,211.017 868.698,204.657 864.84,200.52 864.804,206.879"/><polyline points="864.895,190.624 868.753,194.761 868.789,188.402 864.931,184.264 864.895,190.624"/><polyline points="864.986,174.376 868.844,178.513 868.88,172.153 865.022,168.016 864.986,174.376"/><polyline points="865.077,158.12 868.935,162.258 868.971,155.898 865.113,151.761 865.077,158.12"/><polyline points="865.164,142.578 869.022,146.715 869.058,140.355 865.2,136.218 865.164,142.578"/><polyline points="865.255,126.322 869.114,130.46 869.149,124.1 865.291,119.963 865.255,126.322"/><polyline points="865.346,110.074 869.205,114.211 869.24,107.852 865.382,103.714 865.346,110.074"/><polyline points="865.437,93.818 869.296,97.956 869.331,91.596 865.473,87.459 865.437,93.818"/><polyline points="865.529,77.57 869.387,81.707 869.422,75.348 865.564,71.21 865.529,77.57"/><polyline points="865.616,62.021 869.474,66.158 869.509,59.798 865.651,55.661 865.616,62.021"/><polyline points="865.707,45.772 869.565,49.91 869.601,43.55 865.742,39.413 865.707,45.772"/><polyline points="865.798,29.517 869.656,33.654 869.692,27.295 865.833,23.157 865.798,29.517"/><polyline points="865.889,13.262 869.747,17.399 869.783,11.04 865.924,6.902 865.889,13.262"/><polyline points="865.98,-2.987 869.838,1.151 869.874,-5.209 866.016,-9.346 865.98,-2.987"/><polyline points="866.071,-19.242 869.929,-15.105 869.965,-21.464 866.107,-25.602 866.071,-19.242"/><polyline points="866.158,-34.785 870.016,-30.647 870.052,-37.007 866.194,-41.144 866.158,-34.785"/><polyline points="851.109,273.234 854.972,277.377 855.008,271.017 851.145,266.875 851.109,273.234"/><polyline points="851.2,256.979 855.063,261.122 855.099,254.762 851.236,250.619 851.2,256.979"/><polyline points="851.291,240.724 855.154,244.867 855.19,238.507 851.327,234.364 851.291,240.724"/><polyline points="851.378,225.181 855.241,229.324 855.277,222.965 851.414,218.822 851.378,225.181"/><polyline points="851.469,208.926 855.333,213.069 855.368,206.709 851.505,202.566 851.469,208.926"/><polyline points="851.56,192.677 855.424,196.82 855.459,190.461 851.596,186.318 851.56,192.677"/><polyline points="851.651,176.422 855.515,180.565 855.55,174.205 851.687,170.062 851.651,176.422"/><polyline points="851.742,160.174 855.606,164.316 855.641,157.957 851.778,153.814 851.742,160.174"/><polyline points="851.834,143.918 855.697,148.061 855.732,141.701 851.869,137.559 851.834,143.918"/><polyline points="851.921,128.376 855.784,132.519 855.82,126.159 851.956,122.016 851.921,128.376"/><polyline points="852.012,112.12 855.875,116.263 855.911,109.904 852.047,105.761 852.012,112.12"/><polyline points="852.103,95.872 855.966,100.015 856.002,93.655 852.138,89.512 852.103,95.872"/><polyline points="852.194,79.616 856.057,83.759 856.093,77.4 852.229,73.257 852.194,79.616"/><polyline points="852.285,63.368 856.148,67.511 856.184,61.151 852.321,57.008 852.285,63.368"/><polyline points="852.372,47.819 856.235,51.961 856.271,45.602 852.408,41.459 852.372,47.819"/><polyline points="852.463,31.57 856.326,35.713 856.362,29.353 852.499,25.211 852.463,31.57"/><polyline points="852.554,15.315 856.418,19.458 856.453,13.098 852.59,8.955 852.554,15.315"/><polyline points="852.645,-0.94 856.509,3.203 856.544,-3.157 852.681,-7.3 852.645,-0.94"/><polyline points="852.736,-17.189 856.6,-13.046 856.635,-19.405 852.772,-23.548 852.736,-17.189"/><polyline points="852.827,-33.444 856.691,-29.301 856.726,-35.661 852.863,-39.804 852.827,-33.444"/><polyline points="852.915,-48.987 856.778,-44.844 856.813,-51.203 852.95,-55.346 852.915,-48.987"/><polyline points="837.865,259.032 841.729,263.175 841.764,256.815 837.901,252.672 837.865,259.032"/><polyline points="837.956,242.776 841.82,246.92 841.855,240.56 837.992,236.417 837.956,242.776"/><polyline points="838.047,226.521 841.911,230.665 841.946,224.305 838.083,220.162 838.047,226.521"/><polyline points="838.134,210.979 841.998,215.122 842.034,208.763 838.17,204.619 838.134,210.979"/><polyline points="838.225,194.724 842.089,198.867 842.125,192.507 838.261,188.364 838.225,194.724"/><polyline points="838.316,178.475 842.18,182.618 842.216,176.259 838.352,172.116 838.316,178.475"/><polyline points="838.408,162.22 842.271,166.363 842.307,160.003 838.443,155.86 838.408,162.22"/><polyline points="838.499,145.971 842.362,150.114 842.398,143.755 838.534,139.612 838.499,145.971"/><polyline points="838.59,129.716 842.453,133.859 842.489,127.499 838.625,123.356 838.59,129.716"/><polyline points="838.677,114.173 842.54,118.317 842.576,111.957 838.712,107.814 838.677,114.173"/><polyline points="838.768,97.918 842.631,102.061 842.667,95.702 838.804,91.558 838.768,97.918"/><polyline points="838.859,81.67 842.723,85.813 842.758,79.453 838.895,75.31 838.859,81.67"/><polyline points="838.95,65.414 842.814,69.557 842.849,63.198 838.986,59.055 838.95,65.414"/><polyline points="839.041,49.166 842.905,53.309 842.94,46.949 839.077,42.806 839.041,49.166"/><polyline points="839.128,33.616 842.992,37.759 843.027,31.4 839.164,27.257 839.128,33.616"/><polyline points="839.219,17.368 843.083,21.511 843.118,15.151 839.255,11.008 839.219,17.368"/><polyline points="839.31,1.113 843.174,5.256 843.21,-1.104 839.346,-5.247 839.31,1.113"/><polyline points="839.401,-15.143 843.265,-10.999 843.301,-17.359 839.437,-21.502 839.401,-15.143"/><polyline points="839.492,-31.391 843.356,-27.248 843.392,-33.607 839.528,-37.751 839.492,-31.391"/><polyline points="839.584,-47.646 843.447,-43.503 843.483,-49.863 839.619,-54.006 839.584,-47.646"/><polyline points="839.671,-63.189 843.534,-59.046 843.57,-65.405 839.706,-69.549 839.671,-63.189"/><polyline points="824.627,244.835 828.485,248.973 828.52,242.613 824.662,238.476 824.627,244.835"/><polyline points="824.718,228.58 828.576,232.717 828.612,226.358 824.753,222.22 824.718,228.58"/><polyline points="824.809,212.325 828.667,216.462 828.703,210.103 824.844,205.965 824.809,212.325"/><polyline points="824.896,196.782 828.754,200.92 828.79,194.56 824.932,190.423 824.896,196.782"/><polyline points="824.987,180.527 828.845,184.664 828.881,178.305 825.023,174.167 824.987,180.527"/><polyline points="825.078,164.279 828.936,168.416 828.972,162.056 825.114,157.919 825.078,164.279"/><polyline points="825.169,148.023 829.027,152.161 829.063,145.801 825.205,141.664 825.169,148.023"/><polyline points="825.26,131.775 829.118,135.912 829.154,129.553 825.296,125.415 825.26,131.775"/><polyline points="825.351,115.519 829.209,119.657 829.245,113.297 825.387,109.16 825.351,115.519"/><polyline points="825.438,99.977 829.297,104.114 829.332,97.755 825.474,93.617 825.438,99.977"/><polyline points="825.529,83.721 829.388,87.859 829.423,81.499 825.565,77.362 825.529,83.721"/><polyline points="825.62,67.473 829.479,71.61 829.514,65.251 825.656,61.113 825.62,67.473"/><polyline points="825.712,51.218 829.57,55.355 829.605,48.995 825.747,44.858 825.712,51.218"/><polyline points="825.803,34.969 829.661,39.107 829.696,32.747 825.838,28.61 825.803,34.969"/><polyline points="825.89,19.42 829.748,23.557 829.784,17.198 825.925,13.06 825.89,19.42"/><polyline points="825.981,3.171 829.839,7.309 829.875,0.949 826.016,-3.188 825.981,3.171"/><polyline points="826.072,-13.084 829.93,-8.946 829.966,-15.306 826.108,-19.443 826.072,-13.084"/><polyline points="826.163,-29.339 830.021,-25.202 830.057,-31.561 826.199,-35.699 826.163,-29.339"/><polyline points="826.254,-45.588 830.112,-41.45 830.148,-47.81 826.29,-51.947 826.254,-45.588"/><polyline points="826.345,-61.843 830.203,-57.705 830.239,-64.065 826.381,-68.202 826.345,-61.843"/><polyline points="826.432,-77.385 830.29,-73.248 830.326,-79.608 826.468,-83.745 826.432,-77.385"/><polyline points="811.383,230.633 815.246,234.776 815.282,228.417 811.419,224.274 811.383,230.633"/><polyline points="811.474,214.378 815.337,218.521 815.373,212.161 811.51,208.018 811.474,214.378"/><polyline points="811.565,198.123 815.429,202.266 815.464,195.906 811.601,191.763 811.565,198.123"/><polyline points="811.652,182.58 815.516,186.723 815.551,180.364 811.688,176.221 811.652,182.58"/><polyline points="811.743,166.325 815.607,170.468 815.642,164.108 811.779,159.965 811.743,166.325"/><polyline points="811.834,150.077 815.698,154.219 815.733,147.86 811.87,143.717 811.834,150.077"/><polyline points="811.926,133.821 815.789,137.964 815.824,131.605 811.961,127.462 811.926,133.821"/><polyline points="812.017,117.573 815.88,121.716 815.916,115.356 812.052,111.213 812.017,117.573"/><polyline points="812.108,101.317 815.971,105.46 816.007,99.101 812.143,94.958 812.108,101.317"/><polyline points="812.195,85.775 816.058,89.918 816.094,83.558 812.23,79.415 812.195,85.775"/><polyline points="812.286,69.519 816.149,73.662 816.185,67.303 812.321,63.16 812.286,69.519"/><polyline points="812.377,53.271 816.24,57.414 816.276,51.054 812.413,46.911 812.377,53.271"/><polyline points="812.468,37.016 816.331,41.159 816.367,34.799 812.504,30.656 812.468,37.016"/><polyline points="812.559,20.767 816.422,24.91 816.458,18.551 812.595,14.408 812.559,20.767"/><polyline points="812.646,5.218 816.51,9.361 816.545,3.001 812.682,-1.142 812.646,5.218"/><polyline points="812.737,-11.031 816.601,-6.888 816.636,-13.247 812.773,-17.39 812.737,-11.031"/><polyline points="812.828,-27.286 816.692,-23.143 816.727,-29.502 812.864,-33.645 812.828,-27.286"/><polyline points="812.919,-43.541 816.783,-39.398 816.818,-45.758 812.955,-49.901 812.919,-43.541"/><polyline points="813.01,-59.79 816.874,-55.647 816.909,-62.006 813.046,-66.149 813.01,-59.79"/><polyline points="813.102,-76.045 816.965,-71.902 817.001,-78.262 813.137,-82.404 813.102,-76.045"/><polyline points="813.189,-91.587 817.052,-87.445 817.088,-93.804 813.224,-97.947 813.189,-91.587"/><polyline points="798.139,216.431 802.003,220.574 802.038,214.215 798.175,210.071 798.139,216.431"/><polyline points="798.23,200.176 802.094,204.319 802.129,197.959 798.266,193.816 798.23,200.176"/><polyline points="798.321,183.921 802.185,188.064 802.221,181.704 798.357,177.561 798.321,183.921"/><polyline points="798.408,168.378 802.272,172.521 802.308,166.162 798.444,162.019 798.408,168.378"/><polyline points="798.5,152.123 802.363,156.266 802.399,149.906 798.535,145.763 798.5,152.123"/><polyline points="798.591,135.874 802.454,140.017 802.49,133.658 798.626,129.515 798.591,135.874"/><polyline points="798.682,119.619 802.545,123.762 802.581,117.403 798.717,113.259 798.682,119.619"/><polyline points="798.773,103.37 802.636,107.514 802.672,101.154 798.808,97.011 798.773,103.37"/><polyline points="798.864,87.115 802.727,91.258 802.763,84.899 798.899,80.756 798.864,87.115"/><polyline points="798.951,71.573 802.815,75.716 802.85,69.356 798.987,65.213 798.951,71.573"/><polyline points="799.042,55.317 802.906,59.46 802.941,53.101 799.078,48.958 799.042,55.317"/><polyline points="799.133,39.069 802.997,43.212 803.032,36.852 799.169,32.709 799.133,39.069"/><polyline points="799.224,22.813 803.088,26.957 803.123,20.597 799.26,16.454 799.224,22.813"/><polyline points="799.315,6.565 803.179,10.708 803.214,4.349 799.351,0.205 799.315,6.565"/><polyline points="799.402,-8.985 803.266,-4.841 803.302,-11.201 799.438,-15.344 799.402,-8.985"/><polyline points="799.493,-25.233 803.357,-21.09 803.393,-27.449 799.529,-31.593 799.493,-25.233"/><polyline points="799.584,-41.488 803.448,-37.345 803.484,-43.704 799.62,-47.848 799.584,-41.488"/><polyline points="799.676,-57.743 803.539,-53.6 803.575,-59.96 799.711,-64.103 799.676,-57.743"/><polyline points="799.767,-73.992 803.63,-69.849 803.666,-76.208 799.802,-80.351 799.767,-73.992"/><polyline points="799.858,-90.247 803.721,-86.104 803.757,-92.464 799.893,-96.607 799.858,-90.247"/><polyline points="799.945,-105.79 803.808,-101.647 803.844,-108.006 799.98,-112.149 799.945,-105.79"/></g></g><path fill="#D29165" d="M997.271 220.093l-192.551-206.486 91.746-42.692 192.551 206.486-91.746 42.692zm-101.094-248.196l-90.072 41.913 191.449 205.304 90.072-41.913-191.449-205.304"/></g><g enable-background="new"><polygon fill="#887442" points="446.962,95.125 446.012,264.714 339.419,314.314 340.369,144.725"/><polygon fill="#A88F51" points="517.59,170.864 516.639,340.453 446.012,264.714 446.962,95.125"/><polygon fill="#A0A0A0" points="410.997,220.464 410.046,390.053 339.419,314.314 340.369,144.725"/><polygon fill="#D2D2D2" points="340.369,144.725 446.962,95.125 517.59,170.864 410.997,220.464"/><polygon fill="#818181" points="517.59,170.864 516.639,340.453 410.046,390.053 410.997,220.464"/><polygon fill="#887442" points="518.974,171.068 518.024,340.656 409.757,391.035 410.707,221.447"/><g enable-background="new"><defs><polygon id="c" enable-background="new" points="518.974,171.068 518.024,340.656 409.757,391.035 410.707,221.447"/></defs><clipPath id="d"><use xlink:href="#c" overflow="visible"/></clipPath><g fill="#436570" clip-path="url(#d)"><polyline points="337.636,510.904 586.167,395.256 586.203,388.897 337.671,504.544 337.636,510.904"/><polyline points="337.727,494.655 586.258,379.008 586.294,372.648 337.763,488.296 337.727,494.655"/><polyline points="337.818,478.4 586.35,362.753 586.385,356.393 337.854,472.04 337.818,478.4"/><polyline points="337.905,462.858 586.437,347.21 586.472,340.851 337.941,456.498 337.905,462.858"/><polyline points="337.996,446.602 586.528,330.955 586.563,324.595 338.032,440.243 337.996,446.602"/><polyline points="338.087,430.354 586.619,314.706 586.654,308.347 338.123,423.994 338.087,430.354"/><polyline points="338.178,414.098 586.71,298.451 586.746,292.091 338.214,407.739 338.178,414.098"/><polyline points="338.269,397.85 586.801,282.202 586.837,275.843 338.305,391.49 338.269,397.85"/><polyline points="338.36,381.594 586.892,265.947 586.928,259.588 338.396,375.235 338.36,381.594"/><polyline points="338.448,366.052 586.979,250.405 587.015,244.045 338.483,359.692 338.448,366.052"/><polyline points="338.539,349.797 587.07,234.149 587.106,227.79 338.574,343.437 338.539,349.797"/><polyline points="338.63,333.548 587.161,217.901 587.197,211.541 338.665,327.189 338.63,333.548"/><polyline points="338.721,317.293 587.252,201.646 587.288,195.286 338.756,310.934 338.721,317.293"/><polyline points="338.812,301.038 587.343,185.39 587.379,179.031 338.848,294.678 338.812,301.038"/><polyline points="338.899,285.495 587.431,169.848 587.466,163.488 338.935,279.136 338.899,285.495"/><polyline points="338.99,269.24 587.522,153.592 587.557,147.233 339.026,262.88 338.99,269.24"/><polyline points="339.081,252.991 587.613,137.344 587.648,130.984 339.117,246.632 339.081,252.991"/><polyline points="339.172,236.736 587.704,121.089 587.739,114.729 339.208,230.376 339.172,236.736"/><polyline points="339.263,220.488 587.795,104.84 587.831,98.481 339.299,214.128 339.263,220.488"/><polyline points="339.354,204.232 587.886,88.585 587.922,82.225 339.39,197.873 339.354,204.232"/><polyline points="339.441,188.69 587.973,73.042 588.009,66.683 339.477,182.33 339.441,188.69"/></g></g><polygon fill="#A88F51" points="410.707,221.447 409.757,391.035 338.027,314.114 338.977,144.525"/><g enable-background="new"><defs><polygon id="e" enable-background="new" points="410.707,221.447 409.757,391.035 338.027,314.114 338.977,144.525"/></defs><clipPath id="f"><use xlink:href="#e" overflow="visible"/></clipPath><g fill="#537D8B" clip-path="url(#f)"><polyline points="463.239,516.482 467.097,520.62 467.133,514.26 463.275,510.123 463.239,516.482"/><polyline points="463.33,500.227 467.188,504.364 467.224,498.005 463.366,493.867 463.33,500.227"/><polyline points="463.421,483.972 467.279,488.109 467.315,481.75 463.457,477.612 463.421,483.972"/><polyline points="463.508,468.429 467.366,472.567 467.402,466.207 463.544,462.07 463.508,468.429"/><polyline points="463.599,452.174 467.457,456.311 467.493,449.952 463.635,445.815 463.599,452.174"/><polyline points="463.69,435.926 467.549,440.063 467.584,433.703 463.726,429.566 463.69,435.926"/><polyline points="463.781,419.67 467.64,423.808 467.675,417.448 463.817,413.311 463.781,419.67"/><polyline points="463.872,403.422 467.731,407.559 467.766,401.2 463.908,397.062 463.872,403.422"/><polyline points="463.964,387.166 467.822,391.304 467.857,384.944 463.999,380.807 463.964,387.166"/><polyline points="464.051,371.624 467.909,375.761 467.944,369.402 464.086,365.264 464.051,371.624"/><polyline points="464.142,355.369 468,359.506 468.036,353.146 464.177,349.009 464.142,355.369"/><polyline points="464.233,339.12 468.091,343.257 468.127,336.898 464.268,332.76 464.233,339.12"/><polyline points="464.324,322.865 468.182,327.002 468.218,320.643 464.36,316.505 464.324,322.865"/><polyline points="464.415,306.616 468.273,310.754 468.309,304.394 464.451,300.257 464.415,306.616"/><polyline points="464.502,291.067 468.36,295.204 468.396,288.845 464.538,284.707 464.502,291.067"/><polyline points="464.593,274.818 468.451,278.956 468.487,272.596 464.629,268.459 464.593,274.818"/><polyline points="464.684,258.563 468.542,262.701 468.578,256.341 464.72,252.204 464.684,258.563"/><polyline points="464.775,242.308 468.634,246.445 468.669,240.086 464.811,235.948 464.775,242.308"/><polyline points="464.866,226.06 468.725,230.197 468.76,223.837 464.902,219.7 464.866,226.06"/><polyline points="464.957,209.804 468.816,213.942 468.851,207.582 464.993,203.445 464.957,209.804"/><polyline points="465.045,194.262 468.903,198.399 468.938,192.039 465.08,187.902 465.045,194.262"/><polyline points="449.995,502.28 453.859,506.423 453.894,500.064 450.031,495.921 449.995,502.28"/><polyline points="450.086,486.025 453.95,490.168 453.985,483.808 450.122,479.665 450.086,486.025"/><polyline points="450.178,469.77 454.041,473.913 454.076,467.553 450.213,463.41 450.178,469.77"/><polyline points="450.265,454.227 454.128,458.37 454.164,452.011 450.3,447.868 450.265,454.227"/><polyline points="450.356,437.972 454.219,442.115 454.255,435.755 450.391,431.613 450.356,437.972"/><polyline points="450.447,421.724 454.31,425.867 454.346,419.507 450.482,415.364 450.447,421.724"/><polyline points="450.538,405.468 454.401,409.611 454.437,403.252 450.573,399.109 450.538,405.468"/><polyline points="450.629,389.22 454.492,393.363 454.528,387.003 450.665,382.86 450.629,389.22"/><polyline points="450.72,372.964 454.583,377.107 454.619,370.748 450.756,366.605 450.72,372.964"/><polyline points="450.807,357.422 454.67,361.565 454.706,355.205 450.843,351.062 450.807,357.422"/><polyline points="450.898,341.167 454.761,345.309 454.797,338.95 450.934,334.807 450.898,341.167"/><polyline points="450.989,324.918 454.853,329.061 454.888,322.701 451.025,318.559 450.989,324.918"/><polyline points="451.08,308.663 454.944,312.806 454.979,306.446 451.116,302.303 451.08,308.663"/><polyline points="451.171,292.414 455.035,296.557 455.07,290.198 451.207,286.055 451.171,292.414"/><polyline points="451.259,276.865 455.122,281.008 455.157,274.648 451.294,270.505 451.259,276.865"/><polyline points="451.35,260.616 455.213,264.759 455.249,258.4 451.385,254.257 451.35,260.616"/><polyline points="451.441,244.361 455.304,248.504 455.34,242.145 451.476,238.002 451.441,244.361"/><polyline points="451.532,228.106 455.395,232.249 455.431,225.889 451.567,221.746 451.532,228.106"/><polyline points="451.623,211.858 455.486,216 455.522,209.641 451.658,205.498 451.623,211.858"/><polyline points="451.714,195.602 455.577,199.745 455.613,193.385 451.75,189.243 451.714,195.602"/><polyline points="451.801,180.06 455.664,184.203 455.7,177.843 451.837,173.7 451.801,180.06"/><polyline points="436.751,488.078 440.615,492.221 440.651,485.862 436.787,481.719 436.751,488.078"/><polyline points="436.843,471.823 440.706,475.966 440.742,469.606 436.878,465.463 436.843,471.823"/><polyline points="436.934,455.568 440.797,459.711 440.833,453.351 436.969,449.208 436.934,455.568"/><polyline points="437.021,440.025 440.884,444.168 440.92,437.809 437.056,433.666 437.021,440.025"/><polyline points="437.112,423.77 440.975,427.913 441.011,421.553 437.147,417.41 437.112,423.77"/><polyline points="437.203,407.521 441.066,411.665 441.102,405.305 437.239,401.162 437.203,407.521"/><polyline points="437.294,391.266 441.158,395.409 441.193,389.05 437.33,384.906 437.294,391.266"/><polyline points="437.385,375.018 441.249,379.161 441.284,372.801 437.421,368.658 437.385,375.018"/><polyline points="437.476,358.762 441.34,362.905 441.375,356.546 437.512,352.403 437.476,358.762"/><polyline points="437.563,343.22 441.427,347.363 441.462,341.003 437.599,336.86 437.563,343.22"/><polyline points="437.654,326.964 441.518,331.107 441.554,324.748 437.69,320.605 437.654,326.964"/><polyline points="437.745,310.716 441.609,314.859 441.645,308.499 437.781,304.356 437.745,310.716"/><polyline points="437.836,294.46 441.7,298.604 441.736,292.244 437.872,288.101 437.836,294.46"/><polyline points="437.928,278.212 441.791,282.355 441.827,275.996 437.963,271.852 437.928,278.212"/><polyline points="438.015,262.663 441.878,266.806 441.914,260.446 438.05,256.303 438.015,262.663"/><polyline points="438.106,246.414 441.969,250.557 442.005,244.198 438.141,240.054 438.106,246.414"/><polyline points="438.197,230.159 442.06,234.302 442.096,227.943 438.232,223.799 438.197,230.159"/><polyline points="438.288,213.904 442.151,218.047 442.187,211.687 438.324,207.544 438.288,213.904"/><polyline points="438.379,197.655 442.243,201.798 442.278,195.439 438.415,191.296 438.379,197.655"/><polyline points="438.47,181.4 442.334,185.543 442.369,179.183 438.506,175.04 438.47,181.4"/><polyline points="438.557,165.857 442.421,170.001 442.456,163.641 438.593,159.498 438.557,165.857"/><polyline points="423.513,473.882 427.371,478.019 427.407,471.659 423.549,467.522 423.513,473.882"/><polyline points="423.604,457.626 427.462,461.764 427.498,455.404 423.64,451.267 423.604,457.626"/><polyline points="423.695,441.371 427.553,445.509 427.589,439.149 423.731,435.012 423.695,441.371"/><polyline points="423.782,425.829 427.641,429.966 427.676,423.607 423.818,419.469 423.782,425.829"/><polyline points="423.873,409.573 427.732,413.711 427.767,407.351 423.909,403.214 423.873,409.573"/><polyline points="423.964,393.325 427.823,397.462 427.858,391.103 424,386.965 423.964,393.325"/><polyline points="424.056,377.069 427.914,381.207 427.949,374.847 424.091,370.71 424.056,377.069"/><polyline points="424.147,360.821 428.005,364.958 428.04,358.599 424.182,354.461 424.147,360.821"/><polyline points="424.238,344.566 428.096,348.703 428.132,342.343 424.273,338.206 424.238,344.566"/><polyline points="424.325,329.023 428.183,333.161 428.219,326.801 424.36,322.664 424.325,329.023"/><polyline points="424.416,312.768 428.274,316.905 428.31,310.546 424.452,306.408 424.416,312.768"/><polyline points="424.507,296.519 428.365,300.657 428.401,294.297 424.543,290.16 424.507,296.519"/><polyline points="424.598,280.264 428.456,284.401 428.492,278.042 424.634,273.904 424.598,280.264"/><polyline points="424.689,264.015 428.547,268.153 428.583,261.793 424.725,257.656 424.689,264.015"/><polyline points="424.776,248.466 428.634,252.603 428.67,246.244 424.812,242.106 424.776,248.466"/><polyline points="424.867,232.218 428.725,236.355 428.761,229.995 424.903,225.858 424.867,232.218"/><polyline points="424.958,215.963 428.817,220.1 428.852,213.74 424.994,209.603 424.958,215.963"/><polyline points="425.049,199.707 428.908,203.845 428.943,197.485 425.085,193.348 425.049,199.707"/><polyline points="425.141,183.459 428.999,187.596 429.034,181.237 425.176,177.099 425.141,183.459"/><polyline points="425.232,167.203 429.09,171.341 429.125,164.981 425.267,160.844 425.232,167.203"/><polyline points="425.319,151.661 429.177,155.798 429.213,149.439 425.354,145.301 425.319,151.661"/><polyline points="410.269,459.68 414.133,463.822 414.168,457.463 410.305,453.32 410.269,459.68"/><polyline points="410.361,443.424 414.224,447.567 414.259,441.208 410.396,437.065 410.361,443.424"/><polyline points="410.452,427.169 414.315,431.312 414.351,424.953 410.487,420.81 410.452,427.169"/><polyline points="410.539,411.627 414.402,415.77 414.438,409.41 410.574,405.267 410.539,411.627"/><polyline points="410.63,395.371 414.493,399.514 414.529,393.155 410.665,389.012 410.63,395.371"/><polyline points="410.721,379.123 414.584,383.266 414.62,376.906 410.757,372.763 410.721,379.123"/><polyline points="410.812,362.867 414.675,367.01 414.711,360.651 410.848,356.508 410.812,362.867"/><polyline points="410.903,346.619 414.766,350.762 414.802,344.402 410.939,340.259 410.903,346.619"/><polyline points="410.994,330.364 414.857,334.507 414.893,328.147 411.03,324.004 410.994,330.364"/><polyline points="411.081,314.821 414.945,318.964 414.98,312.604 411.117,308.462 411.081,314.821"/><polyline points="411.172,298.566 415.036,302.709 415.071,296.349 411.208,292.206 411.172,298.566"/><polyline points="411.263,282.317 415.127,286.46 415.162,280.101 411.299,275.958 411.263,282.317"/><polyline points="411.354,266.062 415.218,270.205 415.253,263.845 411.39,259.702 411.354,266.062"/><polyline points="411.445,249.813 415.309,253.956 415.344,247.597 411.481,243.454 411.445,249.813"/><polyline points="411.533,234.264 415.396,238.407 415.432,232.047 411.568,227.904 411.533,234.264"/><polyline points="411.624,218.016 415.487,222.158 415.523,215.799 411.659,211.656 411.624,218.016"/><polyline points="411.715,201.761 415.578,205.903 415.614,199.544 411.75,195.401 411.715,201.761"/><polyline points="411.806,185.505 415.669,189.648 415.705,183.289 411.841,179.146 411.806,185.505"/><polyline points="411.897,169.257 415.76,173.4 415.796,167.04 411.933,162.897 411.897,169.257"/><polyline points="411.988,153.001 415.851,157.144 415.887,150.785 412.024,146.642 411.988,153.001"/><polyline points="412.075,137.459 415.938,141.602 415.974,135.242 412.111,131.099 412.075,137.459"/><polyline points="397.026,445.477 400.889,449.62 400.925,443.261 397.061,439.118 397.026,445.477"/><polyline points="397.117,429.222 400.98,433.365 401.016,427.006 397.152,422.862 397.117,429.222"/><polyline points="397.208,412.967 401.071,417.11 401.107,410.751 397.243,406.607 397.208,412.967"/><polyline points="397.295,397.424 401.158,401.568 401.194,395.208 397.331,391.065 397.295,397.424"/><polyline points="397.386,381.169 401.25,385.312 401.285,378.953 397.422,374.809 397.386,381.169"/><polyline points="397.477,364.921 401.341,369.064 401.376,362.704 397.513,358.561 397.477,364.921"/><polyline points="397.568,348.665 401.432,352.808 401.467,346.449 397.604,342.306 397.568,348.665"/><polyline points="397.659,332.417 401.523,336.56 401.558,330.2 397.695,326.057 397.659,332.417"/><polyline points="397.75,316.161 401.614,320.305 401.649,313.945 397.786,309.802 397.75,316.161"/><polyline points="397.837,300.619 401.701,304.762 401.737,298.402 397.873,294.259 397.837,300.619"/><polyline points="397.928,284.363 401.792,288.507 401.828,282.147 397.964,278.004 397.928,284.363"/><polyline points="398.02,268.115 401.883,272.258 401.919,265.899 398.055,261.755 398.02,268.115"/><polyline points="398.111,251.86 401.974,256.003 402.01,249.643 398.146,245.5 398.111,251.86"/><polyline points="398.202,235.611 402.065,239.754 402.101,233.395 398.237,229.252 398.202,235.611"/><polyline points="398.289,220.062 402.152,224.205 402.188,217.845 398.324,213.702 398.289,220.062"/><polyline points="398.38,203.813 402.243,207.956 402.279,201.597 398.415,197.454 398.38,203.813"/><polyline points="398.471,187.558 402.335,191.701 402.37,185.342 398.507,181.199 398.471,187.558"/><polyline points="398.562,171.303 402.426,175.446 402.461,169.087 398.598,164.943 398.562,171.303"/><polyline points="398.653,155.054 402.517,159.198 402.552,152.838 398.689,148.695 398.653,155.054"/><polyline points="398.744,138.799 402.608,142.942 402.643,136.583 398.78,132.439 398.744,138.799"/><polyline points="398.831,123.257 402.695,127.4 402.73,121.04 398.867,116.897 398.831,123.257"/><polyline points="383.787,431.281 387.645,435.418 387.681,429.059 383.823,424.921 383.787,431.281"/><polyline points="383.878,415.025 387.736,419.163 387.772,412.803 383.914,408.666 383.878,415.025"/><polyline points="383.969,398.77 387.828,402.908 387.863,396.548 384.005,392.411 383.969,398.77"/><polyline points="384.056,383.228 387.915,387.365 387.95,381.006 384.092,376.868 384.056,383.228"/><polyline points="384.148,366.973 388.006,371.11 388.041,364.75 384.183,360.613 384.148,366.973"/><polyline points="384.239,350.724 388.097,354.861 388.132,348.502 384.274,344.364 384.239,350.724"/><polyline points="384.33,334.469 388.188,338.606 388.224,332.247 384.365,328.109 384.33,334.469"/><polyline points="384.421,318.22 388.279,322.358 388.315,315.998 384.456,311.861 384.421,318.22"/><polyline points="384.512,301.965 388.37,306.102 388.406,299.743 384.547,295.605 384.512,301.965"/><polyline points="384.599,286.422 388.457,290.56 388.493,284.2 384.635,280.063 384.599,286.422"/><polyline points="384.69,270.167 388.548,274.304 388.584,267.945 384.726,263.807 384.69,270.167"/><polyline points="384.781,253.919 388.639,258.056 388.675,251.696 384.817,247.559 384.781,253.919"/><polyline points="384.872,237.663 388.73,241.801 388.766,235.441 384.908,231.304 384.872,237.663"/><polyline points="384.963,221.415 388.821,225.552 388.857,219.193 384.999,215.055 384.963,221.415"/><polyline points="385.05,205.865 388.909,210.003 388.944,203.643 385.086,199.506 385.05,205.865"/><polyline points="385.141,189.617 389,193.754 389.035,187.395 385.177,183.257 385.141,189.617"/><polyline points="385.232,173.362 389.091,177.499 389.126,171.14 385.268,167.002 385.232,173.362"/><polyline points="385.324,157.106 389.182,161.244 389.217,154.884 385.359,150.747 385.324,157.106"/><polyline points="385.415,140.858 389.273,144.995 389.308,138.636 385.45,134.498 385.415,140.858"/><polyline points="385.506,124.603 389.364,128.74 389.4,122.38 385.541,118.243 385.506,124.603"/><polyline points="385.593,109.06 389.451,113.197 389.487,106.838 385.628,102.7 385.593,109.06"/><polyline points="370.544,417.079 374.407,421.222 374.443,414.862 370.579,410.719 370.544,417.079"/><polyline points="370.635,400.823 374.498,404.966 374.534,398.607 370.67,394.464 370.635,400.823"/><polyline points="370.726,384.568 374.589,388.711 374.625,382.352 370.761,378.209 370.726,384.568"/><polyline points="370.813,369.026 374.676,373.169 374.712,366.809 370.848,362.666 370.813,369.026"/><polyline points="370.904,352.771 374.767,356.913 374.803,350.554 370.94,346.411 370.904,352.771"/><polyline points="370.995,336.522 374.858,340.665 374.894,334.305 371.031,330.162 370.995,336.522"/><polyline points="371.086,320.267 374.949,324.41 374.985,318.05 371.122,313.907 371.086,320.267"/><polyline points="371.177,304.018 375.04,308.161 375.076,301.802 371.213,297.659 371.177,304.018"/><polyline points="371.268,287.763 375.132,291.906 375.167,285.546 371.304,281.403 371.268,287.763"/><polyline points="371.355,272.22 375.219,276.363 375.254,270.004 371.391,265.861 371.355,272.22"/><polyline points="371.446,255.965 375.31,260.108 375.345,253.748 371.482,249.605 371.446,255.965"/><polyline points="371.537,239.717 375.401,243.859 375.436,237.5 371.573,233.357 371.537,239.717"/><polyline points="371.629,223.461 375.492,227.604 375.528,221.244 371.664,217.102 371.629,223.461"/><polyline points="371.72,207.213 375.583,211.356 375.619,204.996 371.755,200.853 371.72,207.213"/><polyline points="371.807,191.663 375.67,195.806 375.706,189.447 371.842,185.304 371.807,191.663"/><polyline points="371.898,175.415 375.761,179.558 375.797,173.198 371.933,169.055 371.898,175.415"/><polyline points="371.989,159.16 375.852,163.303 375.888,156.943 372.025,152.8 371.989,159.16"/><polyline points="372.08,142.904 375.943,147.047 375.979,140.688 372.116,136.545 372.08,142.904"/><polyline points="372.171,126.656 376.034,130.799 376.07,124.439 372.207,120.296 372.171,126.656"/><polyline points="372.262,110.401 376.125,114.543 376.161,108.184 372.298,104.041 372.262,110.401"/><polyline points="372.349,94.858 376.213,99.001 376.248,92.641 372.385,88.498 372.349,94.858"/><polyline points="357.3,402.877 361.163,407.02 361.199,400.66 357.335,396.517 357.3,402.877"/><polyline points="357.391,386.621 361.254,390.764 361.29,384.405 357.426,380.262 357.391,386.621"/><polyline points="357.482,370.366 361.345,374.509 361.381,368.15 357.518,364.007 357.482,370.366"/><polyline points="357.569,354.824 361.433,358.967 361.468,352.607 357.605,348.464 357.569,354.824"/><polyline points="357.66,338.568 361.524,342.711 361.559,336.352 357.696,332.209 357.66,338.568"/><polyline points="357.751,322.32 361.615,326.463 361.65,320.103 357.787,315.96 357.751,322.32"/><polyline points="357.842,306.064 361.706,310.208 361.741,303.848 357.878,299.705 357.842,306.064"/><polyline points="357.933,289.816 361.797,293.959 361.833,287.6 357.969,283.456 357.933,289.816"/><polyline points="358.024,273.561 361.888,277.704 361.924,271.344 358.06,267.201 358.024,273.561"/><polyline points="358.111,258.018 361.975,262.161 362.011,255.802 358.147,251.658 358.111,258.018"/><polyline points="358.203,241.763 362.066,245.906 362.102,239.546 358.238,235.403 358.203,241.763"/><polyline points="358.294,225.514 362.157,229.657 362.193,223.298 358.329,219.155 358.294,225.514"/><polyline points="358.385,209.259 362.248,213.402 362.284,207.042 358.42,202.899 358.385,209.259"/><polyline points="358.476,193.01 362.339,197.154 362.375,190.794 358.511,186.651 358.476,193.01"/><polyline points="358.563,177.461 362.426,181.604 362.462,175.245 358.599,171.101 358.563,177.461"/><polyline points="358.654,161.212 362.518,165.356 362.553,158.996 358.69,154.853 358.654,161.212"/><polyline points="358.745,144.957 362.609,149.101 362.644,142.741 358.781,138.598 358.745,144.957"/><polyline points="358.836,128.702 362.7,132.845 362.735,126.486 358.872,122.343 358.836,128.702"/><polyline points="358.927,112.454 362.791,116.597 362.826,110.237 358.963,106.094 358.927,112.454"/><polyline points="359.018,96.198 362.882,100.341 362.918,93.982 359.054,89.839 359.018,96.198"/><polyline points="359.105,80.656 362.969,84.799 363.005,78.439 359.141,74.296 359.105,80.656"/><polyline points="344.061,388.68 347.919,392.817 347.955,386.458 344.097,382.32 344.061,388.68"/><polyline points="344.152,372.425 348.011,376.562 348.046,370.202 344.188,366.065 344.152,372.425"/><polyline points="344.243,356.17 348.102,360.307 348.137,353.947 344.279,349.81 344.243,356.17"/><polyline points="344.331,340.627 348.189,344.764 348.224,338.405 344.366,334.268 344.331,340.627"/><polyline points="344.422,324.372 348.28,328.509 348.315,322.15 344.457,318.012 344.422,324.372"/><polyline points="344.513,308.123 348.371,312.261 348.407,305.901 344.548,301.764 344.513,308.123"/><polyline points="344.604,291.868 348.462,296.005 348.498,289.646 344.639,285.508 344.604,291.868"/><polyline points="344.695,275.619 348.553,279.757 348.589,273.397 344.73,269.26 344.695,275.619"/><polyline points="344.786,259.364 348.644,263.501 348.68,257.142 344.822,253.005 344.786,259.364"/><polyline points="344.873,243.822 348.731,247.959 348.767,241.599 344.909,237.462 344.873,243.822"/><polyline points="344.964,227.566 348.822,231.704 348.858,225.344 345,221.207 344.964,227.566"/><polyline points="345.055,211.318 348.913,215.455 348.949,209.096 345.091,204.958 345.055,211.318"/><polyline points="345.146,195.062 349.004,199.2 349.04,192.84 345.182,188.703 345.146,195.062"/><polyline points="345.237,178.814 349.096,182.951 349.131,176.592 345.273,172.454 345.237,178.814"/><polyline points="345.324,163.264 349.183,167.402 349.218,161.042 345.36,156.905 345.324,163.264"/><polyline points="345.415,147.016 349.274,151.153 349.309,144.794 345.451,140.656 345.415,147.016"/><polyline points="345.507,130.761 349.365,134.898 349.4,128.539 345.542,124.401 345.507,130.761"/><polyline points="345.598,114.506 349.456,118.643 349.492,112.283 345.633,108.146 345.598,114.506"/><polyline points="345.689,98.257 349.547,102.395 349.583,96.035 345.724,91.898 345.689,98.257"/><polyline points="345.78,82.002 349.638,86.139 349.674,79.78 345.815,75.642 345.78,82.002"/><polyline points="345.867,66.459 349.725,70.597 349.761,64.237 345.903,60.1 345.867,66.459"/><polyline points="330.818,374.478 334.681,378.621 334.717,372.261 330.853,368.118 330.818,374.478"/><polyline points="330.909,358.223 334.772,362.366 334.808,356.006 330.944,351.863 330.909,358.223"/><polyline points="331,341.968 334.863,346.111 334.899,339.751 331.036,335.608 331,341.968"/><polyline points="331.087,326.425 334.95,330.568 334.986,324.208 331.123,320.066 331.087,326.425"/><polyline points="331.178,310.17 335.041,314.313 335.077,307.953 331.214,303.81 331.178,310.17"/><polyline points="331.269,293.921 335.132,298.064 335.168,291.705 331.305,287.562 331.269,293.921"/><polyline points="331.36,277.666 335.224,281.809 335.259,275.449 331.396,271.306 331.36,277.666"/><polyline points="331.451,261.417 335.315,265.56 335.35,259.201 331.487,255.058 331.451,261.417"/><polyline points="331.542,245.162 335.406,249.305 335.441,242.945 331.578,238.803 331.542,245.162"/><polyline points="331.629,229.62 335.493,233.762 335.528,227.403 331.665,223.26 331.629,229.62"/><polyline points="331.721,213.364 335.584,217.507 335.62,211.148 331.756,207.005 331.721,213.364"/><polyline points="331.812,197.116 335.675,201.259 335.711,194.899 331.847,190.756 331.812,197.116"/><polyline points="331.903,180.86 335.766,185.003 335.802,178.644 331.938,174.501 331.903,180.86"/><polyline points="331.994,164.612 335.857,168.755 335.893,162.395 332.029,158.252 331.994,164.612"/><polyline points="332.081,149.062 335.944,153.205 335.98,146.846 332.117,142.703 332.081,149.062"/><polyline points="332.172,132.814 336.035,136.957 336.071,130.597 332.208,126.454 332.172,132.814"/><polyline points="332.263,116.559 336.126,120.702 336.162,114.342 332.299,110.199 332.263,116.559"/><polyline points="332.354,100.304 336.217,104.447 336.253,98.087 332.39,93.944 332.354,100.304"/><polyline points="332.445,84.055 336.308,88.198 336.344,81.838 332.481,77.696 332.445,84.055"/><polyline points="332.536,67.8 336.4,71.943 336.435,65.583 332.572,61.44 332.536,67.8"/><polyline points="332.623,52.257 336.487,56.4 336.522,50.041 332.659,45.898 332.623,52.257"/><polyline points="317.574,360.276 321.437,364.419 321.473,358.059 317.609,353.916 317.574,360.276"/><polyline points="317.665,344.02 321.529,348.164 321.564,341.804 317.701,337.661 317.665,344.02"/><polyline points="317.756,327.765 321.62,331.909 321.655,325.549 317.792,321.406 317.756,327.765"/><polyline points="317.843,312.223 321.707,316.366 321.742,310.006 317.879,305.863 317.843,312.223"/><polyline points="317.934,295.967 321.798,300.111 321.833,293.751 317.97,289.608 317.934,295.967"/><polyline points="318.025,279.719 321.889,283.862 321.924,277.503 318.061,273.359 318.025,279.719"/><polyline points="318.116,263.464 321.98,267.607 322.016,261.247 318.152,257.104 318.116,263.464"/><polyline points="318.207,247.215 322.071,251.358 322.107,244.999 318.243,240.856 318.207,247.215"/><polyline points="318.299,230.96 322.162,235.103 322.198,228.743 318.334,224.6 318.299,230.96"/><polyline points="318.386,215.417 322.249,219.56 322.285,213.201 318.421,209.058 318.386,215.417"/><polyline points="318.477,199.162 322.34,203.305 322.376,196.946 318.512,192.802 318.477,199.162"/><polyline points="318.568,182.913 322.431,187.057 322.467,180.697 318.603,176.554 318.568,182.913"/><polyline points="318.659,166.658 322.522,170.801 322.558,164.442 318.694,160.298 318.659,166.658"/><polyline points="318.75,150.41 322.613,154.553 322.649,148.193 318.786,144.05 318.75,150.41"/><polyline points="318.837,134.86 322.701,139.003 322.736,132.644 318.873,128.501 318.837,134.86"/><polyline points="318.928,118.612 322.792,122.755 322.827,116.395 318.964,112.252 318.928,118.612"/><polyline points="319.019,102.357 322.883,106.5 322.918,100.14 319.055,95.997 319.019,102.357"/><polyline points="319.11,86.101 322.974,90.245 323.009,83.885 319.146,79.742 319.11,86.101"/><polyline points="319.201,69.853 323.065,73.996 323.101,67.636 319.237,63.493 319.201,69.853"/><polyline points="319.292,53.598 323.156,57.741 323.192,51.381 319.328,47.238 319.292,53.598"/><polyline points="319.38,38.055 323.243,42.198 323.279,35.839 319.415,31.695 319.38,38.055"/><polyline points="304.335,346.079 308.194,350.217 308.229,343.857 304.371,339.72 304.335,346.079"/><polyline points="304.426,329.824 308.285,333.961 308.32,327.602 304.462,323.464 304.426,329.824"/><polyline points="304.518,313.569 308.376,317.706 308.411,311.347 304.553,307.209 304.518,313.569"/><polyline points="304.605,298.026 308.463,302.164 308.499,295.804 304.64,291.667 304.605,298.026"/><polyline points="304.696,281.771 308.554,285.908 308.59,279.549 304.731,275.411 304.696,281.771"/><polyline points="304.787,265.522 308.645,269.66 308.681,263.3 304.822,259.163 304.787,265.522"/><polyline points="304.878,249.267 308.736,253.405 308.772,247.045 304.914,242.908 304.878,249.267"/><polyline points="304.969,233.019 308.827,237.156 308.863,230.796 305.005,226.659 304.969,233.019"/><polyline points="305.06,216.763 308.918,220.901 308.954,214.541 305.096,210.404 305.06,216.763"/><polyline points="305.147,201.221 309.005,205.358 309.041,198.999 305.183,194.861 305.147,201.221"/><polyline points="305.238,184.965 309.096,189.103 309.132,182.743 305.274,178.606 305.238,184.965"/><polyline points="305.329,168.717 309.188,172.854 309.223,166.495 305.365,162.357 305.329,168.717"/><polyline points="305.42,152.462 309.279,156.599 309.314,150.239 305.456,146.102 305.42,152.462"/><polyline points="305.511,136.213 309.37,140.351 309.405,133.991 305.547,129.854 305.511,136.213"/><polyline points="305.599,120.664 309.457,124.801 309.492,118.441 305.634,114.304 305.599,120.664"/><polyline points="305.69,104.415 309.548,108.553 309.583,102.193 305.725,98.056 305.69,104.415"/><polyline points="305.781,88.16 309.639,92.298 309.675,85.938 305.816,81.801 305.781,88.16"/><polyline points="305.872,71.905 309.73,76.042 309.766,69.683 305.907,65.545 305.872,71.905"/><polyline points="305.963,55.656 309.821,59.794 309.857,53.434 305.999,49.297 305.963,55.656"/><polyline points="306.054,39.401 309.912,43.538 309.948,37.179 306.09,33.041 306.054,39.401"/><polyline points="306.141,23.858 309.999,27.996 310.035,21.636 306.177,17.499 306.141,23.858"/><polyline points="291.092,331.877 294.955,336.02 294.991,329.661 291.127,325.518 291.092,331.877"/><polyline points="291.183,315.622 295.046,319.765 295.082,313.405 291.219,309.262 291.183,315.622"/><polyline points="291.274,299.367 295.137,303.51 295.173,297.15 291.31,293.007 291.274,299.367"/><polyline points="291.361,283.824 295.224,287.967 295.26,281.608 291.397,277.465 291.361,283.824"/><polyline points="291.452,267.569 295.316,271.712 295.351,265.352 291.488,261.209 291.452,267.569"/><polyline points="291.543,251.32 295.407,255.463 295.442,249.104 291.579,244.961 291.543,251.32"/><polyline points="291.634,235.065 295.498,239.208 295.533,232.848 291.67,228.706 291.634,235.065"/><polyline points="291.725,218.817 295.589,222.96 295.624,216.6 291.761,212.457 291.725,218.817"/><polyline points="291.816,202.561 295.68,206.704 295.715,200.345 291.852,196.202 291.816,202.561"/><polyline points="291.904,187.019 295.767,191.162 295.803,184.802 291.939,180.659 291.904,187.019"/><polyline points="291.995,170.763 295.858,174.906 295.894,168.547 292.03,164.404 291.995,170.763"/><polyline points="292.086,154.515 295.949,158.658 295.985,152.298 292.121,148.155 292.086,154.515"/><polyline points="292.177,138.26 296.04,142.402 296.076,136.043 292.212,131.9 292.177,138.26"/><polyline points="292.268,122.011 296.131,126.154 296.167,119.794 292.303,115.652 292.268,122.011"/><polyline points="292.355,106.462 296.218,110.605 296.254,104.245 292.391,100.102 292.355,106.462"/><polyline points="292.446,90.213 296.309,94.356 296.345,87.997 292.482,83.854 292.446,90.213"/><polyline points="292.537,73.958 296.4,78.101 296.436,71.742 292.573,67.599 292.537,73.958"/><polyline points="292.628,57.703 296.492,61.846 296.527,55.486 292.664,51.343 292.628,57.703"/><polyline points="292.719,41.454 296.583,45.597 296.618,39.238 292.755,35.095 292.719,41.454"/><polyline points="292.81,25.199 296.674,29.342 296.709,22.982 292.846,18.839 292.81,25.199"/><polyline points="292.897,9.656 296.761,13.799 296.796,7.44 292.933,3.297 292.897,9.656"/><polyline points="277.848,317.675 281.712,321.818 281.747,315.459 277.884,311.315 277.848,317.675"/><polyline points="277.939,301.42 281.803,305.563 281.838,299.203 277.975,295.06 277.939,301.42"/><polyline points="278.03,285.165 281.894,289.308 281.929,282.948 278.066,278.805 278.03,285.165"/><polyline points="278.117,269.622 281.981,273.765 282.016,267.406 278.153,263.262 278.117,269.622"/><polyline points="278.208,253.367 282.072,257.51 282.108,251.15 278.244,247.007 278.208,253.367"/><polyline points="278.299,237.118 282.163,241.261 282.199,234.902 278.335,230.759 278.299,237.118"/><polyline points="278.391,220.863 282.254,225.006 282.29,218.646 278.426,214.503 278.391,220.863"/><polyline points="278.482,204.614 282.345,208.758 282.381,202.398 278.517,198.255 278.482,204.614"/><polyline points="278.573,188.359 282.436,192.502 282.472,186.143 278.608,181.999 278.573,188.359"/><polyline points="278.66,172.816 282.523,176.96 282.559,170.6 278.695,166.457 278.66,172.816"/><polyline points="278.751,156.561 282.614,160.704 282.65,154.345 278.786,150.202 278.751,156.561"/><polyline points="278.842,140.313 282.705,144.456 282.741,138.096 278.878,133.953 278.842,140.313"/><polyline points="278.933,124.057 282.797,128.2 282.832,121.841 278.969,117.698 278.933,124.057"/><polyline points="279.024,107.809 282.888,111.952 282.923,105.592 279.06,101.449 279.024,107.809"/><polyline points="279.111,92.259 282.975,96.403 283.01,90.043 279.147,85.9 279.111,92.259"/><polyline points="279.202,76.011 283.066,80.154 283.101,73.795 279.238,69.651 279.202,76.011"/><polyline points="279.293,59.756 283.157,63.899 283.193,57.54 279.329,53.396 279.293,59.756"/><polyline points="279.384,43.501 283.248,47.644 283.284,41.284 279.42,37.141 279.384,43.501"/><polyline points="279.475,27.252 283.339,31.395 283.375,25.036 279.511,20.892 279.475,27.252"/><polyline points="279.567,10.997 283.43,15.14 283.466,8.78 279.602,4.637 279.567,10.997"/><polyline points="279.654,-4.546 283.517,-0.403 283.553,-6.762 279.689,-10.905 279.654,-4.546"/></g></g><path fill="#DDBC6B" d="M410.707 221.447l-71.73-76.921 108.267-50.379 71.73 76.921-108.267 50.379zm36.255-126.322l-106.593 49.6 70.628 75.739 106.593-49.6-70.628-75.739"/></g></g></svg>