<?xml version="1.0" encoding="utf-8"?>
<!-- Generator: Adobe Illustrator 17.1.0, SVG Export Plug-In . SVG Version: 6.00 Build 0)  -->
<!DOCTYPE svg PUBLIC "-//W3C//DTD SVG 1.1//EN" "http://www.w3.org/Graphics/SVG/1.1/DTD/svg11.dtd">
<svg version="1.1" xmlns="http://www.w3.org/2000/svg" xmlns:xlink="http://www.w3.org/1999/xlink" x="0px" y="0px"
	 viewBox="0 0 1053 554" enable-background="new 0 0 1053 554" xml:space="preserve">
<g id="Ground">
</g>
<g id="Buildings_and_Mid_Details">
	<g>
		<g enable-background="new    ">
			<g>
				<polygon fill="#8E6245" points="1040.684,429.285 1040.486,464.616 929.292,516.357 929.49,481.026 				"/>
			</g>
			<g>
				<polygon fill="#8C6144" points="1149.379,545.846 1149.181,581.177 1040.486,464.616 1040.684,429.285 				"/>
			</g>
			<g>
				<polygon fill="#8B8B8B" points="1038.185,597.587 1037.987,632.918 929.292,516.357 929.49,481.026 				"/>
			</g>
			<g>
				<path fill="#E09A6C" d="M1037.903,598.565L928.106,480.822l112.868-52.52l109.797,117.743L1037.903,598.565z M1040.684,429.285
					L929.49,481.026l108.695,116.561l111.194-51.741L1040.684,429.285"/>
			</g>
			<g>
				<polygon fill="#DEDEDE" points="929.49,481.026 1040.684,429.284 1149.379,545.846 1038.185,597.587 				"/>
			</g>
			<g>
				<polygon fill="#8C6144" points="1037.903,598.565 1037.705,633.896 927.908,516.153 928.106,480.822 				"/>
				<g enable-background="new    ">
					<defs>
						<polygon id="SVGID_1_" enable-background="new    " points="1037.903,598.565 1037.705,633.896 927.908,516.153 
							928.106,480.822 						"/>
					</defs>
					<clipPath id="SVGID_2_">
						<use xlink:href="#SVGID_1_"  overflow="visible"/>
					</clipPath>
					<g clip-path="url(#SVGID_2_)">
						<g>
							<g>
								<g>
									<polyline fill="#486D79" points="1066.614,803.878 1070.472,808.016 1070.507,801.656 1066.649,797.519 1066.614,803.878 
																			"/>
									<polyline fill="#486D79" points="1066.705,787.623 1070.563,791.76 1070.599,785.401 1066.74,781.263 1066.705,787.623 
																			"/>
									<polyline fill="#486D79" points="1066.796,771.368 1070.654,775.505 1070.69,769.146 1066.831,765.008 1066.796,771.368 
																			"/>
									<polyline fill="#486D79" points="1066.883,755.825 1070.741,759.963 1070.777,753.603 1066.918,749.466 1066.883,755.825 
																			"/>
									<polyline fill="#486D79" points="1066.974,739.57 1070.832,743.707 1070.868,737.348 1067.01,733.21 1066.974,739.57 
																			"/>
									<polyline fill="#486D79" points="1067.065,723.321 1070.923,727.459 1070.959,721.099 1067.101,716.962 1067.065,723.321 
																			"/>
									<polyline fill="#486D79" points="1067.156,707.066 1071.014,711.203 1071.05,704.844 1067.192,700.707 1067.156,707.066 
																			"/>
									<polyline fill="#486D79" points="1067.247,690.818 1071.105,694.955 1071.141,688.595 1067.283,684.458 1067.247,690.818 
																			"/>
									<polyline fill="#486D79" points="1067.338,674.562 1071.196,678.7 1071.232,672.34 1067.374,668.203 1067.338,674.562 
																			"/>
									<polyline fill="#486D79" points="1067.425,659.02 1071.283,663.157 1071.319,656.798 1067.461,652.66 1067.425,659.02 
																			"/>
									<polyline fill="#486D79" points="1067.516,642.764 1071.375,646.902 1071.41,640.542 1067.552,636.405 1067.516,642.764 
																			"/>
									<polyline fill="#486D79" points="1067.607,626.516 1071.466,630.653 1071.501,624.294 1067.643,620.156 1067.607,626.516 
																			"/>
									<polyline fill="#486D79" points="1067.698,610.261 1071.557,614.398 1071.592,608.038 1067.734,603.901 1067.698,610.261 
																			"/>
									<polyline fill="#486D79" points="1067.79,594.012 1071.648,598.149 1071.683,591.79 1067.825,587.653 1067.79,594.012 
																			"/>
									<polyline fill="#486D79" points="1067.877,578.463 1071.735,582.6 1071.771,576.24 1067.912,572.103 1067.877,578.463 
																			"/>
									<polyline fill="#486D79" points="1067.968,562.214 1071.826,566.352 1071.862,559.992 1068.003,555.855 1067.968,562.214 
																			"/>
									<polyline fill="#486D79" points="1068.059,545.959 1071.917,550.097 1071.953,543.737 1068.094,539.6 1068.059,545.959 
																			"/>
									<polyline fill="#486D79" points="1068.15,529.704 1072.008,533.841 1072.044,527.482 1068.186,523.344 1068.15,529.704 
																			"/>
									<polyline fill="#486D79" points="1068.241,513.455 1072.099,517.593 1072.135,511.233 1068.277,507.096 1068.241,513.455 
																			"/>
									<polyline fill="#486D79" points="1068.332,497.2 1072.19,501.337 1072.226,494.978 1068.368,490.84 1068.332,497.2 
																			"/>
									<polyline fill="#486D79" points="1068.419,481.657 1072.277,485.795 1072.313,479.435 1068.455,475.298 1068.419,481.657 
																			"/>
									<polyline fill="#486D79" points="1053.37,789.676 1057.233,793.819 1057.269,787.46 1053.406,783.317 1053.37,789.676 
																			"/>
									<polyline fill="#486D79" points="1053.461,773.421 1057.324,777.564 1057.36,771.204 1053.497,767.061 1053.461,773.421 
																			"/>
									<polyline fill="#486D79" points="1053.552,757.166 1057.415,761.309 1057.451,754.949 1053.588,750.806 1053.552,757.166 
																			"/>
									<polyline fill="#486D79" points="1053.639,741.623 1057.503,745.766 1057.538,739.407 1053.675,735.264 1053.639,741.623 
																			"/>
									<polyline fill="#486D79" points="1053.73,725.368 1057.594,729.511 1057.629,723.151 1053.766,719.008 1053.73,725.368 
																			"/>
									<polyline fill="#486D79" points="1053.821,709.119 1057.685,713.262 1057.72,706.903 1053.857,702.76 1053.821,709.119 
																			"/>
									<polyline fill="#486D79" points="1053.912,692.864 1057.776,697.007 1057.811,690.647 1053.948,686.505 1053.912,692.864 
																			"/>
									<polyline fill="#486D79" points="1054.004,676.616 1057.867,680.759 1057.902,674.399 1054.039,670.256 1054.004,676.616 
																			"/>
									<polyline fill="#486D79" points="1054.095,660.36 1057.958,664.503 1057.994,658.144 1054.13,654.001 1054.095,660.36 
																			"/>
									<polyline fill="#486D79" points="1054.182,644.818 1058.045,648.961 1058.081,642.601 1054.217,638.458 1054.182,644.818 
																			"/>
									<polyline fill="#486D79" points="1054.273,628.562 1058.136,632.705 1058.172,626.346 1054.308,622.203 1054.273,628.562 
																			"/>
									<polyline fill="#486D79" points="1054.364,612.314 1058.227,616.457 1058.263,610.097 1054.4,605.954 1054.364,612.314 
																			"/>
									<polyline fill="#486D79" points="1054.455,596.059 1058.318,600.201 1058.354,593.842 1054.491,589.699 1054.455,596.059 
																			"/>
									<polyline fill="#486D79" points="1054.546,579.81 1058.409,583.953 1058.445,577.593 1054.582,573.451 1054.546,579.81 
																			"/>
									<polyline fill="#486D79" points="1054.633,564.261 1058.496,568.404 1058.532,562.044 1054.669,557.901 1054.633,564.261 
																			"/>
									<polyline fill="#486D79" points="1054.724,548.012 1058.588,552.155 1058.623,545.796 1054.76,541.653 1054.724,548.012 
																			"/>
									<polyline fill="#486D79" points="1054.815,531.757 1058.679,535.9 1058.714,529.54 1054.851,525.398 1054.815,531.757 
																			"/>
									<polyline fill="#486D79" points="1054.906,515.502 1058.77,519.645 1058.805,513.285 1054.942,509.142 1054.906,515.502 
																			"/>
									<polyline fill="#486D79" points="1054.997,499.253 1058.861,503.396 1058.896,497.037 1055.033,492.894 1054.997,499.253 
																			"/>
									<polyline fill="#486D79" points="1055.089,482.998 1058.952,487.141 1058.987,480.781 1055.124,476.638 1055.089,482.998 
																			"/>
									<polyline fill="#486D79" points="1055.176,467.455 1059.039,471.598 1059.075,465.239 1055.211,461.096 1055.176,467.455 
																			"/>
									<polyline fill="#486D79" points="1040.126,775.474 1043.99,779.617 1044.025,773.258 1040.162,769.114 1040.126,775.474 
																			"/>
									<polyline fill="#486D79" points="1040.217,759.219 1044.081,763.362 1044.116,757.002 1040.253,752.859 1040.217,759.219 
																			"/>
									<polyline fill="#486D79" points="1040.308,742.964 1044.172,747.107 1044.208,740.747 1040.344,736.604 1040.308,742.964 
																			"/>
									<polyline fill="#486D79" points="1040.395,727.421 1044.259,731.564 1044.295,725.205 1040.431,721.061 1040.395,727.421 
																			"/>
									<polyline fill="#486D79" points="1040.486,711.166 1044.35,715.309 1044.386,708.949 1040.522,704.806 1040.486,711.166 
																			"/>
									<polyline fill="#486D79" points="1040.578,694.917 1044.441,699.06 1044.477,692.701 1040.613,688.558 1040.578,694.917 
																			"/>
									<polyline fill="#486D79" points="1040.669,678.662 1044.532,682.805 1044.568,676.445 1040.704,672.302 1040.669,678.662 
																			"/>
									<polyline fill="#486D79" points="1040.76,662.413 1044.623,666.557 1044.659,660.197 1040.795,656.054 1040.76,662.413 
																			"/>
									<polyline fill="#486D79" points="1040.851,646.158 1044.714,650.301 1044.75,643.942 1040.886,639.798 1040.851,646.158 
																			"/>
									<polyline fill="#486D79" points="1040.938,630.615 1044.802,634.759 1044.837,628.399 1040.974,624.256 1040.938,630.615 
																			"/>
									<polyline fill="#486D79" points="1041.029,614.36 1044.893,618.503 1044.928,612.144 1041.065,608 1041.029,614.36 
																			"/>
									<polyline fill="#486D79" points="1041.12,598.112 1044.984,602.255 1045.019,595.895 1041.156,591.752 1041.12,598.112 
																			"/>
									<polyline fill="#486D79" points="1041.211,581.856 1045.075,585.999 1045.11,579.64 1041.247,575.497 1041.211,581.856 
																			"/>
									<polyline fill="#486D79" points="1041.302,565.608 1045.166,569.751 1045.201,563.391 1041.338,559.248 1041.302,565.608 
																			"/>
									<polyline fill="#486D79" points="1041.389,550.058 1045.253,554.202 1045.289,547.842 1041.425,543.699 1041.389,550.058 
																			"/>
									<polyline fill="#486D79" points="1041.48,533.81 1045.344,537.953 1045.38,531.594 1041.516,527.45 1041.48,533.81 
																			"/>
									<polyline fill="#486D79" points="1041.571,517.555 1045.435,521.698 1045.471,515.339 1041.607,511.195 1041.571,517.555 
																			"/>
									<polyline fill="#486D79" points="1041.662,501.3 1045.526,505.443 1045.562,499.083 1041.698,494.94 1041.662,501.3 
																			"/>
									<polyline fill="#486D79" points="1041.754,485.051 1045.617,489.194 1045.653,482.835 1041.789,478.691 1041.754,485.051 
																			"/>
									<polyline fill="#486D79" points="1041.845,468.796 1045.708,472.939 1045.744,466.579 1041.88,462.436 1041.845,468.796 
																			"/>
									<polyline fill="#486D79" points="1041.932,453.253 1045.795,457.396 1045.831,451.037 1041.967,446.894 1041.932,453.253 
																			"/>
									<polyline fill="#486D79" points="1026.888,761.277 1030.746,765.415 1030.781,759.055 1026.923,754.918 1026.888,761.277 
																			"/>
									<polyline fill="#486D79" points="1026.979,745.022 1030.837,749.159 1030.873,742.8 1027.014,738.662 1026.979,745.022 
																			"/>
									<polyline fill="#486D79" points="1027.07,728.767 1030.928,732.904 1030.964,726.545 1027.105,722.407 1027.07,728.767 
																			"/>
									<polyline fill="#486D79" points="1027.157,713.224 1031.015,717.362 1031.051,711.002 1027.193,706.865 1027.157,713.224 
																			"/>
									<polyline fill="#486D79" points="1027.248,696.969 1031.106,701.107 1031.142,694.747 1027.284,690.61 1027.248,696.969 
																			"/>
									<polyline fill="#486D79" points="1027.339,680.721 1031.197,684.858 1031.233,678.498 1027.375,674.361 1027.339,680.721 
																			"/>
									<polyline fill="#486D79" points="1027.43,664.465 1031.288,668.603 1031.324,662.243 1027.466,658.106 1027.43,664.465 
																			"/>
									<polyline fill="#486D79" points="1027.521,648.217 1031.379,652.354 1031.415,645.995 1027.557,641.857 1027.521,648.217 
																			"/>
									<polyline fill="#486D79" points="1027.612,631.961 1031.47,636.099 1031.506,629.739 1027.648,625.602 1027.612,631.961 
																			"/>
									<polyline fill="#486D79" points="1027.699,616.419 1031.558,620.556 1031.593,614.197 1027.735,610.059 1027.699,616.419 
																			"/>
									<polyline fill="#486D79" points="1027.791,600.164 1031.649,604.301 1031.684,597.941 1027.826,593.804 1027.791,600.164 
																			"/>
									<polyline fill="#486D79" points="1027.882,583.915 1031.74,588.053 1031.775,581.693 1027.917,577.556 1027.882,583.915 
																			"/>
									<polyline fill="#486D79" points="1027.973,567.66 1031.831,571.797 1031.866,565.438 1028.008,561.3 1027.973,567.66 
																			"/>
									<polyline fill="#486D79" points="1028.064,551.411 1031.922,555.549 1031.958,549.189 1028.099,545.052 1028.064,551.411 
																			"/>
									<polyline fill="#486D79" points="1028.151,535.862 1032.009,539.999 1032.045,533.64 1028.187,529.502 1028.151,535.862 
																			"/>
									<polyline fill="#486D79" points="1028.242,519.613 1032.1,523.751 1032.136,517.391 1028.278,513.254 1028.242,519.613 
																			"/>
									<polyline fill="#486D79" points="1028.333,503.358 1032.191,507.496 1032.227,501.136 1028.369,496.999 1028.333,503.358 
																			"/>
									<polyline fill="#486D79" points="1028.424,487.103 1032.282,491.24 1032.318,484.881 1028.46,480.743 1028.424,487.103 
																			"/>
									<polyline fill="#486D79" points="1028.515,470.855 1032.373,474.992 1032.409,468.632 1028.551,464.495 1028.515,470.855 
																			"/>
									<polyline fill="#486D79" points="1028.606,454.599 1032.464,458.737 1032.5,452.377 1028.642,448.24 1028.606,454.599 
																			"/>
									<polyline fill="#486D79" points="1028.693,439.057 1032.552,443.194 1032.587,436.834 1028.729,432.697 1028.693,439.057 
																			"/>
									<polyline fill="#486D79" points="1013.644,747.075 1017.507,751.218 1017.543,744.859 1013.68,740.716 1013.644,747.075 
																			"/>
									<polyline fill="#486D79" points="1013.735,730.82 1017.599,734.963 1017.634,728.603 1013.771,724.46 1013.735,730.82 
																			"/>
									<polyline fill="#486D79" points="1013.826,714.565 1017.69,718.708 1017.725,712.348 1013.862,708.205 1013.826,714.565 
																			"/>
									<polyline fill="#486D79" points="1013.913,699.023 1017.777,703.165 1017.812,696.806 1013.949,692.663 1013.913,699.023 
																			"/>
									<polyline fill="#486D79" points="1014.004,682.767 1017.868,686.91 1017.903,680.55 1014.04,676.408 1014.004,682.767 
																			"/>
									<polyline fill="#486D79" points="1014.096,666.519 1017.959,670.662 1017.994,664.302 1014.131,660.159 1014.096,666.519 
																			"/>
									<polyline fill="#486D79" points="1014.187,650.263 1018.05,654.406 1018.086,648.047 1014.222,643.904 1014.187,650.263 
																			"/>
									<polyline fill="#486D79" points="1014.278,634.015 1018.141,638.158 1018.177,631.798 1014.313,627.655 1014.278,634.015 
																			"/>
									<polyline fill="#486D79" points="1014.369,617.759 1018.232,621.902 1018.268,615.543 1014.404,611.4 1014.369,617.759 
																			"/>
									<polyline fill="#486D79" points="1014.456,602.217 1018.319,606.36 1018.355,600 1014.491,595.857 1014.456,602.217 
																			"/>
									<polyline fill="#486D79" points="1014.547,585.962 1018.41,590.104 1018.446,583.745 1014.583,579.602 1014.547,585.962 
																			"/>
									<polyline fill="#486D79" points="1014.638,569.713 1018.501,573.856 1018.537,567.496 1014.674,563.354 1014.638,569.713 
																			"/>
									<polyline fill="#486D79" points="1014.729,553.458 1018.592,557.601 1018.628,551.241 1014.765,547.098 1014.729,553.458 
																			"/>
									<polyline fill="#486D79" points="1014.82,537.209 1018.683,541.352 1018.719,534.993 1014.856,530.85 1014.82,537.209 
																			"/>
									<polyline fill="#486D79" points="1014.907,521.66 1018.771,525.803 1018.806,519.443 1014.943,515.3 1014.907,521.66 
																			"/>
									<polyline fill="#486D79" points="1014.998,505.411 1018.862,509.554 1018.897,503.195 1015.034,499.052 1014.998,505.411 
																			"/>
									<polyline fill="#486D79" points="1015.089,489.156 1018.953,493.299 1018.988,486.94 1015.125,482.797 1015.089,489.156 
																			"/>
									<polyline fill="#486D79" points="1015.18,472.901 1019.044,477.044 1019.079,470.684 1015.216,466.541 1015.18,472.901 
																			"/>
									<polyline fill="#486D79" points="1015.272,456.653 1019.135,460.795 1019.171,454.436 1015.307,450.293 1015.272,456.653 
																			"/>
									<polyline fill="#486D79" points="1015.363,440.397 1019.226,444.54 1019.262,438.181 1015.398,434.038 1015.363,440.397 
																			"/>
									<polyline fill="#486D79" points="1015.45,424.855 1019.313,428.998 1019.349,422.638 1015.485,418.495 1015.45,424.855 
																			"/>
									<polyline fill="#486D79" points="1000.4,732.873 1004.264,737.016 1004.299,730.657 1000.436,726.514 1000.4,732.873 
																			"/>
									<polyline fill="#486D79" points="1000.491,716.618 1004.355,720.761 1004.391,714.401 1000.527,710.258 1000.491,716.618 
																			"/>
									<polyline fill="#486D79" points="1000.582,700.363 1004.446,704.506 1004.482,698.146 1000.618,694.003 1000.582,700.363 
																			"/>
									<polyline fill="#486D79" points="1000.669,684.82 1004.533,688.963 1004.569,682.604 1000.705,678.461 1000.669,684.82 
																			"/>
									<polyline fill="#486D79" points="1000.761,668.565 1004.624,672.708 1004.66,666.348 1000.796,662.205 1000.761,668.565 
																			"/>
									<polyline fill="#486D79" points="1000.852,652.316 1004.715,656.46 1004.751,650.1 1000.887,645.957 1000.852,652.316 
																			"/>
									<polyline fill="#486D79" points="1000.943,636.061 1004.806,640.204 1004.842,633.845 1000.978,629.701 1000.943,636.061 
																			"/>
									<polyline fill="#486D79" points="1001.034,619.813 1004.897,623.956 1004.933,617.596 1001.069,613.453 1001.034,619.813 
																			"/>
									<polyline fill="#486D79" points="1001.125,603.557 1004.988,607.7 1005.024,601.341 1001.161,597.198 1001.125,603.557 
																			"/>
									<polyline fill="#486D79" points="1001.212,588.015 1005.076,592.158 1005.111,585.798 1001.248,581.655 1001.212,588.015 
																			"/>
									<polyline fill="#486D79" points="1001.303,571.759 1005.167,575.902 1005.202,569.543 1001.339,565.4 1001.303,571.759 
																			"/>
									<polyline fill="#486D79" points="1001.394,555.511 1005.258,559.654 1005.293,553.294 1001.43,549.151 1001.394,555.511 
																			"/>
									<polyline fill="#486D79" points="1001.485,539.255 1005.349,543.399 1005.384,537.039 1001.521,532.896 1001.485,539.255 
																			"/>
									<polyline fill="#486D79" points="1001.576,523.007 1005.44,527.15 1005.476,520.791 1001.612,516.647 1001.576,523.007 
																			"/>
									<polyline fill="#486D79" points="1001.663,507.458 1005.527,511.601 1005.563,505.241 1001.699,501.098 1001.663,507.458 
																			"/>
									<polyline fill="#486D79" points="1001.754,491.209 1005.618,495.352 1005.654,488.993 1001.79,484.85 1001.754,491.209 
																			"/>
									<polyline fill="#486D79" points="1001.846,474.954 1005.709,479.097 1005.745,472.738 1001.881,468.595 1001.846,474.954 
																			"/>
									<polyline fill="#486D79" points="1001.937,458.699 1005.8,462.842 1005.836,456.482 1001.972,452.339 1001.937,458.699 
																			"/>
									<polyline fill="#486D79" points="1002.028,442.45 1005.891,446.593 1005.927,440.234 1002.063,436.091 1002.028,442.45 
																			"/>
									<polyline fill="#486D79" points="1002.119,426.195 1005.982,430.338 1006.018,423.979 1002.154,419.835 1002.119,426.195 
																			"/>
									<polyline fill="#486D79" points="1002.206,410.652 1006.069,414.796 1006.105,408.436 1002.242,404.293 1002.206,410.652 
																			"/>
									<polyline fill="#486D79" points="987.162,718.677 991.02,722.814 991.056,716.454 987.197,712.317 987.162,718.677 
																			"/>
									<polyline fill="#486D79" points="987.253,702.421 991.111,706.559 991.147,700.199 987.289,696.062 987.253,702.421 
																			"/>
									<polyline fill="#486D79" points="987.344,686.166 991.202,690.304 991.238,683.944 987.38,679.807 987.344,686.166 
																			"/>
									<polyline fill="#486D79" points="987.431,670.624 991.289,674.761 991.325,668.402 987.467,664.264 987.431,670.624 
																			"/>
									<polyline fill="#486D79" points="987.522,654.368 991.38,658.506 991.416,652.146 987.558,648.009 987.522,654.368 
																			"/>
									<polyline fill="#486D79" points="987.613,638.12 991.471,642.257 991.507,635.898 987.649,631.76 987.613,638.12 									
										"/>
									<polyline fill="#486D79" points="987.704,621.865 991.562,626.002 991.598,619.642 987.74,615.505 987.704,621.865 
																			"/>
									<polyline fill="#486D79" points="987.795,605.616 991.654,609.753 991.689,603.394 987.831,599.256 987.795,605.616 
																			"/>
									<polyline fill="#486D79" points="987.886,589.361 991.745,593.498 991.78,587.139 987.922,583.001 987.886,589.361 
																			"/>
									<polyline fill="#486D79" points="987.974,573.818 991.832,577.956 991.867,571.596 988.009,567.459 987.974,573.818 
																			"/>
									<polyline fill="#486D79" points="988.065,557.563 991.923,561.7 991.958,555.341 988.1,551.203 988.065,557.563 									
										"/>
									<polyline fill="#486D79" points="988.156,541.314 992.014,545.452 992.049,539.092 988.191,534.955 988.156,541.314 
																			"/>
									<polyline fill="#486D79" points="988.247,525.059 992.105,529.196 992.141,522.837 988.282,518.699 988.247,525.059 
																			"/>
									<polyline fill="#486D79" points="988.338,508.811 992.196,512.948 992.232,506.588 988.373,502.451 988.338,508.811 
																			"/>
									<polyline fill="#486D79" points="988.425,493.261 992.283,497.398 992.319,491.039 988.461,486.901 988.425,493.261 
																			"/>
									<polyline fill="#486D79" points="988.516,477.013 992.374,481.15 992.41,474.79 988.552,470.653 988.516,477.013 									
										"/>
									<polyline fill="#486D79" points="988.607,460.758 992.465,464.895 992.501,458.535 988.643,454.398 988.607,460.758 
																			"/>
									<polyline fill="#486D79" points="988.698,444.502 992.556,448.64 992.592,442.28 988.734,438.143 988.698,444.502 
																			"/>
									<polyline fill="#486D79" points="988.789,428.254 992.647,432.391 992.683,426.032 988.825,421.894 988.789,428.254 
																			"/>
									<polyline fill="#486D79" points="988.88,411.998 992.739,416.136 992.774,409.776 988.916,405.639 988.88,411.998 
																			"/>
									<polyline fill="#486D79" points="988.967,396.456 992.826,400.593 992.861,394.234 989.003,390.096 988.967,396.456 
																			"/>
									<polyline fill="#486D79" points="973.918,704.475 977.781,708.618 977.817,702.258 973.954,698.115 973.918,704.475 
																			"/>
									<polyline fill="#486D79" points="974.009,688.219 977.873,692.362 977.908,686.003 974.045,681.86 974.009,688.219 
																			"/>
									<polyline fill="#486D79" points="974.1,671.964 977.964,676.107 977.999,669.748 974.136,665.605 974.1,671.964 									
										"/>
									<polyline fill="#486D79" points="974.188,656.422 978.051,660.565 978.086,654.205 974.223,650.062 974.188,656.422 
																			"/>
									<polyline fill="#486D79" points="974.279,640.166 978.142,644.309 978.178,637.95 974.314,633.807 974.279,640.166 
																			"/>
									<polyline fill="#486D79" points="974.37,623.918 978.233,628.061 978.269,621.701 974.405,617.558 974.37,623.918 
																			"/>
									<polyline fill="#486D79" points="974.461,607.663 978.324,611.805 978.36,605.446 974.496,601.303 974.461,607.663 
																			"/>
									<polyline fill="#486D79" points="974.552,591.414 978.415,595.557 978.451,589.197 974.587,585.055 974.552,591.414 
																			"/>
									<polyline fill="#486D79" points="974.643,575.159 978.506,579.302 978.542,572.942 974.679,568.799 974.643,575.159 
																			"/>
									<polyline fill="#486D79" points="974.73,559.616 978.593,563.759 978.629,557.399 974.766,553.257 974.73,559.616 
																			"/>
									<polyline fill="#486D79" points="974.821,543.361 978.684,547.504 978.72,541.144 974.857,537.001 974.821,543.361 
																			"/>
									<polyline fill="#486D79" points="974.912,527.112 978.775,531.255 978.811,524.896 974.948,520.753 974.912,527.112 
																			"/>
									<polyline fill="#486D79" points="975.003,510.857 978.867,515 978.902,508.64 975.039,504.497 975.003,510.857 									
										"/>
									<polyline fill="#486D79" points="975.094,494.609 978.958,498.751 978.993,492.392 975.13,488.249 975.094,494.609 
																			"/>
									<polyline fill="#486D79" points="975.181,479.059 979.045,483.202 979.08,476.842 975.217,472.699 975.181,479.059 
																			"/>
									<polyline fill="#486D79" points="975.272,462.811 979.136,466.954 979.171,460.594 975.308,456.451 975.272,462.811 
																			"/>
									<polyline fill="#486D79" points="975.364,446.556 979.227,450.698 979.263,444.339 975.399,440.196 975.364,446.556 
																			"/>
									<polyline fill="#486D79" points="975.455,430.3 979.318,434.443 979.354,428.084 975.49,423.941 975.455,430.3 									
										"/>
									<polyline fill="#486D79" points="975.546,414.052 979.409,418.195 979.445,411.835 975.581,407.692 975.546,414.052 
																			"/>
									<polyline fill="#486D79" points="975.637,397.796 979.5,401.939 979.536,395.58 975.672,391.437 975.637,397.796 									
										"/>
									<polyline fill="#486D79" points="975.724,382.254 979.587,386.397 979.623,380.037 975.76,375.894 975.724,382.254 
																			"/>
									<polyline fill="#486D79" points="960.674,690.272 964.538,694.416 964.574,688.056 960.71,683.913 960.674,690.272 
																			"/>
									<polyline fill="#486D79" points="960.765,674.017 964.629,678.16 964.665,671.801 960.801,667.657 960.765,674.017 
																			"/>
									<polyline fill="#486D79" points="960.857,657.762 964.72,661.905 964.756,655.546 960.892,651.402 960.857,657.762 
																			"/>
									<polyline fill="#486D79" points="960.944,642.219 964.807,646.363 964.843,640.003 960.979,635.86 960.944,642.219 
																			"/>
									<polyline fill="#486D79" points="961.035,625.964 964.898,630.107 964.934,623.748 961.07,619.604 961.035,625.964 
																			"/>
									<polyline fill="#486D79" points="961.126,609.716 964.989,613.859 965.025,607.499 961.161,603.356 961.126,609.716 
																			"/>
									<polyline fill="#486D79" points="961.217,593.46 965.08,597.603 965.116,591.244 961.253,587.101 961.217,593.46 									
										"/>
									<polyline fill="#486D79" points="961.308,577.212 965.172,581.355 965.207,574.995 961.344,570.852 961.308,577.212 
																			"/>
									<polyline fill="#486D79" points="961.399,560.956 965.263,565.1 965.298,558.74 961.435,554.597 961.399,560.956 									
										"/>
									<polyline fill="#486D79" points="961.486,545.414 965.35,549.557 965.385,543.198 961.522,539.054 961.486,545.414 
																			"/>
									<polyline fill="#486D79" points="961.577,529.159 965.441,533.302 965.476,526.942 961.613,522.799 961.577,529.159 
																			"/>
									<polyline fill="#486D79" points="961.668,512.91 965.532,517.053 965.568,510.694 961.704,506.55 961.668,512.91 									
										"/>
									<polyline fill="#486D79" points="961.759,496.655 965.623,500.798 965.659,494.438 961.795,490.295 961.759,496.655 
																			"/>
									<polyline fill="#486D79" points="961.85,480.406 965.714,484.549 965.75,478.19 961.886,474.047 961.85,480.406 									
										"/>
									<polyline fill="#486D79" points="961.938,464.857 965.801,469 965.837,462.64 961.973,458.497 961.938,464.857 									
										"/>
									<polyline fill="#486D79" points="962.029,448.608 965.892,452.752 965.928,446.392 962.064,442.249 962.029,448.608 
																			"/>
									<polyline fill="#486D79" points="962.12,432.353 965.983,436.496 966.019,430.137 962.155,425.994 962.12,432.353 
																			"/>
									<polyline fill="#486D79" points="962.211,416.098 966.074,420.241 966.11,413.882 962.246,409.738 962.211,416.098 
																			"/>
									<polyline fill="#486D79" points="962.302,399.849 966.165,403.993 966.201,397.633 962.337,393.49 962.302,399.849 
																			"/>
									<polyline fill="#486D79" points="962.393,383.594 966.257,387.737 966.292,381.378 962.429,377.235 962.393,383.594 
																			"/>
									<polyline fill="#486D79" points="962.48,368.052 966.344,372.195 966.379,365.835 962.516,361.692 962.48,368.052 
																			"/>
									<polyline fill="#486D79" points="947.436,676.076 951.294,680.213 951.33,673.854 947.472,669.716 947.436,676.076 
																			"/>
									<polyline fill="#486D79" points="947.527,659.82 951.385,663.958 951.421,657.598 947.563,653.461 947.527,659.82 
																			"/>
									<polyline fill="#486D79" points="947.618,643.565 951.476,647.703 951.512,641.343 947.654,637.206 947.618,643.565 
																			"/>
									<polyline fill="#486D79" points="947.705,628.023 951.563,632.16 951.599,625.801 947.741,621.663 947.705,628.023 
																			"/>
									<polyline fill="#486D79" points="947.796,611.768 951.654,615.905 951.69,609.545 947.832,605.408 947.796,611.768 
																			"/>
									<polyline fill="#486D79" points="947.887,595.519 951.746,599.656 951.781,593.297 947.923,589.16 947.887,595.519 
																			"/>
									<polyline fill="#486D79" points="947.978,579.264 951.837,583.401 951.872,577.042 948.014,572.904 947.978,579.264 
																			"/>
									<polyline fill="#486D79" points="948.069,563.015 951.928,567.153 951.963,560.793 948.105,556.656 948.069,563.015 
																			"/>
									<polyline fill="#486D79" points="948.161,546.76 952.019,550.897 952.054,544.538 948.196,540.4 948.161,546.76 									
										"/>
									<polyline fill="#486D79" points="948.248,531.217 952.106,535.355 952.141,528.995 948.283,524.858 948.248,531.217 
																			"/>
									<polyline fill="#486D79" points="948.339,514.962 952.197,519.099 952.233,512.74 948.374,508.602 948.339,514.962 
																			"/>
									<polyline fill="#486D79" points="948.43,498.714 952.288,502.851 952.324,496.491 948.465,492.354 948.43,498.714 
																			"/>
									<polyline fill="#486D79" points="948.521,482.458 952.379,486.596 952.415,480.236 948.557,476.099 948.521,482.458 
																			"/>
									<polyline fill="#486D79" points="948.612,466.21 952.47,470.347 952.506,463.988 948.648,459.85 948.612,466.21 									
										"/>
									<polyline fill="#486D79" points="948.699,450.66 952.557,454.798 952.593,448.438 948.735,444.301 948.699,450.66 
																			"/>
									<polyline fill="#486D79" points="948.79,434.412 952.648,438.549 952.684,432.19 948.826,428.052 948.79,434.412 									
										"/>
									<polyline fill="#486D79" points="948.881,418.157 952.739,422.294 952.775,415.935 948.917,411.797 948.881,418.157 
																			"/>
									<polyline fill="#486D79" points="948.972,401.901 952.831,406.039 952.866,399.679 949.008,395.542 948.972,401.901 
																			"/>
									<polyline fill="#486D79" points="949.063,385.653 952.922,389.79 952.957,383.431 949.099,379.293 949.063,385.653 
																			"/>
									<polyline fill="#486D79" points="949.154,369.398 953.013,373.535 953.048,367.175 949.19,363.038 949.154,369.398 
																			"/>
									<polyline fill="#486D79" points="949.242,353.855 953.1,357.992 953.135,351.633 949.277,347.496 949.242,353.855 
																			"/>
									<polyline fill="#486D79" points="934.192,661.874 938.056,666.017 938.091,659.657 934.228,655.514 934.192,661.874 
																			"/>
									<polyline fill="#486D79" points="934.283,645.618 938.147,649.761 938.182,643.402 934.319,639.259 934.283,645.618 
																			"/>
									<polyline fill="#486D79" points="934.375,629.363 938.238,633.506 938.273,627.147 934.41,623.004 934.375,629.363 
																			"/>
									<polyline fill="#486D79" points="934.462,613.821 938.325,617.964 938.361,611.604 934.497,607.461 934.462,613.821 
																			"/>
									<polyline fill="#486D79" points="934.553,597.566 938.416,601.708 938.452,595.349 934.588,591.206 934.553,597.566 
																			"/>
									<polyline fill="#486D79" points="934.644,581.317 938.507,585.46 938.543,579.1 934.679,574.958 934.644,581.317 									
										"/>
									<polyline fill="#486D79" points="934.735,565.062 938.598,569.205 938.634,562.845 934.771,558.702 934.735,565.062 
																			"/>
									<polyline fill="#486D79" points="934.826,548.813 938.689,552.956 938.725,546.597 934.862,542.454 934.826,548.813 
																			"/>
									<polyline fill="#486D79" points="934.917,532.558 938.78,536.701 938.816,530.341 934.953,526.198 934.917,532.558 
																			"/>
									<polyline fill="#486D79" points="935.004,517.015 938.867,521.158 938.903,514.799 935.04,510.656 935.004,517.015 
																			"/>
									<polyline fill="#486D79" points="935.095,500.76 938.958,504.903 938.994,498.543 935.131,494.4 935.095,500.76 									
										"/>
									<polyline fill="#486D79" points="935.186,484.512 939.05,488.654 939.085,482.295 935.222,478.152 935.186,484.512 
																			"/>
									<polyline fill="#486D79" points="935.277,468.256 939.141,472.399 939.176,466.04 935.313,461.897 935.277,468.256 
																			"/>
									<polyline fill="#486D79" points="935.368,452.008 939.232,456.151 939.267,449.791 935.404,445.648 935.368,452.008 
																			"/>
									<polyline fill="#486D79" points="935.456,436.458 939.319,440.601 939.354,434.242 935.491,430.099 935.456,436.458 
																			"/>
									<polyline fill="#486D79" points="935.547,420.21 939.41,424.353 939.445,417.993 935.582,413.85 935.547,420.21 									
										"/>
									<polyline fill="#486D79" points="935.638,403.955 939.501,408.098 939.537,401.738 935.673,397.595 935.638,403.955 
																			"/>
									<polyline fill="#486D79" points="935.729,387.699 939.592,391.842 939.628,385.483 935.764,381.34 935.729,387.699 
																			"/>
									<polyline fill="#486D79" points="935.82,371.451 939.683,375.594 939.719,369.234 935.855,365.091 935.82,371.451 
																			"/>
									<polyline fill="#486D79" points="935.911,355.196 939.774,359.339 939.81,352.979 935.947,348.836 935.911,355.196 
																			"/>
									<polyline fill="#486D79" points="935.998,339.653 939.861,343.796 939.897,337.436 936.034,333.294 935.998,339.653 
																			"/>
									<polyline fill="#486D79" points="920.948,647.672 924.812,651.815 924.848,645.455 920.984,641.312 920.948,647.672 
																			"/>
									<polyline fill="#486D79" points="921.04,631.416 924.903,635.559 924.939,629.2 921.075,625.057 921.04,631.416 									
										"/>
									<polyline fill="#486D79" points="921.131,615.161 924.994,619.304 925.03,612.945 921.166,608.802 921.131,615.161 
																			"/>
									<polyline fill="#486D79" points="921.218,599.619 925.081,603.762 925.117,597.402 921.253,593.259 921.218,599.619 
																			"/>
									<polyline fill="#486D79" points="921.309,583.363 925.172,587.506 925.208,581.147 921.344,577.004 921.309,583.363 
																			"/>
									<polyline fill="#486D79" points="921.4,567.115 925.263,571.258 925.299,564.898 921.436,560.755 921.4,567.115 									
										"/>
									<polyline fill="#486D79" points="921.491,550.859 925.355,555.003 925.39,548.643 921.527,544.5 921.491,550.859 									
										"/>
									<polyline fill="#486D79" points="921.582,534.611 925.446,538.754 925.481,532.395 921.618,528.251 921.582,534.611 
																			"/>
									<polyline fill="#486D79" points="921.673,518.356 925.537,522.499 925.572,516.139 921.709,511.996 921.673,518.356 
																			"/>
									<polyline fill="#486D79" points="921.76,502.813 925.624,506.956 925.659,500.597 921.796,496.454 921.76,502.813 
																			"/>
									<polyline fill="#486D79" points="921.851,486.558 925.715,490.701 925.751,484.341 921.887,480.198 921.851,486.558 
																			"/>
									<polyline fill="#486D79" points="921.942,470.309 925.806,474.452 925.842,468.093 921.978,463.95 921.942,470.309 
																			"/>
									<polyline fill="#486D79" points="922.034,454.054 925.897,458.197 925.933,451.838 922.069,447.694 922.034,454.054 
																			"/>
									<polyline fill="#486D79" points="922.125,437.805 925.988,441.949 926.024,435.589 922.16,431.446 922.125,437.805 
																			"/>
									<polyline fill="#486D79" points="922.212,422.256 926.075,426.399 926.111,420.04 922.247,415.896 922.212,422.256 
																			"/>
									<polyline fill="#486D79" points="922.303,406.008 926.166,410.151 926.202,403.791 922.338,399.648 922.303,406.008 
																			"/>
									<polyline fill="#486D79" points="922.394,389.753 926.257,393.896 926.293,387.536 922.429,383.393 922.394,389.753 
																			"/>
									<polyline fill="#486D79" points="922.485,373.497 926.349,377.64 926.384,371.281 922.521,367.138 922.485,373.497 
																			"/>
									<polyline fill="#486D79" points="922.576,357.249 926.44,361.392 926.475,355.032 922.612,350.889 922.576,357.249 
																			"/>
									<polyline fill="#486D79" points="922.667,340.993 926.531,345.137 926.566,338.777 922.703,334.634 922.667,340.993 
																			"/>
									<polyline fill="#486D79" points="922.754,325.451 926.618,329.594 926.653,323.234 922.79,319.091 922.754,325.451 
																			"/>
									<polyline fill="#486D79" points="907.71,633.475 911.568,637.612 911.604,631.253 907.746,627.115 907.71,633.475 
																			"/>
									<polyline fill="#486D79" points="907.801,617.22 911.659,621.357 911.695,614.997 907.837,610.86 907.801,617.22 									
										"/>
									<polyline fill="#486D79" points="907.892,600.965 911.75,605.102 911.786,598.742 907.928,594.605 907.892,600.965 
																			"/>
									<polyline fill="#486D79" points="907.979,585.422 911.838,589.56 911.873,583.2 908.015,579.063 907.979,585.422 									
										"/>
									<polyline fill="#486D79" points="908.07,569.167 911.929,573.304 911.964,566.945 908.106,562.807 908.07,569.167 
																			"/>
									<polyline fill="#486D79" points="908.161,552.918 912.02,557.056 912.055,550.696 908.197,546.559 908.161,552.918 
																			"/>
									<polyline fill="#486D79" points="908.253,536.663 912.111,540.8 912.146,534.441 908.288,530.303 908.253,536.663 
																			"/>
									<polyline fill="#486D79" points="908.344,520.414 912.202,524.552 912.237,518.192 908.379,514.055 908.344,520.414 
																			"/>
									<polyline fill="#486D79" points="908.435,504.159 912.293,508.297 912.329,501.937 908.47,497.8 908.435,504.159 									
										"/>
									<polyline fill="#486D79" points="908.522,488.617 912.38,492.754 912.416,486.394 908.557,482.257 908.522,488.617 
																			"/>
									<polyline fill="#486D79" points="908.613,472.361 912.471,476.499 912.507,470.139 908.648,466.002 908.613,472.361 
																			"/>
									<polyline fill="#486D79" points="908.704,456.113 912.562,460.25 912.598,453.891 908.74,449.753 908.704,456.113 
																			"/>
									<polyline fill="#486D79" points="908.795,439.857 912.653,443.995 912.689,437.635 908.831,433.498 908.795,439.857 
																			"/>
									<polyline fill="#486D79" points="908.886,423.609 912.744,427.746 912.78,421.387 908.922,417.249 908.886,423.609 
																			"/>
									<polyline fill="#486D79" points="908.973,408.06 912.831,412.197 912.867,405.837 909.009,401.7 908.973,408.06 									
										"/>
									<polyline fill="#486D79" points="909.064,391.811 912.922,395.948 912.958,389.589 909.1,385.451 909.064,391.811 
																			"/>
									<polyline fill="#486D79" points="909.155,375.556 913.014,379.693 913.049,373.334 909.191,369.196 909.155,375.556 
																			"/>
									<polyline fill="#486D79" points="909.246,359.301 913.105,363.438 913.14,357.078 909.282,352.941 909.246,359.301 
																			"/>
									<polyline fill="#486D79" points="909.338,343.052 913.196,347.19 913.231,340.83 909.373,336.693 909.338,343.052 
																			"/>
									<polyline fill="#486D79" points="909.429,326.797 913.287,330.934 913.322,324.575 909.464,320.437 909.429,326.797 
																			"/>
									<polyline fill="#486D79" points="909.516,311.254 913.374,315.392 913.41,309.032 909.551,304.895 909.516,311.254 
																			"/>
									<polyline fill="#486D79" points="894.466,619.273 898.33,623.416 898.365,617.056 894.502,612.913 894.466,619.273 
																			"/>
									<polyline fill="#486D79" points="894.558,603.018 898.421,607.161 898.456,600.801 894.593,596.658 894.558,603.018 
																			"/>
									<polyline fill="#486D79" points="894.649,586.763 898.512,590.906 898.548,584.546 894.684,580.403 894.649,586.763 
																			"/>
									<polyline fill="#486D79" points="894.736,571.22 898.599,575.363 898.635,569.003 894.771,564.861 894.736,571.22 
																			"/>
									<polyline fill="#486D79" points="894.827,554.965 898.69,559.108 898.726,552.748 894.862,548.605 894.827,554.965 
																			"/>
									<polyline fill="#486D79" points="894.918,538.716 898.781,542.859 898.817,536.5 894.953,532.357 894.918,538.716 
																			"/>
									<polyline fill="#486D79" points="895.009,522.461 898.872,526.604 898.908,520.244 895.045,516.101 895.009,522.461 
																			"/>
									<polyline fill="#486D79" points="895.1,506.212 898.963,510.355 898.999,503.996 895.136,499.853 895.1,506.212 									
										"/>
									<polyline fill="#486D79" points="895.191,489.957 899.054,494.1 899.09,487.74 895.227,483.598 895.191,489.957 									
										"/>
									<polyline fill="#486D79" points="895.278,474.415 899.142,478.557 899.177,472.198 895.314,468.055 895.278,474.415 
																			"/>
									<polyline fill="#486D79" points="895.369,458.159 899.233,462.302 899.268,455.943 895.405,451.8 895.369,458.159 
																			"/>
									<polyline fill="#486D79" points="895.46,441.911 899.324,446.054 899.359,439.694 895.496,435.551 895.46,441.911 
																			"/>
									<polyline fill="#486D79" points="895.551,425.655 899.415,429.798 899.45,423.439 895.587,419.296 895.551,425.655 
																			"/>
									<polyline fill="#486D79" points="895.643,409.407 899.506,413.55 899.541,407.19 895.678,403.047 895.643,409.407 
																			"/>
									<polyline fill="#486D79" points="895.73,393.858 899.593,398 899.629,391.641 895.765,387.498 895.73,393.858 									"/>
									<polyline fill="#486D79" points="895.821,377.609 899.684,381.752 899.72,375.392 895.856,371.249 895.821,377.609 
																			"/>
									<polyline fill="#486D79" points="895.912,361.354 899.775,365.497 899.811,359.137 895.947,354.994 895.912,361.354 
																			"/>
									<polyline fill="#486D79" points="896.003,345.099 899.866,349.242 899.902,342.882 896.039,338.739 896.003,345.099 
																			"/>
									<polyline fill="#486D79" points="896.094,328.85 899.957,332.993 899.993,326.634 896.13,322.491 896.094,328.85 									
										"/>
									<polyline fill="#486D79" points="896.185,312.595 900.048,316.738 900.084,310.378 896.221,306.235 896.185,312.595 
																			"/>
									<polyline fill="#486D79" points="896.272,297.052 900.135,301.195 900.171,294.836 896.308,290.693 896.272,297.052 
																			"/>
									<polyline fill="#486D79" points="881.223,605.071 885.086,609.214 885.122,602.854 881.258,598.711 881.223,605.071 
																			"/>
									<polyline fill="#486D79" points="881.314,588.815 885.177,592.959 885.213,586.599 881.349,582.456 881.314,588.815 
																			"/>
									<polyline fill="#486D79" points="881.405,572.56 885.268,576.704 885.304,570.344 881.44,566.201 881.405,572.56 									
										"/>
									<polyline fill="#486D79" points="881.492,557.018 885.355,561.161 885.391,554.801 881.528,550.658 881.492,557.018 
																			"/>
									<polyline fill="#486D79" points="881.583,540.763 885.447,544.906 885.482,538.546 881.619,534.403 881.583,540.763 
																			"/>
									<polyline fill="#486D79" points="881.674,524.514 885.538,528.657 885.573,522.298 881.71,518.154 881.674,524.514 
																			"/>
									<polyline fill="#486D79" points="881.765,508.259 885.629,512.402 885.664,506.042 881.801,501.899 881.765,508.259 
																			"/>
									<polyline fill="#486D79" points="881.856,492.01 885.72,496.153 885.755,489.794 881.892,485.651 881.856,492.01 									
										"/>
									<polyline fill="#486D79" points="881.947,475.755 885.811,479.898 885.846,473.538 881.983,469.395 881.947,475.755 
																			"/>
									<polyline fill="#486D79" points="882.034,460.212 885.898,464.355 885.934,457.996 882.07,453.853 882.034,460.212 
																			"/>
									<polyline fill="#486D79" points="882.125,443.957 885.989,448.1 886.025,441.741 882.161,437.597 882.125,443.957 
																			"/>
									<polyline fill="#486D79" points="882.216,427.708 886.08,431.852 886.116,425.492 882.252,421.349 882.216,427.708 
																			"/>
									<polyline fill="#486D79" points="882.308,411.453 886.171,415.596 886.207,409.237 882.343,405.094 882.308,411.453 
																			"/>
									<polyline fill="#486D79" points="882.399,395.205 886.262,399.348 886.298,392.988 882.434,388.845 882.399,395.205 
																			"/>
									<polyline fill="#486D79" points="882.486,379.655 886.349,383.798 886.385,377.439 882.521,373.296 882.486,379.655 
																			"/>
									<polyline fill="#486D79" points="882.577,363.407 886.44,367.55 886.476,361.19 882.612,357.047 882.577,363.407 									
										"/>
									<polyline fill="#486D79" points="882.668,347.152 886.531,351.295 886.567,344.935 882.704,340.792 882.668,347.152 
																			"/>
									<polyline fill="#486D79" points="882.759,330.896 886.623,335.04 886.658,328.68 882.795,324.537 882.759,330.896 
																			"/>
									<polyline fill="#486D79" points="882.85,314.648 886.714,318.791 886.749,312.432 882.886,308.288 882.85,314.648 
																			"/>
									<polyline fill="#486D79" points="882.941,298.393 886.805,302.536 886.84,296.176 882.977,292.033 882.941,298.393 
																			"/>
									<polyline fill="#486D79" points="883.028,282.85 886.892,286.993 886.927,280.634 883.064,276.49 883.028,282.85 									
										"/>
								</g>
							</g>
						</g>
					</g>
				</g>
			</g>
		</g>
	</g>
	<g>
		<g enable-background="new    ">
			<g>
				<polygon fill="#8B8B8B" points="-88.989,333.71 -89.464,418.504 -179.536,460.417 -179.061,375.622 				"/>
			</g>
			<g>
				<polygon fill="#B1B1B1" points="12.535,442.581 12.06,527.376 -89.464,418.504 -88.989,333.71 				"/>
			</g>
			<g>
				<polygon fill="#A78F5C" points="-77.537,484.494 -78.012,569.288 -179.536,460.417 -179.061,375.622 				"/>
			</g>
			<g>
				<polygon fill="#DABA78" points="-179.061,375.622 -88.989,333.71 12.535,442.581 -77.537,484.494 				"/>
			</g>
			<g>
				<polygon fill="#837048" points="12.535,442.581 12.06,527.376 -78.012,569.288 -77.537,484.494 				"/>
			</g>
			<g>
				<polygon fill="#8B8B8B" points="13.92,442.785 13.444,527.579 -78.294,570.267 -77.819,485.473 				"/>
			</g>
			<g>
				<polygon fill="#B1B1B1" points="-77.819,485.473 -78.294,570.267 -180.921,460.213 -180.446,375.419 				"/>
			</g>
			<g>
				<path fill="#E8E8E8" d="M-77.819,485.473l-102.627-110.054l91.738-42.688L13.92,442.785L-77.819,485.473z M-88.989,333.71
					l-90.072,41.913l101.524,108.872l90.072-41.913L-88.989,333.71"/>
			</g>
		</g>
	</g>
	<g>
		<g enable-background="new    ">
			<g>
				<polygon fill="#8F8F8F" points="711.334,322.225 710.185,527.145 615.039,571.418 616.188,366.498 				"/>
			</g>
			<g>
				<polygon fill="#B1B1B1" points="781.961,397.964 780.813,602.883 710.185,527.145 711.334,322.225 				"/>
			</g>
			<g>
				<polygon fill="#A0A0A0" points="686.815,442.237 685.667,647.157 615.039,571.418 616.188,366.498 				"/>
			</g>
			<g>
				<polygon fill="#D2D2D2" points="616.188,366.498 711.334,322.225 781.961,397.964 686.815,442.237 				"/>
			</g>
			<g>
				<polygon fill="#818181" points="781.961,397.964 780.813,602.883 685.667,647.157 686.815,442.237 				"/>
			</g>
			<g>
				<polygon fill="#8F8F8F" points="783.346,398.167 782.198,603.087 685.385,648.136 686.533,443.216 				"/>
				<g enable-background="new    ">
					<defs>
						<polygon id="SVGID_3_" enable-background="new    " points="783.346,398.167 782.198,603.087 685.385,648.136 
							686.533,443.216 						"/>
					</defs>
					<clipPath id="SVGID_4_">
						<use xlink:href="#SVGID_3_"  overflow="visible"/>
					</clipPath>
					<g clip-path="url(#SVGID_4_)">
						<g>
							<g>
								<g>
									<polyline fill="#436570" points="611.762,734.569 860.294,618.921 860.33,612.562 611.798,728.209 611.762,734.569 
																			"/>
									<polyline fill="#436570" points="611.853,718.32 860.385,602.673 860.421,596.313 611.889,711.961 611.853,718.32 
																			"/>
									<polyline fill="#436570" points="611.945,702.065 860.476,586.417 860.512,580.058 611.98,695.705 611.945,702.065 
																			"/>
									<polyline fill="#436570" points="612.032,686.522 860.563,570.875 860.599,564.515 612.067,680.163 612.032,686.522 
																			"/>
									<polyline fill="#436570" points="612.123,670.267 860.654,554.619 860.69,548.26 612.158,663.907 612.123,670.267 
																			"/>
									<polyline fill="#436570" points="612.214,654.018 860.745,538.371 860.781,532.011 612.249,647.659 612.214,654.018 
																			"/>
									<polyline fill="#436570" points="612.305,637.763 860.836,522.116 860.872,515.756 612.341,631.403 612.305,637.763 
																			"/>
									<polyline fill="#436570" points="612.396,621.515 860.928,505.867 860.963,499.508 612.432,615.155 612.396,621.515 
																			"/>
									<polyline fill="#436570" points="612.487,605.259 861.019,489.612 861.054,483.252 612.523,598.9 612.487,605.259 
																			"/>
									<polyline fill="#436570" points="612.574,589.717 861.106,474.069 861.141,467.71 612.61,583.357 612.574,589.717 
																			"/>
									<polyline fill="#436570" points="612.665,573.461 861.197,457.814 861.232,451.454 612.701,567.102 612.665,573.461 
																			"/>
									<polyline fill="#436570" points="612.756,557.213 861.288,441.565 861.323,435.206 612.792,550.853 612.756,557.213 
																			"/>
									<polyline fill="#436570" points="612.847,540.958 861.379,425.31 861.415,418.951 612.883,534.598 612.847,540.958 
																			"/>
									<polyline fill="#436570" points="612.938,524.702 861.47,409.055 861.506,402.695 612.974,518.343 612.938,524.702 
																			"/>
									<polyline fill="#436570" points="613.026,509.16 861.557,393.513 861.593,387.153 613.061,502.8 613.026,509.16 									
										"/>
									<polyline fill="#436570" points="613.117,492.905 861.648,377.257 861.684,370.898 613.152,486.545 613.117,492.905 
																			"/>
									<polyline fill="#436570" points="613.208,476.656 861.739,361.009 861.775,354.649 613.243,470.297 613.208,476.656 
																			"/>
									<polyline fill="#436570" points="613.299,460.401 861.83,344.753 861.866,338.394 613.334,454.041 613.299,460.401 
																			"/>
									<polyline fill="#436570" points="613.39,444.152 861.921,328.505 861.957,322.145 613.425,437.793 613.39,444.152 
																			"/>
									<polyline fill="#436570" points="613.481,427.897 862.013,312.25 862.048,305.89 613.517,421.537 613.481,427.897 
																			"/>
									<polyline fill="#436570" points="613.568,412.354 862.1,296.707 862.135,290.347 613.604,405.995 613.568,412.354 
																			"/>
								</g>
							</g>
						</g>
					</g>
				</g>
			</g>
			<g>
				<polygon fill="#B1B1B1" points="686.533,443.216 685.385,648.136 613.655,571.215 614.803,366.295 				"/>
				<g enable-background="new    ">
					<defs>
						<polygon id="SVGID_5_" enable-background="new    " points="686.533,443.216 685.385,648.136 613.655,571.215 
							614.803,366.295 						"/>
					</defs>
					<clipPath id="SVGID_6_">
						<use xlink:href="#SVGID_5_"  overflow="visible"/>
					</clipPath>
					<g clip-path="url(#SVGID_6_)">
						<g>
							<g>
								<g>
									<polyline fill="#537D8B" points="566.925,590.372 731.345,766.692 731.381,760.332 566.96,584.013 566.925,590.372 
																			"/>
									<polyline fill="#537D8B" points="567.016,574.124 731.436,750.443 731.472,744.084 567.051,567.764 567.016,574.124 
																			"/>
									<polyline fill="#537D8B" points="567.107,557.869 731.527,734.188 731.563,727.828 567.143,551.509 567.107,557.869 
																			"/>
									<polyline fill="#537D8B" points="567.194,542.326 731.614,718.645 731.65,712.286 567.23,535.966 567.194,542.326 
																			"/>
									<polyline fill="#537D8B" points="567.285,526.071 731.706,702.39 731.741,696.03 567.321,519.711 567.285,526.071 
																			"/>
									<polyline fill="#537D8B" points="567.376,509.822 731.797,686.142 731.832,679.782 567.412,503.463 567.376,509.822 
																			"/>
									<polyline fill="#537D8B" points="567.467,493.567 731.888,669.886 731.923,663.527 567.503,487.207 567.467,493.567 
																			"/>
									<polyline fill="#537D8B" points="567.558,477.318 731.979,653.638 732.014,647.278 567.594,470.959 567.558,477.318 
																			"/>
									<polyline fill="#537D8B" points="567.649,461.063 732.07,637.382 732.105,631.023 567.685,454.703 567.649,461.063 
																			"/>
									<polyline fill="#537D8B" points="567.736,445.52 732.157,621.84 732.193,615.48 567.772,439.161 567.736,445.52 									
										"/>
									<polyline fill="#537D8B" points="567.828,429.265 732.248,605.584 732.284,599.225 567.863,422.906 567.828,429.265 
																			"/>
									<polyline fill="#537D8B" points="567.919,413.017 732.339,589.336 732.375,582.976 567.954,406.657 567.919,413.017 
																			"/>
									<polyline fill="#537D8B" points="568.01,396.762 732.43,573.081 732.466,566.721 568.045,390.402 568.01,396.762 									
										"/>
									<polyline fill="#537D8B" points="568.101,380.506 732.521,556.826 732.557,550.466 568.136,374.147 568.101,380.506 
																			"/>
									<polyline fill="#537D8B" points="568.188,364.964 732.608,541.283 732.644,534.923 568.224,358.604 568.188,364.964 
																			"/>
									<polyline fill="#537D8B" points="568.279,348.708 732.699,525.028 732.735,518.668 568.315,342.349 568.279,348.708 
																			"/>
									<polyline fill="#537D8B" points="568.37,332.46 732.79,508.779 732.826,502.42 568.406,326.1 568.37,332.46 									"/>
									<polyline fill="#537D8B" points="568.461,316.205 732.882,492.524 732.917,486.164 568.497,309.845 568.461,316.205 
																			"/>
									<polyline fill="#537D8B" points="568.552,299.956 732.973,476.275 733.008,469.916 568.588,293.596 568.552,299.956 
																			"/>
									<polyline fill="#537D8B" points="568.643,283.701 733.064,460.02 733.099,453.66 568.679,277.341 568.643,283.701 
																			"/>
									<polyline fill="#537D8B" points="568.73,268.158 733.151,444.478 733.186,438.118 568.766,261.799 568.73,268.158 
																			"/>
								</g>
							</g>
						</g>
					</g>
				</g>
			</g>
			<g>
				<path fill="#E8E8E8" d="M686.533,443.216l-71.73-76.921l96.812-45.049l71.73,76.921L686.533,443.216z M711.334,322.225
					l-95.146,44.274l70.628,75.739l95.146-44.274L711.334,322.225"/>
			</g>
		</g>
	</g>
	<g>
		<g enable-background="new    ">
			<g>
				<polygon fill="#888888" points="383.262,24.13 383.103,52.395 349.927,67.833 350.085,39.568 				"/>
			</g>
			<g>
				<polygon fill="#AEAEAE" points="405.657,48.146 405.499,76.411 383.103,52.395 383.262,24.13 				"/>
			</g>
			<g>
				<polygon fill="#658A96" points="372.481,63.584 372.322,91.849 349.927,67.832 350.085,39.568 				"/>
			</g>
			<g>
				<polygon fill="#4F6C75" points="405.657,48.146 405.499,76.411 372.322,91.849 372.481,63.584 				"/>
			</g>
			<g>
				<path fill="#D8D8D8" d="M372.204,64.568l-23.503-25.204l34.843-16.213l23.503,25.204L372.204,64.568z M383.262,24.13
					l-33.177,15.438l22.395,24.016l33.177-15.438L383.262,24.13"/>
			</g>
			<g>
				<polygon fill="#7EABBB" points="350.085,39.568 383.262,24.13 405.657,48.146 372.481,63.584 				"/>
			</g>
			<g>
				<polygon fill="#888888" points="407.047,48.355 406.888,76.62 372.045,92.833 372.204,64.568 				"/>
			</g>
			<g>
				<polygon fill="#AEAEAE" points="372.204,64.568 372.045,92.833 348.542,67.629 348.701,39.364 				"/>
			</g>
		</g>
	</g>
</g>
<g id="Top_Layer_Details">
	<g>
	</g>
	<g>
	</g>
	<g>
	</g>
	<g>
	</g>
	<g>
	</g>
	<g>
	</g>
	<g>
	</g>
	<g>
	</g>
	<g>
	</g>
	<g>
	</g>
	<g>
	</g>
	<g>
	</g>
	<g>
	</g>
	<g>
	</g>
	<g>
	</g>
	<g>
	</g>
	<g>
	</g>
	<g>
	</g>
	<g>
	</g>
	<g>
	</g>
	<g>
	</g>
	<g>
	</g>
	<g>
	</g>
	<g>
	</g>
	<g>
	</g>
	<g>
	</g>
	<g>
	</g>
</g>
</svg>
