<svg xmlns="http://www.w3.org/2000/svg" xmlns:xlink="http://www.w3.org/1999/xlink" viewBox="0 0 1053 554" enable-background="new 0 0 1053 554"><g><g enable-background="new"><polygon fill="#887442" points="803.705,36.867 802.754,206.455 674.236,266.258 675.187,96.669"/><polygon fill="#A88F51" points="906.078,146.649 905.128,316.238 802.754,206.455 803.705,36.867"/><polygon fill="#A0A0A0" points="777.56,206.451 776.61,376.04 674.236,266.258 675.187,96.669"/><polygon fill="#D2D2D2" points="675.187,96.669 803.705,36.866 906.078,146.649 777.56,206.451"/><polygon fill="#818181" points="906.078,146.649 905.128,316.237 776.61,376.04 777.56,206.451"/><polygon fill="#887442" points="907.47,146.849 906.52,316.437 776.328,377.019 777.278,207.43"/><polygon fill="#A88F51" points="777.278,207.43 776.328,377.019 672.852,266.054 673.802,96.465"/><g enable-background="new"><defs><polygon id="a" enable-background="new" points="777.278,207.43 776.328,377.019 672.852,266.054 673.802,96.465"/></defs><clipPath id="b"><use xlink:href="#a" overflow="visible"/></clipPath><g fill="#537D8B" clip-path="url(#b)"><polyline points="817.197,492.959 821.187,497.238 821.223,490.878 817.233,486.599 817.197,492.959"/><polyline points="817.288,476.703 821.278,480.982 821.314,474.623 817.324,470.344 817.288,476.703"/><polyline points="817.379,460.448 821.37,464.727 821.405,458.368 817.415,454.089 817.379,460.448"/><polyline points="817.466,444.906 821.457,449.185 821.492,442.825 817.502,438.546 817.466,444.906"/><polyline points="817.557,428.65 821.548,432.93 821.583,426.57 817.593,422.291 817.557,428.65"/><polyline points="817.648,412.402 821.639,416.681 821.674,410.321 817.684,406.042 817.648,412.402"/><polyline points="817.74,396.147 821.73,400.426 821.766,394.066 817.775,389.787 817.74,396.147"/><polyline points="817.831,379.898 821.821,384.177 821.857,377.818 817.866,373.538 817.831,379.898"/><polyline points="817.922,363.643 821.912,367.922 821.948,361.562 817.957,357.283 817.922,363.643"/><polyline points="818.009,348.1 821.999,352.379 822.035,346.02 818.044,341.741 818.009,348.1"/><polyline points="818.1,331.845 822.09,336.124 822.126,329.764 818.135,325.485 818.1,331.845"/><polyline points="818.191,315.596 822.181,319.876 822.217,313.516 818.227,309.237 818.191,315.596"/><polyline points="818.282,299.341 822.272,303.62 822.308,297.261 818.318,292.981 818.282,299.341"/><polyline points="818.373,283.093 822.363,287.372 822.399,281.012 818.409,276.733 818.373,283.093"/><polyline points="818.46,267.543 822.451,271.822 822.486,265.463 818.496,261.184 818.46,267.543"/><polyline points="818.551,251.295 822.542,255.574 822.577,249.214 818.587,244.935 818.551,251.295"/><polyline points="818.642,235.04 822.633,239.319 822.668,232.959 818.678,228.68 818.642,235.04"/><polyline points="818.733,218.784 822.724,223.063 822.759,216.704 818.769,212.425 818.733,218.784"/><polyline points="818.824,202.536 822.815,206.815 822.85,200.455 818.86,196.176 818.824,202.536"/><polyline points="818.916,186.28 822.906,190.56 822.942,184.2 818.951,179.921 818.916,186.28"/><polyline points="819.003,170.738 822.993,175.017 823.029,168.657 819.038,164.378 819.003,170.738"/><polyline points="803.5,478.27 807.495,482.555 807.531,476.195 803.535,471.91 803.5,478.27"/><polyline points="803.591,462.015 807.586,466.3 807.622,459.94 803.626,455.655 803.591,462.015"/><polyline points="803.682,445.76 807.677,450.044 807.713,443.685 803.717,439.4 803.682,445.76"/><polyline points="803.769,430.217 807.765,434.502 807.8,428.142 803.805,423.858 803.769,430.217"/><polyline points="803.86,413.962 807.856,418.247 807.891,411.887 803.896,407.602 803.86,413.962"/><polyline points="803.951,397.713 807.947,401.998 807.982,395.639 803.987,391.354 803.951,397.713"/><polyline points="804.042,381.458 808.038,385.743 808.073,379.383 804.078,375.098 804.042,381.458"/><polyline points="804.133,365.209 808.129,369.494 808.164,363.135 804.169,358.85 804.133,365.209"/><polyline points="804.224,348.954 808.22,353.239 808.256,346.879 804.26,342.595 804.224,348.954"/><polyline points="804.311,333.412 808.307,337.696 808.343,331.337 804.347,327.052 804.311,333.412"/><polyline points="804.402,317.156 808.398,321.441 808.434,315.081 804.438,310.797 804.402,317.156"/><polyline points="804.494,300.908 808.489,305.193 808.525,298.833 804.529,294.548 804.494,300.908"/><polyline points="804.585,284.652 808.58,288.937 808.616,282.578 804.62,278.293 804.585,284.652"/><polyline points="804.676,268.404 808.671,272.689 808.707,266.329 804.711,262.044 804.676,268.404"/><polyline points="804.763,252.854 808.758,257.139 808.794,250.78 804.798,246.495 804.763,252.854"/><polyline points="804.854,236.606 808.85,240.891 808.885,234.531 804.89,230.246 804.854,236.606"/><polyline points="804.945,220.351 808.941,224.636 808.976,218.276 804.981,213.991 804.945,220.351"/><polyline points="805.036,204.096 809.032,208.38 809.067,202.021 805.072,197.736 805.036,204.096"/><polyline points="805.127,187.847 809.123,192.132 809.158,185.772 805.163,181.488 805.127,187.847"/><polyline points="805.218,171.592 809.214,175.877 809.25,169.517 805.254,165.232 805.218,171.592"/><polyline points="805.305,156.049 809.301,160.334 809.337,153.975 805.341,149.69 805.305,156.049"/><polyline points="789.802,463.581 793.798,467.866 793.834,461.507 789.838,457.222 789.802,463.581"/><polyline points="789.893,447.326 793.889,451.611 793.925,445.251 789.929,440.966 789.893,447.326"/><polyline points="789.984,431.071 793.98,435.356 794.016,428.996 790.02,424.711 789.984,431.071"/><polyline points="790.071,415.528 794.067,419.813 794.103,413.454 790.107,409.169 790.071,415.528"/><polyline points="790.162,399.273 794.158,403.558 794.194,397.198 790.198,392.913 790.162,399.273"/><polyline points="790.253,383.024 794.249,387.31 794.285,380.95 790.289,376.665 790.253,383.024"/><polyline points="790.345,366.769 794.341,371.054 794.376,364.695 790.38,360.409 790.345,366.769"/><polyline points="790.436,350.521 794.432,354.806 794.467,348.446 790.471,344.161 790.436,350.521"/><polyline points="790.527,334.265 794.523,338.55 794.558,332.191 790.562,327.906 790.527,334.265"/><polyline points="790.614,318.723 794.61,323.008 794.645,316.648 790.649,312.363 790.614,318.723"/><polyline points="790.705,302.467 794.701,306.752 794.736,300.393 790.74,296.108 790.705,302.467"/><polyline points="790.796,286.219 794.792,290.504 794.828,284.144 790.832,279.859 790.796,286.219"/><polyline points="790.887,269.964 794.883,274.249 794.919,267.889 790.923,263.604 790.887,269.964"/><polyline points="790.978,253.715 794.974,258 795.01,251.641 791.014,247.355 790.978,253.715"/><polyline points="791.065,238.166 795.061,242.451 795.097,236.091 791.101,231.806 791.065,238.166"/><polyline points="791.156,221.917 795.152,226.202 795.188,219.843 791.192,215.558 791.156,221.917"/><polyline points="791.247,205.662 795.243,209.947 795.279,203.588 791.283,199.303 791.247,205.662"/><polyline points="791.338,189.407 795.334,193.692 795.37,187.332 791.374,183.047 791.338,189.407"/><polyline points="791.43,173.158 795.425,177.443 795.461,171.084 791.465,166.799 791.43,173.158"/><polyline points="791.521,156.903 795.517,161.188 795.552,154.828 791.556,150.543 791.521,156.903"/><polyline points="791.608,141.36 795.604,145.646 795.639,139.286 791.643,135.001 791.608,141.36"/><polyline points="776.11,448.898 780.1,453.177 780.136,446.818 776.146,442.539 776.11,448.898"/><polyline points="776.201,432.643 780.191,436.922 780.227,430.562 776.237,426.283 776.201,432.643"/><polyline points="776.292,416.388 780.283,420.667 780.318,414.307 776.328,410.028 776.292,416.388"/><polyline points="776.379,400.845 780.37,405.124 780.405,398.765 776.415,394.486 776.379,400.845"/><polyline points="776.47,384.59 780.461,388.869 780.496,382.51 776.506,378.23 776.47,384.59"/><polyline points="776.561,368.341 780.552,372.621 780.587,366.261 776.597,361.982 776.561,368.341"/><polyline points="776.652,352.086 780.643,356.365 780.679,350.006 776.688,345.727 776.652,352.086"/><polyline points="776.744,335.838 780.734,340.117 780.77,333.757 776.779,329.478 776.744,335.838"/><polyline points="776.835,319.582 780.825,323.861 780.861,317.502 776.87,313.223 776.835,319.582"/><polyline points="776.922,304.04 780.912,308.319 780.948,301.959 776.957,297.68 776.922,304.04"/><polyline points="777.013,287.784 781.003,292.064 781.039,285.704 777.048,281.425 777.013,287.784"/><polyline points="777.104,271.536 781.094,275.815 781.13,269.456 777.14,265.176 777.104,271.536"/><polyline points="777.195,255.281 781.185,259.56 781.221,253.2 777.231,248.921 777.195,255.281"/><polyline points="777.286,239.032 781.276,243.311 781.312,236.952 777.322,232.673 777.286,239.032"/><polyline points="777.373,223.483 781.364,227.762 781.399,221.402 777.409,217.123 777.373,223.483"/><polyline points="777.464,207.234 781.455,211.513 781.49,205.154 777.5,200.875 777.464,207.234"/><polyline points="777.555,190.979 781.546,195.258 781.581,188.899 777.591,184.62 777.555,190.979"/><polyline points="777.646,174.724 781.637,179.003 781.672,172.643 777.682,168.364 777.646,174.724"/><polyline points="777.737,158.475 781.728,162.755 781.763,156.395 777.773,152.116 777.737,158.475"/><polyline points="777.829,142.22 781.819,146.499 781.855,140.14 777.864,135.86 777.829,142.22"/><polyline points="777.916,126.677 781.906,130.957 781.942,124.597 777.951,120.318 777.916,126.677"/><polyline points="762.413,434.21 766.408,438.494 766.444,432.135 762.448,427.85 762.413,434.21"/><polyline points="762.504,417.954 766.499,422.239 766.535,415.88 762.539,411.595 762.504,417.954"/><polyline points="762.595,401.699 766.591,405.984 766.626,399.625 762.63,395.34 762.595,401.699"/><polyline points="762.682,386.157 766.678,390.442 766.713,384.082 762.718,379.797 762.682,386.157"/><polyline points="762.773,369.901 766.769,374.186 766.804,367.827 762.809,363.542 762.773,369.901"/><polyline points="762.864,353.653 766.86,357.938 766.895,351.578 762.9,347.293 762.864,353.653"/><polyline points="762.955,337.398 766.951,341.682 766.986,335.323 762.991,331.038 762.955,337.398"/><polyline points="763.046,321.149 767.042,325.434 767.078,319.074 763.082,314.789 763.046,321.149"/><polyline points="763.137,304.894 767.133,309.179 767.169,302.819 763.173,298.534 763.137,304.894"/><polyline points="763.224,289.351 767.22,293.636 767.256,287.276 763.26,282.992 763.224,289.351"/><polyline points="763.315,273.096 767.311,277.381 767.347,271.021 763.351,266.736 763.315,273.096"/><polyline points="763.407,256.847 767.402,261.132 767.438,254.773 763.442,250.488 763.407,256.847"/><polyline points="763.498,240.592 767.493,244.877 767.529,238.517 763.533,234.232 763.498,240.592"/><polyline points="763.589,224.344 767.584,228.628 767.62,222.269 763.624,217.984 763.589,224.344"/><polyline points="763.676,208.794 767.672,213.079 767.707,206.719 763.711,202.435 763.676,208.794"/><polyline points="763.767,192.546 767.763,196.83 767.798,190.471 763.802,186.186 763.767,192.546"/><polyline points="763.858,176.291 767.854,180.575 767.889,174.216 763.894,169.931 763.858,176.291"/><polyline points="763.949,160.035 767.945,164.32 767.98,157.961 763.985,153.676 763.949,160.035"/><polyline points="764.04,143.787 768.036,148.072 768.071,141.712 764.076,137.427 764.04,143.787"/><polyline points="764.131,127.531 768.127,131.816 768.163,125.457 764.167,121.172 764.131,127.531"/><polyline points="764.218,111.989 768.214,116.274 768.25,109.914 764.254,105.629 764.218,111.989"/><polyline points="748.715,419.521 752.711,423.806 752.747,417.446 748.751,413.161 748.715,419.521"/><polyline points="748.806,403.265 752.802,407.551 752.838,401.191 748.842,396.906 748.806,403.265"/><polyline points="748.897,387.01 752.893,391.296 752.929,384.936 748.933,380.651 748.897,387.01"/><polyline points="748.984,371.468 752.98,375.753 753.016,369.393 749.02,365.108 748.984,371.468"/><polyline points="749.075,355.212 753.071,359.498 753.107,353.138 749.111,348.853 749.075,355.212"/><polyline points="749.166,338.964 753.162,343.249 753.198,336.89 749.202,332.604 749.166,338.964"/><polyline points="749.258,322.709 753.253,326.994 753.289,320.634 749.293,316.349 749.258,322.709"/><polyline points="749.349,306.46 753.345,310.745 753.38,304.386 749.384,300.101 749.349,306.46"/><polyline points="749.44,290.205 753.436,294.49 753.471,288.13 749.475,283.845 749.44,290.205"/><polyline points="749.527,274.662 753.523,278.947 753.558,272.588 749.562,268.303 749.527,274.662"/><polyline points="749.618,258.407 753.614,262.692 753.649,256.332 749.654,252.047 749.618,258.407"/><polyline points="749.709,242.158 753.705,246.444 753.741,240.084 749.745,235.799 749.709,242.158"/><polyline points="749.8,225.903 753.796,230.188 753.832,223.829 749.836,219.544 749.8,225.903"/><polyline points="749.891,209.655 753.887,213.94 753.923,207.58 749.927,203.295 749.891,209.655"/><polyline points="749.978,194.105 753.974,198.39 754.01,192.031 750.014,187.746 749.978,194.105"/><polyline points="750.069,177.857 754.065,182.142 754.101,175.782 750.105,171.497 750.069,177.857"/><polyline points="750.16,161.602 754.156,165.887 754.192,159.527 750.196,155.242 750.16,161.602"/><polyline points="750.251,145.346 754.247,149.632 754.283,143.272 750.287,138.987 750.251,145.346"/><polyline points="750.342,129.098 754.338,133.383 754.374,127.023 750.378,122.738 750.342,129.098"/><polyline points="750.434,112.843 754.43,117.128 754.465,110.768 750.469,106.483 750.434,112.843"/><polyline points="750.521,97.3 754.517,101.585 754.552,95.226 750.556,90.94 750.521,97.3"/><polyline points="735.023,404.838 739.013,409.117 739.049,402.757 735.059,398.478 735.023,404.838"/><polyline points="735.114,388.582 739.104,392.862 739.14,386.502 735.15,382.223 735.114,388.582"/><polyline points="735.205,372.327 739.196,376.607 739.231,370.247 735.241,365.968 735.205,372.327"/><polyline points="735.292,356.785 739.283,361.064 739.318,354.704 735.328,350.425 735.292,356.785"/><polyline points="735.383,340.53 739.374,344.809 739.409,338.449 735.419,334.17 735.383,340.53"/><polyline points="735.474,324.281 739.465,328.56 739.5,322.201 735.51,317.922 735.474,324.281"/><polyline points="735.565,308.026 739.556,312.305 739.591,305.945 735.601,301.666 735.565,308.026"/><polyline points="735.657,291.777 739.647,296.056 739.683,289.697 735.692,285.418 735.657,291.777"/><polyline points="735.748,275.522 739.738,279.801 739.774,273.441 735.783,269.162 735.748,275.522"/><polyline points="735.835,259.979 739.825,264.259 739.861,257.899 735.87,253.62 735.835,259.979"/><polyline points="735.926,243.724 739.916,248.003 739.952,241.644 735.961,237.364 735.926,243.724"/><polyline points="736.017,227.476 740.007,231.755 740.043,225.395 736.052,221.116 736.017,227.476"/><polyline points="736.108,211.22 740.098,215.499 740.134,209.14 736.144,204.861 736.108,211.22"/><polyline points="736.199,194.972 740.189,199.251 740.225,192.891 736.235,188.612 736.199,194.972"/><polyline points="736.286,179.422 740.277,183.701 740.312,177.342 736.322,173.063 736.286,179.422"/><polyline points="736.377,163.174 740.368,167.453 740.403,161.093 736.413,156.814 736.377,163.174"/><polyline points="736.468,146.919 740.459,151.198 740.494,144.838 736.504,140.559 736.468,146.919"/><polyline points="736.559,130.663 740.55,134.943 740.585,128.583 736.595,124.304 736.559,130.663"/><polyline points="736.65,114.415 740.641,118.694 740.676,112.335 736.686,108.055 736.65,114.415"/><polyline points="736.742,98.16 740.732,102.439 740.768,96.079 736.777,91.8 736.742,98.16"/><polyline points="736.829,82.617 740.819,86.896 740.855,80.537 736.864,76.257 736.829,82.617"/><polyline points="721.326,390.149 725.321,394.434 725.357,388.074 721.361,383.79 721.326,390.149"/><polyline points="721.417,373.894 725.412,378.179 725.448,371.819 721.452,367.534 721.417,373.894"/><polyline points="721.508,357.639 725.504,361.924 725.539,355.564 721.543,351.279 721.508,357.639"/><polyline points="721.595,342.096 725.591,346.381 725.626,340.022 721.631,335.737 721.595,342.096"/><polyline points="721.686,325.841 725.682,330.126 725.717,323.766 721.722,319.481 721.686,325.841"/><polyline points="721.777,309.592 725.773,313.877 725.808,307.518 721.813,303.233 721.777,309.592"/><polyline points="721.868,293.337 725.864,297.622 725.899,291.262 721.904,286.978 721.868,293.337"/><polyline points="721.959,277.089 725.955,281.374 725.991,275.014 721.995,270.729 721.959,277.089"/><polyline points="722.05,260.833 726.046,265.118 726.082,258.759 722.086,254.474 722.05,260.833"/><polyline points="722.137,245.291 726.133,249.576 726.169,243.216 722.173,238.931 722.137,245.291"/><polyline points="722.229,229.035 726.224,233.32 726.26,226.961 722.264,222.676 722.229,229.035"/><polyline points="722.32,212.787 726.315,217.072 726.351,210.712 722.355,206.427 722.32,212.787"/><polyline points="722.411,196.532 726.406,200.816 726.442,194.457 722.446,190.172 722.411,196.532"/><polyline points="722.502,180.283 726.497,184.568 726.533,178.208 722.537,173.924 722.502,180.283"/><polyline points="722.589,164.734 726.585,169.019 726.62,162.659 722.624,158.374 722.589,164.734"/><polyline points="722.68,148.485 726.676,152.77 726.711,146.41 722.716,142.126 722.68,148.485"/><polyline points="722.771,132.23 726.767,136.515 726.802,130.155 722.807,125.871 722.771,132.23"/><polyline points="722.862,115.975 726.858,120.26 726.893,113.9 722.898,109.615 722.862,115.975"/><polyline points="722.953,99.726 726.949,104.011 726.984,97.652 722.989,93.367 722.953,99.726"/><polyline points="723.044,83.471 727.04,87.756 727.076,81.396 723.08,77.111 723.044,83.471"/><polyline points="723.131,67.928 727.127,72.213 727.163,65.854 723.167,61.569 723.131,67.928"/><polyline points="707.628,375.46 711.624,379.745 711.66,373.386 707.664,369.101 707.628,375.46"/><polyline points="707.719,359.205 711.715,363.49 711.751,357.131 707.755,352.845 707.719,359.205"/><polyline points="707.81,342.95 711.806,347.235 711.842,340.876 707.846,336.59 707.81,342.95"/><polyline points="707.897,327.407 711.893,331.693 711.929,325.333 707.933,321.048 707.897,327.407"/><polyline points="707.988,311.152 711.984,315.437 712.02,309.078 708.024,304.792 707.988,311.152"/><polyline points="708.079,294.904 712.075,299.189 712.111,292.829 708.115,288.544 708.079,294.904"/><polyline points="708.171,278.648 712.167,282.933 712.202,276.574 708.206,272.289 708.171,278.648"/><polyline points="708.262,262.4 712.258,266.685 712.293,260.325 708.297,256.04 708.262,262.4"/><polyline points="708.353,246.144 712.349,250.43 712.384,244.07 708.388,239.785 708.353,246.144"/><polyline points="708.44,230.602 712.436,234.887 712.471,228.527 708.475,224.242 708.44,230.602"/><polyline points="708.531,214.347 712.527,218.632 712.562,212.272 708.567,207.987 708.531,214.347"/><polyline points="708.622,198.098 712.618,202.383 712.654,196.024 708.658,191.738 708.622,198.098"/><polyline points="708.713,181.843 712.709,186.128 712.745,179.768 708.749,175.483 708.713,181.843"/><polyline points="708.804,165.594 712.8,169.879 712.836,163.52 708.84,159.235 708.804,165.594"/><polyline points="708.891,150.045 712.887,154.33 712.923,147.97 708.927,143.685 708.891,150.045"/><polyline points="708.982,133.796 712.978,138.081 713.014,131.722 709.018,127.437 708.982,133.796"/><polyline points="709.073,117.541 713.069,121.826 713.105,115.467 709.109,111.182 709.073,117.541"/><polyline points="709.164,101.286 713.16,105.571 713.196,99.212 709.2,94.926 709.164,101.286"/><polyline points="709.255,85.037 713.251,89.323 713.287,82.963 709.291,78.678 709.255,85.037"/><polyline points="709.347,68.782 713.343,73.067 713.378,66.708 709.382,62.423 709.347,68.782"/><polyline points="709.434,53.24 713.43,57.525 713.465,51.165 709.469,46.88 709.434,53.24"/><polyline points="693.936,360.777 697.926,365.057 697.962,358.697 693.972,354.418 693.936,360.777"/><polyline points="694.027,344.522 698.017,348.801 698.053,342.442 694.063,338.162 694.027,344.522"/><polyline points="694.118,328.267 698.109,332.546 698.144,326.187 694.154,321.907 694.118,328.267"/><polyline points="694.205,312.725 698.196,317.004 698.231,310.644 694.241,306.365 694.205,312.725"/><polyline points="694.296,296.469 698.287,300.748 698.322,294.389 694.332,290.11 694.296,296.469"/><polyline points="694.387,280.221 698.378,284.5 698.413,278.14 694.423,273.861 694.387,280.221"/><polyline points="694.479,263.965 698.469,268.245 698.505,261.885 694.514,257.606 694.479,263.965"/><polyline points="694.57,247.717 698.56,251.996 698.596,245.636 694.605,241.357 694.57,247.717"/><polyline points="694.661,231.462 698.651,235.741 698.687,229.381 694.696,225.102 694.661,231.462"/><polyline points="694.748,215.919 698.738,220.198 698.774,213.839 694.783,209.559 694.748,215.919"/><polyline points="694.839,199.664 698.829,203.943 698.865,197.583 694.874,193.304 694.839,199.664"/><polyline points="694.93,183.415 698.92,187.694 698.956,181.335 694.966,177.056 694.93,183.415"/><polyline points="695.021,167.16 699.011,171.439 699.047,165.079 695.057,160.8 695.021,167.16"/><polyline points="695.112,150.911 699.102,155.19 699.138,148.831 695.148,144.552 695.112,150.911"/><polyline points="695.199,135.362 699.19,139.641 699.225,133.281 695.235,129.002 695.199,135.362"/><polyline points="695.29,119.113 699.281,123.393 699.316,117.033 695.326,112.754 695.29,119.113"/><polyline points="695.381,102.858 699.372,107.138 699.407,100.778 695.417,96.499 695.381,102.858"/><polyline points="695.472,86.603 699.463,90.882 699.498,84.523 695.508,80.243 695.472,86.603"/><polyline points="695.563,70.355 699.554,74.634 699.589,68.274 695.599,63.995 695.563,70.355"/><polyline points="695.655,54.099 699.645,58.378 699.681,52.019 695.69,47.74 695.655,54.099"/><polyline points="695.742,38.557 699.732,42.836 699.768,36.476 695.777,32.197 695.742,38.557"/><polyline points="680.239,346.089 684.234,350.374 684.27,344.014 680.274,339.729 680.239,346.089"/><polyline points="680.33,329.833 684.325,334.118 684.361,327.759 680.365,323.474 680.33,329.833"/><polyline points="680.421,313.578 684.417,317.863 684.452,311.504 680.456,307.219 680.421,313.578"/><polyline points="680.508,298.036 684.504,302.321 684.539,295.961 680.544,291.676 680.508,298.036"/><polyline points="680.599,281.781 684.595,286.065 684.63,279.706 680.635,275.421 680.599,281.781"/><polyline points="680.69,265.532 684.686,269.817 684.721,263.457 680.726,259.173 680.69,265.532"/><polyline points="680.781,249.277 684.777,253.562 684.812,247.202 680.817,242.917 680.781,249.277"/><polyline points="680.872,233.028 684.868,237.313 684.904,230.954 680.908,226.669 680.872,233.028"/><polyline points="680.963,216.773 684.959,221.058 684.995,214.698 680.999,210.413 680.963,216.773"/><polyline points="681.05,201.23 685.046,205.515 685.082,199.156 681.086,194.871 681.05,201.23"/><polyline points="681.141,184.975 685.137,189.26 685.173,182.9 681.177,178.615 681.141,184.975"/><polyline points="681.233,168.727 685.228,173.011 685.264,166.652 681.268,162.367 681.233,168.727"/><polyline points="681.324,152.471 685.319,156.756 685.355,150.396 681.359,146.112 681.324,152.471"/><polyline points="681.415,136.223 685.41,140.508 685.446,134.148 681.45,129.863 681.415,136.223"/><polyline points="681.502,120.673 685.497,124.958 685.533,118.599 681.537,114.314 681.502,120.673"/><polyline points="681.593,104.425 685.589,108.71 685.624,102.35 681.629,98.065 681.593,104.425"/><polyline points="681.684,88.17 685.68,92.455 685.715,86.095 681.72,81.81 681.684,88.17"/><polyline points="681.775,71.914 685.771,76.199 685.806,69.84 681.811,65.555 681.775,71.914"/><polyline points="681.866,55.666 685.862,59.951 685.897,53.591 681.902,49.306 681.866,55.666"/><polyline points="681.957,39.411 685.953,43.695 685.989,37.336 681.993,33.051 681.957,39.411"/><polyline points="682.044,23.868 686.04,28.153 686.076,21.793 682.08,17.509 682.044,23.868"/><polyline points="666.541,331.4 670.537,335.685 670.573,329.326 666.577,325.04 666.541,331.4"/><polyline points="666.632,315.145 670.628,319.43 670.664,313.07 666.668,308.785 666.632,315.145"/><polyline points="666.723,298.89 670.719,303.175 670.755,296.815 666.759,292.53 666.723,298.89"/><polyline points="666.81,283.347 670.806,287.632 670.842,281.273 666.846,276.987 666.81,283.347"/><polyline points="666.901,267.092 670.897,271.377 670.933,265.017 666.937,260.732 666.901,267.092"/><polyline points="666.992,250.843 670.988,255.128 671.024,248.769 667.028,244.484 666.992,250.843"/><polyline points="667.084,234.588 671.08,238.873 671.115,232.513 667.119,228.228 667.084,234.588"/><polyline points="667.175,218.339 671.171,222.625 671.206,216.265 667.21,211.98 667.175,218.339"/><polyline points="667.266,202.084 671.262,206.369 671.297,200.01 667.301,195.724 667.266,202.084"/><polyline points="667.353,186.541 671.349,190.827 671.384,184.467 667.388,180.182 667.353,186.541"/><polyline points="667.444,170.286 671.44,174.571 671.475,168.212 667.48,163.927 667.444,170.286"/><polyline points="667.535,154.038 671.531,158.323 671.567,151.963 667.571,147.678 667.535,154.038"/><polyline points="667.626,137.782 671.622,142.067 671.658,135.708 667.662,131.423 667.626,137.782"/><polyline points="667.717,121.534 671.713,125.819 671.749,119.459 667.753,115.174 667.717,121.534"/><polyline points="667.804,105.984 671.8,110.27 671.836,103.91 667.84,99.625 667.804,105.984"/><polyline points="667.895,89.736 671.891,94.021 671.927,87.661 667.931,83.376 667.895,89.736"/><polyline points="667.986,73.481 671.982,77.766 672.018,71.406 668.022,67.121 667.986,73.481"/><polyline points="668.077,57.226 672.073,61.511 672.109,55.151 668.113,50.866 668.077,57.226"/><polyline points="668.169,40.977 672.164,45.262 672.2,38.903 668.204,34.618 668.169,40.977"/><polyline points="668.26,24.722 672.256,29.007 672.291,22.647 668.295,18.362 668.26,24.722"/><polyline points="668.347,9.179 672.343,13.464 672.378,7.105 668.382,2.82 668.347,9.179"/><polyline points="652.849,316.717 656.839,320.996 656.875,314.637 652.885,310.357 652.849,316.717"/><polyline points="652.94,300.462 656.93,304.741 656.966,298.381 652.976,294.102 652.94,300.462"/><polyline points="653.031,284.207 657.022,288.486 657.057,282.126 653.067,277.847 653.031,284.207"/><polyline points="653.118,268.664 657.109,272.943 657.144,266.584 653.154,262.305 653.118,268.664"/><polyline points="653.209,252.409 657.2,256.688 657.235,250.328 653.245,246.049 653.209,252.409"/><polyline points="653.3,236.16 657.291,240.439 657.326,234.08 653.336,229.801 653.3,236.16"/><polyline points="653.392,219.905 657.382,224.184 657.418,217.825 653.427,213.545 653.392,219.905"/><polyline points="653.483,203.656 657.473,207.936 657.509,201.576 653.518,197.297 653.483,203.656"/><polyline points="653.574,187.401 657.564,191.68 657.6,185.321 653.609,181.042 653.574,187.401"/><polyline points="653.661,171.859 657.651,176.138 657.687,169.778 653.696,165.499 653.661,171.859"/><polyline points="653.752,155.603 657.742,159.882 657.778,153.523 653.787,149.244 653.752,155.603"/><polyline points="653.843,139.355 657.833,143.634 657.869,137.274 653.879,132.995 653.843,139.355"/><polyline points="653.934,123.099 657.924,127.379 657.96,121.019 653.97,116.74 653.934,123.099"/><polyline points="654.025,106.851 658.015,111.13 658.051,104.771 654.061,100.491 654.025,106.851"/><polyline points="654.112,91.301 658.103,95.581 658.138,89.221 654.148,84.942 654.112,91.301"/><polyline points="654.203,75.053 658.194,79.332 658.229,72.973 654.239,68.693 654.203,75.053"/><polyline points="654.294,58.798 658.285,63.077 658.32,56.718 654.33,52.438 654.294,58.798"/><polyline points="654.385,42.543 658.376,46.822 658.411,40.462 654.421,36.183 654.385,42.543"/><polyline points="654.476,26.294 658.467,30.573 658.503,24.214 654.512,19.935 654.476,26.294"/><polyline points="654.568,10.039 658.558,14.318 658.594,7.958 654.603,3.679 654.568,10.039"/><polyline points="654.655,-5.504 658.645,-1.225 658.681,-7.584 654.69,-11.863 654.655,-5.504"/><polyline points="639.152,302.028 643.147,306.313 643.183,299.954 639.187,295.669 639.152,302.028"/><polyline points="639.243,285.773 643.238,290.058 643.274,283.698 639.278,279.413 639.243,285.773"/><polyline points="639.334,269.518 643.33,273.803 643.365,267.443 639.37,263.158 639.334,269.518"/><polyline points="639.421,253.976 643.417,258.26 643.452,251.901 639.457,247.616 639.421,253.976"/><polyline points="639.512,237.72 643.508,242.005 643.543,235.645 639.548,231.361 639.512,237.72"/><polyline points="639.603,221.472 643.599,225.757 643.634,219.397 639.639,215.112 639.603,221.472"/><polyline points="639.694,205.216 643.69,209.501 643.726,203.142 639.73,198.857 639.694,205.216"/><polyline points="639.785,188.968 643.781,193.253 643.817,186.893 639.821,182.608 639.785,188.968"/><polyline points="639.876,172.712 643.872,176.997 643.908,170.638 639.912,166.353 639.876,172.712"/><polyline points="639.963,157.17 643.959,161.455 643.995,155.095 639.999,150.81 639.963,157.17"/><polyline points="640.055,140.915 644.05,145.199 644.086,138.84 640.09,134.555 640.055,140.915"/><polyline points="640.146,124.666 644.141,128.951 644.177,122.591 640.181,118.307 640.146,124.666"/><polyline points="640.237,108.411 644.232,112.696 644.268,106.336 640.272,102.051 640.237,108.411"/><polyline points="640.328,92.162 644.323,96.447 644.359,90.088 640.363,85.803 640.328,92.162"/><polyline points="640.415,76.613 644.411,80.898 644.446,74.538 640.451,70.253 640.415,76.613"/><polyline points="640.506,60.364 644.502,64.649 644.537,58.29 640.542,54.005 640.506,60.364"/><polyline points="640.597,44.109 644.593,48.394 644.628,42.035 640.633,37.75 640.597,44.109"/><polyline points="640.688,27.854 644.684,32.139 644.719,25.779 640.724,21.494 640.688,27.854"/><polyline points="640.779,11.606 644.775,15.89 644.81,9.531 640.815,5.246 640.779,11.606"/><polyline points="640.87,-4.65 644.866,-0.365 644.902,-6.725 640.906,-11.009 640.87,-4.65"/><polyline points="640.957,-20.192 644.953,-15.907 644.989,-22.267 640.993,-26.552 640.957,-20.192"/><polyline points="625.454,287.34 629.45,291.625 629.486,285.265 625.49,280.98 625.454,287.34"/><polyline points="625.545,271.084 629.541,275.369 629.577,269.01 625.581,264.725 625.545,271.084"/><polyline points="625.636,254.829 629.632,259.114 629.668,252.755 625.672,248.47 625.636,254.829"/><polyline points="625.723,239.287 629.719,243.572 629.755,237.212 625.759,232.927 625.723,239.287"/><polyline points="625.814,223.031 629.81,227.316 629.846,220.957 625.85,216.672 625.814,223.031"/><polyline points="625.905,206.783 629.901,211.068 629.937,204.708 625.941,200.423 625.905,206.783"/><polyline points="625.997,190.527 629.993,194.813 630.028,188.453 626.032,184.168 625.997,190.527"/><polyline points="626.088,174.279 630.084,178.564 630.119,172.205 626.123,167.919 626.088,174.279"/><polyline points="626.179,158.024 630.175,162.309 630.21,155.949 626.214,151.664 626.179,158.024"/><polyline points="626.266,142.481 630.262,146.766 630.297,140.407 626.301,136.121 626.266,142.481"/><polyline points="626.357,126.226 630.353,130.511 630.388,124.151 626.393,119.866 626.357,126.226"/><polyline points="626.448,109.977 630.444,114.262 630.48,107.903 626.484,103.618 626.448,109.977"/><polyline points="626.539,93.722 630.535,98.007 630.571,91.647 626.575,87.362 626.539,93.722"/><polyline points="626.63,77.473 630.626,81.759 630.662,75.399 626.666,71.114 626.63,77.473"/><polyline points="626.717,61.924 630.713,66.209 630.749,59.85 626.753,55.564 626.717,61.924"/><polyline points="626.808,45.676 630.804,49.961 630.84,43.601 626.844,39.316 626.808,45.676"/><polyline points="626.899,29.421 630.895,33.706 630.931,27.346 626.935,23.061 626.899,29.421"/><polyline points="626.99,13.165 630.986,17.45 631.022,11.091 627.026,6.806 626.99,13.165"/><polyline points="627.082,-3.083 631.077,1.202 631.113,-5.158 627.117,-9.443 627.082,-3.083"/><polyline points="627.173,-19.339 631.169,-15.054 631.204,-21.413 627.208,-25.698 627.173,-19.339"/><polyline points="627.26,-34.881 631.256,-30.596 631.291,-36.956 627.295,-41.241 627.26,-34.881"/></g></g><path fill="#DDBC6B" d="M777.278 207.43l-103.476-110.965 130.192-60.581 103.476 110.965-130.192 60.581zm26.427-170.563l-128.518 59.802 102.373 109.782 128.518-59.802-102.373-109.782"/></g><g enable-background="new"><polygon fill="#888" points="148.641,473.373 148.443,508.704 83.335,539 83.533,503.669"/><polygon fill="#A3A3A3" points="257.336,589.934 257.138,625.265 148.443,508.704 148.641,473.373"/><polygon fill="#5F818D" points="192.228,620.23 192.03,655.561 83.335,539 83.533,503.669"/><polygon fill="#83B2C2" points="83.533,503.669 148.641,473.373 257.336,589.934 192.228,620.23"/><polygon fill="#4F6C75" points="257.336,589.934 257.138,625.265 192.03,655.561 192.228,620.23"/><polygon fill="#888" points="258.72,590.137 258.522,625.468 191.748,656.54 191.946,621.209"/><polygon fill="#A3A3A3" points="191.946,621.209 191.748,656.54 81.951,538.796 82.149,503.465"/><path fill="#E1E1E1" d="M191.946 621.209l-109.797-117.744 66.773-31.071 109.798 117.743-66.774 31.072zm-43.305-147.836l-65.107 30.296 108.694 116.561 65.107-30.296-108.694-116.561"/></g></g></svg>