<svg xmlns="http://www.w3.org/2000/svg" xmlns:xlink="http://www.w3.org/1999/xlink" viewBox="0 0 1053 554" enable-background="new 0 0 1053 554"><g><g enable-background="new"><polygon fill="#818181" points="34.82,140.463 34.662,168.728 -72.404,218.548 -72.246,190.283"/><polygon fill="#A5A5A5" points="85.515,194.827 85.357,223.092 34.662,168.728 34.82,140.463"/><polygon fill="#A5A5A5" points="-21.551,244.647 -21.709,272.912 -72.404,218.548 -72.246,190.283"/><polygon fill="#CDCDCD" points="-72.246,190.283 34.82,140.463 85.515,194.827 -21.551,244.647"/><polygon fill="#818181" points="85.515,194.827 85.357,223.092 -21.709,272.912 -21.551,244.647"/><polygon fill="#818181" points="86.904,195.035 86.746,223.3 -21.986,273.896 -21.828,245.631"/><g enable-background="new"><defs><polygon id="a" enable-background="new" points="86.904,195.035 86.746,223.3 -21.986,273.896 -21.828,245.631"/></defs><clipPath id="b"><use xlink:href="#a" overflow="visible"/></clipPath><g fill="#436570" clip-path="url(#b)"><polyline points="167.554,176.436 173.386,173.722 173.441,163.885 167.609,166.598 167.554,176.436"/><polyline points="167.695,151.292 173.527,148.578 173.582,138.741 167.75,141.455 167.695,151.292"/><polyline points="167.836,126.148 173.668,123.434 173.723,113.597 167.891,116.311 167.836,126.148"/><polyline points="167.971,102.107 173.803,99.393 173.858,89.556 168.026,92.27 167.971,102.107"/><polyline points="168.112,76.963 173.944,74.249 173.999,64.412 168.167,67.126 168.112,76.963"/><polyline points="168.253,51.83 174.084,49.116 174.14,39.279 168.308,41.993 168.253,51.83"/><polyline points="168.393,26.686 174.225,23.972 174.281,14.135 168.449,16.849 168.393,26.686"/><polyline points="168.534,1.552 174.366,-1.161 174.421,-10.998 168.589,-8.285 168.534,1.552"/><polyline points="168.675,-23.592 174.507,-26.305 174.562,-36.142 168.73,-33.429 168.675,-23.592"/><polyline points="168.81,-47.633 174.642,-50.347 174.697,-60.184 168.865,-57.47 168.81,-47.633"/><polyline points="168.951,-72.777 174.783,-75.491 174.838,-85.328 169.006,-82.614 168.951,-72.777"/><polyline points="169.092,-97.91 174.924,-100.624 174.979,-110.461 169.147,-107.747 169.092,-97.91"/><polyline points="169.233,-123.054 175.064,-125.768 175.12,-135.605 169.288,-132.891 169.233,-123.054"/><polyline points="169.373,-148.187 175.205,-150.901 175.26,-160.738 169.429,-158.024 169.373,-148.187"/><polyline points="169.508,-172.239 175.34,-174.953 175.395,-184.79 169.563,-182.076 169.508,-172.239"/><polyline points="169.649,-197.373 175.481,-200.086 175.536,-209.923 169.704,-207.21 169.649,-197.373"/><polyline points="169.79,-222.516 175.622,-225.23 175.677,-235.067 169.845,-232.353 169.79,-222.516"/><polyline points="169.931,-247.66 175.763,-250.374 175.818,-260.211 169.986,-257.497 169.931,-247.66"/><polyline points="170.072,-272.793 175.904,-275.507 175.959,-285.344 170.127,-282.63 170.072,-272.793"/><polyline points="170.213,-297.937 176.044,-300.651 176.1,-310.488 170.268,-307.774 170.213,-297.937"/><polyline points="170.347,-321.979 176.179,-324.692 176.234,-334.529 170.402,-331.816 170.347,-321.979"/><polyline points="147.536,185.751 153.375,183.033 153.431,173.196 147.591,175.914 147.536,185.751"/><polyline points="147.677,160.607 153.516,157.889 153.572,148.052 147.732,150.77 147.677,160.607"/><polyline points="147.818,135.463 153.657,132.746 153.712,122.909 147.873,125.626 147.818,135.463"/><polyline points="147.952,111.422 153.792,108.705 153.847,98.867 148.007,101.585 147.952,111.422"/><polyline points="148.093,86.278 153.933,83.561 153.988,73.724 148.148,76.441 148.093,86.278"/><polyline points="148.234,61.145 154.074,58.427 154.129,48.59 148.289,51.308 148.234,61.145"/><polyline points="148.375,36.001 154.215,33.283 154.27,23.446 148.43,26.164 148.375,36.001"/><polyline points="148.516,10.867 154.355,8.15 154.411,-1.687 148.571,1.03 148.516,10.867"/><polyline points="148.657,-14.277 154.496,-16.994 154.552,-26.831 148.712,-24.114 148.657,-14.277"/><polyline points="148.791,-38.318 154.631,-41.035 154.686,-50.872 148.847,-48.155 148.791,-38.318"/><polyline points="148.932,-63.462 154.772,-66.179 154.827,-76.016 148.988,-73.299 148.932,-63.462"/><polyline points="149.073,-88.595 154.913,-91.312 154.968,-101.149 149.128,-98.432 149.073,-88.595"/><polyline points="149.214,-113.739 155.054,-116.456 155.109,-126.293 149.269,-123.576 149.214,-113.739"/><polyline points="149.355,-138.872 155.195,-141.59 155.25,-151.427 149.41,-148.709 149.355,-138.872"/><polyline points="149.49,-162.924 155.329,-165.642 155.385,-175.479 149.545,-172.761 149.49,-162.924"/><polyline points="149.631,-188.058 155.47,-190.775 155.525,-200.612 149.686,-197.895 149.631,-188.058"/><polyline points="149.771,-213.201 155.611,-215.918 155.666,-225.755 149.827,-223.038 149.771,-213.201"/><polyline points="149.912,-238.345 155.752,-241.062 155.807,-250.899 149.967,-248.182 149.912,-238.345"/><polyline points="150.053,-263.478 155.893,-266.196 155.948,-276.033 150.108,-273.315 150.053,-263.478"/><polyline points="150.194,-288.622 156.034,-291.34 156.089,-301.177 150.249,-298.459 150.194,-288.622"/><polyline points="150.329,-312.664 156.168,-315.381 156.224,-325.218 150.384,-322.501 150.329,-312.664"/><polyline points="127.517,195.066 133.357,192.348 133.412,182.511 127.572,185.229 127.517,195.066"/><polyline points="127.658,169.922 133.498,167.204 133.553,157.367 127.713,160.085 127.658,169.922"/><polyline points="127.799,144.778 133.639,142.061 133.694,132.224 127.854,134.941 127.799,144.778"/><polyline points="127.933,120.737 133.774,118.02 133.829,108.183 127.989,110.9 127.933,120.737"/><polyline points="128.074,95.593 133.914,92.876 133.97,83.039 128.13,85.756 128.074,95.593"/><polyline points="128.215,70.46 134.055,67.742 134.11,57.905 128.27,60.623 128.215,70.46"/><polyline points="128.356,45.316 134.196,42.598 134.251,32.761 128.411,35.479 128.356,45.316"/><polyline points="128.497,20.183 134.337,17.465 134.392,7.628 128.552,10.346 128.497,20.183"/><polyline points="128.638,-4.961 134.478,-7.679 134.533,-17.516 128.693,-14.798 128.638,-4.961"/><polyline points="128.773,-29.003 134.613,-31.72 134.668,-41.557 128.828,-38.84 128.773,-29.003"/><polyline points="128.913,-54.147 134.754,-56.864 134.809,-66.701 128.969,-63.984 128.913,-54.147"/><polyline points="129.054,-79.28 134.894,-81.997 134.95,-91.834 129.109,-89.117 129.054,-79.28"/><polyline points="129.195,-104.424 135.035,-107.141 135.09,-116.978 129.25,-114.261 129.195,-104.424"/><polyline points="129.336,-129.557 135.176,-132.275 135.231,-142.112 129.391,-139.394 129.336,-129.557"/><polyline points="129.471,-153.609 135.311,-156.327 135.366,-166.164 129.526,-163.446 129.471,-153.609"/><polyline points="129.612,-178.742 135.452,-181.46 135.507,-191.297 129.667,-188.579 129.612,-178.742"/><polyline points="129.753,-203.886 135.593,-206.603 135.648,-216.44 129.808,-213.723 129.753,-203.886"/><polyline points="129.893,-229.03 135.734,-231.747 135.789,-241.584 129.949,-238.867 129.893,-229.03"/><polyline points="130.034,-254.163 135.874,-256.881 135.93,-266.718 130.089,-264 130.034,-254.163"/><polyline points="130.175,-279.307 136.015,-282.025 136.07,-291.862 130.23,-289.144 130.175,-279.307"/><polyline points="130.31,-303.348 136.15,-306.066 136.205,-315.903 130.365,-313.185 130.31,-303.348"/><polyline points="107.506,204.377 113.338,201.664 113.393,191.826 107.561,194.54 107.506,204.377"/><polyline points="107.647,179.233 113.479,176.52 113.534,166.683 107.702,169.396 107.647,179.233"/><polyline points="107.788,154.09 113.62,151.376 113.675,141.539 107.843,144.253 107.788,154.09"/><polyline points="107.923,130.049 113.755,127.335 113.81,117.498 107.978,120.212 107.923,130.049"/><polyline points="108.064,104.905 113.896,102.191 113.951,92.354 108.119,95.068 108.064,104.905"/><polyline points="108.204,79.771 114.036,77.058 114.092,67.221 108.26,69.934 108.204,79.771"/><polyline points="108.345,54.627 114.177,51.914 114.232,42.077 108.401,44.79 108.345,54.627"/><polyline points="108.486,29.494 114.318,26.78 114.373,16.943 108.541,19.657 108.486,29.494"/><polyline points="108.627,4.35 114.459,1.636 114.514,-8.201 108.682,-5.487 108.627,4.35"/><polyline points="108.762,-19.691 114.594,-22.405 114.649,-32.242 108.817,-29.528 108.762,-19.691"/><polyline points="108.903,-44.835 114.735,-47.549 114.79,-57.386 108.958,-54.672 108.903,-44.835"/><polyline points="109.044,-69.968 114.875,-72.682 114.931,-82.519 109.099,-79.805 109.044,-69.968"/><polyline points="109.184,-95.112 115.016,-97.826 115.072,-107.663 109.24,-104.949 109.184,-95.112"/><polyline points="109.325,-120.246 115.157,-122.959 115.212,-132.796 109.38,-130.083 109.325,-120.246"/><polyline points="109.46,-144.298 115.292,-147.011 115.347,-156.848 109.515,-154.135 109.46,-144.298"/><polyline points="109.601,-169.431 115.433,-172.145 115.488,-181.982 109.656,-179.268 109.601,-169.431"/><polyline points="109.742,-194.574 115.574,-197.288 115.629,-207.125 109.797,-204.411 109.742,-194.574"/><polyline points="109.883,-219.718 115.715,-222.432 115.77,-232.269 109.938,-229.555 109.883,-219.718"/><polyline points="110.024,-244.852 115.856,-247.565 115.911,-257.402 110.079,-254.689 110.024,-244.852"/><polyline points="110.165,-269.996 115.996,-272.709 116.052,-282.546 110.22,-279.833 110.165,-269.996"/><polyline points="110.299,-294.037 116.131,-296.751 116.186,-306.588 110.354,-303.874 110.299,-294.037"/><polyline points="87.488,213.692 93.327,210.975 93.383,201.138 87.543,203.855 87.488,213.692"/><polyline points="87.629,188.548 93.468,185.831 93.523,175.994 87.684,178.711 87.629,188.548"/><polyline points="87.77,163.405 93.609,160.688 93.664,150.851 87.825,153.568 87.77,163.405"/><polyline points="87.904,139.364 93.744,136.646 93.799,126.809 87.959,129.527 87.904,139.364"/><polyline points="88.045,114.22 93.885,111.502 93.94,101.665 88.1,104.383 88.045,114.22"/><polyline points="88.186,89.086 94.026,86.369 94.081,76.532 88.241,79.249 88.186,89.086"/><polyline points="88.327,63.942 94.167,61.225 94.222,51.388 88.382,54.105 88.327,63.942"/><polyline points="88.468,38.809 94.307,36.092 94.363,26.255 88.523,28.972 88.468,38.809"/><polyline points="88.609,13.665 94.448,10.948 94.503,1.111 88.664,3.828 88.609,13.665"/><polyline points="88.743,-10.376 94.583,-13.093 94.638,-22.931 88.799,-20.213 88.743,-10.376"/><polyline points="88.884,-35.52 94.724,-38.237 94.779,-48.074 88.939,-45.357 88.884,-35.52"/><polyline points="89.025,-60.653 94.865,-63.371 94.92,-73.208 89.08,-70.49 89.025,-60.653"/><polyline points="89.166,-85.797 95.006,-88.515 95.061,-98.352 89.221,-95.634 89.166,-85.797"/><polyline points="89.307,-110.931 95.146,-113.648 95.202,-123.485 89.362,-120.768 89.307,-110.931"/><polyline points="89.442,-134.983 95.281,-137.7 95.336,-147.537 89.497,-144.82 89.442,-134.983"/><polyline points="89.582,-160.116 95.422,-162.833 95.477,-172.67 89.638,-169.953 89.582,-160.116"/><polyline points="89.723,-185.259 95.563,-187.977 95.618,-197.814 89.779,-195.096 89.723,-185.259"/><polyline points="89.864,-210.403 95.704,-213.121 95.759,-222.958 89.919,-220.24 89.864,-210.403"/><polyline points="90.005,-235.537 95.845,-238.254 95.9,-248.091 90.06,-245.374 90.005,-235.537"/><polyline points="90.146,-260.681 95.986,-263.398 96.041,-273.235 90.201,-270.518 90.146,-260.681"/><polyline points="90.281,-284.722 96.12,-287.439 96.176,-297.276 90.336,-294.559 90.281,-284.722"/><polyline points="67.469,223.008 73.309,220.29 73.364,210.453 67.524,213.171 67.469,223.008"/><polyline points="67.61,197.864 73.45,195.146 73.505,185.309 67.665,188.027 67.61,197.864"/><polyline points="67.751,172.72 73.591,170.003 73.646,160.166 67.806,162.883 67.751,172.72"/><polyline points="67.885,148.679 73.725,145.961 73.781,136.124 67.941,138.842 67.885,148.679"/><polyline points="68.026,123.535 73.866,120.817 73.921,110.98 68.081,113.698 68.026,123.535"/><polyline points="68.167,98.402 74.007,95.684 74.062,85.847 68.222,88.565 68.167,98.402"/><polyline points="68.308,73.258 74.148,70.54 74.203,60.703 68.363,63.421 68.308,73.258"/><polyline points="68.449,48.124 74.289,45.407 74.344,35.57 68.504,38.287 68.449,48.124"/><polyline points="68.59,22.98 74.43,20.263 74.485,10.426 68.645,13.143 68.59,22.98"/><polyline points="68.724,-1.061 74.565,-3.778 74.62,-13.615 68.78,-10.898 68.724,-1.061"/><polyline points="68.865,-26.205 74.705,-28.922 74.761,-38.759 68.921,-36.042 68.865,-26.205"/><polyline points="69.006,-51.338 74.846,-54.056 74.901,-63.893 69.061,-61.175 69.006,-51.338"/><polyline points="69.147,-76.482 74.987,-79.2 75.042,-89.037 69.202,-86.319 69.147,-76.482"/><polyline points="69.288,-101.615 75.128,-104.333 75.183,-114.17 69.343,-111.452 69.288,-101.615"/><polyline points="69.423,-125.667 75.263,-128.385 75.318,-138.222 69.478,-135.504 69.423,-125.667"/><polyline points="69.564,-150.801 75.404,-153.518 75.459,-163.355 69.619,-160.638 69.564,-150.801"/><polyline points="69.705,-175.944 75.545,-178.662 75.6,-188.499 69.76,-185.781 69.705,-175.944"/><polyline points="69.845,-201.088 75.685,-203.806 75.741,-213.643 69.901,-210.925 69.845,-201.088"/><polyline points="69.986,-226.221 75.826,-228.939 75.881,-238.776 70.041,-236.058 69.986,-226.221"/><polyline points="70.127,-251.365 75.967,-254.083 76.022,-263.92 70.182,-261.202 70.127,-251.365"/><polyline points="70.262,-275.407 76.102,-278.124 76.157,-287.961 70.317,-285.244 70.262,-275.407"/><polyline points="47.458,232.319 53.29,229.605 53.345,219.768 47.513,222.482 47.458,232.319"/><polyline points="47.599,207.175 53.431,204.461 53.486,194.624 47.654,197.338 47.599,207.175"/><polyline points="47.74,182.032 53.572,179.318 53.627,169.481 47.795,172.195 47.74,182.032"/><polyline points="47.875,157.99 53.707,155.277 53.762,145.44 47.93,148.153 47.875,157.99"/><polyline points="48.016,132.846 53.847,130.133 53.903,120.296 48.071,123.009 48.016,132.846"/><polyline points="48.156,107.713 53.988,104.999 54.043,95.162 48.212,97.876 48.156,107.713"/><polyline points="48.297,82.569 54.129,79.855 54.184,70.018 48.352,72.732 48.297,82.569"/><polyline points="48.438,57.436 54.27,54.722 54.325,44.885 48.493,47.599 48.438,57.436"/><polyline points="48.579,32.292 54.411,29.578 54.466,19.741 48.634,22.455 48.579,32.292"/><polyline points="48.714,8.251 54.546,5.537 54.601,-4.3 48.769,-1.587 48.714,8.251"/><polyline points="48.855,-16.893 54.687,-19.607 54.742,-29.444 48.91,-26.73 48.855,-16.893"/><polyline points="48.996,-42.027 54.827,-44.74 54.883,-54.577 49.051,-51.864 48.996,-42.027"/><polyline points="49.136,-67.171 54.968,-69.884 55.023,-79.721 49.192,-77.008 49.136,-67.171"/><polyline points="49.277,-92.304 55.109,-95.018 55.164,-104.855 49.332,-102.141 49.277,-92.304"/><polyline points="49.412,-116.356 55.244,-119.07 55.299,-128.907 49.467,-126.193 49.412,-116.356"/><polyline points="49.553,-141.489 55.385,-144.203 55.44,-154.04 49.608,-151.326 49.553,-141.489"/><polyline points="49.694,-166.633 55.526,-169.346 55.581,-179.183 49.749,-176.47 49.694,-166.633"/><polyline points="49.835,-191.777 55.667,-194.49 55.722,-204.327 49.89,-201.614 49.835,-191.777"/><polyline points="49.976,-216.91 55.807,-219.624 55.863,-229.461 50.031,-226.747 49.976,-216.91"/><polyline points="50.116,-242.054 55.948,-244.768 56.003,-254.605 50.172,-251.891 50.116,-242.054"/><polyline points="50.251,-266.095 56.083,-268.809 56.138,-278.646 50.306,-275.932 50.251,-266.095"/><polyline points="27.44,241.634 33.279,238.917 33.334,229.08 27.495,231.797 27.44,241.634"/><polyline points="27.581,216.49 33.42,213.773 33.475,203.936 27.636,206.653 27.581,216.49"/><polyline points="27.721,191.347 33.561,188.629 33.616,178.792 27.777,181.51 27.721,191.347"/><polyline points="27.856,167.305 33.696,164.588 33.751,154.751 27.911,157.468 27.856,167.305"/><polyline points="27.997,142.161 33.837,139.444 33.892,129.607 28.052,132.324 27.997,142.161"/><polyline points="28.138,117.028 33.978,114.311 34.033,104.474 28.193,107.191 28.138,117.028"/><polyline points="28.279,91.884 34.118,89.167 34.174,79.33 28.334,82.047 28.279,91.884"/><polyline points="28.42,66.751 34.259,64.034 34.314,54.197 28.475,56.914 28.42,66.751"/><polyline points="28.561,41.607 34.4,38.89 34.455,29.053 28.616,31.77 28.561,41.607"/><polyline points="28.695,17.566 34.535,14.848 34.59,5.011 28.75,7.729 28.695,17.566"/><polyline points="28.836,-7.578 34.676,-10.296 34.731,-20.133 28.891,-17.415 28.836,-7.578"/><polyline points="28.977,-32.712 34.817,-35.429 34.872,-45.266 29.032,-42.549 28.977,-32.712"/><polyline points="29.118,-57.856 34.958,-60.573 35.013,-70.41 29.173,-67.693 29.118,-57.856"/><polyline points="29.259,-82.989 35.098,-85.706 35.154,-95.543 29.314,-92.826 29.259,-82.989"/><polyline points="29.394,-107.041 35.233,-109.758 35.288,-119.595 29.449,-116.878 29.394,-107.041"/><polyline points="29.534,-132.174 35.374,-134.891 35.429,-144.729 29.59,-142.011 29.534,-132.174"/><polyline points="29.675,-157.318 35.515,-160.035 35.57,-169.872 29.73,-167.155 29.675,-157.318"/><polyline points="29.816,-182.462 35.656,-185.179 35.711,-195.016 29.871,-192.299 29.816,-182.462"/><polyline points="29.957,-207.595 35.797,-210.312 35.852,-220.149 30.012,-217.432 29.957,-207.595"/><polyline points="30.098,-232.739 35.938,-235.456 35.993,-245.293 30.153,-242.576 30.098,-232.739"/><polyline points="30.233,-256.78 36.072,-259.497 36.127,-269.334 30.288,-266.617 30.233,-256.78"/><polyline points="7.421,250.949 13.261,248.232 13.316,238.395 7.476,241.112 7.421,250.949"/><polyline points="7.562,225.805 13.402,223.088 13.457,213.251 7.617,215.968 7.562,225.805"/><polyline points="7.703,200.662 13.543,197.944 13.598,188.107 7.758,190.825 7.703,200.662"/><polyline points="7.837,176.621 13.677,173.903 13.732,164.066 7.892,166.784 7.837,176.621"/><polyline points="7.978,151.477 13.818,148.759 13.873,138.922 8.033,141.64 7.978,151.477"/><polyline points="8.119,126.343 13.959,123.626 14.014,113.789 8.174,116.506 8.119,126.343"/><polyline points="8.26,101.199 14.1,98.482 14.155,88.645 8.315,91.362 8.26,101.199"/><polyline points="8.401,76.066 14.241,73.349 14.296,63.512 8.456,66.229 8.401,76.066"/><polyline points="8.542,50.922 14.382,48.205 14.437,38.368 8.597,41.085 8.542,50.922"/><polyline points="8.676,26.881 14.516,24.163 14.572,14.326 8.732,17.044 8.676,26.881"/><polyline points="8.817,1.737 14.657,-0.981 14.712,-10.818 8.872,-8.1 8.817,1.737"/><polyline points="8.958,-23.396 14.798,-26.114 14.853,-35.951 9.013,-33.233 8.958,-23.396"/><polyline points="9.099,-48.54 14.939,-51.258 14.994,-61.095 9.154,-58.377 9.099,-48.54"/><polyline points="9.24,-73.674 15.08,-76.391 15.135,-86.228 9.295,-83.511 9.24,-73.674"/><polyline points="9.375,-97.726 15.215,-100.443 15.27,-110.28 9.43,-107.563 9.375,-97.726"/><polyline points="9.516,-122.859 15.356,-125.576 15.411,-135.413 9.571,-132.696 9.516,-122.859"/><polyline points="9.656,-148.002 15.496,-150.72 15.552,-160.557 9.712,-157.839 9.656,-148.002"/><polyline points="9.797,-173.146 15.637,-175.864 15.692,-185.701 9.852,-182.983 9.797,-173.146"/><polyline points="9.938,-198.28 15.778,-200.997 15.833,-210.834 9.993,-208.117 9.938,-198.28"/><polyline points="10.079,-223.424 15.919,-226.141 15.974,-235.978 10.134,-233.261 10.079,-223.424"/><polyline points="10.214,-247.465 16.054,-250.182 16.109,-260.019 10.269,-257.302 10.214,-247.465"/><polyline points="-12.59,260.261 -6.758,257.547 -6.703,247.71 -12.535,250.424 -12.59,260.261"/><polyline points="-12.449,235.117 -6.617,232.403 -6.562,222.566 -12.394,225.28 -12.449,235.117"/><polyline points="-12.308,209.973 -6.476,207.26 -6.421,197.423 -12.253,200.136 -12.308,209.973"/><polyline points="-12.173,185.932 -6.342,183.218 -6.286,173.381 -12.118,176.095 -12.173,185.932"/><polyline points="-12.033,160.788 -6.201,158.074 -6.146,148.237 -11.977,150.951 -12.033,160.788"/><polyline points="-11.892,135.655 -6.06,132.941 -6.005,123.104 -11.837,125.818 -11.892,135.655"/><polyline points="-11.751,110.511 -5.919,107.797 -5.864,97.96 -11.696,100.674 -11.751,110.511"/><polyline points="-11.61,85.378 -5.778,82.664 -5.723,72.827 -11.555,75.541 -11.61,85.378"/><polyline points="-11.469,60.234 -5.637,57.52 -5.582,47.683 -11.414,50.397 -11.469,60.234"/><polyline points="-11.334,36.192 -5.502,33.479 -5.447,23.642 -11.279,26.355 -11.334,36.192"/><polyline points="-11.193,11.048 -5.362,8.335 -5.306,-1.502 -11.138,1.211 -11.193,11.048"/><polyline points="-11.053,-14.085 -5.221,-16.799 -5.166,-26.636 -10.997,-23.922 -11.053,-14.085"/><polyline points="-10.912,-39.229 -5.08,-41.943 -5.025,-51.78 -10.857,-49.066 -10.912,-39.229"/><polyline points="-10.771,-64.362 -4.939,-67.076 -4.884,-76.913 -10.716,-74.199 -10.771,-64.362"/><polyline points="-10.636,-88.414 -4.804,-91.128 -4.749,-100.965 -10.581,-98.251 -10.636,-88.414"/><polyline points="-10.495,-113.547 -4.663,-116.261 -4.608,-126.098 -10.44,-123.385 -10.495,-113.547"/><polyline points="-10.354,-138.691 -4.522,-141.405 -4.467,-151.242 -10.299,-148.528 -10.354,-138.691"/><polyline points="-10.213,-163.835 -4.382,-166.549 -4.326,-176.386 -10.158,-173.672 -10.213,-163.835"/><polyline points="-10.073,-188.968 -4.241,-191.682 -4.186,-201.519 -10.017,-198.805 -10.073,-188.968"/><polyline points="-9.932,-214.112 -4.1,-216.826 -4.045,-226.663 -9.877,-223.949 -9.932,-214.112"/><polyline points="-9.797,-238.153 -3.965,-240.867 -3.91,-250.704 -9.742,-247.99 -9.797,-238.153"/><polyline points="-32.608,269.576 -26.769,266.858 -26.714,257.021 -32.553,259.739 -32.608,269.576"/><polyline points="-32.468,244.432 -26.628,241.715 -26.573,231.877 -32.412,234.595 -32.468,244.432"/><polyline points="-32.327,219.288 -26.487,216.571 -26.432,206.734 -32.272,209.451 -32.327,219.288"/><polyline points="-32.192,195.247 -26.352,192.53 -26.297,182.693 -32.137,185.41 -32.192,195.247"/><polyline points="-32.051,170.103 -26.211,167.386 -26.156,157.549 -31.996,160.266 -32.051,170.103"/><polyline points="-31.91,144.97 -26.071,142.253 -26.015,132.415 -31.855,135.133 -31.91,144.97"/><polyline points="-31.769,119.826 -25.93,117.109 -25.875,107.272 -31.714,109.989 -31.769,119.826"/><polyline points="-31.628,94.693 -25.789,91.975 -25.734,82.138 -31.573,84.856 -31.628,94.693"/><polyline points="-31.488,69.549 -25.648,66.831 -25.593,56.994 -31.432,59.712 -31.488,69.549"/><polyline points="-31.353,45.507 -25.513,42.79 -25.458,32.953 -31.298,35.67 -31.353,45.507"/><polyline points="-31.212,20.363 -25.372,17.646 -25.317,7.809 -31.157,10.526 -31.212,20.363"/><polyline points="-31.071,-4.77 -25.231,-7.487 -25.176,-17.324 -31.016,-14.607 -31.071,-4.77"/><polyline points="-30.93,-29.914 -25.091,-32.631 -25.035,-42.468 -30.875,-39.751 -30.93,-29.914"/><polyline points="-30.789,-55.047 -24.95,-57.764 -24.895,-67.602 -30.734,-64.884 -30.789,-55.047"/><polyline points="-30.655,-79.099 -24.815,-81.816 -24.76,-91.654 -30.599,-88.936 -30.655,-79.099"/><polyline points="-30.514,-104.232 -24.674,-106.95 -24.619,-116.787 -30.459,-114.069 -30.514,-104.232"/><polyline points="-30.373,-129.376 -24.533,-132.093 -24.478,-141.93 -30.318,-139.213 -30.373,-129.376"/><polyline points="-30.232,-154.52 -24.392,-157.237 -24.337,-167.074 -30.177,-164.357 -30.232,-154.52"/><polyline points="-30.091,-179.653 -24.251,-182.37 -24.196,-192.207 -30.036,-189.49 -30.091,-179.653"/><polyline points="-29.95,-204.797 -24.111,-207.514 -24.055,-217.351 -29.895,-214.634 -29.95,-204.797"/><polyline points="-29.815,-228.838 -23.976,-231.556 -23.921,-241.393 -29.76,-238.675 -29.815,-228.838"/><polyline points="-52.627,278.891 -46.787,276.174 -46.732,266.336 -52.572,269.054 -52.627,278.891"/><polyline points="-52.486,253.747 -46.646,251.03 -46.591,241.193 -52.431,243.91 -52.486,253.747"/><polyline points="-52.346,228.604 -46.505,225.886 -46.45,216.049 -52.29,218.767 -52.346,228.604"/><polyline points="-52.211,204.562 -46.371,201.845 -46.316,192.008 -52.156,194.725 -52.211,204.562"/><polyline points="-52.07,179.418 -46.23,176.701 -46.175,166.864 -52.015,169.581 -52.07,179.418"/><polyline points="-51.929,154.285 -46.089,151.568 -46.034,141.731 -51.874,144.448 -51.929,154.285"/><polyline points="-51.788,129.141 -45.948,126.424 -45.893,116.587 -51.733,119.304 -51.788,129.141"/><polyline points="-51.647,104.008 -45.807,101.29 -45.752,91.453 -51.592,94.171 -51.647,104.008"/><polyline points="-51.506,78.864 -45.666,76.146 -45.611,66.309 -51.451,69.027 -51.506,78.864"/><polyline points="-51.372,54.823 -45.532,52.105 -45.477,42.268 -51.317,44.986 -51.372,54.823"/><polyline points="-51.231,29.679 -45.391,26.961 -45.336,17.124 -51.176,19.842 -51.231,29.679"/><polyline points="-51.09,4.545 -45.25,1.828 -45.195,-8.009 -51.035,-5.292 -51.09,4.545"/><polyline points="-50.949,-20.599 -45.109,-23.316 -45.054,-33.153 -50.894,-30.436 -50.949,-20.599"/><polyline points="-50.808,-45.732 -44.968,-48.449 -44.913,-58.286 -50.753,-55.569 -50.808,-45.732"/><polyline points="-50.673,-69.784 -44.833,-72.501 -44.778,-82.338 -50.618,-79.621 -50.673,-69.784"/><polyline points="-50.533,-94.917 -44.693,-97.635 -44.637,-107.472 -50.477,-104.754 -50.533,-94.917"/><polyline points="-50.392,-120.061 -44.552,-122.778 -44.497,-132.615 -50.337,-129.898 -50.392,-120.061"/><polyline points="-50.251,-145.205 -44.411,-147.922 -44.356,-157.759 -50.196,-155.042 -50.251,-145.205"/><polyline points="-50.11,-170.338 -44.27,-173.055 -44.215,-182.892 -50.055,-180.175 -50.11,-170.338"/><polyline points="-49.969,-195.482 -44.129,-198.199 -44.074,-208.036 -49.914,-205.319 -49.969,-195.482"/><polyline points="-49.834,-219.523 -43.994,-222.241 -43.939,-232.078 -49.779,-229.36 -49.834,-219.523"/><polyline points="-72.638,288.203 -66.806,285.489 -66.751,275.652 -72.583,278.365 -72.638,288.203"/><polyline points="-72.497,263.059 -66.665,260.345 -66.61,250.508 -72.442,253.221 -72.497,263.059"/><polyline points="-72.356,237.915 -66.524,235.201 -66.469,225.364 -72.301,228.078 -72.356,237.915"/><polyline points="-72.222,213.874 -66.39,211.16 -66.335,201.323 -72.166,204.037 -72.222,213.874"/><polyline points="-72.081,188.73 -66.249,186.016 -66.194,176.179 -72.026,178.893 -72.081,188.73"/><polyline points="-71.94,163.597 -66.108,160.883 -66.053,151.046 -71.885,153.76 -71.94,163.597"/><polyline points="-71.799,138.453 -65.967,135.739 -65.912,125.902 -71.744,128.616 -71.799,138.453"/><polyline points="-71.658,113.319 -65.826,110.606 -65.771,100.769 -71.603,103.482 -71.658,113.319"/><polyline points="-71.517,88.175 -65.685,85.462 -65.63,75.625 -71.462,78.338 -71.517,88.175"/><polyline points="-71.382,64.134 -65.551,61.42 -65.495,51.583 -71.327,54.297 -71.382,64.134"/><polyline points="-71.242,38.99 -65.41,36.276 -65.354,26.439 -71.186,29.153 -71.242,38.99"/><polyline points="-71.101,13.857 -65.269,11.143 -65.214,1.306 -71.046,4.02 -71.101,13.857"/><polyline points="-70.96,-11.287 -65.128,-14.001 -65.073,-23.838 -70.905,-21.124 -70.96,-11.287"/><polyline points="-70.819,-36.42 -64.987,-39.134 -64.932,-48.971 -70.764,-46.257 -70.819,-36.42"/><polyline points="-70.684,-60.472 -64.852,-63.186 -64.797,-73.023 -70.629,-70.31 -70.684,-60.472"/><polyline points="-70.543,-85.606 -64.711,-88.319 -64.656,-98.157 -70.488,-95.443 -70.543,-85.606"/><polyline points="-70.402,-110.749 -64.571,-113.463 -64.515,-123.3 -70.347,-120.586 -70.402,-110.749"/><polyline points="-70.262,-135.893 -64.43,-138.607 -64.374,-148.444 -70.206,-145.73 -70.262,-135.893"/><polyline points="-70.121,-161.026 -64.289,-163.74 -64.234,-173.577 -70.066,-170.863 -70.121,-161.026"/><polyline points="-69.98,-186.17 -64.148,-188.884 -64.093,-198.721 -69.925,-196.007 -69.98,-186.17"/><polyline points="-69.845,-210.212 -64.013,-212.925 -63.958,-222.762 -69.79,-220.049 -69.845,-210.212"/><polyline points="-92.657,297.518 -86.817,294.8 -86.762,284.963 -92.601,287.681 -92.657,297.518"/><polyline points="-92.516,272.374 -86.676,269.656 -86.621,259.819 -92.461,262.537 -92.516,272.374"/><polyline points="-92.375,247.23 -86.535,244.513 -86.48,234.676 -92.32,237.393 -92.375,247.23"/><polyline points="-92.24,223.189 -86.4,220.472 -86.345,210.634 -92.185,213.352 -92.24,223.189"/><polyline points="-92.099,198.045 -86.259,195.328 -86.204,185.491 -92.044,188.208 -92.099,198.045"/><polyline points="-91.958,172.912 -86.119,170.194 -86.064,160.357 -91.903,163.075 -91.958,172.912"/><polyline points="-91.817,147.768 -85.978,145.05 -85.923,135.213 -91.762,137.931 -91.817,147.768"/><polyline points="-91.677,122.634 -85.837,119.917 -85.782,110.08 -91.621,112.797 -91.677,122.634"/><polyline points="-91.536,97.49 -85.696,94.773 -85.641,84.936 -91.48,87.653 -91.536,97.49"/><polyline points="-91.401,73.449 -85.561,70.732 -85.506,60.895 -91.346,63.612 -91.401,73.449"/><polyline points="-91.26,48.305 -85.42,45.588 -85.365,35.751 -91.205,38.468 -91.26,48.305"/><polyline points="-91.119,23.172 -85.28,20.455 -85.224,10.617 -91.064,13.335 -91.119,23.172"/><polyline points="-90.978,-1.972 -85.139,-4.689 -85.083,-14.526 -90.923,-11.809 -90.978,-1.972"/><polyline points="-90.837,-27.105 -84.998,-29.823 -84.943,-39.66 -90.782,-36.942 -90.837,-27.105"/><polyline points="-90.703,-51.157 -84.863,-53.875 -84.808,-63.712 -90.648,-60.994 -90.703,-51.157"/><polyline points="-90.562,-76.291 -84.722,-79.008 -84.667,-88.845 -90.507,-86.128 -90.562,-76.291"/><polyline points="-90.421,-101.434 -84.581,-104.151 -84.526,-113.988 -90.366,-111.271 -90.421,-101.434"/><polyline points="-90.28,-126.578 -84.44,-129.295 -84.385,-139.132 -90.225,-136.415 -90.28,-126.578"/><polyline points="-90.139,-151.711 -84.3,-154.429 -84.244,-164.266 -90.084,-161.548 -90.139,-151.711"/><polyline points="-89.998,-176.855 -84.159,-179.573 -84.103,-189.41 -89.943,-186.692 -89.998,-176.855"/><polyline points="-89.864,-200.897 -84.024,-203.614 -83.969,-213.451 -89.808,-210.734 -89.864,-200.897"/><polyline points="-112.675,306.833 -106.835,304.115 -106.78,294.278 -112.62,296.996 -112.675,306.833"/><polyline points="-112.535,281.689 -106.694,278.971 -106.639,269.134 -112.479,271.852 -112.535,281.689"/><polyline points="-112.394,256.545 -106.554,253.828 -106.498,243.991 -112.338,246.708 -112.394,256.545"/><polyline points="-112.259,232.504 -106.419,229.787 -106.364,219.95 -112.204,222.667 -112.259,232.504"/><polyline points="-112.118,207.36 -106.278,204.643 -106.223,194.806 -112.063,197.523 -112.118,207.36"/><polyline points="-111.977,182.227 -106.137,179.509 -106.082,169.672 -111.922,172.39 -111.977,182.227"/><polyline points="-111.836,157.083 -105.996,154.365 -105.941,144.528 -111.781,147.246 -111.836,157.083"/><polyline points="-111.695,131.95 -105.855,129.232 -105.8,119.395 -111.64,122.113 -111.695,131.95"/><polyline points="-111.555,106.806 -105.714,104.088 -105.659,94.251 -111.499,96.969 -111.555,106.806"/><polyline points="-111.42,82.764 -105.58,80.047 -105.525,70.21 -111.365,72.927 -111.42,82.764"/><polyline points="-111.279,57.62 -105.439,54.903 -105.384,45.066 -111.224,47.783 -111.279,57.62"/><polyline points="-111.138,32.487 -105.298,29.77 -105.243,19.933 -111.083,22.65 -111.138,32.487"/><polyline points="-110.997,7.343 -105.157,4.626 -105.102,-5.211 -110.942,-2.494 -110.997,7.343"/><polyline points="-110.856,-17.79 -105.016,-20.508 -104.961,-30.345 -110.801,-27.627 -110.856,-17.79"/><polyline points="-110.722,-41.842 -104.881,-44.56 -104.826,-54.397 -110.666,-51.679 -110.722,-41.842"/><polyline points="-110.581,-66.975 -104.741,-69.693 -104.686,-79.53 -110.526,-76.812 -110.581,-66.975"/><polyline points="-110.44,-92.119 -104.6,-94.836 -104.545,-104.673 -110.385,-101.956 -110.44,-92.119"/><polyline points="-110.299,-117.263 -104.459,-119.98 -104.404,-129.817 -110.244,-127.1 -110.299,-117.263"/><polyline points="-110.158,-142.396 -104.318,-145.114 -104.263,-154.951 -110.103,-152.233 -110.158,-142.396"/><polyline points="-110.017,-167.54 -104.177,-170.258 -104.122,-180.095 -109.962,-177.377 -110.017,-167.54"/><polyline points="-109.882,-191.581 -104.042,-194.299 -103.987,-204.136 -109.827,-201.418 -109.882,-191.581"/></g></g><polygon fill="#A5A5A5" points="-21.828,245.631 -21.986,273.896 -73.789,218.344 -73.63,190.08"/><path fill="#CDCDCD" d="M-21.828 245.631l-51.802-55.551 108.732-50.596 51.803 55.551-108.733 50.596zm56.648-105.168l-107.066 49.82 50.695 54.364 107.066-49.82-50.695-54.364"/></g><g enable-background="new"><polygon fill="#8A7543" points="822.83,389.549 822.355,474.343 711.154,526.088 711.629,441.294"/><polygon fill="#AB9153" points="931.52,506.105 931.045,590.899 822.355,474.343 822.83,389.549"/><polygon fill="#A2A2A2" points="820.319,557.849 819.844,642.644 711.154,526.088 711.629,441.294"/><polygon fill="#838383" points="931.52,506.105 931.045,590.899 819.844,642.644 820.319,557.849"/><path fill="#DABA6A" d="M820.037 558.828l-109.793-117.738 112.868-52.52 109.792 117.738-112.867 52.52zm2.793-169.279l-111.202 51.745 108.69 116.556 111.202-51.745-108.69-116.556"/><polygon fill="#D0D0D0" points="711.629,441.294 822.83,389.549 931.52,506.105 820.319,557.849"/><polygon fill="#8A7543" points="932.905,506.308 932.429,591.102 819.562,643.622 820.037,558.828"/><g enable-background="new"><defs><polygon id="c" enable-background="new" points="932.905,506.308 932.429,591.102 819.562,643.622 820.037,558.828"/></defs><clipPath id="d"><use xlink:href="#c" overflow="visible"/></clipPath><g fill="#446772" clip-path="url(#d)"><polyline points="1012.509,675.417 1018.341,672.703 1018.376,666.343 1012.544,669.057 1012.509,675.417"/><polyline points="1012.6,659.161 1018.432,656.447 1018.468,650.088 1012.636,652.802 1012.6,659.161"/><polyline points="1012.691,642.906 1018.523,640.192 1018.559,633.833 1012.727,636.547 1012.691,642.906"/><polyline points="1012.778,627.364 1018.61,624.65 1018.646,618.29 1012.814,621.004 1012.778,627.364"/><polyline points="1012.869,611.108 1018.701,608.395 1018.737,602.035 1012.905,604.749 1012.869,611.108"/><polyline points="1012.96,594.86 1018.792,592.146 1018.828,585.786 1012.996,588.5 1012.96,594.86"/><polyline points="1013.051,578.604 1018.883,575.891 1018.919,569.531 1013.087,572.245 1013.051,578.604"/><polyline points="1013.142,562.356 1018.974,559.642 1019.01,553.283 1013.178,555.996 1013.142,562.356"/><polyline points="1013.234,546.101 1019.065,543.387 1019.101,537.027 1013.269,539.741 1013.234,546.101"/><polyline points="1013.321,530.558 1019.153,527.844 1019.188,521.485 1013.356,524.198 1013.321,530.558"/><polyline points="1013.412,514.303 1019.244,511.589 1019.279,505.229 1013.447,507.943 1013.412,514.303"/><polyline points="1013.503,498.054 1019.335,495.341 1019.37,488.981 1013.538,491.695 1013.503,498.054"/><polyline points="1013.594,481.799 1019.426,479.085 1019.461,472.726 1013.63,475.439 1013.594,481.799"/><polyline points="1013.685,465.55 1019.517,462.837 1019.552,456.477 1013.721,459.191 1013.685,465.55"/><polyline points="1013.772,450.001 1019.604,447.287 1019.64,440.928 1013.808,443.641 1013.772,450.001"/><polyline points="1013.863,433.753 1019.695,431.039 1019.731,424.679 1013.899,427.393 1013.863,433.753"/><polyline points="1013.954,417.498 1019.786,414.784 1019.822,408.424 1013.99,411.138 1013.954,417.498"/><polyline points="1014.045,401.242 1019.877,398.528 1019.913,392.169 1014.081,394.883 1014.045,401.242"/><polyline points="1014.136,384.994 1019.968,382.28 1020.004,375.92 1014.172,378.634 1014.136,384.994"/><polyline points="1014.227,368.738 1020.059,366.025 1020.095,359.665 1014.263,362.379 1014.227,368.738"/><polyline points="1014.315,353.196 1020.146,350.482 1020.182,344.122 1014.35,346.836 1014.315,353.196"/><polyline points="992.49,684.732 998.33,682.014 998.366,675.655 992.526,678.372 992.49,684.732"/><polyline points="992.581,668.476 998.421,665.759 998.457,659.399 992.617,662.117 992.581,668.476"/><polyline points="992.673,652.221 998.512,649.504 998.548,643.144 992.708,645.862 992.673,652.221"/><polyline points="992.76,636.679 998.599,633.961 998.635,627.602 992.795,630.319 992.76,636.679"/><polyline points="992.851,620.423 998.69,617.706 998.726,611.346 992.886,614.064 992.851,620.423"/><polyline points="992.942,604.175 998.781,601.458 998.817,595.098 992.977,597.815 992.942,604.175"/><polyline points="993.033,587.919 998.873,585.202 998.908,578.843 993.069,581.56 993.033,587.919"/><polyline points="993.124,571.671 998.964,568.954 998.999,562.594 993.16,565.311 993.124,571.671"/><polyline points="993.215,555.416 999.055,552.698 999.09,546.339 993.251,549.056 993.215,555.416"/><polyline points="993.302,539.873 999.142,537.156 999.177,530.796 993.338,533.514 993.302,539.873"/><polyline points="993.393,523.618 999.233,520.9 999.269,514.541 993.429,517.258 993.393,523.618"/><polyline points="993.484,507.369 999.324,504.652 999.36,498.292 993.52,501.01 993.484,507.369"/><polyline points="993.575,491.114 999.415,488.397 999.451,482.037 993.611,484.754 993.575,491.114"/><polyline points="993.666,474.865 999.506,472.148 999.542,465.789 993.702,468.506 993.666,474.865"/><polyline points="993.754,459.316 999.593,456.599 999.629,450.239 993.789,452.956 993.754,459.316"/><polyline points="993.845,443.068 999.684,440.35 999.72,433.991 993.88,436.708 993.845,443.068"/><polyline points="993.936,426.813 999.775,424.095 999.811,417.736 993.971,420.453 993.936,426.813"/><polyline points="994.027,410.557 999.866,407.84 999.902,401.48 994.062,404.198 994.027,410.557"/><polyline points="994.118,394.309 999.958,391.591 999.993,385.232 994.154,387.949 994.118,394.309"/><polyline points="994.209,378.053 1000.049,375.336 1000.084,368.976 994.245,371.694 994.209,378.053"/><polyline points="994.296,362.511 1000.136,359.794 1000.171,353.434 994.332,356.151 994.296,362.511"/><polyline points="972.471,694.047 978.312,691.329 978.347,684.97 972.507,687.687 972.471,694.047"/><polyline points="972.563,677.792 978.403,675.074 978.438,668.714 972.598,671.432 972.563,677.792"/><polyline points="972.654,661.536 978.494,658.819 978.529,652.459 972.689,655.177 972.654,661.536"/><polyline points="972.741,645.994 978.581,643.276 978.616,636.917 972.776,639.634 972.741,645.994"/><polyline points="972.832,629.739 978.672,627.021 978.708,620.661 972.868,623.379 972.832,629.739"/><polyline points="972.923,613.49 978.763,610.773 978.799,604.413 972.959,607.13 972.923,613.49"/><polyline points="973.014,597.235 978.854,594.517 978.89,588.158 973.05,590.875 973.014,597.235"/><polyline points="973.105,580.986 978.945,578.269 978.981,571.909 973.141,574.627 973.105,580.986"/><polyline points="973.196,564.731 979.036,562.013 979.072,555.654 973.232,558.371 973.196,564.731"/><polyline points="973.283,549.188 979.123,546.471 979.159,540.111 973.319,542.829 973.283,549.188"/><polyline points="973.374,532.933 979.214,530.216 979.25,523.856 973.41,526.573 973.374,532.933"/><polyline points="973.465,516.685 979.305,513.967 979.341,507.607 973.501,510.325 973.465,516.685"/><polyline points="973.557,500.429 979.397,497.712 979.432,491.352 973.592,494.07 973.557,500.429"/><polyline points="973.648,484.181 979.488,481.463 979.523,475.104 973.683,477.821 973.648,484.181"/><polyline points="973.735,468.631 979.575,465.914 979.61,459.554 973.77,462.272 973.735,468.631"/><polyline points="973.826,452.383 979.666,449.665 979.701,443.306 973.861,446.023 973.826,452.383"/><polyline points="973.917,436.128 979.757,433.41 979.793,427.051 973.952,429.768 973.917,436.128"/><polyline points="974.008,419.872 979.848,417.155 979.884,410.795 974.044,413.513 974.008,419.872"/><polyline points="974.099,403.624 979.939,400.906 979.975,394.547 974.135,397.264 974.099,403.624"/><polyline points="974.19,387.369 980.03,384.651 980.066,378.292 974.226,381.009 974.19,387.369"/><polyline points="974.277,371.826 980.117,369.109 980.153,362.749 974.313,365.466 974.277,371.826"/><polyline points="952.461,703.358 958.293,700.645 958.328,694.285 952.496,696.999 952.461,703.358"/><polyline points="952.552,687.103 958.384,684.389 958.419,678.03 952.588,680.743 952.552,687.103"/><polyline points="952.643,670.848 958.475,668.134 958.51,661.775 952.679,664.488 952.643,670.848"/><polyline points="952.73,655.305 958.562,652.592 958.598,646.232 952.766,648.946 952.73,655.305"/><polyline points="952.821,639.05 958.653,636.336 958.689,629.977 952.857,632.69 952.821,639.05"/><polyline points="952.912,622.802 958.744,620.088 958.78,613.728 952.948,616.442 952.912,622.802"/><polyline points="953.003,606.546 958.835,603.832 958.871,597.473 953.039,600.187 953.003,606.546"/><polyline points="953.094,590.298 958.926,587.584 958.962,581.224 953.13,583.938 953.094,590.298"/><polyline points="953.185,574.042 959.017,571.329 959.053,564.969 953.221,567.683 953.185,574.042"/><polyline points="953.273,558.5 959.104,555.786 959.14,549.427 953.308,552.14 953.273,558.5"/><polyline points="953.364,542.244 959.196,539.531 959.231,533.171 953.399,535.885 953.364,542.244"/><polyline points="953.455,525.996 959.287,523.282 959.322,516.923 953.49,519.636 953.455,525.996"/><polyline points="953.546,509.741 959.378,507.027 959.413,500.667 953.581,503.381 953.546,509.741"/><polyline points="953.637,493.492 959.469,490.778 959.504,484.419 953.672,487.133 953.637,493.492"/><polyline points="953.724,477.943 959.556,475.229 959.591,468.869 953.76,471.583 953.724,477.943"/><polyline points="953.815,461.694 959.647,458.981 959.683,452.621 953.851,455.335 953.815,461.694"/><polyline points="953.906,445.439 959.738,442.726 959.774,436.366 953.942,439.08 953.906,445.439"/><polyline points="953.997,429.184 959.829,426.47 959.865,420.111 954.033,422.824 953.997,429.184"/><polyline points="954.088,412.935 959.92,410.222 959.956,403.862 954.124,406.576 954.088,412.935"/><polyline points="954.179,396.68 960.011,393.966 960.047,387.607 954.215,390.32 954.179,396.68"/><polyline points="954.266,381.138 960.098,378.424 960.134,372.064 954.302,374.778 954.266,381.138"/><polyline points="932.442,712.673 938.282,709.956 938.318,703.596 932.478,706.314 932.442,712.673"/><polyline points="932.533,696.418 938.373,693.701 938.409,687.341 932.569,690.058 932.533,696.418"/><polyline points="932.625,680.163 938.464,677.446 938.5,671.086 932.66,673.803 932.625,680.163"/><polyline points="932.712,664.62 938.551,661.903 938.587,655.544 932.747,658.261 932.712,664.62"/><polyline points="932.803,648.365 938.642,645.648 938.678,639.288 932.838,642.005 932.803,648.365"/><polyline points="932.894,632.117 938.733,629.399 938.769,623.04 932.929,625.757 932.894,632.117"/><polyline points="932.985,615.861 938.824,613.144 938.86,606.784 933.02,609.502 932.985,615.861"/><polyline points="933.076,599.613 938.916,596.895 938.951,590.536 933.112,593.253 933.076,599.613"/><polyline points="933.167,583.357 939.007,580.64 939.042,574.281 933.203,576.998 933.167,583.357"/><polyline points="933.254,567.815 939.094,565.098 939.129,558.738 933.29,561.455 933.254,567.815"/><polyline points="933.345,551.56 939.185,548.842 939.22,542.483 933.381,545.2 933.345,551.56"/><polyline points="933.436,535.311 939.276,532.594 939.311,526.234 933.472,528.951 933.436,535.311"/><polyline points="933.527,519.056 939.367,516.338 939.403,509.979 933.563,512.696 933.527,519.056"/><polyline points="933.618,502.807 939.458,500.09 939.494,493.73 933.654,496.448 933.618,502.807"/><polyline points="933.706,487.258 939.545,484.54 939.581,478.181 933.741,480.898 933.706,487.258"/><polyline points="933.797,471.009 939.636,468.292 939.672,461.932 933.832,464.65 933.797,471.009"/><polyline points="933.888,454.754 939.727,452.037 939.763,445.677 933.923,448.395 933.888,454.754"/><polyline points="933.979,438.499 939.818,435.782 939.854,429.422 934.014,432.139 933.979,438.499"/><polyline points="934.07,422.25 939.909,419.533 939.945,413.174 934.105,415.891 934.07,422.25"/><polyline points="934.161,405.995 940,403.278 940.036,396.918 934.197,399.636 934.161,405.995"/><polyline points="934.248,390.453 940.088,387.735 940.123,381.376 934.284,384.093 934.248,390.453"/><polyline points="912.423,721.989 918.263,719.271 918.299,712.911 912.459,715.629 912.423,721.989"/><polyline points="912.515,705.733 918.355,703.016 918.39,696.656 912.55,699.374 912.515,705.733"/><polyline points="912.606,689.478 918.446,686.761 918.481,680.401 912.641,683.119 912.606,689.478"/><polyline points="912.693,673.936 918.533,671.218 918.568,664.859 912.728,667.576 912.693,673.936"/><polyline points="912.784,657.68 918.624,654.963 918.659,648.603 912.819,651.321 912.784,657.68"/><polyline points="912.875,641.432 918.715,638.714 918.751,632.355 912.91,635.072 912.875,641.432"/><polyline points="912.966,625.176 918.806,622.459 918.842,616.099 913.002,618.817 912.966,625.176"/><polyline points="913.057,608.928 918.897,606.211 918.933,599.851 913.093,602.568 913.057,608.928"/><polyline points="913.148,592.673 918.988,589.955 919.024,583.596 913.184,586.313 913.148,592.673"/><polyline points="913.235,577.13 919.075,574.413 919.111,568.053 913.271,570.771 913.235,577.13"/><polyline points="913.326,560.875 919.166,558.157 919.202,551.798 913.362,554.515 913.326,560.875"/><polyline points="913.417,544.626 919.257,541.909 919.293,535.549 913.453,538.267 913.417,544.626"/><polyline points="913.508,528.371 919.348,525.653 919.384,519.294 913.544,522.011 913.508,528.371"/><polyline points="913.599,512.122 919.44,509.405 919.475,503.045 913.635,505.763 913.599,512.122"/><polyline points="913.687,496.573 919.527,493.856 919.562,487.496 913.722,490.213 913.687,496.573"/><polyline points="913.778,480.325 919.618,477.607 919.653,471.247 913.813,473.965 913.778,480.325"/><polyline points="913.869,464.07 919.709,461.352 919.744,454.992 913.904,457.71 913.869,464.07"/><polyline points="913.96,447.814 919.8,445.097 919.836,438.737 913.995,441.455 913.96,447.814"/><polyline points="914.051,431.566 919.891,428.848 919.927,422.489 914.087,425.206 914.051,431.566"/><polyline points="914.142,415.31 919.982,412.593 920.018,406.233 914.178,408.951 914.142,415.31"/><polyline points="914.229,399.768 920.069,397.05 920.105,390.691 914.265,393.408 914.229,399.768"/><polyline points="892.413,731.3 898.245,728.586 898.28,722.227 892.448,724.94 892.413,731.3"/><polyline points="892.504,715.045 898.336,712.331 898.371,705.971 892.539,708.685 892.504,715.045"/><polyline points="892.595,698.79 898.427,696.076 898.462,689.716 892.63,692.43 892.595,698.79"/><polyline points="892.682,683.247 898.514,680.533 898.549,674.174 892.718,676.888 892.682,683.247"/><polyline points="892.773,666.992 898.605,664.278 898.641,657.918 892.809,660.632 892.773,666.992"/><polyline points="892.864,650.743 898.696,648.03 898.732,641.67 892.9,644.384 892.864,650.743"/><polyline points="892.955,634.488 898.787,631.774 898.823,625.415 892.991,628.128 892.955,634.488"/><polyline points="893.046,618.239 898.878,615.526 898.914,609.166 893.082,611.88 893.046,618.239"/><polyline points="893.137,601.984 898.969,599.27 899.005,592.911 893.173,595.625 893.137,601.984"/><polyline points="893.224,586.442 899.056,583.728 899.092,577.368 893.26,580.082 893.224,586.442"/><polyline points="893.316,570.186 899.147,567.472 899.183,561.113 893.351,563.827 893.316,570.186"/><polyline points="893.407,553.938 899.238,551.224 899.274,544.864 893.442,547.578 893.407,553.938"/><polyline points="893.498,537.682 899.33,534.969 899.365,528.609 893.533,531.323 893.498,537.682"/><polyline points="893.589,521.434 899.421,518.72 899.456,512.361 893.624,515.074 893.589,521.434"/><polyline points="893.676,505.884 899.508,503.171 899.543,496.811 893.711,499.525 893.676,505.884"/><polyline points="893.767,489.636 899.599,486.922 899.634,480.563 893.803,483.276 893.767,489.636"/><polyline points="893.858,473.381 899.69,470.667 899.726,464.308 893.894,467.021 893.858,473.381"/><polyline points="893.949,457.126 899.781,454.412 899.817,448.052 893.985,450.766 893.949,457.126"/><polyline points="894.04,440.877 899.872,438.163 899.908,431.804 894.076,434.518 894.04,440.877"/><polyline points="894.131,424.622 899.963,421.908 899.999,415.549 894.167,418.262 894.131,424.622"/><polyline points="894.218,409.079 900.05,406.366 900.086,400.006 894.254,402.72 894.218,409.079"/><polyline points="872.394,740.615 878.234,737.898 878.269,731.538 872.43,734.255 872.394,740.615"/><polyline points="872.485,724.36 878.325,721.642 878.361,715.283 872.521,718 872.485,724.36"/><polyline points="872.576,708.105 878.416,705.387 878.452,699.028 872.612,701.745 872.576,708.105"/><polyline points="872.664,692.562 878.503,689.845 878.539,683.485 872.699,686.203 872.664,692.562"/><polyline points="872.755,676.307 878.594,673.589 878.63,667.23 872.79,669.947 872.755,676.307"/><polyline points="872.846,660.058 878.685,657.341 878.721,650.981 872.881,653.699 872.846,660.058"/><polyline points="872.937,643.803 878.776,641.086 878.812,634.726 872.972,637.443 872.937,643.803"/><polyline points="873.028,627.555 878.867,624.837 878.903,618.478 873.063,621.195 873.028,627.555"/><polyline points="873.119,611.299 878.958,608.582 878.994,602.222 873.155,604.94 873.119,611.299"/><polyline points="873.206,595.757 879.046,593.039 879.081,586.68 873.242,589.397 873.206,595.757"/><polyline points="873.297,579.501 879.137,576.784 879.172,570.424 873.333,573.142 873.297,579.501"/><polyline points="873.388,563.253 879.228,560.535 879.263,554.176 873.424,556.893 873.388,563.253"/><polyline points="873.479,546.997 879.319,544.28 879.354,537.921 873.515,540.638 873.479,546.997"/><polyline points="873.57,530.749 879.41,528.032 879.446,521.672 873.606,524.389 873.57,530.749"/><polyline points="873.657,515.2 879.497,512.482 879.533,506.123 873.693,508.84 873.657,515.2"/><polyline points="873.748,498.951 879.588,496.234 879.624,489.874 873.784,492.591 873.748,498.951"/><polyline points="873.84,482.696 879.679,479.979 879.715,473.619 873.875,476.336 873.84,482.696"/><polyline points="873.931,466.441 879.77,463.723 879.806,457.364 873.966,460.081 873.931,466.441"/><polyline points="874.022,450.192 879.861,447.475 879.897,441.115 874.057,443.833 874.022,450.192"/><polyline points="874.113,433.937 879.952,431.22 879.988,424.86 874.148,427.577 874.113,433.937"/><polyline points="874.2,418.394 880.039,415.677 880.075,409.317 874.236,412.035 874.2,418.394"/><polyline points="852.375,749.93 858.215,747.213 858.251,740.853 852.411,743.571 852.375,749.93"/><polyline points="852.466,733.675 858.306,730.957 858.342,724.598 852.502,727.315 852.466,733.675"/><polyline points="852.557,717.42 858.398,714.702 858.433,708.343 852.593,711.06 852.557,717.42"/><polyline points="852.645,701.877 858.485,699.16 858.52,692.8 852.68,695.518 852.645,701.877"/><polyline points="852.736,685.622 858.576,682.905 858.611,676.545 852.771,679.262 852.736,685.622"/><polyline points="852.827,669.374 858.667,666.656 858.702,660.297 852.862,663.014 852.827,669.374"/><polyline points="852.918,653.118 858.758,650.401 858.794,644.041 852.953,646.759 852.918,653.118"/><polyline points="853.009,636.87 858.849,634.152 858.885,627.793 853.045,630.51 853.009,636.87"/><polyline points="853.1,620.614 858.94,617.897 858.976,611.537 853.136,614.255 853.1,620.614"/><polyline points="853.187,605.072 859.027,602.354 859.063,595.995 853.223,598.712 853.187,605.072"/><polyline points="853.278,588.817 859.118,586.099 859.154,579.739 853.314,582.457 853.278,588.817"/><polyline points="853.369,572.568 859.209,569.851 859.245,563.491 853.405,566.208 853.369,572.568"/><polyline points="853.46,556.313 859.3,553.595 859.336,547.236 853.496,549.953 853.46,556.313"/><polyline points="853.551,540.064 859.391,537.347 859.427,530.987 853.587,533.705 853.551,540.064"/><polyline points="853.638,524.515 859.479,521.797 859.514,515.438 853.674,518.155 853.638,524.515"/><polyline points="853.73,508.266 859.57,505.549 859.605,499.189 853.765,501.907 853.73,508.266"/><polyline points="853.821,492.011 859.661,489.294 859.696,482.934 853.856,485.652 853.821,492.011"/><polyline points="853.912,475.756 859.752,473.038 859.787,466.679 853.947,469.396 853.912,475.756"/><polyline points="854.003,459.507 859.843,456.79 859.878,450.43 854.038,453.148 854.003,459.507"/><polyline points="854.094,443.252 859.934,440.535 859.97,434.175 854.13,436.893 854.094,443.252"/><polyline points="854.181,427.71 860.021,424.992 860.057,418.632 854.217,421.35 854.181,427.71"/><polyline points="832.365,759.242 838.196,756.528 838.232,750.168 832.4,752.882 832.365,759.242"/><polyline points="832.456,742.986 838.288,740.273 838.323,733.913 832.491,736.627 832.456,742.986"/><polyline points="832.547,726.731 838.379,724.018 838.414,717.658 832.582,720.372 832.547,726.731"/><polyline points="832.634,711.189 838.466,708.475 838.501,702.116 832.669,704.829 832.634,711.189"/><polyline points="832.725,694.933 838.557,692.22 838.593,685.86 832.761,688.574 832.725,694.933"/><polyline points="832.816,678.685 838.648,675.971 838.684,669.612 832.852,672.325 832.816,678.685"/><polyline points="832.907,662.43 838.739,659.716 838.775,653.356 832.943,656.07 832.907,662.43"/><polyline points="832.998,646.181 838.83,643.467 838.866,637.108 833.034,639.822 832.998,646.181"/><polyline points="833.089,629.926 838.921,627.212 838.957,620.853 833.125,623.566 833.089,629.926"/><polyline points="833.176,614.383 839.008,611.67 839.044,605.31 833.212,608.024 833.176,614.383"/><polyline points="833.267,598.128 839.099,595.414 839.135,589.055 833.303,591.768 833.267,598.128"/><polyline points="833.359,581.88 839.19,579.166 839.226,572.806 833.394,575.52 833.359,581.88"/><polyline points="833.45,565.624 839.281,562.91 839.317,556.551 833.485,559.265 833.45,565.624"/><polyline points="833.541,549.376 839.373,546.662 839.408,540.302 833.576,543.016 833.541,549.376"/><polyline points="833.628,533.826 839.46,531.112 839.495,524.753 833.663,527.467 833.628,533.826"/><polyline points="833.719,517.578 839.551,514.864 839.586,508.504 833.754,511.218 833.719,517.578"/><polyline points="833.81,501.323 839.642,498.609 839.677,492.249 833.846,494.963 833.81,501.323"/><polyline points="833.901,485.067 839.733,482.354 839.769,475.994 833.937,478.708 833.901,485.067"/><polyline points="833.992,468.819 839.824,466.105 839.86,459.746 834.028,462.459 833.992,468.819"/><polyline points="834.083,452.564 839.915,449.85 839.951,443.49 834.119,446.204 834.083,452.564"/><polyline points="834.17,437.021 840.002,434.307 840.038,427.948 834.206,430.661 834.17,437.021"/><polyline points="812.346,768.557 818.186,765.84 818.221,759.48 812.382,762.197 812.346,768.557"/><polyline points="812.437,752.301 818.277,749.584 818.312,743.225 812.473,745.942 812.437,752.301"/><polyline points="812.528,736.046 818.368,733.329 818.404,726.97 812.564,729.687 812.528,736.046"/><polyline points="812.615,720.504 818.455,717.787 818.491,711.427 812.651,714.144 812.615,720.504"/><polyline points="812.706,704.249 818.546,701.531 818.582,695.172 812.742,697.889 812.706,704.249"/><polyline points="812.798,688 818.637,685.283 818.673,678.923 812.833,681.641 812.798,688"/><polyline points="812.889,671.745 818.728,669.027 818.764,662.668 812.924,665.385 812.889,671.745"/><polyline points="812.98,655.496 818.819,652.779 818.855,646.419 813.015,649.137 812.98,655.496"/><polyline points="813.071,639.241 818.91,636.524 818.946,630.164 813.106,632.881 813.071,639.241"/><polyline points="813.158,623.698 818.997,620.981 819.033,614.621 813.194,617.339 813.158,623.698"/><polyline points="813.249,607.443 819.089,604.726 819.124,598.366 813.285,601.083 813.249,607.443"/><polyline points="813.34,591.195 819.18,588.477 819.215,582.118 813.376,584.835 813.34,591.195"/><polyline points="813.431,574.939 819.271,572.222 819.306,565.862 813.467,568.58 813.431,574.939"/><polyline points="813.522,558.691 819.362,555.973 819.397,549.614 813.558,552.331 813.522,558.691"/><polyline points="813.609,543.141 819.449,540.424 819.485,534.064 813.645,536.782 813.609,543.141"/><polyline points="813.7,526.893 819.54,524.175 819.576,517.816 813.736,520.533 813.7,526.893"/><polyline points="813.791,510.638 819.631,507.92 819.667,501.561 813.827,504.278 813.791,510.638"/><polyline points="813.883,494.382 819.722,491.665 819.758,485.306 813.918,488.023 813.883,494.382"/><polyline points="813.974,478.134 819.813,475.417 819.849,469.057 814.009,471.774 813.974,478.134"/><polyline points="814.065,461.879 819.904,459.161 819.94,452.802 814.1,455.519 814.065,461.879"/><polyline points="814.152,446.336 819.991,443.619 820.027,437.259 814.187,439.977 814.152,446.336"/><polyline points="792.327,777.872 798.167,775.155 798.203,768.795 792.363,771.513 792.327,777.872"/><polyline points="792.418,761.617 798.258,758.899 798.294,752.54 792.454,755.257 792.418,761.617"/><polyline points="792.509,745.362 798.349,742.644 798.385,736.285 792.545,739.002 792.509,745.362"/><polyline points="792.596,729.819 798.437,727.102 798.472,720.742 792.632,723.46 792.596,729.819"/><polyline points="792.688,713.564 798.528,710.846 798.563,704.487 792.723,707.204 792.688,713.564"/><polyline points="792.779,697.315 798.619,694.598 798.654,688.238 792.814,690.956 792.779,697.315"/><polyline points="792.87,681.06 798.71,678.342 798.745,671.983 792.905,674.7 792.87,681.06"/><polyline points="792.961,664.812 798.801,662.094 798.836,655.734 792.996,658.452 792.961,664.812"/><polyline points="793.052,648.556 798.892,645.839 798.928,639.479 793.088,642.197 793.052,648.556"/><polyline points="793.139,633.014 798.979,630.296 799.015,623.937 793.175,626.654 793.139,633.014"/><polyline points="793.23,616.758 799.07,614.041 799.106,607.681 793.266,610.399 793.23,616.758"/><polyline points="793.321,600.51 799.161,597.792 799.197,591.433 793.357,594.15 793.321,600.51"/><polyline points="793.412,584.254 799.252,581.537 799.288,575.177 793.448,577.895 793.412,584.254"/><polyline points="793.503,568.006 799.343,565.288 799.379,558.929 793.539,561.646 793.503,568.006"/><polyline points="793.59,552.457 799.43,549.739 799.466,543.379 793.626,546.097 793.59,552.457"/><polyline points="793.681,536.208 799.522,533.491 799.557,527.131 793.717,529.848 793.681,536.208"/><polyline points="793.773,519.953 799.613,517.236 799.648,510.876 793.808,513.593 793.773,519.953"/><polyline points="793.864,503.698 799.704,500.98 799.739,494.621 793.899,497.338 793.864,503.698"/><polyline points="793.955,487.449 799.795,484.732 799.83,478.372 793.99,481.09 793.955,487.449"/><polyline points="794.046,471.194 799.886,468.476 799.922,462.117 794.081,464.834 794.046,471.194"/><polyline points="794.133,455.651 799.973,452.934 800.009,446.574 794.169,449.292 794.133,455.651"/><polyline points="772.317,787.184 778.148,784.47 778.184,778.11 772.352,780.824 772.317,787.184"/><polyline points="772.408,770.928 778.24,768.214 778.275,761.855 772.443,764.569 772.408,770.928"/><polyline points="772.499,754.673 778.331,751.959 778.366,745.6 772.534,748.314 772.499,754.673"/><polyline points="772.586,739.131 778.418,736.417 778.453,730.057 772.621,732.771 772.586,739.131"/><polyline points="772.677,722.875 778.509,720.162 778.544,713.802 772.713,716.516 772.677,722.875"/><polyline points="772.768,706.627 778.6,703.913 778.635,697.553 772.804,700.267 772.768,706.627"/><polyline points="772.859,690.371 778.691,687.658 778.727,681.298 772.895,684.012 772.859,690.371"/><polyline points="772.95,674.123 778.782,671.409 778.818,665.05 772.986,667.763 772.95,674.123"/><polyline points="773.041,657.868 778.873,655.154 778.909,648.794 773.077,651.508 773.041,657.868"/><polyline points="773.128,642.325 778.96,639.611 778.996,633.252 773.164,635.965 773.128,642.325"/><polyline points="773.219,626.07 779.051,623.356 779.087,616.996 773.255,619.71 773.219,626.07"/><polyline points="773.31,609.821 779.142,607.108 779.178,600.748 773.346,603.462 773.31,609.821"/><polyline points="773.401,593.566 779.233,590.852 779.269,584.493 773.437,587.206 773.401,593.566"/><polyline points="773.493,577.317 779.324,574.604 779.36,568.244 773.528,570.958 773.493,577.317"/><polyline points="773.58,561.768 779.412,559.054 779.447,552.695 773.615,555.408 773.58,561.768"/><polyline points="773.671,545.52 779.503,542.806 779.538,536.446 773.706,539.16 773.671,545.52"/><polyline points="773.762,529.264 779.594,526.551 779.629,520.191 773.797,522.905 773.762,529.264"/><polyline points="773.853,513.009 779.685,510.295 779.72,503.936 773.889,506.65 773.853,513.009"/><polyline points="773.944,496.761 779.776,494.047 779.812,487.687 773.98,490.401 773.944,496.761"/><polyline points="774.035,480.505 779.867,477.792 779.903,471.432 774.071,474.146 774.035,480.505"/><polyline points="774.122,464.963 779.954,462.249 779.99,455.889 774.158,458.603 774.122,464.963"/><polyline points="752.298,796.499 758.138,793.781 758.173,787.422 752.334,790.139 752.298,796.499"/><polyline points="752.389,780.243 758.229,777.526 758.264,771.166 752.425,773.884 752.389,780.243"/><polyline points="752.48,763.988 758.32,761.271 758.355,754.911 752.516,757.629 752.48,763.988"/><polyline points="752.567,748.446 758.407,745.728 758.443,739.369 752.603,742.086 752.567,748.446"/><polyline points="752.658,732.19 758.498,729.473 758.534,723.113 752.694,725.831 752.658,732.19"/><polyline points="752.749,715.942 758.589,713.225 758.625,706.865 752.785,709.582 752.749,715.942"/><polyline points="752.841,699.686 758.68,696.969 758.716,690.61 752.876,693.327 752.841,699.686"/><polyline points="752.932,683.438 758.771,680.721 758.807,674.361 752.967,677.078 752.932,683.438"/><polyline points="753.023,667.183 758.862,664.465 758.898,658.106 753.058,660.823 753.023,667.183"/><polyline points="753.11,651.64 758.949,648.923 758.985,642.563 753.145,645.281 753.11,651.64"/><polyline points="753.201,635.385 759.041,632.667 759.076,626.308 753.237,629.025 753.201,635.385"/><polyline points="753.292,619.136 759.132,616.419 759.167,610.059 753.328,612.777 753.292,619.136"/><polyline points="753.383,602.881 759.223,600.164 759.258,593.804 753.419,596.521 753.383,602.881"/><polyline points="753.474,586.632 759.314,583.915 759.349,577.556 753.51,580.273 753.474,586.632"/><polyline points="753.561,571.083 759.401,568.366 759.436,562.006 753.597,564.723 753.561,571.083"/><polyline points="753.652,554.835 759.492,552.117 759.528,545.758 753.688,548.475 753.652,554.835"/><polyline points="753.743,538.58 759.583,535.862 759.619,529.503 753.779,532.22 753.743,538.58"/><polyline points="753.834,522.324 759.674,519.607 759.71,513.247 753.87,515.965 753.834,522.324"/><polyline points="753.925,506.076 759.765,503.358 759.801,496.999 753.961,499.716 753.925,506.076"/><polyline points="754.017,489.82 759.856,487.103 759.892,480.743 754.052,483.461 754.017,489.82"/><polyline points="754.104,474.278 759.943,471.561 759.979,465.201 754.139,467.918 754.104,474.278"/><polyline points="732.279,805.814 738.119,803.096 738.155,796.737 732.315,799.454 732.279,805.814"/><polyline points="732.37,789.558 738.21,786.841 738.246,780.481 732.406,783.199 732.37,789.558"/><polyline points="732.461,773.303 738.301,770.586 738.337,764.226 732.497,766.944 732.461,773.303"/><polyline points="732.548,757.761 738.388,755.043 738.424,748.684 732.584,751.401 732.548,757.761"/><polyline points="732.64,741.506 738.48,738.788 738.515,732.428 732.675,735.146 732.64,741.506"/><polyline points="732.731,725.257 738.571,722.54 738.606,716.18 732.766,718.898 732.731,725.257"/><polyline points="732.822,709.002 738.662,706.284 738.697,699.925 732.857,702.642 732.822,709.002"/><polyline points="732.913,692.753 738.753,690.036 738.788,683.676 732.948,686.394 732.913,692.753"/><polyline points="733.004,676.498 738.844,673.78 738.88,667.421 733.039,670.138 733.004,676.498"/><polyline points="733.091,660.955 738.931,658.238 738.967,651.878 733.127,654.596 733.091,660.955"/><polyline points="733.182,644.7 739.022,641.982 739.058,635.623 733.218,638.34 733.182,644.7"/><polyline points="733.273,628.452 739.113,625.734 739.149,619.374 733.309,622.092 733.273,628.452"/><polyline points="733.364,612.196 739.204,609.479 739.24,603.119 733.4,605.837 733.364,612.196"/><polyline points="733.455,595.948 739.295,593.23 739.331,586.871 733.491,589.588 733.455,595.948"/><polyline points="733.542,580.398 739.382,577.681 739.418,571.321 733.578,574.039 733.542,580.398"/><polyline points="733.633,564.15 739.473,561.432 739.509,555.073 733.669,557.79 733.633,564.15"/><polyline points="733.724,547.895 739.565,545.177 739.6,538.818 733.76,541.535 733.724,547.895"/><polyline points="733.816,531.639 739.656,528.922 739.691,522.562 733.851,525.28 733.816,531.639"/><polyline points="733.907,515.391 739.747,512.673 739.782,506.314 733.942,509.031 733.907,515.391"/><polyline points="733.998,499.136 739.838,496.418 739.873,490.059 734.033,492.776 733.998,499.136"/><polyline points="734.085,483.593 739.925,480.876 739.961,474.516 734.12,477.233 734.085,483.593"/></g></g><polygon fill="#AB9153" points="820.037,558.828 819.562,643.622 709.769,525.885 710.244,441.09"/><g enable-background="new"><defs><polygon id="e" enable-background="new" points="820.037,558.828 819.562,643.622 709.769,525.885 710.244,441.09"/></defs><clipPath id="f"><use xlink:href="#e" overflow="visible"/></clipPath><g fill="#547F8D" clip-path="url(#f)"><polyline points="681.785,616.294 846.206,792.614 846.241,786.254 681.821,609.935 681.785,616.294"/><polyline points="681.876,600.046 846.297,776.365 846.332,770.006 681.912,593.686 681.876,600.046"/><polyline points="681.967,583.791 846.388,760.11 846.423,753.75 682.003,577.431 681.967,583.791"/><polyline points="682.054,568.248 846.475,744.567 846.51,738.208 682.09,561.889 682.054,568.248"/><polyline points="682.146,551.993 846.566,728.312 846.602,721.953 682.181,545.633 682.146,551.993"/><polyline points="682.237,535.744 846.657,712.064 846.693,705.704 682.272,529.385 682.237,535.744"/><polyline points="682.328,519.489 846.748,695.808 846.784,689.449 682.363,513.129 682.328,519.489"/><polyline points="682.419,503.24 846.839,679.56 846.875,673.2 682.454,496.881 682.419,503.24"/><polyline points="682.51,486.985 846.93,663.304 846.966,656.945 682.545,480.626 682.51,486.985"/><polyline points="682.597,471.443 847.017,647.762 847.053,641.402 682.633,465.083 682.597,471.443"/><polyline points="682.688,455.187 847.108,631.507 847.144,625.147 682.724,448.828 682.688,455.187"/><polyline points="682.779,438.939 847.2,615.258 847.235,608.898 682.815,432.579 682.779,438.939"/><polyline points="682.87,422.684 847.291,599.003 847.326,592.643 682.906,416.324 682.87,422.684"/><polyline points="682.961,406.428 847.382,582.748 847.417,576.388 682.997,400.069 682.961,406.428"/><polyline points="683.048,390.886 847.469,567.205 847.504,560.846 683.084,384.526 683.048,390.886"/><polyline points="683.139,374.63 847.56,550.95 847.596,544.59 683.175,368.271 683.139,374.63"/><polyline points="683.23,358.382 847.651,534.701 847.687,528.342 683.266,352.022 683.23,358.382"/><polyline points="683.322,342.127 847.742,518.446 847.778,512.086 683.357,335.767 683.322,342.127"/><polyline points="683.413,325.878 847.833,502.198 847.869,495.838 683.448,319.519 683.413,325.878"/><polyline points="683.504,309.623 847.924,485.942 847.96,479.583 683.539,303.263 683.504,309.623"/><polyline points="683.591,294.08 848.011,470.4 848.047,464.04 683.626,287.721 683.591,294.08"/></g></g></g></g></svg>