<svg xmlns="http://www.w3.org/2000/svg" xmlns:xlink="http://www.w3.org/1999/xlink" viewBox="0 0 1053 554" enable-background="new 0 0 1053 554"><g><g enable-background="new"><polygon fill="#A5A5A5" points="322.05,-34.552 321.891,-6.287 278.64,-52.669 278.798,-80.934"/><polygon fill="#818181" points="278.798,-80.934 278.64,-52.669 -45.432,98.129 -45.274,69.864"/><polygon fill="#A5A5A5" points="-2.022,116.246 -2.181,144.511 -45.432,98.129 -45.274,69.864"/><polygon fill="#818181" points="322.05,-34.552 321.891,-6.287 -2.181,144.511 -2.022,116.246"/><path fill="#CDCDCD" d="M-2.304 117.225l-44.354-47.564 325.738-151.574 44.354 47.564-325.738 151.574zm281.102-198.159l-324.072 150.798 43.252 46.382 324.072-150.798-43.252-46.382"/><polygon fill="#CDCDCD" points="-45.274,69.864 278.798,-80.934 322.05,-34.552 -2.022,116.246"/><polygon fill="#818181" points="323.434,-34.349 323.276,-6.084 -2.463,145.49 -2.304,117.225"/><g enable-background="new"><defs><polygon id="a" enable-background="new" points="323.434,-34.349 323.276,-6.084 -2.463,145.49 -2.304,117.225"/></defs><clipPath id="b"><use xlink:href="#a" overflow="visible"/></clipPath><g fill="#436570" clip-path="url(#b)"><polyline points="295.581,-2.46 301.413,-5.173 301.468,-15.01 295.636,-12.297 295.581,-2.46"/><polyline points="295.722,-27.604 301.554,-30.317 301.609,-40.154 295.777,-37.441 295.722,-27.604"/><polyline points="295.863,-52.747 301.695,-55.461 301.75,-65.298 295.918,-62.584 295.863,-52.747"/><polyline points="295.997,-76.788 301.829,-79.502 301.884,-89.339 296.053,-86.625 295.997,-76.788"/><polyline points="296.138,-101.932 301.97,-104.646 302.025,-114.483 296.193,-111.769 296.138,-101.932"/><polyline points="296.279,-127.066 302.111,-129.779 302.166,-139.616 296.334,-136.903 296.279,-127.066"/><polyline points="296.42,-152.21 302.252,-154.923 302.307,-164.76 296.475,-162.047 296.42,-152.21"/><polyline points="296.561,-177.343 302.393,-180.057 302.448,-189.894 296.616,-187.18 296.561,-177.343"/><polyline points="296.702,-202.487 302.534,-205.201 302.589,-215.038 296.757,-212.324 296.702,-202.487"/><polyline points="296.837,-226.528 302.668,-229.242 302.724,-239.079 296.892,-236.365 296.837,-226.528"/><polyline points="296.977,-251.672 302.809,-254.386 302.864,-264.223 297.033,-261.509 296.977,-251.672"/><polyline points="297.118,-276.805 302.95,-279.519 303.005,-289.356 297.173,-286.642 297.118,-276.805"/><polyline points="297.259,-301.949 303.091,-304.663 303.146,-314.5 297.314,-311.786 297.259,-301.949"/><polyline points="297.4,-327.083 303.232,-329.796 303.287,-339.633 297.455,-336.92 297.4,-327.083"/><polyline points="297.535,-351.135 303.367,-353.848 303.422,-363.685 297.59,-360.972 297.535,-351.135"/><polyline points="297.676,-376.268 303.508,-378.982 303.563,-388.819 297.731,-386.105 297.676,-376.268"/><polyline points="297.817,-401.411 303.648,-404.125 303.704,-413.962 297.872,-411.248 297.817,-401.411"/><polyline points="297.957,-426.555 303.789,-429.269 303.844,-439.106 298.013,-436.392 297.957,-426.555"/><polyline points="298.098,-451.689 303.93,-454.402 303.985,-464.239 298.153,-461.526 298.098,-451.689"/><polyline points="298.239,-476.833 304.071,-479.546 304.126,-489.383 298.294,-486.67 298.239,-476.833"/><polyline points="298.374,-500.874 304.206,-503.588 304.261,-513.425 298.429,-510.711 298.374,-500.874"/><polyline points="275.562,6.855 281.402,4.138 281.457,-5.699 275.618,-2.982 275.562,6.855"/><polyline points="275.703,-18.289 281.543,-21.006 281.598,-30.843 275.758,-28.126 275.703,-18.289"/><polyline points="275.844,-43.432 281.684,-46.149 281.739,-55.986 275.899,-53.269 275.844,-43.432"/><polyline points="275.979,-67.473 281.819,-70.191 281.874,-80.028 276.034,-77.31 275.979,-67.473"/><polyline points="276.12,-92.617 281.959,-95.335 282.015,-105.172 276.175,-102.454 276.12,-92.617"/><polyline points="276.261,-117.751 282.1,-120.468 282.155,-130.305 276.316,-127.588 276.261,-117.751"/><polyline points="276.402,-142.895 282.241,-145.612 282.296,-155.449 276.457,-152.732 276.402,-142.895"/><polyline points="276.542,-168.028 282.382,-170.745 282.437,-180.582 276.598,-177.865 276.542,-168.028"/><polyline points="276.683,-193.172 282.523,-195.889 282.578,-205.726 276.738,-203.009 276.683,-193.172"/><polyline points="276.818,-217.213 282.658,-219.93 282.713,-229.768 276.873,-227.05 276.818,-217.213"/><polyline points="276.959,-242.357 282.799,-245.074 282.854,-254.911 277.014,-252.194 276.959,-242.357"/><polyline points="277.1,-267.49 282.939,-270.208 282.995,-280.045 277.155,-277.327 277.1,-267.49"/><polyline points="277.241,-292.634 283.08,-295.352 283.135,-305.189 277.296,-302.471 277.241,-292.634"/><polyline points="277.382,-317.768 283.221,-320.485 283.276,-330.322 277.437,-327.605 277.382,-317.768"/><polyline points="277.516,-341.82 283.356,-344.537 283.411,-354.374 277.571,-351.657 277.516,-341.82"/><polyline points="277.657,-366.953 283.497,-369.67 283.552,-379.507 277.712,-376.79 277.657,-366.953"/><polyline points="277.798,-392.096 283.638,-394.814 283.693,-404.651 277.853,-401.933 277.798,-392.096"/><polyline points="277.939,-417.24 283.779,-419.958 283.834,-429.795 277.994,-427.077 277.939,-417.24"/><polyline points="278.08,-442.374 283.919,-445.091 283.975,-454.928 278.135,-452.211 278.08,-442.374"/><polyline points="278.221,-467.517 284.06,-470.235 284.115,-480.072 278.276,-477.355 278.221,-467.517"/><polyline points="278.355,-491.559 284.195,-494.276 284.25,-504.113 278.411,-501.396 278.355,-491.559"/><polyline points="255.544,16.171 261.384,13.453 261.439,3.616 255.599,6.334 255.544,16.171"/><polyline points="255.684,-8.973 261.524,-11.691 261.58,-21.528 255.74,-18.81 255.684,-8.973"/><polyline points="255.825,-34.117 261.665,-36.834 261.72,-46.671 255.88,-43.954 255.825,-34.117"/><polyline points="255.96,-58.158 261.8,-60.876 261.855,-70.713 256.015,-67.995 255.96,-58.158"/><polyline points="256.101,-83.302 261.941,-86.02 261.996,-95.857 256.156,-93.139 256.101,-83.302"/><polyline points="256.242,-108.435 262.082,-111.153 262.137,-120.99 256.297,-118.272 256.242,-108.435"/><polyline points="256.383,-133.579 262.223,-136.297 262.278,-146.134 256.438,-143.416 256.383,-133.579"/><polyline points="256.524,-158.713 262.364,-161.43 262.419,-171.267 256.579,-168.55 256.524,-158.713"/><polyline points="256.664,-183.857 262.504,-186.574 262.56,-196.411 256.72,-193.694 256.664,-183.857"/><polyline points="256.799,-207.898 262.639,-210.615 262.694,-220.452 256.854,-217.735 256.799,-207.898"/><polyline points="256.94,-233.042 262.78,-235.759 262.835,-245.596 256.995,-242.879 256.94,-233.042"/><polyline points="257.081,-258.175 262.921,-260.893 262.976,-270.73 257.136,-268.012 257.081,-258.175"/><polyline points="257.222,-283.319 263.062,-286.037 263.117,-295.874 257.277,-293.156 257.222,-283.319"/><polyline points="257.363,-308.452 263.203,-311.17 263.258,-321.007 257.418,-318.289 257.363,-308.452"/><polyline points="257.497,-332.504 263.337,-335.222 263.393,-345.059 257.553,-342.341 257.497,-332.504"/><polyline points="257.638,-357.638 263.478,-360.355 263.533,-370.192 257.693,-367.475 257.638,-357.638"/><polyline points="257.779,-382.781 263.619,-385.499 263.674,-395.336 257.834,-392.618 257.779,-382.781"/><polyline points="257.92,-407.925 263.76,-410.643 263.815,-420.48 257.975,-417.762 257.92,-407.925"/><polyline points="258.061,-433.058 263.901,-435.776 263.956,-445.613 258.116,-442.895 258.061,-433.058"/><polyline points="258.202,-458.202 264.042,-460.92 264.097,-470.757 258.257,-468.039 258.202,-458.202"/><polyline points="258.337,-482.244 264.177,-484.961 264.232,-494.798 258.392,-492.081 258.337,-482.244"/><polyline points="235.533,25.482 241.365,22.768 241.42,12.931 235.588,15.645 235.533,25.482"/><polyline points="235.674,0.338 241.506,-2.376 241.561,-12.213 235.729,-9.499 235.674,0.338"/><polyline points="235.815,-24.805 241.646,-27.519 241.702,-37.356 235.87,-34.642 235.815,-24.805"/><polyline points="235.949,-48.847 241.781,-51.56 241.836,-61.397 236.004,-58.684 235.949,-48.847"/><polyline points="236.09,-73.991 241.922,-76.704 241.977,-86.541 236.145,-83.828 236.09,-73.991"/><polyline points="236.231,-99.124 242.063,-101.838 242.118,-111.675 236.286,-108.961 236.231,-99.124"/><polyline points="236.372,-124.268 242.204,-126.982 242.259,-136.819 236.427,-134.105 236.372,-124.268"/><polyline points="236.513,-149.401 242.345,-152.115 242.4,-161.952 236.568,-159.238 236.513,-149.401"/><polyline points="236.654,-174.545 242.486,-177.259 242.541,-187.096 236.709,-184.382 236.654,-174.545"/><polyline points="236.788,-198.586 242.62,-201.3 242.675,-211.137 236.844,-208.423 236.788,-198.586"/><polyline points="236.929,-223.73 242.761,-226.444 242.816,-236.281 236.984,-233.567 236.929,-223.73"/><polyline points="237.07,-248.864 242.902,-251.577 242.957,-261.414 237.125,-258.701 237.07,-248.864"/><polyline points="237.211,-274.008 243.043,-276.721 243.098,-286.558 237.266,-283.845 237.211,-274.008"/><polyline points="237.352,-299.141 243.184,-301.855 243.239,-311.692 237.407,-308.978 237.352,-299.141"/><polyline points="237.487,-323.193 243.319,-325.907 243.374,-335.744 237.542,-333.03 237.487,-323.193"/><polyline points="237.628,-348.326 243.459,-351.04 243.515,-360.877 237.683,-358.163 237.628,-348.326"/><polyline points="237.768,-373.47 243.6,-376.183 243.655,-386.02 237.824,-383.307 237.768,-373.47"/><polyline points="237.909,-398.614 243.741,-401.327 243.796,-411.164 237.964,-408.451 237.909,-398.614"/><polyline points="238.05,-423.747 243.882,-426.461 243.937,-436.298 238.105,-433.584 238.05,-423.747"/><polyline points="238.191,-448.891 244.023,-451.605 244.078,-461.442 238.246,-458.728 238.191,-448.891"/><polyline points="238.326,-472.932 244.158,-475.646 244.213,-485.483 238.381,-482.769 238.326,-472.932"/><polyline points="215.514,34.797 221.354,32.08 221.409,22.243 215.569,24.96 215.514,34.797"/><polyline points="215.655,9.653 221.495,6.936 221.55,-2.901 215.71,-0.184 215.655,9.653"/><polyline points="215.796,-15.49 221.636,-18.208 221.691,-28.045 215.851,-25.327 215.796,-15.49"/><polyline points="215.931,-39.532 221.77,-42.249 221.826,-52.086 215.986,-49.369 215.931,-39.532"/><polyline points="216.072,-64.676 221.911,-67.393 221.967,-77.23 216.127,-74.513 216.072,-64.676"/><polyline points="216.213,-89.809 222.052,-92.526 222.107,-102.363 216.268,-99.646 216.213,-89.809"/><polyline points="216.353,-114.953 222.193,-117.67 222.248,-127.507 216.409,-124.79 216.353,-114.953"/><polyline points="216.494,-140.086 222.334,-142.803 222.389,-152.64 216.549,-149.923 216.494,-140.086"/><polyline points="216.635,-165.23 222.475,-167.947 222.53,-177.784 216.69,-175.067 216.635,-165.23"/><polyline points="216.77,-189.271 222.61,-191.989 222.665,-201.826 216.825,-199.108 216.77,-189.271"/><polyline points="216.911,-214.415 222.75,-217.133 222.806,-226.97 216.966,-224.252 216.911,-214.415"/><polyline points="217.052,-239.549 222.891,-242.266 222.946,-252.103 217.107,-249.386 217.052,-239.549"/><polyline points="217.193,-264.693 223.032,-267.41 223.087,-277.247 217.248,-274.53 217.193,-264.693"/><polyline points="217.333,-289.826 223.173,-292.543 223.228,-302.38 217.389,-299.663 217.333,-289.826"/><polyline points="217.468,-313.878 223.308,-316.595 223.363,-326.432 217.523,-323.715 217.468,-313.878"/><polyline points="217.609,-339.011 223.449,-341.728 223.504,-351.566 217.664,-348.848 217.609,-339.011"/><polyline points="217.75,-364.155 223.59,-366.872 223.645,-376.709 217.805,-373.992 217.75,-364.155"/><polyline points="217.891,-389.299 223.73,-392.016 223.786,-401.853 217.946,-399.136 217.891,-389.299"/><polyline points="218.032,-414.432 223.871,-417.149 223.926,-426.986 218.087,-424.269 218.032,-414.432"/><polyline points="218.173,-439.576 224.012,-442.293 224.067,-452.13 218.228,-449.413 218.173,-439.576"/><polyline points="218.307,-463.617 224.147,-466.334 224.202,-476.171 218.362,-473.454 218.307,-463.617"/><polyline points="195.495,44.112 201.335,41.395 201.391,31.558 195.551,34.275 195.495,44.112"/><polyline points="195.636,18.968 201.476,16.251 201.532,6.414 195.691,9.131 195.636,18.968"/><polyline points="195.777,-6.175 201.617,-8.893 201.672,-18.73 195.832,-16.012 195.777,-6.175"/><polyline points="195.912,-30.216 201.752,-32.934 201.807,-42.771 195.967,-40.053 195.912,-30.216"/><polyline points="196.053,-55.36 201.893,-58.078 201.948,-67.915 196.108,-65.197 196.053,-55.36"/><polyline points="196.194,-80.494 202.034,-83.211 202.089,-93.048 196.249,-90.331 196.194,-80.494"/><polyline points="196.335,-105.638 202.175,-108.355 202.23,-118.192 196.39,-115.475 196.335,-105.638"/><polyline points="196.475,-130.771 202.315,-133.488 202.371,-143.325 196.531,-140.608 196.475,-130.771"/><polyline points="196.616,-155.915 202.456,-158.632 202.512,-168.469 196.671,-165.752 196.616,-155.915"/><polyline points="196.751,-179.956 202.591,-182.674 202.646,-192.511 196.806,-189.793 196.751,-179.956"/><polyline points="196.892,-205.1 202.732,-207.818 202.787,-217.655 196.947,-214.937 196.892,-205.1"/><polyline points="197.033,-230.233 202.873,-232.951 202.928,-242.788 197.088,-240.07 197.033,-230.233"/><polyline points="197.174,-255.377 203.014,-258.095 203.069,-267.932 197.229,-265.214 197.174,-255.377"/><polyline points="197.315,-280.511 203.155,-283.228 203.21,-293.065 197.37,-290.348 197.315,-280.511"/><polyline points="197.449,-304.563 203.289,-307.28 203.344,-317.117 197.504,-314.4 197.449,-304.563"/><polyline points="197.59,-329.696 203.43,-332.413 203.485,-342.25 197.645,-339.533 197.59,-329.696"/><polyline points="197.731,-354.839 203.571,-357.557 203.626,-367.394 197.786,-364.676 197.731,-354.839"/><polyline points="197.872,-379.983 203.712,-382.701 203.767,-392.538 197.927,-389.82 197.872,-379.983"/><polyline points="198.013,-405.117 203.853,-407.834 203.908,-417.671 198.068,-414.954 198.013,-405.117"/><polyline points="198.154,-430.26 203.994,-432.978 204.049,-442.815 198.209,-440.098 198.154,-430.26"/><polyline points="198.288,-454.302 204.128,-457.019 204.184,-466.856 198.344,-464.139 198.288,-454.302"/><polyline points="175.485,53.424 181.317,50.71 181.372,40.873 175.54,43.587 175.485,53.424"/><polyline points="175.626,28.28 181.458,25.566 181.513,15.729 175.681,18.443 175.626,28.28"/><polyline points="175.766,3.136 181.598,0.423 181.654,-9.414 175.822,-6.701 175.766,3.136"/><polyline points="175.901,-20.905 181.733,-23.619 181.788,-33.456 175.956,-30.742 175.901,-20.905"/><polyline points="176.042,-46.049 181.874,-48.763 181.929,-58.6 176.097,-55.886 176.042,-46.049"/><polyline points="176.183,-71.182 182.015,-73.896 182.07,-83.733 176.238,-81.019 176.183,-71.182"/><polyline points="176.324,-96.326 182.156,-99.04 182.211,-108.877 176.379,-106.163 176.324,-96.326"/><polyline points="176.465,-121.459 182.297,-124.173 182.352,-134.01 176.52,-131.296 176.465,-121.459"/><polyline points="176.606,-146.603 182.438,-149.317 182.493,-159.154 176.661,-156.44 176.606,-146.603"/><polyline points="176.74,-170.645 182.572,-173.358 182.627,-183.195 176.795,-180.482 176.74,-170.645"/><polyline points="176.881,-195.789 182.713,-198.502 182.768,-208.339 176.936,-205.626 176.881,-195.789"/><polyline points="177.022,-220.922 182.854,-223.636 182.909,-233.473 177.077,-230.759 177.022,-220.922"/><polyline points="177.163,-246.066 182.995,-248.78 183.05,-258.617 177.218,-255.903 177.163,-246.066"/><polyline points="177.304,-271.199 183.136,-273.913 183.191,-283.75 177.359,-281.036 177.304,-271.199"/><polyline points="177.439,-295.251 183.27,-297.965 183.326,-307.802 177.494,-305.088 177.439,-295.251"/><polyline points="177.579,-320.384 183.411,-323.098 183.466,-332.935 177.635,-330.221 177.579,-320.384"/><polyline points="177.72,-345.528 183.552,-348.242 183.607,-358.079 177.775,-355.365 177.72,-345.528"/><polyline points="177.861,-370.672 183.693,-373.386 183.748,-383.223 177.916,-380.509 177.861,-370.672"/><polyline points="178.002,-395.805 183.834,-398.519 183.889,-408.356 178.057,-405.642 178.002,-395.805"/><polyline points="178.143,-420.949 183.975,-423.663 184.03,-433.5 178.198,-430.786 178.143,-420.949"/><polyline points="178.278,-444.99 184.11,-447.704 184.165,-457.541 178.333,-454.827 178.278,-444.99"/><polyline points="155.466,62.739 161.306,60.022 161.361,50.184 155.521,52.902 155.466,62.739"/><polyline points="155.607,37.595 161.447,34.878 161.502,25.041 155.662,27.758 155.607,37.595"/><polyline points="155.748,12.451 161.588,9.734 161.643,-0.103 155.803,2.614 155.748,12.451"/><polyline points="155.883,-11.59 161.722,-14.307 161.778,-24.144 155.938,-21.427 155.883,-11.59"/><polyline points="156.024,-36.734 161.863,-39.451 161.918,-49.288 156.079,-46.571 156.024,-36.734"/><polyline points="156.164,-61.867 162.004,-64.584 162.059,-74.421 156.22,-71.704 156.164,-61.867"/><polyline points="156.305,-87.011 162.145,-89.728 162.2,-99.565 156.361,-96.848 156.305,-87.011"/><polyline points="156.446,-112.144 162.286,-114.862 162.341,-124.699 156.501,-121.981 156.446,-112.144"/><polyline points="156.587,-137.288 162.427,-140.006 162.482,-149.843 156.642,-147.125 156.587,-137.288"/><polyline points="156.722,-161.33 162.561,-164.047 162.617,-173.884 156.777,-171.167 156.722,-161.33"/><polyline points="156.863,-186.474 162.702,-189.191 162.758,-199.028 156.918,-196.311 156.863,-186.474"/><polyline points="157.004,-211.607 162.843,-214.324 162.898,-224.161 157.059,-221.444 157.004,-211.607"/><polyline points="157.145,-236.751 162.984,-239.468 163.039,-249.305 157.2,-246.588 157.145,-236.751"/><polyline points="157.285,-261.884 163.125,-264.601 163.18,-274.438 157.34,-271.721 157.285,-261.884"/><polyline points="157.42,-285.936 163.26,-288.653 163.315,-298.491 157.475,-295.773 157.42,-285.936"/><polyline points="157.561,-311.069 163.401,-313.787 163.456,-323.624 157.616,-320.906 157.561,-311.069"/><polyline points="157.702,-336.213 163.542,-338.93 163.597,-348.767 157.757,-346.05 157.702,-336.213"/><polyline points="157.843,-361.357 163.682,-364.074 163.738,-373.911 157.898,-371.194 157.843,-361.357"/><polyline points="157.984,-386.49 163.823,-389.207 163.878,-399.044 158.039,-396.327 157.984,-386.49"/><polyline points="158.125,-411.634 163.964,-414.351 164.019,-424.188 158.18,-421.471 158.125,-411.634"/><polyline points="158.259,-435.675 164.099,-438.393 164.154,-448.23 158.314,-445.512 158.259,-435.675"/><polyline points="135.447,72.054 141.287,69.337 141.343,59.5 135.502,62.217 135.447,72.054"/><polyline points="135.588,46.91 141.428,44.193 141.483,34.356 135.643,37.073 135.588,46.91"/><polyline points="135.729,21.767 141.569,19.049 141.624,9.212 135.784,11.93 135.729,21.767"/><polyline points="135.864,-2.275 141.704,-4.992 141.759,-14.829 135.919,-12.112 135.864,-2.275"/><polyline points="136.005,-27.419 141.845,-30.136 141.9,-39.973 136.06,-37.256 136.005,-27.419"/><polyline points="136.146,-52.552 141.986,-55.269 142.041,-65.106 136.201,-62.389 136.146,-52.552"/><polyline points="136.286,-77.696 142.127,-80.413 142.182,-90.25 136.342,-87.533 136.286,-77.696"/><polyline points="136.427,-102.829 142.267,-105.547 142.323,-115.384 136.482,-112.666 136.427,-102.829"/><polyline points="136.568,-127.973 142.408,-130.691 142.463,-140.528 136.623,-137.81 136.568,-127.973"/><polyline points="136.703,-152.014 142.543,-154.732 142.598,-164.569 136.758,-161.851 136.703,-152.014"/><polyline points="136.844,-177.158 142.684,-179.876 142.739,-189.713 136.899,-186.995 136.844,-177.158"/><polyline points="136.985,-202.292 142.825,-205.009 142.88,-214.846 137.04,-212.129 136.985,-202.292"/><polyline points="137.126,-227.436 142.966,-230.153 143.021,-239.99 137.181,-237.273 137.126,-227.436"/><polyline points="137.266,-252.569 143.107,-255.286 143.162,-265.123 137.322,-262.406 137.266,-252.569"/><polyline points="137.401,-276.621 143.241,-279.338 143.296,-289.175 137.456,-286.458 137.401,-276.621"/><polyline points="137.542,-301.754 143.382,-304.472 143.437,-314.309 137.597,-311.591 137.542,-301.754"/><polyline points="137.683,-326.898 143.523,-329.615 143.578,-339.452 137.738,-336.735 137.683,-326.898"/><polyline points="137.824,-352.042 143.664,-354.759 143.719,-364.596 137.879,-361.879 137.824,-352.042"/><polyline points="137.965,-377.175 143.805,-379.892 143.86,-389.729 138.02,-387.012 137.965,-377.175"/><polyline points="138.106,-402.319 143.946,-405.036 144.001,-414.873 138.161,-412.156 138.106,-402.319"/><polyline points="138.24,-426.36 144.08,-429.078 144.136,-438.915 138.295,-436.197 138.24,-426.36"/><polyline points="115.437,81.366 121.269,78.652 121.324,68.815 115.492,71.528 115.437,81.366"/><polyline points="115.577,56.222 121.409,53.508 121.465,43.671 115.633,46.385 115.577,56.222"/><polyline points="115.718,31.078 121.55,28.364 121.605,18.527 115.774,21.241 115.718,31.078"/><polyline points="115.853,7.037 121.685,4.323 121.74,-5.514 115.908,-2.8 115.853,7.037"/><polyline points="115.994,-18.107 121.826,-20.821 121.881,-30.658 116.049,-27.944 115.994,-18.107"/><polyline points="116.135,-43.24 121.967,-45.954 122.022,-55.791 116.19,-53.077 116.135,-43.24"/><polyline points="116.276,-68.384 122.108,-71.098 122.163,-80.935 116.331,-78.221 116.276,-68.384"/><polyline points="116.417,-93.518 122.249,-96.231 122.304,-106.068 116.472,-103.355 116.417,-93.518"/><polyline points="116.558,-118.662 122.389,-121.375 122.445,-131.212 116.613,-128.499 116.558,-118.662"/><polyline points="116.692,-142.703 122.524,-145.417 122.579,-155.254 116.747,-152.54 116.692,-142.703"/><polyline points="116.833,-167.847 122.665,-170.561 122.72,-180.398 116.888,-177.684 116.833,-167.847"/><polyline points="116.974,-192.98 122.806,-195.694 122.861,-205.531 117.029,-202.817 116.974,-192.98"/><polyline points="117.115,-218.124 122.947,-220.838 123.002,-230.675 117.17,-227.961 117.115,-218.124"/><polyline points="117.256,-243.257 123.088,-245.971 123.143,-255.808 117.311,-253.094 117.256,-243.257"/><polyline points="117.391,-267.309 123.222,-270.023 123.278,-279.86 117.446,-277.146 117.391,-267.309"/><polyline points="117.531,-292.443 123.363,-295.156 123.418,-304.993 117.586,-302.28 117.531,-292.443"/><polyline points="117.672,-317.586 123.504,-320.3 123.559,-330.137 117.727,-327.423 117.672,-317.586"/><polyline points="117.813,-342.73 123.645,-345.444 123.7,-355.281 117.868,-352.567 117.813,-342.73"/><polyline points="117.954,-367.863 123.786,-370.577 123.841,-380.414 118.009,-377.7 117.954,-367.863"/><polyline points="118.095,-393.007 123.927,-395.721 123.982,-405.558 118.15,-402.844 118.095,-393.007"/><polyline points="118.23,-417.049 124.062,-419.762 124.117,-429.599 118.285,-426.886 118.23,-417.049"/><polyline points="95.418,90.681 101.258,87.963 101.313,78.126 95.473,80.844 95.418,90.681"/><polyline points="95.559,65.537 101.399,62.819 101.454,52.982 95.614,55.7 95.559,65.537"/><polyline points="95.7,40.393 101.54,37.676 101.595,27.839 95.755,30.556 95.7,40.393"/><polyline points="95.835,16.352 101.674,13.635 101.729,3.797 95.89,6.515 95.835,16.352"/><polyline points="95.976,-8.792 101.815,-11.509 101.87,-21.346 96.031,-18.629 95.976,-8.792"/><polyline points="96.116,-33.925 101.956,-36.643 102.011,-46.48 96.172,-43.762 96.116,-33.925"/><polyline points="96.257,-59.069 102.097,-61.787 102.152,-71.624 96.312,-68.906 96.257,-59.069"/><polyline points="96.398,-84.203 102.238,-86.92 102.293,-96.757 96.453,-94.04 96.398,-84.203"/><polyline points="96.539,-109.347 102.379,-112.064 102.434,-121.901 96.594,-119.184 96.539,-109.347"/><polyline points="96.674,-133.388 102.513,-136.105 102.569,-145.942 96.729,-143.225 96.674,-133.388"/><polyline points="96.815,-158.532 102.654,-161.249 102.709,-171.086 96.87,-168.369 96.815,-158.532"/><polyline points="96.956,-183.665 102.795,-186.382 102.85,-196.219 97.011,-193.502 96.956,-183.665"/><polyline points="97.096,-208.809 102.936,-211.526 102.991,-221.363 97.152,-218.646 97.096,-208.809"/><polyline points="97.237,-233.942 103.077,-236.66 103.132,-246.497 97.292,-243.779 97.237,-233.942"/><polyline points="97.372,-257.994 103.212,-260.712 103.267,-270.549 97.427,-267.831 97.372,-257.994"/><polyline points="97.513,-283.128 103.353,-285.845 103.408,-295.682 97.568,-292.965 97.513,-283.128"/><polyline points="97.654,-308.271 103.493,-310.988 103.549,-320.825 97.709,-318.108 97.654,-308.271"/><polyline points="97.795,-333.415 103.634,-336.132 103.689,-345.969 97.85,-343.252 97.795,-333.415"/><polyline points="97.936,-358.548 103.775,-361.266 103.83,-371.103 97.991,-368.385 97.936,-358.548"/><polyline points="98.076,-383.692 103.916,-386.41 103.971,-396.247 98.132,-393.529 98.076,-383.692"/><polyline points="98.211,-407.734 104.051,-410.451 104.106,-420.288 98.266,-417.571 98.211,-407.734"/><polyline points="75.399,99.996 81.239,97.278 81.294,87.441 75.454,90.159 75.399,99.996"/><polyline points="75.54,74.852 81.38,72.134 81.435,62.297 75.595,65.015 75.54,74.852"/><polyline points="75.681,49.708 81.521,46.991 81.576,37.154 75.736,39.871 75.681,49.708"/><polyline points="75.816,25.667 81.656,22.95 81.711,13.113 75.871,15.83 75.816,25.667"/><polyline points="75.957,0.523 81.797,-2.194 81.852,-12.031 76.012,-9.314 75.957,0.523"/><polyline points="76.098,-24.61 81.938,-27.328 81.993,-37.165 76.153,-34.447 76.098,-24.61"/><polyline points="76.238,-49.754 82.078,-52.472 82.134,-62.309 76.294,-59.591 76.238,-49.754"/><polyline points="76.379,-74.887 82.219,-77.605 82.274,-87.442 76.434,-84.724 76.379,-74.887"/><polyline points="76.52,-100.031 82.36,-102.749 82.415,-112.586 76.575,-109.868 76.52,-100.031"/><polyline points="76.655,-124.073 82.495,-126.79 82.55,-136.627 76.71,-133.91 76.655,-124.073"/><polyline points="76.796,-149.217 82.636,-151.934 82.691,-161.771 76.851,-159.054 76.796,-149.217"/><polyline points="76.937,-174.35 82.777,-177.067 82.832,-186.904 76.992,-184.187 76.937,-174.35"/><polyline points="77.078,-199.494 82.918,-202.211 82.973,-212.048 77.133,-209.331 77.078,-199.494"/><polyline points="77.218,-224.627 83.058,-227.345 83.114,-237.182 77.273,-234.464 77.218,-224.627"/><polyline points="77.353,-248.679 83.193,-251.397 83.248,-261.234 77.408,-258.516 77.353,-248.679"/><polyline points="77.494,-273.812 83.334,-276.53 83.389,-286.367 77.549,-283.649 77.494,-273.812"/><polyline points="77.635,-298.956 83.475,-301.673 83.53,-311.51 77.69,-308.793 77.635,-298.956"/><polyline points="77.776,-324.1 83.616,-326.817 83.671,-336.654 77.831,-333.937 77.776,-324.1"/><polyline points="77.917,-349.233 83.757,-351.951 83.812,-361.788 77.972,-359.07 77.917,-349.233"/><polyline points="78.058,-374.377 83.898,-377.095 83.953,-386.932 78.113,-384.214 78.058,-374.377"/><polyline points="78.192,-398.418 84.032,-401.136 84.087,-410.973 78.247,-408.255 78.192,-398.418"/><polyline points="55.389,109.307 61.22,106.594 61.276,96.756 55.444,99.47 55.389,109.307"/><polyline points="55.529,84.163 61.361,81.45 61.416,71.613 55.585,74.326 55.529,84.163"/><polyline points="55.67,59.02 61.502,56.306 61.557,46.469 55.725,49.183 55.67,59.02"/><polyline points="55.805,34.979 61.637,32.265 61.692,22.428 55.86,25.141 55.805,34.979"/><polyline points="55.946,9.835 61.778,7.121 61.833,-2.716 56.001,-0.002 55.946,9.835"/><polyline points="56.087,-15.299 61.919,-18.012 61.974,-27.849 56.142,-25.136 56.087,-15.299"/><polyline points="56.228,-40.443 62.06,-43.156 62.115,-52.993 56.283,-50.28 56.228,-40.443"/><polyline points="56.369,-65.576 62.2,-68.29 62.256,-78.127 56.424,-75.413 56.369,-65.576"/><polyline points="56.509,-90.72 62.341,-93.434 62.396,-103.271 56.565,-100.557 56.509,-90.72"/><polyline points="56.644,-114.761 62.476,-117.475 62.531,-127.312 56.699,-124.598 56.644,-114.761"/><polyline points="56.785,-139.905 62.617,-142.619 62.672,-152.456 56.84,-149.742 56.785,-139.905"/><polyline points="56.926,-165.038 62.758,-167.752 62.813,-177.589 56.981,-174.875 56.926,-165.038"/><polyline points="57.067,-190.182 62.899,-192.896 62.954,-202.733 57.122,-200.019 57.067,-190.182"/><polyline points="57.208,-215.316 63.04,-218.029 63.095,-227.866 57.263,-225.153 57.208,-215.316"/><polyline points="57.342,-239.368 63.174,-242.081 63.229,-251.918 57.398,-249.205 57.342,-239.368"/><polyline points="57.483,-264.501 63.315,-267.215 63.37,-277.052 57.538,-274.338 57.483,-264.501"/><polyline points="57.624,-289.644 63.456,-292.358 63.511,-302.195 57.679,-299.481 57.624,-289.644"/><polyline points="57.765,-314.788 63.597,-317.502 63.652,-327.339 57.82,-324.625 57.765,-314.788"/><polyline points="57.906,-339.922 63.738,-342.635 63.793,-352.472 57.961,-349.759 57.906,-339.922"/><polyline points="58.047,-365.066 63.879,-367.779 63.934,-377.616 58.102,-374.903 58.047,-365.066"/><polyline points="58.182,-389.107 64.013,-391.821 64.069,-401.658 58.237,-398.944 58.182,-389.107"/><polyline points="35.37,118.622 41.21,115.905 41.265,106.068 35.425,108.785 35.37,118.622"/><polyline points="35.511,93.478 41.351,90.761 41.406,80.924 35.566,83.641 35.511,93.478"/><polyline points="35.652,68.335 41.491,65.618 41.547,55.781 35.707,58.498 35.652,68.335"/><polyline points="35.787,44.294 41.626,41.576 41.681,31.739 35.842,34.457 35.787,44.294"/><polyline points="35.927,19.15 41.767,16.432 41.822,6.595 35.983,9.313 35.927,19.15"/><polyline points="36.068,-5.984 41.908,-8.701 41.963,-18.538 36.123,-15.821 36.068,-5.984"/><polyline points="36.209,-31.128 42.049,-33.845 42.104,-43.682 36.264,-40.965 36.209,-31.128"/><polyline points="36.35,-56.261 42.19,-58.978 42.245,-68.815 36.405,-66.098 36.35,-56.261"/><polyline points="36.491,-81.405 42.331,-84.122 42.386,-93.959 36.546,-91.242 36.491,-81.405"/><polyline points="36.626,-105.446 42.465,-108.163 42.52,-118.001 36.681,-115.283 36.626,-105.446"/><polyline points="36.767,-130.59 42.606,-133.307 42.661,-143.144 36.822,-140.427 36.767,-130.59"/><polyline points="36.907,-155.723 42.747,-158.441 42.802,-168.278 36.963,-165.56 36.907,-155.723"/><polyline points="37.048,-180.867 42.888,-183.585 42.943,-193.422 37.103,-190.704 37.048,-180.867"/><polyline points="37.189,-206.001 43.029,-208.718 43.084,-218.555 37.244,-215.838 37.189,-206.001"/><polyline points="37.324,-230.053 43.164,-232.77 43.219,-242.607 37.379,-239.89 37.324,-230.053"/><polyline points="37.465,-255.186 43.304,-257.903 43.36,-267.74 37.52,-265.023 37.465,-255.186"/><polyline points="37.606,-280.329 43.445,-283.047 43.5,-292.884 37.661,-290.166 37.606,-280.329"/><polyline points="37.747,-305.473 43.586,-308.191 43.641,-318.028 37.802,-315.31 37.747,-305.473"/><polyline points="37.887,-330.607 43.727,-333.324 43.782,-343.161 37.943,-340.444 37.887,-330.607"/><polyline points="38.028,-355.751 43.868,-358.468 43.923,-368.305 38.083,-365.588 38.028,-355.751"/><polyline points="38.163,-379.792 44.003,-382.509 44.058,-392.346 38.218,-389.629 38.163,-379.792"/><polyline points="15.351,127.938 21.191,125.22 21.246,115.383 15.406,118.101 15.351,127.938"/><polyline points="15.492,102.794 21.332,100.076 21.387,90.239 15.547,92.957 15.492,102.794"/><polyline points="15.633,77.65 21.473,74.933 21.528,65.096 15.688,67.813 15.633,77.65"/><polyline points="15.768,53.609 21.608,50.891 21.663,41.054 15.823,43.772 15.768,53.609"/><polyline points="15.909,28.465 21.749,25.747 21.804,15.91 15.964,18.628 15.909,28.465"/><polyline points="16.049,3.332 21.889,0.614 21.945,-9.223 16.105,-6.505 16.049,3.332"/><polyline points="16.19,-21.812 22.03,-24.53 22.085,-34.367 16.245,-31.649 16.19,-21.812"/><polyline points="16.331,-46.946 22.171,-49.663 22.226,-59.5 16.386,-56.783 16.331,-46.946"/><polyline points="16.472,-72.09 22.312,-74.807 22.367,-84.644 16.527,-81.927 16.472,-72.09"/><polyline points="16.607,-96.131 22.447,-98.848 22.502,-108.685 16.662,-105.968 16.607,-96.131"/><polyline points="16.748,-121.275 22.588,-123.992 22.643,-133.829 16.803,-131.112 16.748,-121.275"/><polyline points="16.889,-146.408 22.729,-149.126 22.784,-158.963 16.944,-156.245 16.889,-146.408"/><polyline points="17.029,-171.552 22.869,-174.27 22.925,-184.107 17.085,-181.389 17.029,-171.552"/><polyline points="17.17,-196.685 23.01,-199.403 23.065,-209.24 17.225,-206.522 17.17,-196.685"/><polyline points="17.305,-220.737 23.145,-223.455 23.2,-233.292 17.36,-230.574 17.305,-220.737"/><polyline points="17.446,-245.871 23.286,-248.588 23.341,-258.425 17.501,-255.708 17.446,-245.871"/><polyline points="17.587,-271.014 23.427,-273.732 23.482,-283.569 17.642,-280.851 17.587,-271.014"/><polyline points="17.728,-296.158 23.568,-298.876 23.623,-308.713 17.783,-305.995 17.728,-296.158"/><polyline points="17.869,-321.291 23.709,-324.009 23.764,-333.846 17.924,-331.128 17.869,-321.291"/><polyline points="18.009,-346.435 23.849,-349.153 23.905,-358.99 18.065,-356.272 18.009,-346.435"/><polyline points="18.144,-370.477 23.984,-373.194 24.039,-383.031 18.199,-380.314 18.144,-370.477"/></g></g><polygon fill="#A5A5A5" points="-2.304,117.225 -2.463,145.49 -46.817,97.926 -46.658,69.661"/></g><g enable-background="new"><polygon fill="#818181" points="1099.307,319.569 1099.149,347.834 1072.289,319.03 1072.447,290.765"/><polygon fill="#646464" points="1072.447,290.765 1072.289,319.03 979.012,362.434 979.17,334.169"/><polygon fill="#658A96" points="1006.03,362.973 1005.871,391.238 979.012,362.434 979.17,334.169"/><polygon fill="#7EABBB" points="979.17,334.169 1072.447,290.765 1099.307,319.569 1006.03,362.973"/><polygon fill="#4F6C75" points="1099.307,319.569 1099.149,347.834 1005.871,391.238 1006.03,362.973"/><polygon fill="#646464" points="1100.691,319.772 1100.533,348.037 1005.59,392.216 1005.748,363.952"/><g enable-background="new"><defs><polygon id="c" enable-background="new" points="1100.691,319.772 1100.533,348.037 1005.59,392.216 1005.748,363.952"/></defs><clipPath id="d"><use xlink:href="#c" overflow="visible"/></clipPath><g fill="#436570" clip-path="url(#d)"><polyline points="1085.346,349.576 1088.579,348.071 1088.607,343.09 1085.374,344.594 1085.346,349.576"/><polyline points="1085.417,336.843 1088.651,335.339 1088.678,330.358 1085.445,331.862 1085.417,336.843"/><polyline points="1085.489,324.111 1088.722,322.607 1088.75,317.626 1085.517,319.13 1085.489,324.111"/><polyline points="1085.557,311.937 1088.79,310.433 1088.818,305.452 1085.585,306.956 1085.557,311.937"/><polyline points="1085.628,299.205 1088.861,297.701 1088.889,292.719 1085.656,294.224 1085.628,299.205"/><polyline points="1085.7,286.478 1088.933,284.974 1088.961,279.992 1085.728,281.497 1085.7,286.478"/><polyline points="1085.771,273.746 1089.004,272.241 1089.032,267.26 1085.799,268.765 1085.771,273.746"/><polyline points="1085.842,261.019 1089.075,259.515 1089.103,254.533 1085.87,256.038 1085.842,261.019"/><polyline points="1085.914,248.287 1089.147,246.782 1089.175,241.801 1085.942,243.305 1085.914,248.287"/><polyline points="1085.982,236.113 1089.215,234.608 1089.243,229.627 1086.01,231.132 1085.982,236.113"/><polyline points="1086.053,223.38 1089.286,221.876 1089.314,216.895 1086.081,218.399 1086.053,223.38"/><polyline points="1086.125,210.654 1089.358,209.149 1089.386,204.168 1086.152,205.672 1086.125,210.654"/><polyline points="1086.196,197.921 1089.429,196.417 1089.457,191.436 1086.224,192.94 1086.196,197.921"/><polyline points="1086.267,185.194 1089.5,183.69 1089.528,178.709 1086.295,180.213 1086.267,185.194"/><polyline points="1086.335,173.015 1089.569,171.511 1089.597,166.529 1086.363,168.034 1086.335,173.015"/><polyline points="1086.407,160.288 1089.64,158.784 1089.668,153.802 1086.435,155.307 1086.407,160.288"/><polyline points="1086.478,147.556 1089.711,146.052 1089.739,141.07 1086.506,142.575 1086.478,147.556"/><polyline points="1086.549,134.824 1089.783,133.319 1089.811,128.338 1086.577,129.843 1086.549,134.824"/><polyline points="1086.621,122.097 1089.854,120.593 1089.882,115.611 1086.649,117.116 1086.621,122.097"/><polyline points="1086.692,109.365 1089.925,107.86 1089.953,102.879 1086.72,104.383 1086.692,109.365"/><polyline points="1086.76,97.191 1089.994,95.686 1090.021,90.705 1086.788,92.209 1086.76,97.191"/><polyline points="1074.248,354.74 1077.485,353.233 1077.513,348.252 1074.276,349.759 1074.248,354.74"/><polyline points="1074.319,342.008 1077.557,340.501 1077.585,335.52 1074.347,337.026 1074.319,342.008"/><polyline points="1074.391,329.276 1077.628,327.769 1077.656,322.788 1074.418,324.294 1074.391,329.276"/><polyline points="1074.459,317.102 1077.696,315.595 1077.724,310.614 1074.487,312.12 1074.459,317.102"/><polyline points="1074.53,304.369 1077.768,302.863 1077.796,297.882 1074.558,299.388 1074.53,304.369"/><polyline points="1074.601,291.642 1077.839,290.136 1077.867,285.155 1074.629,286.661 1074.601,291.642"/><polyline points="1074.673,278.91 1077.91,277.404 1077.938,272.422 1074.701,273.929 1074.673,278.91"/><polyline points="1074.744,266.183 1077.982,264.677 1078.01,259.696 1074.772,261.202 1074.744,266.183"/><polyline points="1074.815,253.451 1078.053,251.944 1078.081,246.963 1074.843,248.47 1074.815,253.451"/><polyline points="1074.884,241.277 1078.121,239.771 1078.149,234.789 1074.912,236.296 1074.884,241.277"/><polyline points="1074.955,228.545 1078.193,227.038 1078.22,222.057 1074.983,223.563 1074.955,228.545"/><polyline points="1075.026,215.818 1078.264,214.311 1078.292,209.33 1075.054,210.837 1075.026,215.818"/><polyline points="1075.098,203.086 1078.335,201.579 1078.363,196.598 1075.126,198.104 1075.098,203.086"/><polyline points="1075.169,190.359 1078.406,188.852 1078.434,183.871 1075.197,185.377 1075.169,190.359"/><polyline points="1075.237,178.179 1078.475,176.673 1078.503,171.692 1075.265,173.198 1075.237,178.179"/><polyline points="1075.309,165.452 1078.546,163.946 1078.574,158.965 1075.336,160.471 1075.309,165.452"/><polyline points="1075.38,152.72 1078.617,151.214 1078.645,146.233 1075.408,147.739 1075.38,152.72"/><polyline points="1075.451,139.988 1078.689,138.482 1078.717,133.5 1075.479,135.007 1075.451,139.988"/><polyline points="1075.523,127.261 1078.76,125.755 1078.788,120.773 1075.551,122.28 1075.523,127.261"/><polyline points="1075.594,114.529 1078.831,113.022 1078.859,108.041 1075.622,109.548 1075.594,114.529"/><polyline points="1075.662,102.355 1078.9,100.849 1078.927,95.867 1075.69,97.374 1075.662,102.355"/><polyline points="1063.149,359.904 1066.387,358.398 1066.415,353.416 1063.177,354.923 1063.149,359.904"/><polyline points="1063.221,347.172 1066.458,345.665 1066.486,340.684 1063.249,342.191 1063.221,347.172"/><polyline points="1063.292,334.44 1066.53,332.933 1066.558,327.952 1063.32,329.459 1063.292,334.44"/><polyline points="1063.36,322.266 1066.598,320.759 1066.626,315.778 1063.388,317.285 1063.36,322.266"/><polyline points="1063.432,309.534 1066.669,308.027 1066.697,303.046 1063.46,304.552 1063.432,309.534"/><polyline points="1063.503,296.807 1066.741,295.3 1066.769,290.319 1063.531,291.826 1063.503,296.807"/><polyline points="1063.574,284.074 1066.812,282.568 1066.84,277.587 1063.602,279.093 1063.574,284.074"/><polyline points="1063.646,271.348 1066.883,269.841 1066.911,264.86 1063.674,266.366 1063.646,271.348"/><polyline points="1063.717,258.615 1066.955,257.109 1066.983,252.127 1063.745,253.634 1063.717,258.615"/><polyline points="1063.785,246.441 1067.023,244.935 1067.051,239.954 1063.813,241.46 1063.785,246.441"/><polyline points="1063.857,233.709 1067.094,232.202 1067.122,227.221 1063.885,228.728 1063.857,233.709"/><polyline points="1063.928,220.982 1067.166,219.476 1067.193,214.494 1063.956,216.001 1063.928,220.982"/><polyline points="1063.999,208.25 1067.237,206.743 1067.265,201.762 1064.027,203.269 1063.999,208.25"/><polyline points="1064.071,195.523 1067.308,194.016 1067.336,189.035 1064.099,190.542 1064.071,195.523"/><polyline points="1064.139,183.344 1067.377,181.837 1067.404,176.856 1064.167,178.362 1064.139,183.344"/><polyline points="1064.21,170.617 1067.448,169.11 1067.476,164.129 1064.238,165.635 1064.21,170.617"/><polyline points="1064.281,157.885 1067.519,156.378 1067.547,151.397 1064.309,152.903 1064.281,157.885"/><polyline points="1064.353,145.152 1067.591,143.646 1067.618,138.665 1064.381,140.171 1064.353,145.152"/><polyline points="1064.424,132.426 1067.662,130.919 1067.69,125.938 1064.452,127.444 1064.424,132.426"/><polyline points="1064.495,119.693 1067.733,118.187 1067.761,113.205 1064.523,114.712 1064.495,119.693"/><polyline points="1064.564,107.519 1067.801,106.013 1067.829,101.031 1064.592,102.538 1064.564,107.519"/><polyline points="1052.056,365.066 1055.289,363.562 1055.317,358.581 1052.083,360.085 1052.056,365.066"/><polyline points="1052.127,352.334 1055.36,350.83 1055.388,345.848 1052.155,347.353 1052.127,352.334"/><polyline points="1052.198,339.602 1055.431,338.098 1055.459,333.116 1052.226,334.621 1052.198,339.602"/><polyline points="1052.266,327.428 1055.5,325.924 1055.528,320.942 1052.294,322.447 1052.266,327.428"/><polyline points="1052.338,314.696 1055.571,313.191 1055.599,308.21 1052.366,309.715 1052.338,314.696"/><polyline points="1052.409,301.969 1055.642,300.465 1055.67,295.483 1052.437,296.988 1052.409,301.969"/><polyline points="1052.48,289.237 1055.714,287.732 1055.742,282.751 1052.508,284.255 1052.48,289.237"/><polyline points="1052.552,276.51 1055.785,275.005 1055.813,270.024 1052.58,271.529 1052.552,276.51"/><polyline points="1052.623,263.778 1055.856,262.273 1055.884,257.292 1052.651,258.796 1052.623,263.778"/><polyline points="1052.691,251.604 1055.925,250.099 1055.953,245.118 1052.719,246.622 1052.691,251.604"/><polyline points="1052.763,238.871 1055.996,237.367 1056.024,232.386 1052.791,233.89 1052.763,238.871"/><polyline points="1052.834,226.144 1056.067,224.64 1056.095,219.659 1052.862,221.163 1052.834,226.144"/><polyline points="1052.905,213.412 1056.139,211.908 1056.167,206.926 1052.933,208.431 1052.905,213.412"/><polyline points="1052.977,200.685 1056.21,199.181 1056.238,194.2 1053.005,195.704 1052.977,200.685"/><polyline points="1053.045,188.506 1056.278,187.001 1056.306,182.02 1053.073,183.525 1053.045,188.506"/><polyline points="1053.116,175.779 1056.349,174.275 1056.377,169.293 1053.144,170.798 1053.116,175.779"/><polyline points="1053.188,163.047 1056.421,161.542 1056.449,156.561 1053.216,158.066 1053.188,163.047"/><polyline points="1053.259,150.315 1056.492,148.81 1056.52,143.829 1053.287,145.333 1053.259,150.315"/><polyline points="1053.33,137.588 1056.563,136.083 1056.591,131.102 1053.358,132.607 1053.33,137.588"/><polyline points="1053.402,124.856 1056.635,123.351 1056.663,118.37 1053.43,119.874 1053.402,124.856"/><polyline points="1053.47,112.682 1056.703,111.177 1056.731,106.196 1053.498,107.7 1053.47,112.682"/><polyline points="1040.957,370.231 1044.195,368.724 1044.223,363.743 1040.985,365.249 1040.957,370.231"/><polyline points="1041.029,357.498 1044.266,355.992 1044.294,351.011 1041.057,352.517 1041.029,357.498"/><polyline points="1041.1,344.766 1044.338,343.26 1044.365,338.279 1041.128,339.785 1041.1,344.766"/><polyline points="1041.168,332.592 1044.406,331.086 1044.434,326.105 1041.196,327.611 1041.168,332.592"/><polyline points="1041.24,319.86 1044.477,318.354 1044.505,313.372 1041.268,314.879 1041.24,319.86"/><polyline points="1041.311,307.133 1044.548,305.627 1044.576,300.646 1041.339,302.152 1041.311,307.133"/><polyline points="1041.382,294.401 1044.62,292.894 1044.648,287.913 1041.41,289.42 1041.382,294.401"/><polyline points="1041.454,281.674 1044.691,280.168 1044.719,275.186 1041.482,276.693 1041.454,281.674"/><polyline points="1041.525,268.942 1044.762,267.435 1044.79,262.454 1041.553,263.961 1041.525,268.942"/><polyline points="1041.593,256.768 1044.831,255.261 1044.859,250.28 1041.621,251.787 1041.593,256.768"/><polyline points="1041.665,244.036 1044.902,242.529 1044.93,237.548 1041.692,239.054 1041.665,244.036"/><polyline points="1041.736,231.309 1044.973,229.802 1045.001,224.821 1041.764,226.327 1041.736,231.309"/><polyline points="1041.807,218.576 1045.045,217.07 1045.073,212.089 1041.835,213.595 1041.807,218.576"/><polyline points="1041.879,205.849 1045.116,204.343 1045.144,199.362 1041.906,200.868 1041.879,205.849"/><polyline points="1041.947,193.67 1045.184,192.164 1045.212,187.182 1041.975,188.689 1041.947,193.67"/><polyline points="1042.018,180.943 1045.256,179.437 1045.283,174.456 1042.046,175.962 1042.018,180.943"/><polyline points="1042.089,168.211 1045.327,166.705 1045.355,161.723 1042.117,163.23 1042.089,168.211"/><polyline points="1042.161,155.479 1045.398,153.972 1045.426,148.991 1042.189,150.498 1042.161,155.479"/><polyline points="1042.232,142.752 1045.47,141.246 1045.497,136.264 1042.26,137.771 1042.232,142.752"/><polyline points="1042.303,130.02 1045.541,128.513 1045.569,123.532 1042.331,125.038 1042.303,130.02"/><polyline points="1042.372,117.846 1045.609,116.339 1045.637,111.358 1042.4,112.865 1042.372,117.846"/><polyline points="1029.859,375.395 1033.097,373.888 1033.125,368.907 1029.887,370.414 1029.859,375.395"/><polyline points="1029.93,362.663 1033.168,361.156 1033.196,356.175 1029.958,357.681 1029.93,362.663"/><polyline points="1030.002,349.931 1033.239,348.424 1033.267,343.443 1030.03,344.949 1030.002,349.931"/><polyline points="1030.07,337.757 1033.308,336.25 1033.335,331.269 1030.098,332.775 1030.07,337.757"/><polyline points="1030.141,325.024 1033.379,323.518 1033.407,318.537 1030.169,320.043 1030.141,325.024"/><polyline points="1030.213,312.298 1033.45,310.791 1033.478,305.81 1030.24,307.316 1030.213,312.298"/><polyline points="1030.284,299.565 1033.522,298.059 1033.549,293.077 1030.312,294.584 1030.284,299.565"/><polyline points="1030.355,286.838 1033.593,285.332 1033.621,280.351 1030.383,281.857 1030.355,286.838"/><polyline points="1030.427,274.106 1033.664,272.6 1033.692,267.618 1030.454,269.125 1030.427,274.106"/><polyline points="1030.495,261.932 1033.732,260.426 1033.76,255.444 1030.523,256.951 1030.495,261.932"/><polyline points="1030.566,249.2 1033.804,247.693 1033.832,242.712 1030.594,244.219 1030.566,249.2"/><polyline points="1030.637,236.473 1033.875,234.966 1033.903,229.985 1030.665,231.492 1030.637,236.473"/><polyline points="1030.709,223.741 1033.947,222.234 1033.974,217.253 1030.737,218.759 1030.709,223.741"/><polyline points="1030.78,211.014 1034.018,209.507 1034.046,204.526 1030.808,206.033 1030.78,211.014"/><polyline points="1030.848,198.834 1034.086,197.328 1034.114,192.347 1030.876,193.853 1030.848,198.834"/><polyline points="1030.92,186.108 1034.157,184.601 1034.185,179.62 1030.948,181.126 1030.92,186.108"/><polyline points="1030.991,173.376 1034.229,171.869 1034.257,166.888 1031.019,168.394 1030.991,173.376"/><polyline points="1031.062,160.643 1034.3,159.137 1034.328,154.155 1031.09,155.662 1031.062,160.643"/><polyline points="1031.134,147.916 1034.371,146.41 1034.399,141.429 1031.162,142.935 1031.134,147.916"/><polyline points="1031.205,135.184 1034.443,133.678 1034.471,128.696 1031.233,130.203 1031.205,135.184"/><polyline points="1031.273,123.01 1034.511,121.504 1034.539,116.522 1031.301,118.029 1031.273,123.01"/><polyline points="1018.765,380.557 1021.998,379.053 1022.026,374.072 1018.793,375.576 1018.765,380.557"/><polyline points="1018.836,367.825 1022.07,366.32 1022.098,361.339 1018.864,362.844 1018.836,367.825"/><polyline points="1018.908,355.093 1022.141,353.588 1022.169,348.607 1018.936,350.112 1018.908,355.093"/><polyline points="1018.976,342.919 1022.209,341.414 1022.237,336.433 1019.004,337.938 1018.976,342.919"/><polyline points="1019.047,330.187 1022.281,328.682 1022.308,323.701 1019.075,325.205 1019.047,330.187"/><polyline points="1019.119,317.46 1022.352,315.955 1022.38,310.974 1019.147,312.479 1019.119,317.46"/><polyline points="1019.19,304.728 1022.423,303.223 1022.451,298.242 1019.218,299.746 1019.19,304.728"/><polyline points="1019.261,292.001 1022.495,290.496 1022.522,285.515 1019.289,287.019 1019.261,292.001"/><polyline points="1019.333,279.268 1022.566,277.764 1022.594,272.783 1019.361,274.287 1019.333,279.268"/><polyline points="1019.401,267.094 1022.634,265.59 1022.662,260.609 1019.429,262.113 1019.401,267.094"/><polyline points="1019.472,254.362 1022.705,252.858 1022.733,247.876 1019.5,249.381 1019.472,254.362"/><polyline points="1019.544,241.635 1022.777,240.131 1022.805,235.149 1019.571,236.654 1019.544,241.635"/><polyline points="1019.615,228.903 1022.848,227.398 1022.876,222.417 1019.643,223.922 1019.615,228.903"/><polyline points="1019.686,216.176 1022.919,214.672 1022.947,209.69 1019.714,211.195 1019.686,216.176"/><polyline points="1019.754,203.997 1022.988,202.492 1023.016,197.511 1019.782,199.015 1019.754,203.997"/><polyline points="1019.826,191.27 1023.059,189.765 1023.087,184.784 1019.854,186.289 1019.826,191.27"/><polyline points="1019.897,178.538 1023.13,177.033 1023.158,172.052 1019.925,173.557 1019.897,178.538"/><polyline points="1019.969,165.805 1023.202,164.301 1023.23,159.32 1019.996,160.824 1019.969,165.805"/><polyline points="1020.04,153.079 1023.273,151.574 1023.301,146.593 1020.068,148.097 1020.04,153.079"/><polyline points="1020.111,140.346 1023.344,138.842 1023.372,133.861 1020.139,135.365 1020.111,140.346"/><polyline points="1020.179,128.172 1023.413,126.668 1023.44,121.687 1020.207,123.191 1020.179,128.172"/><polyline points="1007.667,385.721 1010.904,384.215 1010.932,379.234 1007.695,380.74 1007.667,385.721"/><polyline points="1007.738,372.989 1010.976,371.483 1011.004,366.501 1007.766,368.008 1007.738,372.989"/><polyline points="1007.81,360.257 1011.047,358.751 1011.075,353.769 1007.837,355.276 1007.81,360.257"/><polyline points="1007.878,348.083 1011.115,346.577 1011.143,341.595 1007.906,343.102 1007.878,348.083"/><polyline points="1007.949,335.351 1011.187,333.844 1011.215,328.863 1007.977,330.37 1007.949,335.351"/><polyline points="1008.02,322.624 1011.258,321.118 1011.286,316.136 1008.048,317.643 1008.02,322.624"/><polyline points="1008.092,309.892 1011.329,308.385 1011.357,303.404 1008.12,304.91 1008.092,309.892"/><polyline points="1008.163,297.165 1011.401,295.658 1011.429,290.677 1008.191,292.184 1008.163,297.165"/><polyline points="1008.234,284.433 1011.472,282.926 1011.5,277.945 1008.262,279.451 1008.234,284.433"/><polyline points="1008.303,272.259 1011.54,270.752 1011.568,265.771 1008.331,267.277 1008.303,272.259"/><polyline points="1008.374,259.526 1011.612,258.02 1011.639,253.039 1008.402,254.545 1008.374,259.526"/><polyline points="1008.445,246.799 1011.683,245.293 1011.711,240.312 1008.473,241.818 1008.445,246.799"/><polyline points="1008.517,234.067 1011.754,232.561 1011.782,227.579 1008.545,229.086 1008.517,234.067"/><polyline points="1008.588,221.34 1011.826,219.834 1011.853,214.853 1008.616,216.359 1008.588,221.34"/><polyline points="1008.656,209.161 1011.894,207.654 1011.922,202.673 1008.684,204.18 1008.656,209.161"/><polyline points="1008.728,196.434 1011.965,194.928 1011.993,189.946 1008.755,191.453 1008.728,196.434"/><polyline points="1008.799,183.702 1012.036,182.196 1012.064,177.214 1008.827,178.721 1008.799,183.702"/><polyline points="1008.87,170.97 1012.108,169.463 1012.136,164.482 1008.898,165.988 1008.87,170.97"/><polyline points="1008.942,158.243 1012.179,156.736 1012.207,151.755 1008.97,153.262 1008.942,158.243"/><polyline points="1009.013,145.511 1012.25,144.004 1012.278,139.023 1009.041,140.529 1009.013,145.511"/><polyline points="1009.081,133.337 1012.319,131.83 1012.347,126.849 1009.109,128.355 1009.081,133.337"/><polyline points="996.568,390.886 999.806,389.379 999.834,384.398 996.596,385.905 996.568,390.886"/><polyline points="996.64,378.154 999.878,376.647 999.905,371.666 996.668,373.172 996.64,378.154"/><polyline points="996.711,365.422 999.949,363.915 999.977,358.934 996.739,360.44 996.711,365.422"/><polyline points="996.779,353.248 1000.017,351.741 1000.045,346.76 996.807,348.266 996.779,353.248"/><polyline points="996.851,340.515 1000.088,339.009 1000.116,334.027 996.879,335.534 996.851,340.515"/><polyline points="996.922,327.788 1000.16,326.282 1000.188,321.301 996.95,322.807 996.922,327.788"/><polyline points="996.993,315.056 1000.231,313.549 1000.259,308.568 997.021,310.075 996.993,315.056"/><polyline points="997.065,302.329 1000.302,300.823 1000.33,295.841 997.093,297.348 997.065,302.329"/><polyline points="997.136,289.597 1000.374,288.09 1000.402,283.109 997.164,284.616 997.136,289.597"/><polyline points="997.204,277.423 1000.442,275.916 1000.47,270.935 997.232,272.442 997.204,277.423"/><polyline points="997.276,264.691 1000.513,263.184 1000.541,258.203 997.304,259.709 997.276,264.691"/><polyline points="997.347,251.964 1000.585,250.457 1000.613,245.476 997.375,246.983 997.347,251.964"/><polyline points="997.418,239.232 1000.656,237.725 1000.684,232.744 997.446,234.25 997.418,239.232"/><polyline points="997.49,226.505 1000.727,224.998 1000.755,220.017 997.518,221.523 997.49,226.505"/><polyline points="997.558,214.325 1000.796,212.819 1000.823,207.837 997.586,209.344 997.558,214.325"/><polyline points="997.629,201.598 1000.867,200.092 1000.895,195.111 997.657,196.617 997.629,201.598"/><polyline points="997.701,188.866 1000.938,187.36 1000.966,182.379 997.728,183.885 997.701,188.866"/><polyline points="997.772,176.134 1001.01,174.627 1001.038,169.646 997.8,171.153 997.772,176.134"/><polyline points="997.843,163.407 1001.081,161.901 1001.109,156.919 997.871,158.426 997.843,163.407"/><polyline points="997.915,150.675 1001.152,149.168 1001.18,144.187 997.943,145.694 997.915,150.675"/><polyline points="997.983,138.501 1001.22,136.994 1001.248,132.013 998.011,133.52 997.983,138.501"/><polyline points="985.475,396.048 988.708,394.544 988.736,389.562 985.503,391.067 985.475,396.048"/><polyline points="985.546,383.316 988.779,381.811 988.807,376.83 985.574,378.335 985.546,383.316"/><polyline points="985.617,370.584 988.85,369.079 988.878,364.098 985.645,365.603 985.617,370.584"/><polyline points="985.685,358.41 988.919,356.905 988.947,351.924 985.713,353.429 985.685,358.41"/><polyline points="985.757,345.677 988.99,344.173 989.018,339.192 985.785,340.696 985.757,345.677"/><polyline points="985.828,332.951 989.061,331.446 989.089,326.465 985.856,327.969 985.828,332.951"/><polyline points="985.9,320.218 989.133,318.714 989.161,313.733 985.927,315.237 985.9,320.218"/><polyline points="985.971,307.491 989.204,305.987 989.232,301.006 985.999,302.51 985.971,307.491"/><polyline points="986.042,294.759 989.275,293.255 989.303,288.273 986.07,289.778 986.042,294.759"/><polyline points="986.11,282.585 989.344,281.081 989.372,276.099 986.138,277.604 986.11,282.585"/><polyline points="986.182,269.853 989.415,268.348 989.443,263.367 986.21,264.872 986.182,269.853"/><polyline points="986.253,257.126 989.486,255.622 989.514,250.64 986.281,252.145 986.253,257.126"/><polyline points="986.324,244.394 989.558,242.889 989.586,237.908 986.352,239.412 986.324,244.394"/><polyline points="986.396,231.667 989.629,230.162 989.657,225.181 986.424,226.686 986.396,231.667"/><polyline points="986.464,219.488 989.697,217.983 989.725,213.002 986.492,214.506 986.464,219.488"/><polyline points="986.535,206.761 989.768,205.256 989.796,200.275 986.563,201.779 986.535,206.761"/><polyline points="986.607,194.029 989.84,192.524 989.868,187.543 986.635,189.047 986.607,194.029"/><polyline points="986.678,181.296 989.911,179.792 989.939,174.811 986.706,176.315 986.678,181.296"/><polyline points="986.749,168.569 989.982,167.065 990.01,162.084 986.777,163.588 986.749,168.569"/><polyline points="986.821,155.837 990.054,154.333 990.082,149.351 986.849,150.856 986.821,155.837"/><polyline points="986.889,143.663 990.122,142.159 990.15,137.177 986.917,138.682 986.889,143.663"/><polyline points="974.376,401.212 977.614,399.706 977.642,394.725 974.404,396.231 974.376,401.212"/><polyline points="974.448,388.48 977.685,386.974 977.713,381.992 974.476,383.499 974.448,388.48"/><polyline points="974.519,375.748 977.757,374.242 977.784,369.26 974.547,370.767 974.519,375.748"/><polyline points="974.587,363.574 977.825,362.068 977.853,357.086 974.615,358.593 974.587,363.574"/><polyline points="974.659,350.842 977.896,349.335 977.924,344.354 974.687,345.861 974.659,350.842"/><polyline points="974.73,338.115 977.967,336.608 977.995,331.627 974.758,333.134 974.73,338.115"/><polyline points="974.801,325.383 978.039,323.876 978.067,318.895 974.829,320.401 974.801,325.383"/><polyline points="974.873,312.656 978.11,311.149 978.138,306.168 974.901,307.674 974.873,312.656"/><polyline points="974.944,299.923 978.181,298.417 978.209,293.436 974.972,294.942 974.944,299.923"/><polyline points="975.012,287.749 978.25,286.243 978.278,281.262 975.04,282.768 975.012,287.749"/><polyline points="975.084,275.017 978.321,273.511 978.349,268.529 975.112,270.036 975.084,275.017"/><polyline points="975.155,262.29 978.392,260.784 978.42,255.803 975.183,257.309 975.155,262.29"/><polyline points="975.226,249.558 978.464,248.051 978.492,243.07 975.254,244.577 975.226,249.558"/><polyline points="975.298,236.831 978.535,235.325 978.563,230.343 975.326,231.85 975.298,236.831"/><polyline points="975.366,224.652 978.603,223.145 978.631,218.164 975.394,219.67 975.366,224.652"/><polyline points="975.437,211.925 978.675,210.418 978.703,205.437 975.465,206.944 975.437,211.925"/><polyline points="975.508,199.193 978.746,197.686 978.774,192.705 975.536,194.212 975.508,199.193"/><polyline points="975.58,186.461 978.817,184.954 978.845,179.973 975.608,181.479 975.58,186.461"/><polyline points="975.651,173.734 978.889,172.227 978.917,167.246 975.679,168.752 975.651,173.734"/><polyline points="975.722,161.001 978.96,159.495 978.988,154.514 975.75,156.02 975.722,161.001"/><polyline points="975.791,148.827 979.028,147.321 979.056,142.34 975.819,143.846 975.791,148.827"/><polyline points="963.278,406.377 966.516,404.87 966.544,399.889 963.306,401.395 963.278,406.377"/><polyline points="963.349,393.644 966.587,392.138 966.615,387.157 963.377,388.663 963.349,393.644"/><polyline points="963.421,380.912 966.658,379.406 966.686,374.424 963.449,375.931 963.421,380.912"/><polyline points="963.489,368.738 966.727,367.232 966.755,362.251 963.517,363.757 963.489,368.738"/><polyline points="963.56,356.006 966.798,354.5 966.826,349.518 963.588,351.025 963.56,356.006"/><polyline points="963.632,343.279 966.869,341.773 966.897,336.791 963.659,338.298 963.632,343.279"/><polyline points="963.703,330.547 966.941,329.04 966.969,324.059 963.731,325.566 963.703,330.547"/><polyline points="963.774,317.82 967.012,316.313 967.04,311.332 963.802,312.839 963.774,317.82"/><polyline points="963.846,305.088 967.083,303.581 967.111,298.6 963.874,300.106 963.846,305.088"/><polyline points="963.914,292.914 967.152,291.407 967.179,286.426 963.942,287.933 963.914,292.914"/><polyline points="963.985,280.181 967.223,278.675 967.251,273.694 964.013,275.2 963.985,280.181"/><polyline points="964.056,267.455 967.294,265.948 967.322,260.967 964.084,262.473 964.056,267.455"/><polyline points="964.128,254.722 967.366,253.216 967.393,248.234 964.156,249.741 964.128,254.722"/><polyline points="964.199,241.995 967.437,240.489 967.465,235.508 964.227,237.014 964.199,241.995"/><polyline points="964.267,229.816 967.505,228.309 967.533,223.328 964.295,224.835 964.267,229.816"/><polyline points="964.339,217.089 967.576,215.583 967.604,210.601 964.367,212.108 964.339,217.089"/><polyline points="964.41,204.357 967.648,202.851 967.676,197.869 964.438,199.376 964.41,204.357"/><polyline points="964.481,191.625 967.719,190.118 967.747,185.137 964.509,186.644 964.481,191.625"/><polyline points="964.553,178.898 967.79,177.391 967.818,172.41 964.581,173.917 964.553,178.898"/><polyline points="964.624,166.166 967.862,164.659 967.89,159.678 964.652,161.184 964.624,166.166"/><polyline points="964.692,153.992 967.93,152.485 967.958,147.504 964.72,149.011 964.692,153.992"/><polyline points="952.184,411.539 955.417,410.034 955.445,405.053 952.212,406.558 952.184,411.539"/><polyline points="952.255,398.807 955.489,397.302 955.517,392.321 952.283,393.825 952.255,398.807"/><polyline points="952.327,386.075 955.56,384.57 955.588,379.589 952.355,381.093 952.327,386.075"/><polyline points="952.395,373.901 955.628,372.396 955.656,367.415 952.423,368.919 952.395,373.901"/><polyline points="952.466,361.168 955.7,359.664 955.727,354.683 952.494,356.187 952.466,361.168"/><polyline points="952.538,348.441 955.771,346.937 955.799,341.956 952.566,343.46 952.538,348.441"/><polyline points="952.609,335.709 955.842,334.205 955.87,329.223 952.637,330.728 952.609,335.709"/><polyline points="952.68,322.982 955.914,321.478 955.941,316.497 952.708,318.001 952.68,322.982"/><polyline points="952.752,310.25 955.985,308.745 956.013,303.764 952.78,305.269 952.752,310.25"/><polyline points="952.82,298.076 956.053,296.572 956.081,291.59 952.848,293.095 952.82,298.076"/><polyline points="952.891,285.344 956.124,283.839 956.152,278.858 952.919,280.362 952.891,285.344"/><polyline points="952.963,272.617 956.196,271.112 956.224,266.131 952.991,267.636 952.963,272.617"/><polyline points="953.034,259.885 956.267,258.38 956.295,253.399 953.062,254.903 953.034,259.885"/><polyline points="953.105,247.158 956.338,245.653 956.366,240.672 953.133,242.176 953.105,247.158"/><polyline points="953.174,234.978 956.407,233.474 956.435,228.493 953.201,229.997 953.174,234.978"/><polyline points="953.245,222.251 956.478,220.747 956.506,215.766 953.273,217.27 953.245,222.251"/><polyline points="953.316,209.519 956.549,208.015 956.577,203.034 953.344,204.538 953.316,209.519"/><polyline points="953.388,196.787 956.621,195.283 956.649,190.301 953.415,191.806 953.388,196.787"/><polyline points="953.459,184.06 956.692,182.556 956.72,177.575 953.487,179.079 953.459,184.06"/><polyline points="953.53,171.328 956.763,169.823 956.791,164.842 953.558,166.347 953.53,171.328"/><polyline points="953.598,159.154 956.832,157.65 956.859,152.668 953.626,154.173 953.598,159.154"/><polyline points="941.086,416.703 944.323,415.197 944.351,410.215 941.114,411.722 941.086,416.703"/><polyline points="941.157,403.971 944.395,402.464 944.423,397.483 941.185,398.99 941.157,403.971"/><polyline points="941.229,391.239 944.466,389.732 944.494,384.751 941.257,386.258 941.229,391.239"/><polyline points="941.297,379.065 944.534,377.558 944.562,372.577 941.325,374.084 941.297,379.065"/><polyline points="941.368,366.333 944.606,364.826 944.634,359.845 941.396,361.351 941.368,366.333"/><polyline points="941.44,353.606 944.677,352.099 944.705,347.118 941.467,348.624 941.44,353.606"/><polyline points="941.511,340.873 944.748,339.367 944.776,334.386 941.539,335.892 941.511,340.873"/><polyline points="941.582,328.146 944.82,326.64 944.848,321.659 941.61,323.165 941.582,328.146"/><polyline points="941.654,315.414 944.891,313.908 944.919,308.926 941.681,310.433 941.654,315.414"/><polyline points="941.722,303.24 944.959,301.734 944.987,296.753 941.75,298.259 941.722,303.24"/><polyline points="941.793,290.508 945.031,289.001 945.058,284.02 941.821,285.527 941.793,290.508"/><polyline points="941.864,277.781 945.102,276.275 945.13,271.293 941.892,272.8 941.864,277.781"/><polyline points="941.936,265.049 945.173,263.542 945.201,258.561 941.964,260.068 941.936,265.049"/><polyline points="942.007,252.322 945.245,250.815 945.272,245.834 942.035,247.341 942.007,252.322"/><polyline points="942.075,240.143 945.313,238.636 945.341,233.655 942.103,235.161 942.075,240.143"/><polyline points="942.147,227.416 945.384,225.909 945.412,220.928 942.175,222.434 942.147,227.416"/><polyline points="942.218,214.684 945.456,213.177 945.483,208.196 942.246,209.702 942.218,214.684"/><polyline points="942.289,201.951 945.527,200.445 945.555,195.464 942.317,196.97 942.289,201.951"/><polyline points="942.361,189.224 945.598,187.718 945.626,182.737 942.389,184.243 942.361,189.224"/><polyline points="942.432,176.492 945.669,174.986 945.697,170.004 942.46,171.511 942.432,176.492"/><polyline points="942.5,164.318 945.738,162.812 945.766,157.831 942.528,159.337 942.5,164.318"/><polyline points="929.988,421.867 933.225,420.361 933.253,415.38 930.015,416.886 929.988,421.867"/><polyline points="930.059,409.135 933.297,407.629 933.324,402.647 930.087,404.154 930.059,409.135"/><polyline points="930.13,396.403 933.368,394.897 933.396,389.915 930.158,391.422 930.13,396.403"/><polyline points="930.198,384.229 933.436,382.723 933.464,377.741 930.226,379.248 930.198,384.229"/><polyline points="930.27,371.497 933.508,369.99 933.535,365.009 930.298,366.516 930.27,371.497"/><polyline points="930.341,358.77 933.579,357.263 933.607,352.282 930.369,353.789 930.341,358.77"/><polyline points="930.412,346.038 933.65,344.531 933.678,339.55 930.44,341.056 930.412,346.038"/><polyline points="930.484,333.311 933.721,331.804 933.749,326.823 930.512,328.33 930.484,333.311"/><polyline points="930.555,320.579 933.793,319.072 933.821,314.091 930.583,315.597 930.555,320.579"/><polyline points="930.623,308.405 933.861,306.898 933.889,301.917 930.651,303.423 930.623,308.405"/><polyline points="930.695,295.672 933.932,294.166 933.96,289.184 930.723,290.691 930.695,295.672"/><polyline points="930.766,282.945 934.004,281.439 934.032,276.458 930.794,277.964 930.766,282.945"/><polyline points="930.837,270.213 934.075,268.707 934.103,263.725 930.865,265.232 930.837,270.213"/><polyline points="930.909,257.486 934.146,255.98 934.174,250.998 930.937,252.505 930.909,257.486"/><polyline points="930.977,245.307 934.215,243.8 934.243,238.819 931.005,240.326 930.977,245.307"/><polyline points="931.048,232.58 934.286,231.073 934.314,226.092 931.076,227.599 931.048,232.58"/><polyline points="931.12,219.848 934.357,218.341 934.385,213.36 931.148,214.867 931.12,219.848"/><polyline points="931.191,207.116 934.429,205.609 934.457,200.628 931.219,202.134 931.191,207.116"/><polyline points="931.262,194.389 934.5,192.882 934.528,187.901 931.29,189.408 931.262,194.389"/><polyline points="931.334,181.657 934.571,180.15 934.599,175.169 931.362,176.675 931.334,181.657"/><polyline points="931.402,169.483 934.64,167.976 934.667,162.995 931.43,164.501 931.402,169.483"/></g></g><polygon fill="#818181" points="1005.748,363.952 1005.59,392.216 977.627,362.231 977.786,333.966"/><path fill="#A0A0A0" d="M1005.748 363.952l-27.962-29.986 94.944-44.179 27.962 29.986-94.944 44.179zm66.699-73.187l-93.277 43.404 26.86 28.803 93.277-43.404-26.86-28.803"/></g><polygon opacity=".2" points="971.166,338.068 1073.668,290.372 1100.394,319.032 997.892,366.728"/></g></svg>