<?xml version="1.0" encoding="utf-8"?>
<!-- Generator: Adobe Illustrator 17.1.0, SVG Export Plug-In . SVG Version: 6.00 Build 0)  -->
<!DOCTYPE svg PUBLIC "-//W3C//DTD SVG 1.1//EN" "http://www.w3.org/Graphics/SVG/1.1/DTD/svg11.dtd">
<svg version="1.1" xmlns="http://www.w3.org/2000/svg" xmlns:xlink="http://www.w3.org/1999/xlink" x="0px" y="0px"
	 viewBox="0 0 119.994 128.994" enable-background="new 0 0 119.994 128.994" xml:space="preserve">
<g id="Ground">
</g>
<g id="Buildings_and_Mid_Details">
</g>
<g id="Top_Layer_Details">
	<g>
		<rect x="14.209" y="21.591" fill="#999999" width="86.592" height="86.029"/>
		<polygon fill="#999999" points="59.932,121.005 55.077,121.005 55.077,117.516 52.504,117.516 52.504,114.021 49.633,114.021 
			49.633,110.536 46.082,110.536 46.082,107.047 68.928,107.047 68.928,110.536 65.373,110.536 65.373,114.021 62.506,114.021 
			62.506,117.516 59.932,117.516 		"/>
	</g>
	<g>
		<rect x="14.209" y="17.591" fill="#FDD103" width="86.592" height="86.029"/>
		<g>
			<g>
				<path d="M44.349,49.449h3.311v-4.765h6.623v28.598h6.624v4.767H41.037v-4.767h6.623V54.217h-3.311V49.449z"/>
				<path d="M74.385,44.684h9.934v19.065h3.311v4.767h-3.311v9.532h-6.623v-9.532H64.451v-9.532h3.311v-4.767h3.311v-4.768h3.311
					V44.684z M74.385,54.217v4.767h-3.311v4.766h6.622v-9.532H74.385z"/>
			</g>
		</g>
		<polygon points="37.294,58.223 37.294,63.078 33.805,63.078 33.805,65.651 30.31,65.651 30.31,68.522 26.825,68.522 
			26.825,72.073 23.336,72.073 23.336,49.227 26.825,49.227 26.825,52.782 30.31,52.782 30.31,55.649 33.805,55.649 33.805,58.223 
					"/>
		<polygon fill="#FDD103" points="59.932,117.005 55.077,117.005 55.077,113.516 52.504,113.516 52.504,110.021 49.633,110.021 
			49.633,106.536 46.082,106.536 46.082,103.047 68.928,103.047 68.928,106.536 65.373,106.536 65.373,110.021 62.506,110.021 
			62.506,113.516 59.932,113.516 		"/>
	</g>
	<g>
	</g>
	<g>
	</g>
	<g>
	</g>
	<g>
	</g>
	<g>
	</g>
	<g>
	</g>
	<g>
	</g>
	<g>
	</g>
	<g>
	</g>
	<g>
	</g>
	<g>
	</g>
	<g>
	</g>
	<g>
	</g>
	<g>
	</g>
	<g>
	</g>
	<g>
	</g>
	<g>
	</g>
	<g>
	</g>
	<g>
	</g>
	<g>
	</g>
	<g>
	</g>
	<g>
	</g>
	<g>
	</g>
	<g>
	</g>
	<g>
	</g>
	<g>
	</g>
	<g>
	</g>
</g>
</svg>
