<svg xmlns="http://www.w3.org/2000/svg" width="1024" height="768"><g><g opacity=".25"><rect x="239.389" y="128.548" width="515.548" height="512.196"/><polygon points="511.613,720.435 482.707,720.435 482.707,699.663 467.388,699.663 467.388,678.854 450.295,678.854 450.295,658.105 429.153,658.105 429.153,637.333 565.173,637.333 565.173,658.105 544.007,658.105 544.007,678.854 526.938,678.854 526.938,699.663 511.613,699.663"/></g><rect x="239.389" y="104.733" fill="#FDD103" width="515.548" height="512.196"/><path d="M418.835 294.408h19.713v-28.37h39.432v170.266h39.438v28.382h-118.301v-28.382h39.432v-113.509h-19.713v-28.387zM597.663 266.038h59.145v113.509h19.713v28.382h-19.713v56.751h-39.432v-56.751h-78.858v-56.751h19.713v-28.382h19.713v-28.388h19.713v-28.37h.006zm0 56.757v28.382h-19.713v28.376h39.426v-56.751h-19.713v-.007z"/><polygon points="376.832,346.646 376.832,375.552 356.059,375.552 356.059,390.871 335.251,390.871 335.251,407.964 314.502,407.964 314.502,429.106 293.729,429.106 293.729,293.086 314.502,293.086 314.502,314.252 335.251,314.252 335.251,331.321 356.059,331.321 356.059,346.646"/><polygon fill="#FDD103" points="511.613,696.62 482.707,696.62 482.707,675.848 467.388,675.848 467.388,655.039 450.295,655.039 450.295,634.29 429.153,634.29 429.153,613.518 565.173,613.518 565.173,634.29 544.007,634.29 544.007,655.039 526.938,655.039 526.938,675.848 511.613,675.848"/></g></svg>