<svg xmlns="http://www.w3.org/2000/svg" viewBox="0 0 318 50" enable-background="new 0 0 318 50"><path d="M22 19.03h7.97v1.992h1.993v1.993h-3.985v-1.993h-3.985v1.993h-1.993v5.978h1.993v1.993h3.985v-1.993h3.985v1.993h-1.993v1.993h-7.97v-1.993h-1.993v-1.993h-1.992v-5.978h1.992v-1.993h1.993v-1.992zm11.956 0h3.985v5.978h5.978v-5.978h3.985v13.948h-3.985v-5.978h-5.978v5.978h-3.985v-13.948zm17.933 0h9.963v1.992h1.993v9.963h-1.993v1.993h-9.963v-1.993h-1.992v-9.963h1.992v-1.992zm1.992 1.992v9.963h5.978v-9.963h-5.978zm13.948-1.992h9.963v1.992h1.993v9.963h-1.993v1.993h-9.963v-1.993h-1.992v-9.963h1.992v-1.992zm1.993 1.992v9.963h5.978v-9.963h-5.978zm13.948-1.992h7.971v1.992h1.992v1.993h-3.985v-1.993h-3.985v3.985h7.97v1.993h1.993v3.985h-1.993v1.993h-9.963v-1.993h-1.992v-1.993h3.985v1.993h5.978v-3.985h-7.971v-1.993h-1.992v-3.985h1.992v-1.992zm13.948 0h13.948v1.992h-9.963v3.985h7.97v1.993h-7.97v3.985h9.963v1.993h-13.948v-13.948zm33.859 0h3.985v5.978h3.985v-5.978h3.985v5.978h-1.992v1.992h-1.993v5.978h-3.985v-5.978h-1.992v-1.993h-1.993v-5.977zm15.955 0h9.963v1.992h1.993v9.963h-1.993v1.993h-9.963v-1.993h-1.992v-9.963h1.992v-1.992zm1.992 1.992v9.963h5.978v-9.963h-5.978zm11.956-1.992h3.985v11.955h5.978v-11.955h3.985v11.955h-1.993v1.993h-9.963v-1.993h-1.992v-11.955zm15.94 0h11.955v1.992h1.993v5.978h-3.985v1.992h1.992v1.993h1.993v1.993h-5.978v-1.993h-1.993v-1.993h-1.993v3.985h-3.985v-13.947zm3.985 1.992v5.978h3.985v-1.993h1.993v-3.985h-5.978zm27.896-1.992h11.955v1.992h1.993v5.978h-1.993v1.992h-7.97v3.985h-3.985v-13.947zm9.963 1.992h-5.978v5.978h5.978v-5.978zm5.978-1.992h3.985v11.955h9.963v1.993h-13.948v-13.948zm19.925 0h5.978v1.992h1.992v1.993h1.993v9.963h-3.985v-3.985h-5.978v3.985h-3.985v-9.963h1.992v-1.993h1.993v-1.992zm1.993 1.992v1.993h-1.993v3.985h5.978v-3.985h-1.993v-1.993h-1.992zm11.94-1.992h3.985v5.978h3.985v-5.978h3.985v5.978h-1.992v1.992h-1.993v5.978h-3.985v-5.978h-1.992v-1.993h-1.993v-5.977zm13.963 0h13.948v1.992h-9.963v3.985h7.97v1.993h-7.97v3.985h9.963v1.993h-13.948v-13.948zm15.941 0h11.955v1.992h1.993v5.978h-3.985v1.992h1.992v1.993h1.993v1.993h-5.978v-1.993h-1.993v-1.993h-1.993v3.985h-3.985v-13.947zm3.985 1.992v5.978h3.985v-1.993h1.993v-3.985h-5.978z" fill="#00ADD0"/></svg>