<?xml version="1.0" encoding="utf-8"?>
<!-- Generator: Adobe Illustrator 17.1.0, SVG Export Plug-In . SVG Version: 6.00 Build 0)  -->
<!DOCTYPE svg PUBLIC "-//W3C//DTD SVG 1.1//EN" "http://www.w3.org/Graphics/SVG/1.1/DTD/svg11.dtd">
<svg version="1.1" id="Layer_1" xmlns="http://www.w3.org/2000/svg" xmlns:xlink="http://www.w3.org/1999/xlink" x="0px" y="0px"
	 viewBox="0 0 318 50" enable-background="new 0 0 318 50" xml:space="preserve">
<g>
	<path fill="#00ADD0" d="M22,19.03h7.97v1.992h1.993v1.993h-3.985v-1.993h-3.985v1.993H22v5.978h1.993v1.993h3.985v-1.993h3.985
		v1.993h-1.993v1.993H22v-1.993h-1.993v-1.993h-1.992v-5.978h1.992v-1.993H22V19.03z"/>
	<path fill="#00ADD0" d="M33.956,19.03h3.985v5.978h5.978V19.03h3.985v13.948h-3.985V27h-5.978v5.978h-3.985V19.03z"/>
	<path fill="#00ADD0" d="M51.889,19.03h9.963v1.992h1.993v9.963h-1.993v1.993h-9.963v-1.993h-1.992v-9.963h1.992V19.03z
		 M53.881,21.022v9.963h5.978v-9.963H53.881z"/>
	<path fill="#00ADD0" d="M67.829,19.03h9.963v1.992h1.993v9.963h-1.993v1.993h-9.963v-1.993h-1.992v-9.963h1.992V19.03z
		 M69.822,21.022v9.963H75.8v-9.963H69.822z"/>
	<path fill="#00ADD0" d="M83.77,19.03h7.971v1.992h1.992v1.993h-3.985v-1.993h-3.985v3.985h7.97V27h1.993v3.985h-1.993v1.993H83.77
		v-1.993h-1.992v-1.993h3.985v1.993h5.978V27H83.77v-1.993h-1.992v-3.985h1.992V19.03z"/>
	<path fill="#00ADD0" d="M97.718,19.03h13.948v1.992h-9.963v3.985h7.97V27h-7.97v3.985h9.963v1.993H97.718V19.03z"/>
	<path fill="#00ADD0" d="M131.577,19.03h3.985v5.978h3.985V19.03h3.985v5.978h-1.992V27h-1.993v5.978h-3.985V27h-1.992v-1.993
		h-1.993V19.03z"/>
	<path fill="#00ADD0" d="M147.532,19.03h9.963v1.992h1.993v9.963h-1.993v1.993h-9.963v-1.993h-1.992v-9.963h1.992V19.03z
		 M149.524,21.022v9.963h5.978v-9.963H149.524z"/>
	<path fill="#00ADD0" d="M161.48,19.03h3.985v11.955h5.978V19.03h3.985v11.955h-1.993v1.993h-9.963v-1.993h-1.992V19.03z"/>
	<path fill="#00ADD0" d="M177.42,19.03h11.955v1.992h1.993V27h-3.985v1.992h1.992v1.993h1.993v1.993h-5.978v-1.993h-1.993v-1.993
		h-1.993v3.985h-3.985V19.03z M181.405,21.022V27h3.985v-1.993h1.993v-3.985H181.405z"/>
	<path fill="#00ADD0" d="M209.301,19.03h11.955v1.992h1.993V27h-1.993v1.992h-7.97v3.985h-3.985V19.03z M219.264,21.022h-5.978V27
		h5.978V21.022z"/>
	<path fill="#00ADD0" d="M225.242,19.03h3.985v11.955h9.963v1.993h-13.948V19.03z"/>
	<path fill="#00ADD0" d="M245.167,19.03h5.978v1.992h1.992v1.993h1.993v9.963h-3.985v-3.985h-5.978v3.985h-3.985v-9.963h1.992
		v-1.993h1.993V19.03z M247.16,21.022v1.993h-1.993V27h5.978v-3.985h-1.993v-1.993H247.16z"/>
	<path fill="#00ADD0" d="M259.1,19.03h3.985v5.978h3.985V19.03h3.985v5.978h-1.992V27h-1.993v5.978h-3.985V27h-1.992v-1.993H259.1
		V19.03z"/>
	<path fill="#00ADD0" d="M273.063,19.03h13.948v1.992h-9.963v3.985h7.97V27h-7.97v3.985h9.963v1.993h-13.948V19.03z"/>
	<path fill="#00ADD0" d="M289.004,19.03h11.955v1.992h1.993V27h-3.985v1.992h1.992v1.993h1.993v1.993h-5.978v-1.993h-1.993v-1.993
		h-1.993v3.985h-3.985V19.03z M292.989,21.022V27h3.985v-1.993h1.993v-3.985H292.989z"/>
</g>
<g>
</g>
<g>
</g>
<g>
</g>
<g>
</g>
<g>
</g>
<g>
</g>
</svg>
