<?xml version="1.0" encoding="utf-8"?>
<!-- Generator: Adobe Illustrator 17.1.0, SVG Export Plug-In . SVG Version: 6.00 Build 0)  -->
<!DOCTYPE svg PUBLIC "-//W3C//DTD SVG 1.1//EN" "http://www.w3.org/Graphics/SVG/1.1/DTD/svg11.dtd">
<svg version="1.1" id="Layer_1" xmlns="http://www.w3.org/2000/svg" xmlns:xlink="http://www.w3.org/1999/xlink" x="0px" y="0px"
	 viewBox="0 0 280 133" enable-background="new 0 0 280 133" xml:space="preserve">
<g>
	<g>
		<path fill="#FFFFFF" d="M180.777,61.089h1.402v-2.017h2.804v12.107h2.804v2.018h-8.412v-2.018h2.804v-8.071h-1.402V61.089z"/>
		<path fill="#FFFFFF" d="M193.493,59.072h4.206v8.071h1.402v2.018h-1.402v4.036h-2.804v-4.036h-5.607v-4.036h1.402v-2.018h1.402
			v-2.019h1.402V59.072z M193.493,63.108v2.018h-1.402v2.018h2.804v-4.036H193.493z"/>
	</g>
</g>
<g>
	<g>
		<path fill="#FFFFFF" d="M72.463,54.564h4.939v18.555h9.149v4.737H72.463V54.564z"/>
		<path fill="#FFFFFF" d="M89.464,54.564h15.229v4.737h-10.29v4.343h9.72v4.737h-9.72v4.737h10.859v4.737H89.464V54.564z"/>
		<path fill="#FFFFFF" d="M107.003,54.564h5.635l5.541,15.265h0.063l5.636-15.265h5.287l-9.245,23.292h-3.958L107.003,54.564z"/>
		<path fill="#FFFFFF" d="M131.697,54.564h15.229v4.737h-10.29v4.343h9.72v4.737h-9.72v4.737h10.859v4.737h-15.798V54.564z"/>
		<path fill="#FFFFFF" d="M151.642,54.564h4.939v18.555h9.149v4.737h-14.088V54.564z"/>
	</g>
</g>
<polygon fill="#FFFFFF" points="177.79,64.804 177.79,66.859 176.313,66.859 176.313,67.949 174.834,67.949 174.834,69.164 
	173.358,69.164 173.358,70.667 171.881,70.667 171.881,60.996 173.358,60.996 173.358,62.5 174.834,62.5 174.834,63.714 
	176.313,63.714 176.313,64.804 "/>
<g>
</g>
<g>
</g>
<g>
</g>
<g>
</g>
<g>
</g>
<g>
</g>
</svg>
