<svg xmlns="http://www.w3.org/2000/svg" viewBox="0 0 280 133" enable-background="new 0 0 280 133"><path d="M180.777 61.089h1.402v-2.017h2.804v12.107h2.804v2.018h-8.412v-2.018h2.804v-8.071h-1.402v-2.019zm12.716-2.017h4.206v8.071h1.402v2.018h-1.402v4.036h-2.804v-4.036h-5.607v-4.036h1.402v-2.018h1.402v-2.019h1.402v-2.016zm0 4.036v2.018h-1.402v2.018h2.804v-4.036h-1.402z" fill="#fff"/><path d="M72.463 54.564h4.939v18.555h9.149v4.737h-14.088v-23.292zm17.001 0h15.229v4.737h-10.29v4.343h9.72v4.737h-9.72v4.737h10.859v4.737h-15.798v-23.291zm17.539 0h5.635l5.541 15.265h.063l5.636-15.265h5.287l-9.245 23.292h-3.958l-8.959-23.292zm24.694 0h15.229v4.737h-10.29v4.343h9.72v4.737h-9.72v4.737h10.859v4.737h-15.798v-23.291zm19.945 0h4.939v18.555h9.149v4.737h-14.088v-23.292z" fill="#fff"/><polygon fill="#fff" points="177.79,64.804 177.79,66.859 176.313,66.859 176.313,67.949 174.834,67.949 174.834,69.164 173.358,69.164 173.358,70.667 171.881,70.667 171.881,60.996 173.358,60.996 173.358,62.5 174.834,62.5 174.834,63.714 176.313,63.714 176.313,64.804"/></svg>