<svg xmlns="http://www.w3.org/2000/svg" width="908" height="612" viewBox="-23.5 0 908 612" enable-background="new -23.5 0 908 612"><rect x="4" y="144.838" fill="#FDD106" width="855.604" height="292.257"/><path d="M1407.998 871.548h3.966v-5.706h7.931v34.246h7.932v5.708h-23.794v-5.708h7.931v-22.83h-3.965v-5.71h-.001zm35.968-5.706h11.897v22.83h3.965v5.708h-3.965v11.416h-7.932v-11.416h-15.859v-11.416h3.965v-5.708h3.966v-5.711h3.966v-5.703h-.003zm0 11.416v5.709h-3.966v5.708h7.932v-11.417h-3.966z" fill="#fff"/><path d="M1101.624 853.091h13.97v52.484h25.879v13.398h-39.849v-65.882zm48.089 0h43.076v13.399h-29.104v12.284h27.494v13.398h-27.494v13.399h30.716v13.398h-44.688v-65.878zm49.612 0h15.939l15.673 43.179h.176l15.941-43.179h14.955l-26.147 65.883h-11.195l-25.342-65.883zm69.847 0h43.076v13.399h-29.104v12.284h27.494v13.398h-27.494v13.399h30.716v13.398h-44.688v-65.878zm56.418 0h13.968v52.484h25.879v13.398h-39.85v-65.883h.003z" fill="#fff"/><polygon fill="#fff" points="88.646,233.492 88.646,248.026 78.2,248.026 78.2,255.728 67.737,255.728 67.737,264.324 57.303,264.324 57.303,274.954 46.859,274.954 46.859,206.562 57.303,206.562 57.303,217.203 67.737,217.203 67.737,225.785 78.2,225.785 78.2,233.492"/><text transform="translate(119.135 274.953)" fill="#fff" font-family="'PressStart2P'" font-size="81.177">RESTART</text><text transform="translate(119.135 392.777)" fill="#fff" font-family="'PressStart2P'" font-size="81.177">FROM</text><text transform="translate(498.135 392.777)" fill="#fff" font-family="'PressStart2P'" font-size="81.177">HOME</text></svg>