<?xml version="1.0" encoding="utf-8"?>
<!-- Generator: Adobe Illustrator 15.1.0, SVG Export Plug-In . SVG Version: 6.00 Build 0)  -->
<!DOCTYPE svg PUBLIC "-//W3C//DTD SVG 1.1//EN" "http://www.w3.org/Graphics/SVG/1.1/DTD/svg11.dtd">
<svg version="1.1" xmlns="http://www.w3.org/2000/svg" xmlns:xlink="http://www.w3.org/1999/xlink" x="0px" y="0px" width="908px"
	 height="612px" viewBox="-23.5 0 908 612" enable-background="new -23.5 0 908 612" xml:space="preserve">
<g id="Layer_2">
</g>
<g id="Layer_1">
	
		<rect x="4" y="144.838" fill="none" stroke="#FDD106" stroke-width="9.9063" stroke-miterlimit="10" width="855.604" height="292.257"/>
	<g>
		<g>
			<path fill="#FFFFFF" d="M1407.998,871.548h3.966v-5.706h7.931v34.246h7.932v5.708h-23.794v-5.708h7.931v-22.83h-3.965V871.548
				L1407.998,871.548z"/>
			<path fill="#FFFFFF" d="M1443.966,865.842h11.897v22.83h3.965v5.708h-3.965v11.416h-7.932V894.38h-15.859v-11.416h3.965v-5.708
				h3.966v-5.711h3.966v-5.703H1443.966z M1443.966,877.258v5.709H1440v5.708h7.932v-11.417H1443.966z"/>
		</g>
	</g>
	<g>
		<g>
			<path fill="#FFFFFF" d="M1101.624,853.091h13.97v52.484h25.879v13.398h-39.849V853.091L1101.624,853.091z"/>
			<path fill="#FFFFFF" d="M1149.713,853.091h43.076v13.399h-29.104v12.284h27.494v13.398h-27.494v13.399h30.716v13.398h-44.688
				V853.091z"/>
			<path fill="#FFFFFF" d="M1199.325,853.091h15.939l15.673,43.179h0.176l15.941-43.179h14.955l-26.147,65.883h-11.195
				L1199.325,853.091z"/>
			<path fill="#FFFFFF" d="M1269.172,853.091h43.076v13.399h-29.104v12.284h27.494v13.398h-27.494v13.399h30.716v13.398h-44.688
				V853.091z"/>
			<path fill="#FFFFFF" d="M1325.59,853.091h13.968v52.484h25.879v13.398h-39.85v-65.883H1325.59z"/>
		</g>
	</g>
	<g>
		<polygon fill="#FFFFFF" points="88.646,233.492 88.646,248.026 78.2,248.026 78.2,255.728 67.737,255.728 67.737,264.324 
			57.303,264.324 57.303,274.954 46.859,274.954 46.859,206.562 57.303,206.562 57.303,217.203 67.737,217.203 67.737,225.785 
			78.2,225.785 78.2,233.492 		"/>
	</g>
	<text transform="matrix(1 0 0 1 119.1348 274.9531)" fill="#FFFFFF" font-family="'PressStart2P'" font-size="81.1765">RESTART</text>
	<text transform="matrix(1 0 0 1 119.1348 392.7773)" fill="#FFFFFF" font-family="'PressStart2P'" font-size="81.1765">FROM</text>
	<text transform="matrix(1 0 0 1 498.1348 392.7773)" fill="#FFFFFF" font-family="'PressStart2P'" font-size="81.1765">HOME</text>
</g>
</svg>
