<svg xmlns="http://www.w3.org/2000/svg" viewBox="0 0 280 133" enable-background="new 0 0 280 133"><rect x="15.165" y="14.473" fill="#FDD106" width="249.671" height="103.323"/><path d="M497.777 266.441h1.402v-2.017h2.804v12.107h2.804v2.018h-8.412v-2.018h2.804v-8.071h-1.402v-2.019zm12.716-2.017h4.206v8.071h1.402v2.018h-1.402v4.036h-2.804v-4.036h-5.607v-4.036h1.402v-2.018h1.402v-2.019h1.402v-2.016zm0 4.036v2.018h-1.402v2.018h2.804v-4.036h-1.402z" fill="#fff"/><path d="M389.463 259.916h4.939v18.555h9.149v4.737h-14.088v-23.292zm17.001 0h15.229v4.737h-10.289v4.343h9.72v4.737h-9.72v4.737h10.859v4.737h-15.799v-23.291zm17.54 0h5.635l5.541 15.265h.062l5.636-15.265h5.287l-9.244 23.292h-3.958l-8.959-23.292zm24.693 0h15.229v4.737h-10.289v4.343h9.72v4.737h-9.72v4.737h10.859v4.737h-15.799v-23.291zm19.946 0h4.938v18.555h9.149v4.737h-14.088v-23.292z" fill="#fff"/><g fill="#fff"><polygon points="65.693,65.045 65.693,70.183 62,70.183 62,72.906 58.301,72.906 58.301,75.945 54.612,75.945 54.612,79.703 50.92,79.703 50.92,55.524 54.612,55.524 54.612,59.286 58.301,59.286 58.301,62.32 62,62.32 62,65.045"/><path d="M81.036 50.432h26.918v4.486h4.486v13.459h-4.486v4.487h-17.946v8.973h-8.973v-31.405zm22.432 4.487h-13.46v13.459h13.459v-13.459zm13.459-4.487h8.973v26.918h22.432v4.486h-31.405v-31.404zm44.864 0h13.459v4.486h4.486v4.486h4.486v22.432h-8.973v-8.973h-13.459v8.973h-8.973v-22.431h4.486v-4.486h4.486v-4.487zm4.486 4.487v4.486h-4.487v8.973h13.459v-8.973h-4.486v-4.486h-4.486zm26.885-4.487h8.973v13.459h8.973v-13.459h8.973v13.459h-4.486v4.486h-4.486v13.459h-8.973v-13.458h-4.487v-4.486h-4.486v-13.46z"/></g></svg>