<?xml version="1.0" encoding="utf-8"?>
<!-- Generator: Adobe Illustrator 17.1.0, SVG Export Plug-In . SVG Version: 6.00 Build 0)  -->
<!DOCTYPE svg PUBLIC "-//W3C//DTD SVG 1.1//EN" "http://www.w3.org/Graphics/SVG/1.1/DTD/svg11.dtd">
<svg version="1.1" id="Layer_1" xmlns="http://www.w3.org/2000/svg" xmlns:xlink="http://www.w3.org/1999/xlink" x="0px" y="0px"
	 viewBox="0 0 280 133" enable-background="new 0 0 280 133" xml:space="preserve">
<rect x="15.165" y="14.473" fill="none" stroke="#FDD106" stroke-width="9" stroke-miterlimit="10" width="249.671" height="103.323"/>
<g>
	<g>
		<path fill="#FFFFFF" d="M497.777,266.441h1.402v-2.017h2.804v12.107h2.804v2.018h-8.412v-2.018h2.804v-8.071h-1.402V266.441z"/>
		<path fill="#FFFFFF" d="M510.493,264.424h4.206v8.071h1.402v2.018h-1.402v4.036h-2.804v-4.036h-5.607v-4.036h1.402v-2.018h1.402
			v-2.019h1.402V264.424z M510.493,268.46v2.018h-1.402v2.018h2.804v-4.036H510.493z"/>
	</g>
</g>
<g>
	<g>
		<path fill="#FFFFFF" d="M389.463,259.916h4.939v18.555h9.149v4.737h-14.088V259.916z"/>
		<path fill="#FFFFFF" d="M406.464,259.916h15.229v4.737h-10.289v4.343h9.72v4.737h-9.72v4.737h10.859v4.737h-15.799V259.916z"/>
		<path fill="#FFFFFF" d="M424.004,259.916h5.635l5.541,15.265h0.062l5.636-15.265h5.287l-9.244,23.292h-3.958L424.004,259.916z"/>
		<path fill="#FFFFFF" d="M448.697,259.916h15.229v4.737h-10.289v4.343h9.72v4.737h-9.72v4.737h10.859v4.737h-15.799V259.916z"/>
		<path fill="#FFFFFF" d="M468.643,259.916h4.938v18.555h9.149v4.737h-14.088V259.916z"/>
	</g>
</g>
<g>
	<polygon fill="#FFFFFF" points="65.693,65.045 65.693,70.183 62,70.183 62,72.906 58.301,72.906 58.301,75.945 54.612,75.945 
		54.612,79.703 50.92,79.703 50.92,55.524 54.612,55.524 54.612,59.286 58.301,59.286 58.301,62.32 62,62.32 62,65.045 	"/>
	<g>
		<path fill="#FFFFFF" d="M81.036,50.432h26.918v4.486h4.486v13.459h-4.486v4.487H90.008v8.973h-8.973V50.432z M103.468,54.919
			H90.008v13.459h13.459V54.919z"/>
		<path fill="#FFFFFF" d="M116.927,50.432h8.973v26.918h22.432v4.486h-31.405V50.432z"/>
		<path fill="#FFFFFF" d="M161.791,50.432h13.459v4.486h4.486v4.486h4.486v22.432h-8.973v-8.973h-13.459v8.973h-8.973V59.405h4.486
			v-4.486h4.486V50.432z M166.277,54.919v4.486h-4.487v8.973h13.459v-8.973h-4.486v-4.486H166.277z"/>
		<path fill="#FFFFFF" d="M193.162,50.432h8.973v13.459h8.973V50.432h8.973v13.459h-4.486v4.486h-4.486v13.459h-8.973V68.378h-4.487
			v-4.486h-4.486V50.432z"/>
	</g>
</g>
<g>
</g>
<g>
</g>
<g>
</g>
<g>
</g>
<g>
</g>
<g>
</g>
</svg>
